%TF.GenerationSoftware,KiCad,Pcbnew,5.1.8*%
%TF.CreationDate,2020-12-01T22:53:24+08:00*%
%TF.ProjectId,msisdr,6d736973-6472-42e6-9b69-6361645f7063,rev?*%
%TF.SameCoordinates,Original*%
%TF.FileFunction,Soldermask,Bot*%
%TF.FilePolarity,Negative*%
%FSLAX46Y46*%
G04 Gerber Fmt 4.6, Leading zero omitted, Abs format (unit mm)*
G04 Created by KiCad (PCBNEW 5.1.8) date 2020-12-01 22:53:24*
%MOMM*%
%LPD*%
G01*
G04 APERTURE LIST*
%ADD10C,4.464000*%
%ADD11C,2.000000*%
%ADD12C,1.300000*%
%ADD13C,2.700000*%
%ADD14C,1.800000*%
%ADD15O,2.000000X2.000000*%
G04 APERTURE END LIST*
%TO.C,J12*%
G36*
G01*
X139360000Y-89070000D02*
X139360000Y-91270000D01*
G75*
G02*
X139160000Y-91470000I-200000J0D01*
G01*
X138110000Y-91470000D01*
G75*
G02*
X137910000Y-91270000I0J200000D01*
G01*
X137910000Y-89070000D01*
G75*
G02*
X138110000Y-88870000I200000J0D01*
G01*
X139160000Y-88870000D01*
G75*
G02*
X139360000Y-89070000I0J-200000D01*
G01*
G37*
G36*
G01*
X136410000Y-89070000D02*
X136410000Y-91270000D01*
G75*
G02*
X136210000Y-91470000I-200000J0D01*
G01*
X135160000Y-91470000D01*
G75*
G02*
X134960000Y-91270000I0J200000D01*
G01*
X134960000Y-89070000D01*
G75*
G02*
X135160000Y-88870000I200000J0D01*
G01*
X136210000Y-88870000D01*
G75*
G02*
X136410000Y-89070000I0J-200000D01*
G01*
G37*
G36*
G01*
X137860000Y-88170000D02*
X137860000Y-89170000D01*
G75*
G02*
X137660000Y-89370000I-200000J0D01*
G01*
X136660000Y-89370000D01*
G75*
G02*
X136460000Y-89170000I0J200000D01*
G01*
X136460000Y-88170000D01*
G75*
G02*
X136660000Y-87970000I200000J0D01*
G01*
X137660000Y-87970000D01*
G75*
G02*
X137860000Y-88170000I0J-200000D01*
G01*
G37*
G36*
G01*
X137860000Y-91170000D02*
X137860000Y-92170000D01*
G75*
G02*
X137660000Y-92370000I-200000J0D01*
G01*
X136660000Y-92370000D01*
G75*
G02*
X136460000Y-92170000I0J200000D01*
G01*
X136460000Y-91170000D01*
G75*
G02*
X136660000Y-90970000I200000J0D01*
G01*
X137660000Y-90970000D01*
G75*
G02*
X137860000Y-91170000I0J-200000D01*
G01*
G37*
%TD*%
D10*
%TO.C,REF\u002A\u002A*%
X154500000Y-124000000D03*
%TD*%
%TO.C,REF\u002A\u002A*%
X118000000Y-124000000D03*
%TD*%
%TO.C,REF\u002A\u002A*%
X154500000Y-50000000D03*
%TD*%
%TO.C,REF\u002A\u002A*%
X118000000Y-50000000D03*
%TD*%
%TO.C,C35*%
G36*
G01*
X141499000Y-65786000D02*
X141499000Y-64186000D01*
G75*
G02*
X141699000Y-63986000I200000J0D01*
G01*
X143299000Y-63986000D01*
G75*
G02*
X143499000Y-64186000I0J-200000D01*
G01*
X143499000Y-65786000D01*
G75*
G02*
X143299000Y-65986000I-200000J0D01*
G01*
X141699000Y-65986000D01*
G75*
G02*
X141499000Y-65786000I0J200000D01*
G01*
G37*
D11*
X144999000Y-64986000D03*
%TD*%
%TO.C,J6*%
G36*
G01*
X131829000Y-134126000D02*
X129829000Y-134126000D01*
G75*
G02*
X129779000Y-134076000I0J50000D01*
G01*
X129779000Y-130076000D01*
G75*
G02*
X129829000Y-130026000I50000J0D01*
G01*
X131829000Y-130026000D01*
G75*
G02*
X131879000Y-130076000I0J-50000D01*
G01*
X131879000Y-134076000D01*
G75*
G02*
X131829000Y-134126000I-50000J0D01*
G01*
G37*
G36*
G01*
X126829000Y-134126000D02*
X124829000Y-134126000D01*
G75*
G02*
X124779000Y-134076000I0J50000D01*
G01*
X124779000Y-130076000D01*
G75*
G02*
X124829000Y-130026000I50000J0D01*
G01*
X126829000Y-130026000D01*
G75*
G02*
X126879000Y-130076000I0J-50000D01*
G01*
X126879000Y-134076000D01*
G75*
G02*
X126829000Y-134126000I-50000J0D01*
G01*
G37*
%TD*%
%TO.C,J7*%
G36*
G01*
X148300320Y-134144600D02*
X146300320Y-134144600D01*
G75*
G02*
X146250320Y-134094600I0J50000D01*
G01*
X146250320Y-130094600D01*
G75*
G02*
X146300320Y-130044600I50000J0D01*
G01*
X148300320Y-130044600D01*
G75*
G02*
X148350320Y-130094600I0J-50000D01*
G01*
X148350320Y-134094600D01*
G75*
G02*
X148300320Y-134144600I-50000J0D01*
G01*
G37*
G36*
G01*
X143300320Y-134144600D02*
X141300320Y-134144600D01*
G75*
G02*
X141250320Y-134094600I0J50000D01*
G01*
X141250320Y-130094600D01*
G75*
G02*
X141300320Y-130044600I50000J0D01*
G01*
X143300320Y-130044600D01*
G75*
G02*
X143350320Y-130094600I0J-50000D01*
G01*
X143350320Y-134094600D01*
G75*
G02*
X143300320Y-134144600I-50000J0D01*
G01*
G37*
%TD*%
%TO.C,J8*%
G36*
G01*
X123705500Y-134119200D02*
X121705500Y-134119200D01*
G75*
G02*
X121655500Y-134069200I0J50000D01*
G01*
X121655500Y-130069200D01*
G75*
G02*
X121705500Y-130019200I50000J0D01*
G01*
X123705500Y-130019200D01*
G75*
G02*
X123755500Y-130069200I0J-50000D01*
G01*
X123755500Y-134069200D01*
G75*
G02*
X123705500Y-134119200I-50000J0D01*
G01*
G37*
G36*
G01*
X118705500Y-134119200D02*
X116705500Y-134119200D01*
G75*
G02*
X116655500Y-134069200I0J50000D01*
G01*
X116655500Y-130069200D01*
G75*
G02*
X116705500Y-130019200I50000J0D01*
G01*
X118705500Y-130019200D01*
G75*
G02*
X118755500Y-130069200I0J-50000D01*
G01*
X118755500Y-134069200D01*
G75*
G02*
X118705500Y-134119200I-50000J0D01*
G01*
G37*
%TD*%
%TO.C,J9*%
G36*
G01*
X140202800Y-134119200D02*
X138202800Y-134119200D01*
G75*
G02*
X138152800Y-134069200I0J50000D01*
G01*
X138152800Y-130069200D01*
G75*
G02*
X138202800Y-130019200I50000J0D01*
G01*
X140202800Y-130019200D01*
G75*
G02*
X140252800Y-130069200I0J-50000D01*
G01*
X140252800Y-134069200D01*
G75*
G02*
X140202800Y-134119200I-50000J0D01*
G01*
G37*
G36*
G01*
X135202800Y-134119200D02*
X133202800Y-134119200D01*
G75*
G02*
X133152800Y-134069200I0J50000D01*
G01*
X133152800Y-130069200D01*
G75*
G02*
X133202800Y-130019200I50000J0D01*
G01*
X135202800Y-130019200D01*
G75*
G02*
X135252800Y-130069200I0J-50000D01*
G01*
X135252800Y-134069200D01*
G75*
G02*
X135202800Y-134119200I-50000J0D01*
G01*
G37*
%TD*%
%TO.C,J10*%
G36*
G01*
X156039700Y-134172540D02*
X154039700Y-134172540D01*
G75*
G02*
X153989700Y-134122540I0J50000D01*
G01*
X153989700Y-130122540D01*
G75*
G02*
X154039700Y-130072540I50000J0D01*
G01*
X156039700Y-130072540D01*
G75*
G02*
X156089700Y-130122540I0J-50000D01*
G01*
X156089700Y-134122540D01*
G75*
G02*
X156039700Y-134172540I-50000J0D01*
G01*
G37*
G36*
G01*
X151039700Y-134172540D02*
X149039700Y-134172540D01*
G75*
G02*
X148989700Y-134122540I0J50000D01*
G01*
X148989700Y-130122540D01*
G75*
G02*
X149039700Y-130072540I50000J0D01*
G01*
X151039700Y-130072540D01*
G75*
G02*
X151089700Y-130122540I0J-50000D01*
G01*
X151089700Y-134122540D01*
G75*
G02*
X151039700Y-134172540I-50000J0D01*
G01*
G37*
%TD*%
D12*
%TO.C,J11*%
X138219000Y-48396000D03*
X133819000Y-48396000D03*
%TD*%
D13*
%TO.C,Y1*%
X125809000Y-70236000D03*
X125809000Y-65336000D03*
%TD*%
D14*
%TO.C,J1*%
X118949000Y-83556000D03*
%TD*%
%TO.C,J2*%
X118929000Y-86156000D03*
%TD*%
%TO.C,J3*%
X118869000Y-88746000D03*
%TD*%
%TO.C,J4*%
X118899000Y-91336000D03*
%TD*%
%TO.C,J5*%
X118979000Y-93966000D03*
%TD*%
%TO.C,D5*%
G36*
G01*
X125290000Y-54940000D02*
X125290000Y-56540000D01*
G75*
G02*
X125090000Y-56740000I-200000J0D01*
G01*
X123490000Y-56740000D01*
G75*
G02*
X123290000Y-56540000I0J200000D01*
G01*
X123290000Y-54940000D01*
G75*
G02*
X123490000Y-54740000I200000J0D01*
G01*
X125090000Y-54740000D01*
G75*
G02*
X125290000Y-54940000I0J-200000D01*
G01*
G37*
D15*
X121750000Y-55740000D03*
%TD*%
M02*
