%TF.GenerationSoftware,KiCad,Pcbnew,5.1.8*%
%TF.CreationDate,2020-12-01T22:53:24+08:00*%
%TF.ProjectId,msisdr,6d736973-6472-42e6-9b69-6361645f7063,rev?*%
%TF.SameCoordinates,Original*%
%TF.FileFunction,Soldermask,Top*%
%TF.FilePolarity,Negative*%
%FSLAX46Y46*%
G04 Gerber Fmt 4.6, Leading zero omitted, Abs format (unit mm)*
G04 Created by KiCad (PCBNEW 5.1.8) date 2020-12-01 22:53:24*
%MOMM*%
%LPD*%
G01*
G04 APERTURE LIST*
%ADD10C,4.464000*%
%ADD11C,2.000000*%
%ADD12C,1.300000*%
%ADD13C,2.700000*%
%ADD14C,1.800000*%
%ADD15O,2.000000X2.000000*%
G04 APERTURE END LIST*
D10*
%TO.C,REF\u002A\u002A*%
X154500000Y-124000000D03*
%TD*%
%TO.C,REF\u002A\u002A*%
X118000000Y-124000000D03*
%TD*%
%TO.C,REF\u002A\u002A*%
X154500000Y-50000000D03*
%TD*%
%TO.C,REF\u002A\u002A*%
X118000000Y-50000000D03*
%TD*%
%TO.C,C1*%
G36*
G01*
X137849000Y-82861000D02*
X137849000Y-82111000D01*
G75*
G02*
X138049000Y-81911000I200000J0D01*
G01*
X138849000Y-81911000D01*
G75*
G02*
X139049000Y-82111000I0J-200000D01*
G01*
X139049000Y-82861000D01*
G75*
G02*
X138849000Y-83061000I-200000J0D01*
G01*
X138049000Y-83061000D01*
G75*
G02*
X137849000Y-82861000I0J200000D01*
G01*
G37*
G36*
G01*
X136349000Y-82861000D02*
X136349000Y-82111000D01*
G75*
G02*
X136549000Y-81911000I200000J0D01*
G01*
X137349000Y-81911000D01*
G75*
G02*
X137549000Y-82111000I0J-200000D01*
G01*
X137549000Y-82861000D01*
G75*
G02*
X137349000Y-83061000I-200000J0D01*
G01*
X136549000Y-83061000D01*
G75*
G02*
X136349000Y-82861000I0J200000D01*
G01*
G37*
%TD*%
%TO.C,C2*%
G36*
G01*
X147629000Y-81041000D02*
X147629000Y-79791000D01*
G75*
G02*
X147829000Y-79591000I200000J0D01*
G01*
X148829000Y-79591000D01*
G75*
G02*
X149029000Y-79791000I0J-200000D01*
G01*
X149029000Y-81041000D01*
G75*
G02*
X148829000Y-81241000I-200000J0D01*
G01*
X147829000Y-81241000D01*
G75*
G02*
X147629000Y-81041000I0J200000D01*
G01*
G37*
G36*
G01*
X149629000Y-81041000D02*
X149629000Y-79791000D01*
G75*
G02*
X149829000Y-79591000I200000J0D01*
G01*
X150829000Y-79591000D01*
G75*
G02*
X151029000Y-79791000I0J-200000D01*
G01*
X151029000Y-81041000D01*
G75*
G02*
X150829000Y-81241000I-200000J0D01*
G01*
X149829000Y-81241000D01*
G75*
G02*
X149629000Y-81041000I0J200000D01*
G01*
G37*
%TD*%
%TO.C,C3*%
G36*
G01*
X141879000Y-71281000D02*
X141879000Y-70031000D01*
G75*
G02*
X142079000Y-69831000I200000J0D01*
G01*
X143079000Y-69831000D01*
G75*
G02*
X143279000Y-70031000I0J-200000D01*
G01*
X143279000Y-71281000D01*
G75*
G02*
X143079000Y-71481000I-200000J0D01*
G01*
X142079000Y-71481000D01*
G75*
G02*
X141879000Y-71281000I0J200000D01*
G01*
G37*
G36*
G01*
X143879000Y-71281000D02*
X143879000Y-70031000D01*
G75*
G02*
X144079000Y-69831000I200000J0D01*
G01*
X145079000Y-69831000D01*
G75*
G02*
X145279000Y-70031000I0J-200000D01*
G01*
X145279000Y-71281000D01*
G75*
G02*
X145079000Y-71481000I-200000J0D01*
G01*
X144079000Y-71481000D01*
G75*
G02*
X143879000Y-71281000I0J200000D01*
G01*
G37*
%TD*%
%TO.C,C4*%
G36*
G01*
X147849000Y-84731000D02*
X147849000Y-83481000D01*
G75*
G02*
X148049000Y-83281000I200000J0D01*
G01*
X149049000Y-83281000D01*
G75*
G02*
X149249000Y-83481000I0J-200000D01*
G01*
X149249000Y-84731000D01*
G75*
G02*
X149049000Y-84931000I-200000J0D01*
G01*
X148049000Y-84931000D01*
G75*
G02*
X147849000Y-84731000I0J200000D01*
G01*
G37*
G36*
G01*
X149849000Y-84731000D02*
X149849000Y-83481000D01*
G75*
G02*
X150049000Y-83281000I200000J0D01*
G01*
X151049000Y-83281000D01*
G75*
G02*
X151249000Y-83481000I0J-200000D01*
G01*
X151249000Y-84731000D01*
G75*
G02*
X151049000Y-84931000I-200000J0D01*
G01*
X150049000Y-84931000D01*
G75*
G02*
X149849000Y-84731000I0J200000D01*
G01*
G37*
%TD*%
%TO.C,C5*%
G36*
G01*
X121614000Y-81726000D02*
X120364000Y-81726000D01*
G75*
G02*
X120164000Y-81526000I0J200000D01*
G01*
X120164000Y-80526000D01*
G75*
G02*
X120364000Y-80326000I200000J0D01*
G01*
X121614000Y-80326000D01*
G75*
G02*
X121814000Y-80526000I0J-200000D01*
G01*
X121814000Y-81526000D01*
G75*
G02*
X121614000Y-81726000I-200000J0D01*
G01*
G37*
G36*
G01*
X121614000Y-79726000D02*
X120364000Y-79726000D01*
G75*
G02*
X120164000Y-79526000I0J200000D01*
G01*
X120164000Y-78526000D01*
G75*
G02*
X120364000Y-78326000I200000J0D01*
G01*
X121614000Y-78326000D01*
G75*
G02*
X121814000Y-78526000I0J-200000D01*
G01*
X121814000Y-79526000D01*
G75*
G02*
X121614000Y-79726000I-200000J0D01*
G01*
G37*
%TD*%
%TO.C,C6*%
G36*
G01*
X145319000Y-73301000D02*
X145319000Y-74551000D01*
G75*
G02*
X145119000Y-74751000I-200000J0D01*
G01*
X144119000Y-74751000D01*
G75*
G02*
X143919000Y-74551000I0J200000D01*
G01*
X143919000Y-73301000D01*
G75*
G02*
X144119000Y-73101000I200000J0D01*
G01*
X145119000Y-73101000D01*
G75*
G02*
X145319000Y-73301000I0J-200000D01*
G01*
G37*
G36*
G01*
X143319000Y-73301000D02*
X143319000Y-74551000D01*
G75*
G02*
X143119000Y-74751000I-200000J0D01*
G01*
X142119000Y-74751000D01*
G75*
G02*
X141919000Y-74551000I0J200000D01*
G01*
X141919000Y-73301000D01*
G75*
G02*
X142119000Y-73101000I200000J0D01*
G01*
X143119000Y-73101000D01*
G75*
G02*
X143319000Y-73301000I0J-200000D01*
G01*
G37*
%TD*%
%TO.C,C7*%
G36*
G01*
X120354000Y-73586000D02*
X121604000Y-73586000D01*
G75*
G02*
X121804000Y-73786000I0J-200000D01*
G01*
X121804000Y-74786000D01*
G75*
G02*
X121604000Y-74986000I-200000J0D01*
G01*
X120354000Y-74986000D01*
G75*
G02*
X120154000Y-74786000I0J200000D01*
G01*
X120154000Y-73786000D01*
G75*
G02*
X120354000Y-73586000I200000J0D01*
G01*
G37*
G36*
G01*
X120354000Y-75586000D02*
X121604000Y-75586000D01*
G75*
G02*
X121804000Y-75786000I0J-200000D01*
G01*
X121804000Y-76786000D01*
G75*
G02*
X121604000Y-76986000I-200000J0D01*
G01*
X120354000Y-76986000D01*
G75*
G02*
X120154000Y-76786000I0J200000D01*
G01*
X120154000Y-75786000D01*
G75*
G02*
X120354000Y-75586000I200000J0D01*
G01*
G37*
%TD*%
%TO.C,C8*%
G36*
G01*
X141839000Y-77221000D02*
X141839000Y-75971000D01*
G75*
G02*
X142039000Y-75771000I200000J0D01*
G01*
X143039000Y-75771000D01*
G75*
G02*
X143239000Y-75971000I0J-200000D01*
G01*
X143239000Y-77221000D01*
G75*
G02*
X143039000Y-77421000I-200000J0D01*
G01*
X142039000Y-77421000D01*
G75*
G02*
X141839000Y-77221000I0J200000D01*
G01*
G37*
G36*
G01*
X143839000Y-77221000D02*
X143839000Y-75971000D01*
G75*
G02*
X144039000Y-75771000I200000J0D01*
G01*
X145039000Y-75771000D01*
G75*
G02*
X145239000Y-75971000I0J-200000D01*
G01*
X145239000Y-77221000D01*
G75*
G02*
X145039000Y-77421000I-200000J0D01*
G01*
X144039000Y-77421000D01*
G75*
G02*
X143839000Y-77221000I0J200000D01*
G01*
G37*
%TD*%
%TO.C,C9*%
G36*
G01*
X119099000Y-70601000D02*
X119099000Y-69851000D01*
G75*
G02*
X119299000Y-69651000I200000J0D01*
G01*
X120099000Y-69651000D01*
G75*
G02*
X120299000Y-69851000I0J-200000D01*
G01*
X120299000Y-70601000D01*
G75*
G02*
X120099000Y-70801000I-200000J0D01*
G01*
X119299000Y-70801000D01*
G75*
G02*
X119099000Y-70601000I0J200000D01*
G01*
G37*
G36*
G01*
X117599000Y-70601000D02*
X117599000Y-69851000D01*
G75*
G02*
X117799000Y-69651000I200000J0D01*
G01*
X118599000Y-69651000D01*
G75*
G02*
X118799000Y-69851000I0J-200000D01*
G01*
X118799000Y-70601000D01*
G75*
G02*
X118599000Y-70801000I-200000J0D01*
G01*
X117799000Y-70801000D01*
G75*
G02*
X117599000Y-70601000I0J200000D01*
G01*
G37*
%TD*%
%TO.C,C10*%
G36*
G01*
X119049000Y-64701000D02*
X119049000Y-63951000D01*
G75*
G02*
X119249000Y-63751000I200000J0D01*
G01*
X120049000Y-63751000D01*
G75*
G02*
X120249000Y-63951000I0J-200000D01*
G01*
X120249000Y-64701000D01*
G75*
G02*
X120049000Y-64901000I-200000J0D01*
G01*
X119249000Y-64901000D01*
G75*
G02*
X119049000Y-64701000I0J200000D01*
G01*
G37*
G36*
G01*
X117549000Y-64701000D02*
X117549000Y-63951000D01*
G75*
G02*
X117749000Y-63751000I200000J0D01*
G01*
X118549000Y-63751000D01*
G75*
G02*
X118749000Y-63951000I0J-200000D01*
G01*
X118749000Y-64701000D01*
G75*
G02*
X118549000Y-64901000I-200000J0D01*
G01*
X117749000Y-64901000D01*
G75*
G02*
X117549000Y-64701000I0J200000D01*
G01*
G37*
%TD*%
%TO.C,C11*%
G36*
G01*
X128081120Y-107952400D02*
X127331120Y-107952400D01*
G75*
G02*
X127131120Y-107752400I0J200000D01*
G01*
X127131120Y-106952400D01*
G75*
G02*
X127331120Y-106752400I200000J0D01*
G01*
X128081120Y-106752400D01*
G75*
G02*
X128281120Y-106952400I0J-200000D01*
G01*
X128281120Y-107752400D01*
G75*
G02*
X128081120Y-107952400I-200000J0D01*
G01*
G37*
G36*
G01*
X128081120Y-109452400D02*
X127331120Y-109452400D01*
G75*
G02*
X127131120Y-109252400I0J200000D01*
G01*
X127131120Y-108452400D01*
G75*
G02*
X127331120Y-108252400I200000J0D01*
G01*
X128081120Y-108252400D01*
G75*
G02*
X128281120Y-108452400I0J-200000D01*
G01*
X128281120Y-109252400D01*
G75*
G02*
X128081120Y-109452400I-200000J0D01*
G01*
G37*
%TD*%
%TO.C,C12*%
G36*
G01*
X135741760Y-115028840D02*
X134991760Y-115028840D01*
G75*
G02*
X134791760Y-114828840I0J200000D01*
G01*
X134791760Y-114028840D01*
G75*
G02*
X134991760Y-113828840I200000J0D01*
G01*
X135741760Y-113828840D01*
G75*
G02*
X135941760Y-114028840I0J-200000D01*
G01*
X135941760Y-114828840D01*
G75*
G02*
X135741760Y-115028840I-200000J0D01*
G01*
G37*
G36*
G01*
X135741760Y-116528840D02*
X134991760Y-116528840D01*
G75*
G02*
X134791760Y-116328840I0J200000D01*
G01*
X134791760Y-115528840D01*
G75*
G02*
X134991760Y-115328840I200000J0D01*
G01*
X135741760Y-115328840D01*
G75*
G02*
X135941760Y-115528840I0J-200000D01*
G01*
X135941760Y-116328840D01*
G75*
G02*
X135741760Y-116528840I-200000J0D01*
G01*
G37*
%TD*%
%TO.C,C13*%
G36*
G01*
X142869000Y-108651000D02*
X142869000Y-109401000D01*
G75*
G02*
X142669000Y-109601000I-200000J0D01*
G01*
X141869000Y-109601000D01*
G75*
G02*
X141669000Y-109401000I0J200000D01*
G01*
X141669000Y-108651000D01*
G75*
G02*
X141869000Y-108451000I200000J0D01*
G01*
X142669000Y-108451000D01*
G75*
G02*
X142869000Y-108651000I0J-200000D01*
G01*
G37*
G36*
G01*
X144369000Y-108651000D02*
X144369000Y-109401000D01*
G75*
G02*
X144169000Y-109601000I-200000J0D01*
G01*
X143369000Y-109601000D01*
G75*
G02*
X143169000Y-109401000I0J200000D01*
G01*
X143169000Y-108651000D01*
G75*
G02*
X143369000Y-108451000I200000J0D01*
G01*
X144169000Y-108451000D01*
G75*
G02*
X144369000Y-108651000I0J-200000D01*
G01*
G37*
%TD*%
%TO.C,C14*%
G36*
G01*
X140130880Y-115028840D02*
X139380880Y-115028840D01*
G75*
G02*
X139180880Y-114828840I0J200000D01*
G01*
X139180880Y-114028840D01*
G75*
G02*
X139380880Y-113828840I200000J0D01*
G01*
X140130880Y-113828840D01*
G75*
G02*
X140330880Y-114028840I0J-200000D01*
G01*
X140330880Y-114828840D01*
G75*
G02*
X140130880Y-115028840I-200000J0D01*
G01*
G37*
G36*
G01*
X140130880Y-116528840D02*
X139380880Y-116528840D01*
G75*
G02*
X139180880Y-116328840I0J200000D01*
G01*
X139180880Y-115528840D01*
G75*
G02*
X139380880Y-115328840I200000J0D01*
G01*
X140130880Y-115328840D01*
G75*
G02*
X140330880Y-115528840I0J-200000D01*
G01*
X140330880Y-116328840D01*
G75*
G02*
X140130880Y-116528840I-200000J0D01*
G01*
G37*
%TD*%
%TO.C,C15*%
G36*
G01*
X144398080Y-115039000D02*
X143648080Y-115039000D01*
G75*
G02*
X143448080Y-114839000I0J200000D01*
G01*
X143448080Y-114039000D01*
G75*
G02*
X143648080Y-113839000I200000J0D01*
G01*
X144398080Y-113839000D01*
G75*
G02*
X144598080Y-114039000I0J-200000D01*
G01*
X144598080Y-114839000D01*
G75*
G02*
X144398080Y-115039000I-200000J0D01*
G01*
G37*
G36*
G01*
X144398080Y-116539000D02*
X143648080Y-116539000D01*
G75*
G02*
X143448080Y-116339000I0J200000D01*
G01*
X143448080Y-115539000D01*
G75*
G02*
X143648080Y-115339000I200000J0D01*
G01*
X144398080Y-115339000D01*
G75*
G02*
X144598080Y-115539000I0J-200000D01*
G01*
X144598080Y-116339000D01*
G75*
G02*
X144398080Y-116539000I-200000J0D01*
G01*
G37*
%TD*%
%TO.C,C16*%
G36*
G01*
X131503560Y-114301620D02*
X131503560Y-113551620D01*
G75*
G02*
X131703560Y-113351620I200000J0D01*
G01*
X132503560Y-113351620D01*
G75*
G02*
X132703560Y-113551620I0J-200000D01*
G01*
X132703560Y-114301620D01*
G75*
G02*
X132503560Y-114501620I-200000J0D01*
G01*
X131703560Y-114501620D01*
G75*
G02*
X131503560Y-114301620I0J200000D01*
G01*
G37*
G36*
G01*
X130003560Y-114301620D02*
X130003560Y-113551620D01*
G75*
G02*
X130203560Y-113351620I200000J0D01*
G01*
X131003560Y-113351620D01*
G75*
G02*
X131203560Y-113551620I0J-200000D01*
G01*
X131203560Y-114301620D01*
G75*
G02*
X131003560Y-114501620I-200000J0D01*
G01*
X130203560Y-114501620D01*
G75*
G02*
X130003560Y-114301620I0J200000D01*
G01*
G37*
%TD*%
%TO.C,C17*%
G36*
G01*
X127785000Y-113417700D02*
X127785000Y-112667700D01*
G75*
G02*
X127985000Y-112467700I200000J0D01*
G01*
X128785000Y-112467700D01*
G75*
G02*
X128985000Y-112667700I0J-200000D01*
G01*
X128985000Y-113417700D01*
G75*
G02*
X128785000Y-113617700I-200000J0D01*
G01*
X127985000Y-113617700D01*
G75*
G02*
X127785000Y-113417700I0J200000D01*
G01*
G37*
G36*
G01*
X126285000Y-113417700D02*
X126285000Y-112667700D01*
G75*
G02*
X126485000Y-112467700I200000J0D01*
G01*
X127285000Y-112467700D01*
G75*
G02*
X127485000Y-112667700I0J-200000D01*
G01*
X127485000Y-113417700D01*
G75*
G02*
X127285000Y-113617700I-200000J0D01*
G01*
X126485000Y-113617700D01*
G75*
G02*
X126285000Y-113417700I0J200000D01*
G01*
G37*
%TD*%
%TO.C,C18*%
G36*
G01*
X148109000Y-77131000D02*
X148109000Y-75881000D01*
G75*
G02*
X148309000Y-75681000I200000J0D01*
G01*
X149309000Y-75681000D01*
G75*
G02*
X149509000Y-75881000I0J-200000D01*
G01*
X149509000Y-77131000D01*
G75*
G02*
X149309000Y-77331000I-200000J0D01*
G01*
X148309000Y-77331000D01*
G75*
G02*
X148109000Y-77131000I0J200000D01*
G01*
G37*
G36*
G01*
X150109000Y-77131000D02*
X150109000Y-75881000D01*
G75*
G02*
X150309000Y-75681000I200000J0D01*
G01*
X151309000Y-75681000D01*
G75*
G02*
X151509000Y-75881000I0J-200000D01*
G01*
X151509000Y-77131000D01*
G75*
G02*
X151309000Y-77331000I-200000J0D01*
G01*
X150309000Y-77331000D01*
G75*
G02*
X150109000Y-77131000I0J200000D01*
G01*
G37*
%TD*%
%TO.C,C19*%
G36*
G01*
X144454000Y-103326000D02*
X143704000Y-103326000D01*
G75*
G02*
X143504000Y-103126000I0J200000D01*
G01*
X143504000Y-102326000D01*
G75*
G02*
X143704000Y-102126000I200000J0D01*
G01*
X144454000Y-102126000D01*
G75*
G02*
X144654000Y-102326000I0J-200000D01*
G01*
X144654000Y-103126000D01*
G75*
G02*
X144454000Y-103326000I-200000J0D01*
G01*
G37*
G36*
G01*
X144454000Y-104826000D02*
X143704000Y-104826000D01*
G75*
G02*
X143504000Y-104626000I0J200000D01*
G01*
X143504000Y-103826000D01*
G75*
G02*
X143704000Y-103626000I200000J0D01*
G01*
X144454000Y-103626000D01*
G75*
G02*
X144654000Y-103826000I0J-200000D01*
G01*
X144654000Y-104626000D01*
G75*
G02*
X144454000Y-104826000I-200000J0D01*
G01*
G37*
%TD*%
%TO.C,C20*%
G36*
G01*
X149459000Y-91951000D02*
X149459000Y-92701000D01*
G75*
G02*
X149259000Y-92901000I-200000J0D01*
G01*
X148459000Y-92901000D01*
G75*
G02*
X148259000Y-92701000I0J200000D01*
G01*
X148259000Y-91951000D01*
G75*
G02*
X148459000Y-91751000I200000J0D01*
G01*
X149259000Y-91751000D01*
G75*
G02*
X149459000Y-91951000I0J-200000D01*
G01*
G37*
G36*
G01*
X150959000Y-91951000D02*
X150959000Y-92701000D01*
G75*
G02*
X150759000Y-92901000I-200000J0D01*
G01*
X149959000Y-92901000D01*
G75*
G02*
X149759000Y-92701000I0J200000D01*
G01*
X149759000Y-91951000D01*
G75*
G02*
X149959000Y-91751000I200000J0D01*
G01*
X150759000Y-91751000D01*
G75*
G02*
X150959000Y-91951000I0J-200000D01*
G01*
G37*
%TD*%
%TO.C,C21*%
G36*
G01*
X143609000Y-89821000D02*
X143609000Y-89071000D01*
G75*
G02*
X143809000Y-88871000I200000J0D01*
G01*
X144609000Y-88871000D01*
G75*
G02*
X144809000Y-89071000I0J-200000D01*
G01*
X144809000Y-89821000D01*
G75*
G02*
X144609000Y-90021000I-200000J0D01*
G01*
X143809000Y-90021000D01*
G75*
G02*
X143609000Y-89821000I0J200000D01*
G01*
G37*
G36*
G01*
X142109000Y-89821000D02*
X142109000Y-89071000D01*
G75*
G02*
X142309000Y-88871000I200000J0D01*
G01*
X143109000Y-88871000D01*
G75*
G02*
X143309000Y-89071000I0J-200000D01*
G01*
X143309000Y-89821000D01*
G75*
G02*
X143109000Y-90021000I-200000J0D01*
G01*
X142309000Y-90021000D01*
G75*
G02*
X142109000Y-89821000I0J200000D01*
G01*
G37*
%TD*%
%TO.C,C22*%
G36*
G01*
X132519000Y-94481000D02*
X132519000Y-93731000D01*
G75*
G02*
X132719000Y-93531000I200000J0D01*
G01*
X133519000Y-93531000D01*
G75*
G02*
X133719000Y-93731000I0J-200000D01*
G01*
X133719000Y-94481000D01*
G75*
G02*
X133519000Y-94681000I-200000J0D01*
G01*
X132719000Y-94681000D01*
G75*
G02*
X132519000Y-94481000I0J200000D01*
G01*
G37*
G36*
G01*
X131019000Y-94481000D02*
X131019000Y-93731000D01*
G75*
G02*
X131219000Y-93531000I200000J0D01*
G01*
X132019000Y-93531000D01*
G75*
G02*
X132219000Y-93731000I0J-200000D01*
G01*
X132219000Y-94481000D01*
G75*
G02*
X132019000Y-94681000I-200000J0D01*
G01*
X131219000Y-94681000D01*
G75*
G02*
X131019000Y-94481000I0J200000D01*
G01*
G37*
%TD*%
%TO.C,C23*%
G36*
G01*
X136599000Y-93681000D02*
X136599000Y-94431000D01*
G75*
G02*
X136399000Y-94631000I-200000J0D01*
G01*
X135599000Y-94631000D01*
G75*
G02*
X135399000Y-94431000I0J200000D01*
G01*
X135399000Y-93681000D01*
G75*
G02*
X135599000Y-93481000I200000J0D01*
G01*
X136399000Y-93481000D01*
G75*
G02*
X136599000Y-93681000I0J-200000D01*
G01*
G37*
G36*
G01*
X138099000Y-93681000D02*
X138099000Y-94431000D01*
G75*
G02*
X137899000Y-94631000I-200000J0D01*
G01*
X137099000Y-94631000D01*
G75*
G02*
X136899000Y-94431000I0J200000D01*
G01*
X136899000Y-93681000D01*
G75*
G02*
X137099000Y-93481000I200000J0D01*
G01*
X137899000Y-93481000D01*
G75*
G02*
X138099000Y-93681000I0J-200000D01*
G01*
G37*
%TD*%
%TO.C,C24*%
G36*
G01*
X124565760Y-107972720D02*
X123815760Y-107972720D01*
G75*
G02*
X123615760Y-107772720I0J200000D01*
G01*
X123615760Y-106972720D01*
G75*
G02*
X123815760Y-106772720I200000J0D01*
G01*
X124565760Y-106772720D01*
G75*
G02*
X124765760Y-106972720I0J-200000D01*
G01*
X124765760Y-107772720D01*
G75*
G02*
X124565760Y-107972720I-200000J0D01*
G01*
G37*
G36*
G01*
X124565760Y-109472720D02*
X123815760Y-109472720D01*
G75*
G02*
X123615760Y-109272720I0J200000D01*
G01*
X123615760Y-108472720D01*
G75*
G02*
X123815760Y-108272720I200000J0D01*
G01*
X124565760Y-108272720D01*
G75*
G02*
X124765760Y-108472720I0J-200000D01*
G01*
X124765760Y-109272720D01*
G75*
G02*
X124565760Y-109472720I-200000J0D01*
G01*
G37*
%TD*%
%TO.C,C25*%
G36*
G01*
X149479000Y-87921000D02*
X149479000Y-88671000D01*
G75*
G02*
X149279000Y-88871000I-200000J0D01*
G01*
X148479000Y-88871000D01*
G75*
G02*
X148279000Y-88671000I0J200000D01*
G01*
X148279000Y-87921000D01*
G75*
G02*
X148479000Y-87721000I200000J0D01*
G01*
X149279000Y-87721000D01*
G75*
G02*
X149479000Y-87921000I0J-200000D01*
G01*
G37*
G36*
G01*
X150979000Y-87921000D02*
X150979000Y-88671000D01*
G75*
G02*
X150779000Y-88871000I-200000J0D01*
G01*
X149979000Y-88871000D01*
G75*
G02*
X149779000Y-88671000I0J200000D01*
G01*
X149779000Y-87921000D01*
G75*
G02*
X149979000Y-87721000I200000J0D01*
G01*
X150779000Y-87721000D01*
G75*
G02*
X150979000Y-87921000I0J-200000D01*
G01*
G37*
%TD*%
%TO.C,C26*%
G36*
G01*
X132529720Y-96793400D02*
X132529720Y-96043400D01*
G75*
G02*
X132729720Y-95843400I200000J0D01*
G01*
X133529720Y-95843400D01*
G75*
G02*
X133729720Y-96043400I0J-200000D01*
G01*
X133729720Y-96793400D01*
G75*
G02*
X133529720Y-96993400I-200000J0D01*
G01*
X132729720Y-96993400D01*
G75*
G02*
X132529720Y-96793400I0J200000D01*
G01*
G37*
G36*
G01*
X131029720Y-96793400D02*
X131029720Y-96043400D01*
G75*
G02*
X131229720Y-95843400I200000J0D01*
G01*
X132029720Y-95843400D01*
G75*
G02*
X132229720Y-96043400I0J-200000D01*
G01*
X132229720Y-96793400D01*
G75*
G02*
X132029720Y-96993400I-200000J0D01*
G01*
X131229720Y-96993400D01*
G75*
G02*
X131029720Y-96793400I0J200000D01*
G01*
G37*
%TD*%
%TO.C,C27*%
G36*
G01*
X127536100Y-128268200D02*
X126286100Y-128268200D01*
G75*
G02*
X126086100Y-128068200I0J200000D01*
G01*
X126086100Y-127068200D01*
G75*
G02*
X126286100Y-126868200I200000J0D01*
G01*
X127536100Y-126868200D01*
G75*
G02*
X127736100Y-127068200I0J-200000D01*
G01*
X127736100Y-128068200D01*
G75*
G02*
X127536100Y-128268200I-200000J0D01*
G01*
G37*
G36*
G01*
X127536100Y-126268200D02*
X126286100Y-126268200D01*
G75*
G02*
X126086100Y-126068200I0J200000D01*
G01*
X126086100Y-125068200D01*
G75*
G02*
X126286100Y-124868200I200000J0D01*
G01*
X127536100Y-124868200D01*
G75*
G02*
X127736100Y-125068200I0J-200000D01*
G01*
X127736100Y-126068200D01*
G75*
G02*
X127536100Y-126268200I-200000J0D01*
G01*
G37*
%TD*%
%TO.C,C28*%
G36*
G01*
X131596480Y-126425820D02*
X130846480Y-126425820D01*
G75*
G02*
X130646480Y-126225820I0J200000D01*
G01*
X130646480Y-125425820D01*
G75*
G02*
X130846480Y-125225820I200000J0D01*
G01*
X131596480Y-125225820D01*
G75*
G02*
X131796480Y-125425820I0J-200000D01*
G01*
X131796480Y-126225820D01*
G75*
G02*
X131596480Y-126425820I-200000J0D01*
G01*
G37*
G36*
G01*
X131596480Y-127925820D02*
X130846480Y-127925820D01*
G75*
G02*
X130646480Y-127725820I0J200000D01*
G01*
X130646480Y-126925820D01*
G75*
G02*
X130846480Y-126725820I200000J0D01*
G01*
X131596480Y-126725820D01*
G75*
G02*
X131796480Y-126925820I0J-200000D01*
G01*
X131796480Y-127725820D01*
G75*
G02*
X131596480Y-127925820I-200000J0D01*
G01*
G37*
%TD*%
%TO.C,C29*%
G36*
G01*
X135759540Y-126202300D02*
X135009540Y-126202300D01*
G75*
G02*
X134809540Y-126002300I0J200000D01*
G01*
X134809540Y-125202300D01*
G75*
G02*
X135009540Y-125002300I200000J0D01*
G01*
X135759540Y-125002300D01*
G75*
G02*
X135959540Y-125202300I0J-200000D01*
G01*
X135959540Y-126002300D01*
G75*
G02*
X135759540Y-126202300I-200000J0D01*
G01*
G37*
G36*
G01*
X135759540Y-127702300D02*
X135009540Y-127702300D01*
G75*
G02*
X134809540Y-127502300I0J200000D01*
G01*
X134809540Y-126702300D01*
G75*
G02*
X135009540Y-126502300I200000J0D01*
G01*
X135759540Y-126502300D01*
G75*
G02*
X135959540Y-126702300I0J-200000D01*
G01*
X135959540Y-127502300D01*
G75*
G02*
X135759540Y-127702300I-200000J0D01*
G01*
G37*
%TD*%
%TO.C,C30*%
G36*
G01*
X147719700Y-122336700D02*
X148469700Y-122336700D01*
G75*
G02*
X148669700Y-122536700I0J-200000D01*
G01*
X148669700Y-123336700D01*
G75*
G02*
X148469700Y-123536700I-200000J0D01*
G01*
X147719700Y-123536700D01*
G75*
G02*
X147519700Y-123336700I0J200000D01*
G01*
X147519700Y-122536700D01*
G75*
G02*
X147719700Y-122336700I200000J0D01*
G01*
G37*
G36*
G01*
X147719700Y-120836700D02*
X148469700Y-120836700D01*
G75*
G02*
X148669700Y-121036700I0J-200000D01*
G01*
X148669700Y-121836700D01*
G75*
G02*
X148469700Y-122036700I-200000J0D01*
G01*
X147719700Y-122036700D01*
G75*
G02*
X147519700Y-121836700I0J200000D01*
G01*
X147519700Y-121036700D01*
G75*
G02*
X147719700Y-120836700I200000J0D01*
G01*
G37*
%TD*%
%TO.C,C31*%
G36*
G01*
X131484720Y-121145160D02*
X130734720Y-121145160D01*
G75*
G02*
X130534720Y-120945160I0J200000D01*
G01*
X130534720Y-120145160D01*
G75*
G02*
X130734720Y-119945160I200000J0D01*
G01*
X131484720Y-119945160D01*
G75*
G02*
X131684720Y-120145160I0J-200000D01*
G01*
X131684720Y-120945160D01*
G75*
G02*
X131484720Y-121145160I-200000J0D01*
G01*
G37*
G36*
G01*
X131484720Y-122645160D02*
X130734720Y-122645160D01*
G75*
G02*
X130534720Y-122445160I0J200000D01*
G01*
X130534720Y-121645160D01*
G75*
G02*
X130734720Y-121445160I200000J0D01*
G01*
X131484720Y-121445160D01*
G75*
G02*
X131684720Y-121645160I0J-200000D01*
G01*
X131684720Y-122445160D01*
G75*
G02*
X131484720Y-122645160I-200000J0D01*
G01*
G37*
%TD*%
%TO.C,C32*%
G36*
G01*
X139809360Y-122173080D02*
X139809360Y-121423080D01*
G75*
G02*
X140009360Y-121223080I200000J0D01*
G01*
X140809360Y-121223080D01*
G75*
G02*
X141009360Y-121423080I0J-200000D01*
G01*
X141009360Y-122173080D01*
G75*
G02*
X140809360Y-122373080I-200000J0D01*
G01*
X140009360Y-122373080D01*
G75*
G02*
X139809360Y-122173080I0J200000D01*
G01*
G37*
G36*
G01*
X138309360Y-122173080D02*
X138309360Y-121423080D01*
G75*
G02*
X138509360Y-121223080I200000J0D01*
G01*
X139309360Y-121223080D01*
G75*
G02*
X139509360Y-121423080I0J-200000D01*
G01*
X139509360Y-122173080D01*
G75*
G02*
X139309360Y-122373080I-200000J0D01*
G01*
X138509360Y-122373080D01*
G75*
G02*
X138309360Y-122173080I0J200000D01*
G01*
G37*
%TD*%
%TO.C,C33*%
G36*
G01*
X135536020Y-121089280D02*
X134786020Y-121089280D01*
G75*
G02*
X134586020Y-120889280I0J200000D01*
G01*
X134586020Y-120089280D01*
G75*
G02*
X134786020Y-119889280I200000J0D01*
G01*
X135536020Y-119889280D01*
G75*
G02*
X135736020Y-120089280I0J-200000D01*
G01*
X135736020Y-120889280D01*
G75*
G02*
X135536020Y-121089280I-200000J0D01*
G01*
G37*
G36*
G01*
X135536020Y-122589280D02*
X134786020Y-122589280D01*
G75*
G02*
X134586020Y-122389280I0J200000D01*
G01*
X134586020Y-121589280D01*
G75*
G02*
X134786020Y-121389280I200000J0D01*
G01*
X135536020Y-121389280D01*
G75*
G02*
X135736020Y-121589280I0J-200000D01*
G01*
X135736020Y-122389280D01*
G75*
G02*
X135536020Y-122589280I-200000J0D01*
G01*
G37*
%TD*%
%TO.C,C34*%
G36*
G01*
X132300840Y-117204140D02*
X132300840Y-117954140D01*
G75*
G02*
X132100840Y-118154140I-200000J0D01*
G01*
X131300840Y-118154140D01*
G75*
G02*
X131100840Y-117954140I0J200000D01*
G01*
X131100840Y-117204140D01*
G75*
G02*
X131300840Y-117004140I200000J0D01*
G01*
X132100840Y-117004140D01*
G75*
G02*
X132300840Y-117204140I0J-200000D01*
G01*
G37*
G36*
G01*
X133800840Y-117204140D02*
X133800840Y-117954140D01*
G75*
G02*
X133600840Y-118154140I-200000J0D01*
G01*
X132800840Y-118154140D01*
G75*
G02*
X132600840Y-117954140I0J200000D01*
G01*
X132600840Y-117204140D01*
G75*
G02*
X132800840Y-117004140I200000J0D01*
G01*
X133600840Y-117004140D01*
G75*
G02*
X133800840Y-117204140I0J-200000D01*
G01*
G37*
%TD*%
%TO.C,C35*%
G36*
G01*
X141499000Y-65786000D02*
X141499000Y-64186000D01*
G75*
G02*
X141699000Y-63986000I200000J0D01*
G01*
X143299000Y-63986000D01*
G75*
G02*
X143499000Y-64186000I0J-200000D01*
G01*
X143499000Y-65786000D01*
G75*
G02*
X143299000Y-65986000I-200000J0D01*
G01*
X141699000Y-65986000D01*
G75*
G02*
X141499000Y-65786000I0J200000D01*
G01*
G37*
D11*
X144999000Y-64986000D03*
%TD*%
%TO.C,C36*%
G36*
G01*
X151499000Y-73301000D02*
X151499000Y-74551000D01*
G75*
G02*
X151299000Y-74751000I-200000J0D01*
G01*
X150299000Y-74751000D01*
G75*
G02*
X150099000Y-74551000I0J200000D01*
G01*
X150099000Y-73301000D01*
G75*
G02*
X150299000Y-73101000I200000J0D01*
G01*
X151299000Y-73101000D01*
G75*
G02*
X151499000Y-73301000I0J-200000D01*
G01*
G37*
G36*
G01*
X149499000Y-73301000D02*
X149499000Y-74551000D01*
G75*
G02*
X149299000Y-74751000I-200000J0D01*
G01*
X148299000Y-74751000D01*
G75*
G02*
X148099000Y-74551000I0J200000D01*
G01*
X148099000Y-73301000D01*
G75*
G02*
X148299000Y-73101000I200000J0D01*
G01*
X149299000Y-73101000D01*
G75*
G02*
X149499000Y-73301000I0J-200000D01*
G01*
G37*
%TD*%
%TO.C,C37*%
G36*
G01*
X139715000Y-66520000D02*
X138465000Y-66520000D01*
G75*
G02*
X138265000Y-66320000I0J200000D01*
G01*
X138265000Y-65320000D01*
G75*
G02*
X138465000Y-65120000I200000J0D01*
G01*
X139715000Y-65120000D01*
G75*
G02*
X139915000Y-65320000I0J-200000D01*
G01*
X139915000Y-66320000D01*
G75*
G02*
X139715000Y-66520000I-200000J0D01*
G01*
G37*
G36*
G01*
X139715000Y-64520000D02*
X138465000Y-64520000D01*
G75*
G02*
X138265000Y-64320000I0J200000D01*
G01*
X138265000Y-63320000D01*
G75*
G02*
X138465000Y-63120000I200000J0D01*
G01*
X139715000Y-63120000D01*
G75*
G02*
X139915000Y-63320000I0J-200000D01*
G01*
X139915000Y-64320000D01*
G75*
G02*
X139715000Y-64520000I-200000J0D01*
G01*
G37*
%TD*%
%TO.C,C38*%
G36*
G01*
X149659000Y-62161000D02*
X149659000Y-63411000D01*
G75*
G02*
X149459000Y-63611000I-200000J0D01*
G01*
X148459000Y-63611000D01*
G75*
G02*
X148259000Y-63411000I0J200000D01*
G01*
X148259000Y-62161000D01*
G75*
G02*
X148459000Y-61961000I200000J0D01*
G01*
X149459000Y-61961000D01*
G75*
G02*
X149659000Y-62161000I0J-200000D01*
G01*
G37*
G36*
G01*
X147659000Y-62161000D02*
X147659000Y-63411000D01*
G75*
G02*
X147459000Y-63611000I-200000J0D01*
G01*
X146459000Y-63611000D01*
G75*
G02*
X146259000Y-63411000I0J200000D01*
G01*
X146259000Y-62161000D01*
G75*
G02*
X146459000Y-61961000I200000J0D01*
G01*
X147459000Y-61961000D01*
G75*
G02*
X147659000Y-62161000I0J-200000D01*
G01*
G37*
%TD*%
%TO.C,J6*%
G36*
G01*
X128954000Y-134126000D02*
X127704000Y-134126000D01*
G75*
G02*
X127654000Y-134076000I0J50000D01*
G01*
X127654000Y-130076000D01*
G75*
G02*
X127704000Y-130026000I50000J0D01*
G01*
X128954000Y-130026000D01*
G75*
G02*
X129004000Y-130076000I0J-50000D01*
G01*
X129004000Y-134076000D01*
G75*
G02*
X128954000Y-134126000I-50000J0D01*
G01*
G37*
G36*
G01*
X131829000Y-134126000D02*
X129829000Y-134126000D01*
G75*
G02*
X129779000Y-134076000I0J50000D01*
G01*
X129779000Y-130076000D01*
G75*
G02*
X129829000Y-130026000I50000J0D01*
G01*
X131829000Y-130026000D01*
G75*
G02*
X131879000Y-130076000I0J-50000D01*
G01*
X131879000Y-134076000D01*
G75*
G02*
X131829000Y-134126000I-50000J0D01*
G01*
G37*
G36*
G01*
X126829000Y-134126000D02*
X124829000Y-134126000D01*
G75*
G02*
X124779000Y-134076000I0J50000D01*
G01*
X124779000Y-130076000D01*
G75*
G02*
X124829000Y-130026000I50000J0D01*
G01*
X126829000Y-130026000D01*
G75*
G02*
X126879000Y-130076000I0J-50000D01*
G01*
X126879000Y-134076000D01*
G75*
G02*
X126829000Y-134126000I-50000J0D01*
G01*
G37*
%TD*%
%TO.C,J7*%
G36*
G01*
X145425320Y-134144600D02*
X144175320Y-134144600D01*
G75*
G02*
X144125320Y-134094600I0J50000D01*
G01*
X144125320Y-130094600D01*
G75*
G02*
X144175320Y-130044600I50000J0D01*
G01*
X145425320Y-130044600D01*
G75*
G02*
X145475320Y-130094600I0J-50000D01*
G01*
X145475320Y-134094600D01*
G75*
G02*
X145425320Y-134144600I-50000J0D01*
G01*
G37*
G36*
G01*
X148300320Y-134144600D02*
X146300320Y-134144600D01*
G75*
G02*
X146250320Y-134094600I0J50000D01*
G01*
X146250320Y-130094600D01*
G75*
G02*
X146300320Y-130044600I50000J0D01*
G01*
X148300320Y-130044600D01*
G75*
G02*
X148350320Y-130094600I0J-50000D01*
G01*
X148350320Y-134094600D01*
G75*
G02*
X148300320Y-134144600I-50000J0D01*
G01*
G37*
G36*
G01*
X143300320Y-134144600D02*
X141300320Y-134144600D01*
G75*
G02*
X141250320Y-134094600I0J50000D01*
G01*
X141250320Y-130094600D01*
G75*
G02*
X141300320Y-130044600I50000J0D01*
G01*
X143300320Y-130044600D01*
G75*
G02*
X143350320Y-130094600I0J-50000D01*
G01*
X143350320Y-134094600D01*
G75*
G02*
X143300320Y-134144600I-50000J0D01*
G01*
G37*
%TD*%
%TO.C,J8*%
G36*
G01*
X120830500Y-134119200D02*
X119580500Y-134119200D01*
G75*
G02*
X119530500Y-134069200I0J50000D01*
G01*
X119530500Y-130069200D01*
G75*
G02*
X119580500Y-130019200I50000J0D01*
G01*
X120830500Y-130019200D01*
G75*
G02*
X120880500Y-130069200I0J-50000D01*
G01*
X120880500Y-134069200D01*
G75*
G02*
X120830500Y-134119200I-50000J0D01*
G01*
G37*
G36*
G01*
X123705500Y-134119200D02*
X121705500Y-134119200D01*
G75*
G02*
X121655500Y-134069200I0J50000D01*
G01*
X121655500Y-130069200D01*
G75*
G02*
X121705500Y-130019200I50000J0D01*
G01*
X123705500Y-130019200D01*
G75*
G02*
X123755500Y-130069200I0J-50000D01*
G01*
X123755500Y-134069200D01*
G75*
G02*
X123705500Y-134119200I-50000J0D01*
G01*
G37*
G36*
G01*
X118705500Y-134119200D02*
X116705500Y-134119200D01*
G75*
G02*
X116655500Y-134069200I0J50000D01*
G01*
X116655500Y-130069200D01*
G75*
G02*
X116705500Y-130019200I50000J0D01*
G01*
X118705500Y-130019200D01*
G75*
G02*
X118755500Y-130069200I0J-50000D01*
G01*
X118755500Y-134069200D01*
G75*
G02*
X118705500Y-134119200I-50000J0D01*
G01*
G37*
%TD*%
%TO.C,J9*%
G36*
G01*
X137327800Y-134119200D02*
X136077800Y-134119200D01*
G75*
G02*
X136027800Y-134069200I0J50000D01*
G01*
X136027800Y-130069200D01*
G75*
G02*
X136077800Y-130019200I50000J0D01*
G01*
X137327800Y-130019200D01*
G75*
G02*
X137377800Y-130069200I0J-50000D01*
G01*
X137377800Y-134069200D01*
G75*
G02*
X137327800Y-134119200I-50000J0D01*
G01*
G37*
G36*
G01*
X140202800Y-134119200D02*
X138202800Y-134119200D01*
G75*
G02*
X138152800Y-134069200I0J50000D01*
G01*
X138152800Y-130069200D01*
G75*
G02*
X138202800Y-130019200I50000J0D01*
G01*
X140202800Y-130019200D01*
G75*
G02*
X140252800Y-130069200I0J-50000D01*
G01*
X140252800Y-134069200D01*
G75*
G02*
X140202800Y-134119200I-50000J0D01*
G01*
G37*
G36*
G01*
X135202800Y-134119200D02*
X133202800Y-134119200D01*
G75*
G02*
X133152800Y-134069200I0J50000D01*
G01*
X133152800Y-130069200D01*
G75*
G02*
X133202800Y-130019200I50000J0D01*
G01*
X135202800Y-130019200D01*
G75*
G02*
X135252800Y-130069200I0J-50000D01*
G01*
X135252800Y-134069200D01*
G75*
G02*
X135202800Y-134119200I-50000J0D01*
G01*
G37*
%TD*%
%TO.C,J10*%
G36*
G01*
X153164700Y-134172540D02*
X151914700Y-134172540D01*
G75*
G02*
X151864700Y-134122540I0J50000D01*
G01*
X151864700Y-130122540D01*
G75*
G02*
X151914700Y-130072540I50000J0D01*
G01*
X153164700Y-130072540D01*
G75*
G02*
X153214700Y-130122540I0J-50000D01*
G01*
X153214700Y-134122540D01*
G75*
G02*
X153164700Y-134172540I-50000J0D01*
G01*
G37*
G36*
G01*
X156039700Y-134172540D02*
X154039700Y-134172540D01*
G75*
G02*
X153989700Y-134122540I0J50000D01*
G01*
X153989700Y-130122540D01*
G75*
G02*
X154039700Y-130072540I50000J0D01*
G01*
X156039700Y-130072540D01*
G75*
G02*
X156089700Y-130122540I0J-50000D01*
G01*
X156089700Y-134122540D01*
G75*
G02*
X156039700Y-134172540I-50000J0D01*
G01*
G37*
G36*
G01*
X151039700Y-134172540D02*
X149039700Y-134172540D01*
G75*
G02*
X148989700Y-134122540I0J50000D01*
G01*
X148989700Y-130122540D01*
G75*
G02*
X149039700Y-130072540I50000J0D01*
G01*
X151039700Y-130072540D01*
G75*
G02*
X151089700Y-130122540I0J-50000D01*
G01*
X151089700Y-134122540D01*
G75*
G02*
X151039700Y-134172540I-50000J0D01*
G01*
G37*
%TD*%
%TO.C,J11*%
G36*
G01*
X137369000Y-49646000D02*
X137869000Y-49646000D01*
G75*
G02*
X138069000Y-49846000I0J-200000D01*
G01*
X138069000Y-52146000D01*
G75*
G02*
X137869000Y-52346000I-200000J0D01*
G01*
X137369000Y-52346000D01*
G75*
G02*
X137169000Y-52146000I0J200000D01*
G01*
X137169000Y-49846000D01*
G75*
G02*
X137369000Y-49646000I200000J0D01*
G01*
G37*
G36*
G01*
X136569000Y-49646000D02*
X137069000Y-49646000D01*
G75*
G02*
X137269000Y-49846000I0J-200000D01*
G01*
X137269000Y-52146000D01*
G75*
G02*
X137069000Y-52346000I-200000J0D01*
G01*
X136569000Y-52346000D01*
G75*
G02*
X136369000Y-52146000I0J200000D01*
G01*
X136369000Y-49846000D01*
G75*
G02*
X136569000Y-49646000I200000J0D01*
G01*
G37*
G36*
G01*
X135769000Y-49646000D02*
X136269000Y-49646000D01*
G75*
G02*
X136469000Y-49846000I0J-200000D01*
G01*
X136469000Y-52146000D01*
G75*
G02*
X136269000Y-52346000I-200000J0D01*
G01*
X135769000Y-52346000D01*
G75*
G02*
X135569000Y-52146000I0J200000D01*
G01*
X135569000Y-49846000D01*
G75*
G02*
X135769000Y-49646000I200000J0D01*
G01*
G37*
G36*
G01*
X134969000Y-49646000D02*
X135469000Y-49646000D01*
G75*
G02*
X135669000Y-49846000I0J-200000D01*
G01*
X135669000Y-52146000D01*
G75*
G02*
X135469000Y-52346000I-200000J0D01*
G01*
X134969000Y-52346000D01*
G75*
G02*
X134769000Y-52146000I0J200000D01*
G01*
X134769000Y-49846000D01*
G75*
G02*
X134969000Y-49646000I200000J0D01*
G01*
G37*
G36*
G01*
X134169000Y-49646000D02*
X134669000Y-49646000D01*
G75*
G02*
X134869000Y-49846000I0J-200000D01*
G01*
X134869000Y-52146000D01*
G75*
G02*
X134669000Y-52346000I-200000J0D01*
G01*
X134169000Y-52346000D01*
G75*
G02*
X133969000Y-52146000I0J200000D01*
G01*
X133969000Y-49846000D01*
G75*
G02*
X134169000Y-49646000I200000J0D01*
G01*
G37*
G36*
G01*
X139469000Y-49446000D02*
X141469000Y-49446000D01*
G75*
G02*
X141669000Y-49646000I0J-200000D01*
G01*
X141669000Y-52146000D01*
G75*
G02*
X141469000Y-52346000I-200000J0D01*
G01*
X139469000Y-52346000D01*
G75*
G02*
X139269000Y-52146000I0J200000D01*
G01*
X139269000Y-49646000D01*
G75*
G02*
X139469000Y-49446000I200000J0D01*
G01*
G37*
G36*
G01*
X139469000Y-43946000D02*
X141469000Y-43946000D01*
G75*
G02*
X141669000Y-44146000I0J-200000D01*
G01*
X141669000Y-46646000D01*
G75*
G02*
X141469000Y-46846000I-200000J0D01*
G01*
X139469000Y-46846000D01*
G75*
G02*
X139269000Y-46646000I0J200000D01*
G01*
X139269000Y-44146000D01*
G75*
G02*
X139469000Y-43946000I200000J0D01*
G01*
G37*
G36*
G01*
X130569000Y-49446000D02*
X132569000Y-49446000D01*
G75*
G02*
X132769000Y-49646000I0J-200000D01*
G01*
X132769000Y-52146000D01*
G75*
G02*
X132569000Y-52346000I-200000J0D01*
G01*
X130569000Y-52346000D01*
G75*
G02*
X130369000Y-52146000I0J200000D01*
G01*
X130369000Y-49646000D01*
G75*
G02*
X130569000Y-49446000I200000J0D01*
G01*
G37*
G36*
G01*
X130569000Y-43946000D02*
X132569000Y-43946000D01*
G75*
G02*
X132769000Y-44146000I0J-200000D01*
G01*
X132769000Y-46646000D01*
G75*
G02*
X132569000Y-46846000I-200000J0D01*
G01*
X130569000Y-46846000D01*
G75*
G02*
X130369000Y-46646000I0J200000D01*
G01*
X130369000Y-44146000D01*
G75*
G02*
X130569000Y-43946000I200000J0D01*
G01*
G37*
D12*
X138219000Y-48396000D03*
X133819000Y-48396000D03*
%TD*%
%TO.C,L1*%
G36*
G01*
X143710900Y-125334900D02*
X145010900Y-125334900D01*
G75*
G02*
X145210900Y-125534900I0J-200000D01*
G01*
X145210900Y-126234900D01*
G75*
G02*
X145010900Y-126434900I-200000J0D01*
G01*
X143710900Y-126434900D01*
G75*
G02*
X143510900Y-126234900I0J200000D01*
G01*
X143510900Y-125534900D01*
G75*
G02*
X143710900Y-125334900I200000J0D01*
G01*
G37*
G36*
G01*
X143710900Y-127234900D02*
X145010900Y-127234900D01*
G75*
G02*
X145210900Y-127434900I0J-200000D01*
G01*
X145210900Y-128134900D01*
G75*
G02*
X145010900Y-128334900I-200000J0D01*
G01*
X143710900Y-128334900D01*
G75*
G02*
X143510900Y-128134900I0J200000D01*
G01*
X143510900Y-127434900D01*
G75*
G02*
X143710900Y-127234900I200000J0D01*
G01*
G37*
%TD*%
%TO.C,L2*%
G36*
G01*
X143672800Y-120724800D02*
X144972800Y-120724800D01*
G75*
G02*
X145172800Y-120924800I0J-200000D01*
G01*
X145172800Y-121624800D01*
G75*
G02*
X144972800Y-121824800I-200000J0D01*
G01*
X143672800Y-121824800D01*
G75*
G02*
X143472800Y-121624800I0J200000D01*
G01*
X143472800Y-120924800D01*
G75*
G02*
X143672800Y-120724800I200000J0D01*
G01*
G37*
G36*
G01*
X143672800Y-122624800D02*
X144972800Y-122624800D01*
G75*
G02*
X145172800Y-122824800I0J-200000D01*
G01*
X145172800Y-123524800D01*
G75*
G02*
X144972800Y-123724800I-200000J0D01*
G01*
X143672800Y-123724800D01*
G75*
G02*
X143472800Y-123524800I0J200000D01*
G01*
X143472800Y-122824800D01*
G75*
G02*
X143672800Y-122624800I200000J0D01*
G01*
G37*
%TD*%
%TO.C,L3*%
G36*
G01*
X122440940Y-123092080D02*
X123740940Y-123092080D01*
G75*
G02*
X123940940Y-123292080I0J-200000D01*
G01*
X123940940Y-123992080D01*
G75*
G02*
X123740940Y-124192080I-200000J0D01*
G01*
X122440940Y-124192080D01*
G75*
G02*
X122240940Y-123992080I0J200000D01*
G01*
X122240940Y-123292080D01*
G75*
G02*
X122440940Y-123092080I200000J0D01*
G01*
G37*
G36*
G01*
X122440940Y-124992080D02*
X123740940Y-124992080D01*
G75*
G02*
X123940940Y-125192080I0J-200000D01*
G01*
X123940940Y-125892080D01*
G75*
G02*
X123740940Y-126092080I-200000J0D01*
G01*
X122440940Y-126092080D01*
G75*
G02*
X122240940Y-125892080I0J200000D01*
G01*
X122240940Y-125192080D01*
G75*
G02*
X122440940Y-124992080I200000J0D01*
G01*
G37*
%TD*%
%TO.C,L4*%
G36*
G01*
X126146800Y-120762900D02*
X127446800Y-120762900D01*
G75*
G02*
X127646800Y-120962900I0J-200000D01*
G01*
X127646800Y-121662900D01*
G75*
G02*
X127446800Y-121862900I-200000J0D01*
G01*
X126146800Y-121862900D01*
G75*
G02*
X125946800Y-121662900I0J200000D01*
G01*
X125946800Y-120962900D01*
G75*
G02*
X126146800Y-120762900I200000J0D01*
G01*
G37*
G36*
G01*
X126146800Y-122662900D02*
X127446800Y-122662900D01*
G75*
G02*
X127646800Y-122862900I0J-200000D01*
G01*
X127646800Y-123562900D01*
G75*
G02*
X127446800Y-123762900I-200000J0D01*
G01*
X126146800Y-123762900D01*
G75*
G02*
X125946800Y-123562900I0J200000D01*
G01*
X125946800Y-122862900D01*
G75*
G02*
X126146800Y-122662900I200000J0D01*
G01*
G37*
%TD*%
%TO.C,L5*%
G36*
G01*
X122385060Y-118454040D02*
X123685060Y-118454040D01*
G75*
G02*
X123885060Y-118654040I0J-200000D01*
G01*
X123885060Y-119354040D01*
G75*
G02*
X123685060Y-119554040I-200000J0D01*
G01*
X122385060Y-119554040D01*
G75*
G02*
X122185060Y-119354040I0J200000D01*
G01*
X122185060Y-118654040D01*
G75*
G02*
X122385060Y-118454040I200000J0D01*
G01*
G37*
G36*
G01*
X122385060Y-120354040D02*
X123685060Y-120354040D01*
G75*
G02*
X123885060Y-120554040I0J-200000D01*
G01*
X123885060Y-121254040D01*
G75*
G02*
X123685060Y-121454040I-200000J0D01*
G01*
X122385060Y-121454040D01*
G75*
G02*
X122185060Y-121254040I0J200000D01*
G01*
X122185060Y-120554040D01*
G75*
G02*
X122385060Y-120354040I200000J0D01*
G01*
G37*
%TD*%
%TO.C,L6*%
G36*
G01*
X127289800Y-116305200D02*
X128589800Y-116305200D01*
G75*
G02*
X128789800Y-116505200I0J-200000D01*
G01*
X128789800Y-117205200D01*
G75*
G02*
X128589800Y-117405200I-200000J0D01*
G01*
X127289800Y-117405200D01*
G75*
G02*
X127089800Y-117205200I0J200000D01*
G01*
X127089800Y-116505200D01*
G75*
G02*
X127289800Y-116305200I200000J0D01*
G01*
G37*
G36*
G01*
X127289800Y-118205200D02*
X128589800Y-118205200D01*
G75*
G02*
X128789800Y-118405200I0J-200000D01*
G01*
X128789800Y-119105200D01*
G75*
G02*
X128589800Y-119305200I-200000J0D01*
G01*
X127289800Y-119305200D01*
G75*
G02*
X127089800Y-119105200I0J200000D01*
G01*
X127089800Y-118405200D01*
G75*
G02*
X127289800Y-118205200I200000J0D01*
G01*
G37*
%TD*%
%TO.C,R1*%
G36*
G01*
X132769000Y-65656000D02*
X132769000Y-64756000D01*
G75*
G02*
X132969000Y-64556000I200000J0D01*
G01*
X133469000Y-64556000D01*
G75*
G02*
X133669000Y-64756000I0J-200000D01*
G01*
X133669000Y-65656000D01*
G75*
G02*
X133469000Y-65856000I-200000J0D01*
G01*
X132969000Y-65856000D01*
G75*
G02*
X132769000Y-65656000I0J200000D01*
G01*
G37*
G36*
G01*
X134269000Y-65656000D02*
X134269000Y-64756000D01*
G75*
G02*
X134469000Y-64556000I200000J0D01*
G01*
X134969000Y-64556000D01*
G75*
G02*
X135169000Y-64756000I0J-200000D01*
G01*
X135169000Y-65656000D01*
G75*
G02*
X134969000Y-65856000I-200000J0D01*
G01*
X134469000Y-65856000D01*
G75*
G02*
X134269000Y-65656000I0J200000D01*
G01*
G37*
%TD*%
%TO.C,R2*%
G36*
G01*
X133420000Y-93160000D02*
X133420000Y-92260000D01*
G75*
G02*
X133620000Y-92060000I200000J0D01*
G01*
X134120000Y-92060000D01*
G75*
G02*
X134320000Y-92260000I0J-200000D01*
G01*
X134320000Y-93160000D01*
G75*
G02*
X134120000Y-93360000I-200000J0D01*
G01*
X133620000Y-93360000D01*
G75*
G02*
X133420000Y-93160000I0J200000D01*
G01*
G37*
G36*
G01*
X134920000Y-93160000D02*
X134920000Y-92260000D01*
G75*
G02*
X135120000Y-92060000I200000J0D01*
G01*
X135620000Y-92060000D01*
G75*
G02*
X135820000Y-92260000I0J-200000D01*
G01*
X135820000Y-93160000D01*
G75*
G02*
X135620000Y-93360000I-200000J0D01*
G01*
X135120000Y-93360000D01*
G75*
G02*
X134920000Y-93160000I0J200000D01*
G01*
G37*
%TD*%
%TO.C,U1*%
G36*
G01*
X133904000Y-79516000D02*
X133654000Y-79516000D01*
G75*
G02*
X133454000Y-79316000I0J200000D01*
G01*
X133454000Y-78616000D01*
G75*
G02*
X133654000Y-78416000I200000J0D01*
G01*
X133904000Y-78416000D01*
G75*
G02*
X134104000Y-78616000I0J-200000D01*
G01*
X134104000Y-79316000D01*
G75*
G02*
X133904000Y-79516000I-200000J0D01*
G01*
G37*
G36*
G01*
X134404000Y-79516000D02*
X134154000Y-79516000D01*
G75*
G02*
X133954000Y-79316000I0J200000D01*
G01*
X133954000Y-78616000D01*
G75*
G02*
X134154000Y-78416000I200000J0D01*
G01*
X134404000Y-78416000D01*
G75*
G02*
X134604000Y-78616000I0J-200000D01*
G01*
X134604000Y-79316000D01*
G75*
G02*
X134404000Y-79516000I-200000J0D01*
G01*
G37*
G36*
G01*
X134904000Y-79516000D02*
X134654000Y-79516000D01*
G75*
G02*
X134454000Y-79316000I0J200000D01*
G01*
X134454000Y-78616000D01*
G75*
G02*
X134654000Y-78416000I200000J0D01*
G01*
X134904000Y-78416000D01*
G75*
G02*
X135104000Y-78616000I0J-200000D01*
G01*
X135104000Y-79316000D01*
G75*
G02*
X134904000Y-79516000I-200000J0D01*
G01*
G37*
G36*
G01*
X135404000Y-79516000D02*
X135154000Y-79516000D01*
G75*
G02*
X134954000Y-79316000I0J200000D01*
G01*
X134954000Y-78616000D01*
G75*
G02*
X135154000Y-78416000I200000J0D01*
G01*
X135404000Y-78416000D01*
G75*
G02*
X135604000Y-78616000I0J-200000D01*
G01*
X135604000Y-79316000D01*
G75*
G02*
X135404000Y-79516000I-200000J0D01*
G01*
G37*
G36*
G01*
X135904000Y-79516000D02*
X135654000Y-79516000D01*
G75*
G02*
X135454000Y-79316000I0J200000D01*
G01*
X135454000Y-78616000D01*
G75*
G02*
X135654000Y-78416000I200000J0D01*
G01*
X135904000Y-78416000D01*
G75*
G02*
X136104000Y-78616000I0J-200000D01*
G01*
X136104000Y-79316000D01*
G75*
G02*
X135904000Y-79516000I-200000J0D01*
G01*
G37*
G36*
G01*
X136404000Y-79516000D02*
X136154000Y-79516000D01*
G75*
G02*
X135954000Y-79316000I0J200000D01*
G01*
X135954000Y-78616000D01*
G75*
G02*
X136154000Y-78416000I200000J0D01*
G01*
X136404000Y-78416000D01*
G75*
G02*
X136604000Y-78616000I0J-200000D01*
G01*
X136604000Y-79316000D01*
G75*
G02*
X136404000Y-79516000I-200000J0D01*
G01*
G37*
G36*
G01*
X136904000Y-79516000D02*
X136654000Y-79516000D01*
G75*
G02*
X136454000Y-79316000I0J200000D01*
G01*
X136454000Y-78616000D01*
G75*
G02*
X136654000Y-78416000I200000J0D01*
G01*
X136904000Y-78416000D01*
G75*
G02*
X137104000Y-78616000I0J-200000D01*
G01*
X137104000Y-79316000D01*
G75*
G02*
X136904000Y-79516000I-200000J0D01*
G01*
G37*
G36*
G01*
X137404000Y-79516000D02*
X137154000Y-79516000D01*
G75*
G02*
X136954000Y-79316000I0J200000D01*
G01*
X136954000Y-78616000D01*
G75*
G02*
X137154000Y-78416000I200000J0D01*
G01*
X137404000Y-78416000D01*
G75*
G02*
X137604000Y-78616000I0J-200000D01*
G01*
X137604000Y-79316000D01*
G75*
G02*
X137404000Y-79516000I-200000J0D01*
G01*
G37*
G36*
G01*
X138479000Y-78191000D02*
X138479000Y-78441000D01*
G75*
G02*
X138279000Y-78641000I-200000J0D01*
G01*
X137579000Y-78641000D01*
G75*
G02*
X137379000Y-78441000I0J200000D01*
G01*
X137379000Y-78191000D01*
G75*
G02*
X137579000Y-77991000I200000J0D01*
G01*
X138279000Y-77991000D01*
G75*
G02*
X138479000Y-78191000I0J-200000D01*
G01*
G37*
G36*
G01*
X138479000Y-77691000D02*
X138479000Y-77941000D01*
G75*
G02*
X138279000Y-78141000I-200000J0D01*
G01*
X137579000Y-78141000D01*
G75*
G02*
X137379000Y-77941000I0J200000D01*
G01*
X137379000Y-77691000D01*
G75*
G02*
X137579000Y-77491000I200000J0D01*
G01*
X138279000Y-77491000D01*
G75*
G02*
X138479000Y-77691000I0J-200000D01*
G01*
G37*
G36*
G01*
X138479000Y-77191000D02*
X138479000Y-77441000D01*
G75*
G02*
X138279000Y-77641000I-200000J0D01*
G01*
X137579000Y-77641000D01*
G75*
G02*
X137379000Y-77441000I0J200000D01*
G01*
X137379000Y-77191000D01*
G75*
G02*
X137579000Y-76991000I200000J0D01*
G01*
X138279000Y-76991000D01*
G75*
G02*
X138479000Y-77191000I0J-200000D01*
G01*
G37*
G36*
G01*
X138479000Y-76691000D02*
X138479000Y-76941000D01*
G75*
G02*
X138279000Y-77141000I-200000J0D01*
G01*
X137579000Y-77141000D01*
G75*
G02*
X137379000Y-76941000I0J200000D01*
G01*
X137379000Y-76691000D01*
G75*
G02*
X137579000Y-76491000I200000J0D01*
G01*
X138279000Y-76491000D01*
G75*
G02*
X138479000Y-76691000I0J-200000D01*
G01*
G37*
G36*
G01*
X138479000Y-76191000D02*
X138479000Y-76441000D01*
G75*
G02*
X138279000Y-76641000I-200000J0D01*
G01*
X137579000Y-76641000D01*
G75*
G02*
X137379000Y-76441000I0J200000D01*
G01*
X137379000Y-76191000D01*
G75*
G02*
X137579000Y-75991000I200000J0D01*
G01*
X138279000Y-75991000D01*
G75*
G02*
X138479000Y-76191000I0J-200000D01*
G01*
G37*
G36*
G01*
X138479000Y-75691000D02*
X138479000Y-75941000D01*
G75*
G02*
X138279000Y-76141000I-200000J0D01*
G01*
X137579000Y-76141000D01*
G75*
G02*
X137379000Y-75941000I0J200000D01*
G01*
X137379000Y-75691000D01*
G75*
G02*
X137579000Y-75491000I200000J0D01*
G01*
X138279000Y-75491000D01*
G75*
G02*
X138479000Y-75691000I0J-200000D01*
G01*
G37*
G36*
G01*
X138479000Y-75191000D02*
X138479000Y-75441000D01*
G75*
G02*
X138279000Y-75641000I-200000J0D01*
G01*
X137579000Y-75641000D01*
G75*
G02*
X137379000Y-75441000I0J200000D01*
G01*
X137379000Y-75191000D01*
G75*
G02*
X137579000Y-74991000I200000J0D01*
G01*
X138279000Y-74991000D01*
G75*
G02*
X138479000Y-75191000I0J-200000D01*
G01*
G37*
G36*
G01*
X138479000Y-74691000D02*
X138479000Y-74941000D01*
G75*
G02*
X138279000Y-75141000I-200000J0D01*
G01*
X137579000Y-75141000D01*
G75*
G02*
X137379000Y-74941000I0J200000D01*
G01*
X137379000Y-74691000D01*
G75*
G02*
X137579000Y-74491000I200000J0D01*
G01*
X138279000Y-74491000D01*
G75*
G02*
X138479000Y-74691000I0J-200000D01*
G01*
G37*
G36*
G01*
X137404000Y-74716000D02*
X137154000Y-74716000D01*
G75*
G02*
X136954000Y-74516000I0J200000D01*
G01*
X136954000Y-73816000D01*
G75*
G02*
X137154000Y-73616000I200000J0D01*
G01*
X137404000Y-73616000D01*
G75*
G02*
X137604000Y-73816000I0J-200000D01*
G01*
X137604000Y-74516000D01*
G75*
G02*
X137404000Y-74716000I-200000J0D01*
G01*
G37*
G36*
G01*
X136904000Y-74716000D02*
X136654000Y-74716000D01*
G75*
G02*
X136454000Y-74516000I0J200000D01*
G01*
X136454000Y-73816000D01*
G75*
G02*
X136654000Y-73616000I200000J0D01*
G01*
X136904000Y-73616000D01*
G75*
G02*
X137104000Y-73816000I0J-200000D01*
G01*
X137104000Y-74516000D01*
G75*
G02*
X136904000Y-74716000I-200000J0D01*
G01*
G37*
G36*
G01*
X136404000Y-74716000D02*
X136154000Y-74716000D01*
G75*
G02*
X135954000Y-74516000I0J200000D01*
G01*
X135954000Y-73816000D01*
G75*
G02*
X136154000Y-73616000I200000J0D01*
G01*
X136404000Y-73616000D01*
G75*
G02*
X136604000Y-73816000I0J-200000D01*
G01*
X136604000Y-74516000D01*
G75*
G02*
X136404000Y-74716000I-200000J0D01*
G01*
G37*
G36*
G01*
X135904000Y-74716000D02*
X135654000Y-74716000D01*
G75*
G02*
X135454000Y-74516000I0J200000D01*
G01*
X135454000Y-73816000D01*
G75*
G02*
X135654000Y-73616000I200000J0D01*
G01*
X135904000Y-73616000D01*
G75*
G02*
X136104000Y-73816000I0J-200000D01*
G01*
X136104000Y-74516000D01*
G75*
G02*
X135904000Y-74716000I-200000J0D01*
G01*
G37*
G36*
G01*
X135404000Y-74716000D02*
X135154000Y-74716000D01*
G75*
G02*
X134954000Y-74516000I0J200000D01*
G01*
X134954000Y-73816000D01*
G75*
G02*
X135154000Y-73616000I200000J0D01*
G01*
X135404000Y-73616000D01*
G75*
G02*
X135604000Y-73816000I0J-200000D01*
G01*
X135604000Y-74516000D01*
G75*
G02*
X135404000Y-74716000I-200000J0D01*
G01*
G37*
G36*
G01*
X134904000Y-74716000D02*
X134654000Y-74716000D01*
G75*
G02*
X134454000Y-74516000I0J200000D01*
G01*
X134454000Y-73816000D01*
G75*
G02*
X134654000Y-73616000I200000J0D01*
G01*
X134904000Y-73616000D01*
G75*
G02*
X135104000Y-73816000I0J-200000D01*
G01*
X135104000Y-74516000D01*
G75*
G02*
X134904000Y-74716000I-200000J0D01*
G01*
G37*
G36*
G01*
X134404000Y-74716000D02*
X134154000Y-74716000D01*
G75*
G02*
X133954000Y-74516000I0J200000D01*
G01*
X133954000Y-73816000D01*
G75*
G02*
X134154000Y-73616000I200000J0D01*
G01*
X134404000Y-73616000D01*
G75*
G02*
X134604000Y-73816000I0J-200000D01*
G01*
X134604000Y-74516000D01*
G75*
G02*
X134404000Y-74716000I-200000J0D01*
G01*
G37*
G36*
G01*
X133904000Y-74716000D02*
X133654000Y-74716000D01*
G75*
G02*
X133454000Y-74516000I0J200000D01*
G01*
X133454000Y-73816000D01*
G75*
G02*
X133654000Y-73616000I200000J0D01*
G01*
X133904000Y-73616000D01*
G75*
G02*
X134104000Y-73816000I0J-200000D01*
G01*
X134104000Y-74516000D01*
G75*
G02*
X133904000Y-74716000I-200000J0D01*
G01*
G37*
G36*
G01*
X133679000Y-74691000D02*
X133679000Y-74941000D01*
G75*
G02*
X133479000Y-75141000I-200000J0D01*
G01*
X132779000Y-75141000D01*
G75*
G02*
X132579000Y-74941000I0J200000D01*
G01*
X132579000Y-74691000D01*
G75*
G02*
X132779000Y-74491000I200000J0D01*
G01*
X133479000Y-74491000D01*
G75*
G02*
X133679000Y-74691000I0J-200000D01*
G01*
G37*
G36*
G01*
X133679000Y-75191000D02*
X133679000Y-75441000D01*
G75*
G02*
X133479000Y-75641000I-200000J0D01*
G01*
X132779000Y-75641000D01*
G75*
G02*
X132579000Y-75441000I0J200000D01*
G01*
X132579000Y-75191000D01*
G75*
G02*
X132779000Y-74991000I200000J0D01*
G01*
X133479000Y-74991000D01*
G75*
G02*
X133679000Y-75191000I0J-200000D01*
G01*
G37*
G36*
G01*
X133679000Y-75691000D02*
X133679000Y-75941000D01*
G75*
G02*
X133479000Y-76141000I-200000J0D01*
G01*
X132779000Y-76141000D01*
G75*
G02*
X132579000Y-75941000I0J200000D01*
G01*
X132579000Y-75691000D01*
G75*
G02*
X132779000Y-75491000I200000J0D01*
G01*
X133479000Y-75491000D01*
G75*
G02*
X133679000Y-75691000I0J-200000D01*
G01*
G37*
G36*
G01*
X133679000Y-76191000D02*
X133679000Y-76441000D01*
G75*
G02*
X133479000Y-76641000I-200000J0D01*
G01*
X132779000Y-76641000D01*
G75*
G02*
X132579000Y-76441000I0J200000D01*
G01*
X132579000Y-76191000D01*
G75*
G02*
X132779000Y-75991000I200000J0D01*
G01*
X133479000Y-75991000D01*
G75*
G02*
X133679000Y-76191000I0J-200000D01*
G01*
G37*
G36*
G01*
X133679000Y-76691000D02*
X133679000Y-76941000D01*
G75*
G02*
X133479000Y-77141000I-200000J0D01*
G01*
X132779000Y-77141000D01*
G75*
G02*
X132579000Y-76941000I0J200000D01*
G01*
X132579000Y-76691000D01*
G75*
G02*
X132779000Y-76491000I200000J0D01*
G01*
X133479000Y-76491000D01*
G75*
G02*
X133679000Y-76691000I0J-200000D01*
G01*
G37*
G36*
G01*
X133679000Y-77191000D02*
X133679000Y-77441000D01*
G75*
G02*
X133479000Y-77641000I-200000J0D01*
G01*
X132779000Y-77641000D01*
G75*
G02*
X132579000Y-77441000I0J200000D01*
G01*
X132579000Y-77191000D01*
G75*
G02*
X132779000Y-76991000I200000J0D01*
G01*
X133479000Y-76991000D01*
G75*
G02*
X133679000Y-77191000I0J-200000D01*
G01*
G37*
G36*
G01*
X133679000Y-77691000D02*
X133679000Y-77941000D01*
G75*
G02*
X133479000Y-78141000I-200000J0D01*
G01*
X132779000Y-78141000D01*
G75*
G02*
X132579000Y-77941000I0J200000D01*
G01*
X132579000Y-77691000D01*
G75*
G02*
X132779000Y-77491000I200000J0D01*
G01*
X133479000Y-77491000D01*
G75*
G02*
X133679000Y-77691000I0J-200000D01*
G01*
G37*
G36*
G01*
X133679000Y-78191000D02*
X133679000Y-78441000D01*
G75*
G02*
X133479000Y-78641000I-200000J0D01*
G01*
X132779000Y-78641000D01*
G75*
G02*
X132579000Y-78441000I0J200000D01*
G01*
X132579000Y-78191000D01*
G75*
G02*
X132779000Y-77991000I200000J0D01*
G01*
X133479000Y-77991000D01*
G75*
G02*
X133679000Y-78191000I0J-200000D01*
G01*
G37*
G36*
G01*
X137254000Y-76766000D02*
X135529000Y-76766000D01*
G75*
G02*
X135329000Y-76566000I0J200000D01*
G01*
X135329000Y-74841000D01*
G75*
G02*
X135529000Y-74641000I200000J0D01*
G01*
X137254000Y-74641000D01*
G75*
G02*
X137454000Y-74841000I0J-200000D01*
G01*
X137454000Y-76566000D01*
G75*
G02*
X137254000Y-76766000I-200000J0D01*
G01*
G37*
G36*
G01*
X135529000Y-76766000D02*
X133804000Y-76766000D01*
G75*
G02*
X133604000Y-76566000I0J200000D01*
G01*
X133604000Y-74841000D01*
G75*
G02*
X133804000Y-74641000I200000J0D01*
G01*
X135529000Y-74641000D01*
G75*
G02*
X135729000Y-74841000I0J-200000D01*
G01*
X135729000Y-76566000D01*
G75*
G02*
X135529000Y-76766000I-200000J0D01*
G01*
G37*
G36*
G01*
X137254000Y-78491000D02*
X135529000Y-78491000D01*
G75*
G02*
X135329000Y-78291000I0J200000D01*
G01*
X135329000Y-76566000D01*
G75*
G02*
X135529000Y-76366000I200000J0D01*
G01*
X137254000Y-76366000D01*
G75*
G02*
X137454000Y-76566000I0J-200000D01*
G01*
X137454000Y-78291000D01*
G75*
G02*
X137254000Y-78491000I-200000J0D01*
G01*
G37*
G36*
G01*
X135529000Y-78491000D02*
X133804000Y-78491000D01*
G75*
G02*
X133604000Y-78291000I0J200000D01*
G01*
X133604000Y-76566000D01*
G75*
G02*
X133804000Y-76366000I200000J0D01*
G01*
X135529000Y-76366000D01*
G75*
G02*
X135729000Y-76566000I0J-200000D01*
G01*
X135729000Y-78291000D01*
G75*
G02*
X135529000Y-78491000I-200000J0D01*
G01*
G37*
%TD*%
%TO.C,U2*%
G36*
G01*
X133259000Y-108876000D02*
X132959000Y-108876000D01*
G75*
G02*
X132759000Y-108676000I0J200000D01*
G01*
X132759000Y-108176000D01*
G75*
G02*
X132959000Y-107976000I200000J0D01*
G01*
X133259000Y-107976000D01*
G75*
G02*
X133459000Y-108176000I0J-200000D01*
G01*
X133459000Y-108676000D01*
G75*
G02*
X133259000Y-108876000I-200000J0D01*
G01*
G37*
G36*
G01*
X133759000Y-108876000D02*
X133459000Y-108876000D01*
G75*
G02*
X133259000Y-108676000I0J200000D01*
G01*
X133259000Y-108176000D01*
G75*
G02*
X133459000Y-107976000I200000J0D01*
G01*
X133759000Y-107976000D01*
G75*
G02*
X133959000Y-108176000I0J-200000D01*
G01*
X133959000Y-108676000D01*
G75*
G02*
X133759000Y-108876000I-200000J0D01*
G01*
G37*
G36*
G01*
X134259000Y-108876000D02*
X133959000Y-108876000D01*
G75*
G02*
X133759000Y-108676000I0J200000D01*
G01*
X133759000Y-108176000D01*
G75*
G02*
X133959000Y-107976000I200000J0D01*
G01*
X134259000Y-107976000D01*
G75*
G02*
X134459000Y-108176000I0J-200000D01*
G01*
X134459000Y-108676000D01*
G75*
G02*
X134259000Y-108876000I-200000J0D01*
G01*
G37*
G36*
G01*
X134759000Y-108876000D02*
X134459000Y-108876000D01*
G75*
G02*
X134259000Y-108676000I0J200000D01*
G01*
X134259000Y-108176000D01*
G75*
G02*
X134459000Y-107976000I200000J0D01*
G01*
X134759000Y-107976000D01*
G75*
G02*
X134959000Y-108176000I0J-200000D01*
G01*
X134959000Y-108676000D01*
G75*
G02*
X134759000Y-108876000I-200000J0D01*
G01*
G37*
G36*
G01*
X135259000Y-108876000D02*
X134959000Y-108876000D01*
G75*
G02*
X134759000Y-108676000I0J200000D01*
G01*
X134759000Y-108176000D01*
G75*
G02*
X134959000Y-107976000I200000J0D01*
G01*
X135259000Y-107976000D01*
G75*
G02*
X135459000Y-108176000I0J-200000D01*
G01*
X135459000Y-108676000D01*
G75*
G02*
X135259000Y-108876000I-200000J0D01*
G01*
G37*
G36*
G01*
X135759000Y-108876000D02*
X135459000Y-108876000D01*
G75*
G02*
X135259000Y-108676000I0J200000D01*
G01*
X135259000Y-108176000D01*
G75*
G02*
X135459000Y-107976000I200000J0D01*
G01*
X135759000Y-107976000D01*
G75*
G02*
X135959000Y-108176000I0J-200000D01*
G01*
X135959000Y-108676000D01*
G75*
G02*
X135759000Y-108876000I-200000J0D01*
G01*
G37*
G36*
G01*
X136259000Y-108876000D02*
X135959000Y-108876000D01*
G75*
G02*
X135759000Y-108676000I0J200000D01*
G01*
X135759000Y-108176000D01*
G75*
G02*
X135959000Y-107976000I200000J0D01*
G01*
X136259000Y-107976000D01*
G75*
G02*
X136459000Y-108176000I0J-200000D01*
G01*
X136459000Y-108676000D01*
G75*
G02*
X136259000Y-108876000I-200000J0D01*
G01*
G37*
G36*
G01*
X136759000Y-108876000D02*
X136459000Y-108876000D01*
G75*
G02*
X136259000Y-108676000I0J200000D01*
G01*
X136259000Y-108176000D01*
G75*
G02*
X136459000Y-107976000I200000J0D01*
G01*
X136759000Y-107976000D01*
G75*
G02*
X136959000Y-108176000I0J-200000D01*
G01*
X136959000Y-108676000D01*
G75*
G02*
X136759000Y-108876000I-200000J0D01*
G01*
G37*
G36*
G01*
X137259000Y-108876000D02*
X136959000Y-108876000D01*
G75*
G02*
X136759000Y-108676000I0J200000D01*
G01*
X136759000Y-108176000D01*
G75*
G02*
X136959000Y-107976000I200000J0D01*
G01*
X137259000Y-107976000D01*
G75*
G02*
X137459000Y-108176000I0J-200000D01*
G01*
X137459000Y-108676000D01*
G75*
G02*
X137259000Y-108876000I-200000J0D01*
G01*
G37*
G36*
G01*
X137759000Y-108876000D02*
X137459000Y-108876000D01*
G75*
G02*
X137259000Y-108676000I0J200000D01*
G01*
X137259000Y-108176000D01*
G75*
G02*
X137459000Y-107976000I200000J0D01*
G01*
X137759000Y-107976000D01*
G75*
G02*
X137959000Y-108176000I0J-200000D01*
G01*
X137959000Y-108676000D01*
G75*
G02*
X137759000Y-108876000I-200000J0D01*
G01*
G37*
G36*
G01*
X138809000Y-107526000D02*
X138809000Y-107826000D01*
G75*
G02*
X138609000Y-108026000I-200000J0D01*
G01*
X138109000Y-108026000D01*
G75*
G02*
X137909000Y-107826000I0J200000D01*
G01*
X137909000Y-107526000D01*
G75*
G02*
X138109000Y-107326000I200000J0D01*
G01*
X138609000Y-107326000D01*
G75*
G02*
X138809000Y-107526000I0J-200000D01*
G01*
G37*
G36*
G01*
X138809000Y-107026000D02*
X138809000Y-107326000D01*
G75*
G02*
X138609000Y-107526000I-200000J0D01*
G01*
X138109000Y-107526000D01*
G75*
G02*
X137909000Y-107326000I0J200000D01*
G01*
X137909000Y-107026000D01*
G75*
G02*
X138109000Y-106826000I200000J0D01*
G01*
X138609000Y-106826000D01*
G75*
G02*
X138809000Y-107026000I0J-200000D01*
G01*
G37*
G36*
G01*
X138809000Y-106526000D02*
X138809000Y-106826000D01*
G75*
G02*
X138609000Y-107026000I-200000J0D01*
G01*
X138109000Y-107026000D01*
G75*
G02*
X137909000Y-106826000I0J200000D01*
G01*
X137909000Y-106526000D01*
G75*
G02*
X138109000Y-106326000I200000J0D01*
G01*
X138609000Y-106326000D01*
G75*
G02*
X138809000Y-106526000I0J-200000D01*
G01*
G37*
G36*
G01*
X138809000Y-106026000D02*
X138809000Y-106326000D01*
G75*
G02*
X138609000Y-106526000I-200000J0D01*
G01*
X138109000Y-106526000D01*
G75*
G02*
X137909000Y-106326000I0J200000D01*
G01*
X137909000Y-106026000D01*
G75*
G02*
X138109000Y-105826000I200000J0D01*
G01*
X138609000Y-105826000D01*
G75*
G02*
X138809000Y-106026000I0J-200000D01*
G01*
G37*
G36*
G01*
X138809000Y-105526000D02*
X138809000Y-105826000D01*
G75*
G02*
X138609000Y-106026000I-200000J0D01*
G01*
X138109000Y-106026000D01*
G75*
G02*
X137909000Y-105826000I0J200000D01*
G01*
X137909000Y-105526000D01*
G75*
G02*
X138109000Y-105326000I200000J0D01*
G01*
X138609000Y-105326000D01*
G75*
G02*
X138809000Y-105526000I0J-200000D01*
G01*
G37*
G36*
G01*
X138809000Y-105026000D02*
X138809000Y-105326000D01*
G75*
G02*
X138609000Y-105526000I-200000J0D01*
G01*
X138109000Y-105526000D01*
G75*
G02*
X137909000Y-105326000I0J200000D01*
G01*
X137909000Y-105026000D01*
G75*
G02*
X138109000Y-104826000I200000J0D01*
G01*
X138609000Y-104826000D01*
G75*
G02*
X138809000Y-105026000I0J-200000D01*
G01*
G37*
G36*
G01*
X138809000Y-104526000D02*
X138809000Y-104826000D01*
G75*
G02*
X138609000Y-105026000I-200000J0D01*
G01*
X138109000Y-105026000D01*
G75*
G02*
X137909000Y-104826000I0J200000D01*
G01*
X137909000Y-104526000D01*
G75*
G02*
X138109000Y-104326000I200000J0D01*
G01*
X138609000Y-104326000D01*
G75*
G02*
X138809000Y-104526000I0J-200000D01*
G01*
G37*
G36*
G01*
X138809000Y-104026000D02*
X138809000Y-104326000D01*
G75*
G02*
X138609000Y-104526000I-200000J0D01*
G01*
X138109000Y-104526000D01*
G75*
G02*
X137909000Y-104326000I0J200000D01*
G01*
X137909000Y-104026000D01*
G75*
G02*
X138109000Y-103826000I200000J0D01*
G01*
X138609000Y-103826000D01*
G75*
G02*
X138809000Y-104026000I0J-200000D01*
G01*
G37*
G36*
G01*
X138809000Y-103526000D02*
X138809000Y-103826000D01*
G75*
G02*
X138609000Y-104026000I-200000J0D01*
G01*
X138109000Y-104026000D01*
G75*
G02*
X137909000Y-103826000I0J200000D01*
G01*
X137909000Y-103526000D01*
G75*
G02*
X138109000Y-103326000I200000J0D01*
G01*
X138609000Y-103326000D01*
G75*
G02*
X138809000Y-103526000I0J-200000D01*
G01*
G37*
G36*
G01*
X138809000Y-103026000D02*
X138809000Y-103326000D01*
G75*
G02*
X138609000Y-103526000I-200000J0D01*
G01*
X138109000Y-103526000D01*
G75*
G02*
X137909000Y-103326000I0J200000D01*
G01*
X137909000Y-103026000D01*
G75*
G02*
X138109000Y-102826000I200000J0D01*
G01*
X138609000Y-102826000D01*
G75*
G02*
X138809000Y-103026000I0J-200000D01*
G01*
G37*
G36*
G01*
X137759000Y-102876000D02*
X137459000Y-102876000D01*
G75*
G02*
X137259000Y-102676000I0J200000D01*
G01*
X137259000Y-102176000D01*
G75*
G02*
X137459000Y-101976000I200000J0D01*
G01*
X137759000Y-101976000D01*
G75*
G02*
X137959000Y-102176000I0J-200000D01*
G01*
X137959000Y-102676000D01*
G75*
G02*
X137759000Y-102876000I-200000J0D01*
G01*
G37*
G36*
G01*
X137259000Y-102876000D02*
X136959000Y-102876000D01*
G75*
G02*
X136759000Y-102676000I0J200000D01*
G01*
X136759000Y-102176000D01*
G75*
G02*
X136959000Y-101976000I200000J0D01*
G01*
X137259000Y-101976000D01*
G75*
G02*
X137459000Y-102176000I0J-200000D01*
G01*
X137459000Y-102676000D01*
G75*
G02*
X137259000Y-102876000I-200000J0D01*
G01*
G37*
G36*
G01*
X136759000Y-102876000D02*
X136459000Y-102876000D01*
G75*
G02*
X136259000Y-102676000I0J200000D01*
G01*
X136259000Y-102176000D01*
G75*
G02*
X136459000Y-101976000I200000J0D01*
G01*
X136759000Y-101976000D01*
G75*
G02*
X136959000Y-102176000I0J-200000D01*
G01*
X136959000Y-102676000D01*
G75*
G02*
X136759000Y-102876000I-200000J0D01*
G01*
G37*
G36*
G01*
X136259000Y-102876000D02*
X135959000Y-102876000D01*
G75*
G02*
X135759000Y-102676000I0J200000D01*
G01*
X135759000Y-102176000D01*
G75*
G02*
X135959000Y-101976000I200000J0D01*
G01*
X136259000Y-101976000D01*
G75*
G02*
X136459000Y-102176000I0J-200000D01*
G01*
X136459000Y-102676000D01*
G75*
G02*
X136259000Y-102876000I-200000J0D01*
G01*
G37*
G36*
G01*
X135759000Y-102876000D02*
X135459000Y-102876000D01*
G75*
G02*
X135259000Y-102676000I0J200000D01*
G01*
X135259000Y-102176000D01*
G75*
G02*
X135459000Y-101976000I200000J0D01*
G01*
X135759000Y-101976000D01*
G75*
G02*
X135959000Y-102176000I0J-200000D01*
G01*
X135959000Y-102676000D01*
G75*
G02*
X135759000Y-102876000I-200000J0D01*
G01*
G37*
G36*
G01*
X135259000Y-102876000D02*
X134959000Y-102876000D01*
G75*
G02*
X134759000Y-102676000I0J200000D01*
G01*
X134759000Y-102176000D01*
G75*
G02*
X134959000Y-101976000I200000J0D01*
G01*
X135259000Y-101976000D01*
G75*
G02*
X135459000Y-102176000I0J-200000D01*
G01*
X135459000Y-102676000D01*
G75*
G02*
X135259000Y-102876000I-200000J0D01*
G01*
G37*
G36*
G01*
X134759000Y-102876000D02*
X134459000Y-102876000D01*
G75*
G02*
X134259000Y-102676000I0J200000D01*
G01*
X134259000Y-102176000D01*
G75*
G02*
X134459000Y-101976000I200000J0D01*
G01*
X134759000Y-101976000D01*
G75*
G02*
X134959000Y-102176000I0J-200000D01*
G01*
X134959000Y-102676000D01*
G75*
G02*
X134759000Y-102876000I-200000J0D01*
G01*
G37*
G36*
G01*
X134259000Y-102876000D02*
X133959000Y-102876000D01*
G75*
G02*
X133759000Y-102676000I0J200000D01*
G01*
X133759000Y-102176000D01*
G75*
G02*
X133959000Y-101976000I200000J0D01*
G01*
X134259000Y-101976000D01*
G75*
G02*
X134459000Y-102176000I0J-200000D01*
G01*
X134459000Y-102676000D01*
G75*
G02*
X134259000Y-102876000I-200000J0D01*
G01*
G37*
G36*
G01*
X133759000Y-102876000D02*
X133459000Y-102876000D01*
G75*
G02*
X133259000Y-102676000I0J200000D01*
G01*
X133259000Y-102176000D01*
G75*
G02*
X133459000Y-101976000I200000J0D01*
G01*
X133759000Y-101976000D01*
G75*
G02*
X133959000Y-102176000I0J-200000D01*
G01*
X133959000Y-102676000D01*
G75*
G02*
X133759000Y-102876000I-200000J0D01*
G01*
G37*
G36*
G01*
X133259000Y-102876000D02*
X132959000Y-102876000D01*
G75*
G02*
X132759000Y-102676000I0J200000D01*
G01*
X132759000Y-102176000D01*
G75*
G02*
X132959000Y-101976000I200000J0D01*
G01*
X133259000Y-101976000D01*
G75*
G02*
X133459000Y-102176000I0J-200000D01*
G01*
X133459000Y-102676000D01*
G75*
G02*
X133259000Y-102876000I-200000J0D01*
G01*
G37*
G36*
G01*
X132809000Y-103026000D02*
X132809000Y-103326000D01*
G75*
G02*
X132609000Y-103526000I-200000J0D01*
G01*
X132109000Y-103526000D01*
G75*
G02*
X131909000Y-103326000I0J200000D01*
G01*
X131909000Y-103026000D01*
G75*
G02*
X132109000Y-102826000I200000J0D01*
G01*
X132609000Y-102826000D01*
G75*
G02*
X132809000Y-103026000I0J-200000D01*
G01*
G37*
G36*
G01*
X132809000Y-103526000D02*
X132809000Y-103826000D01*
G75*
G02*
X132609000Y-104026000I-200000J0D01*
G01*
X132109000Y-104026000D01*
G75*
G02*
X131909000Y-103826000I0J200000D01*
G01*
X131909000Y-103526000D01*
G75*
G02*
X132109000Y-103326000I200000J0D01*
G01*
X132609000Y-103326000D01*
G75*
G02*
X132809000Y-103526000I0J-200000D01*
G01*
G37*
G36*
G01*
X132809000Y-104026000D02*
X132809000Y-104326000D01*
G75*
G02*
X132609000Y-104526000I-200000J0D01*
G01*
X132109000Y-104526000D01*
G75*
G02*
X131909000Y-104326000I0J200000D01*
G01*
X131909000Y-104026000D01*
G75*
G02*
X132109000Y-103826000I200000J0D01*
G01*
X132609000Y-103826000D01*
G75*
G02*
X132809000Y-104026000I0J-200000D01*
G01*
G37*
G36*
G01*
X132809000Y-104526000D02*
X132809000Y-104826000D01*
G75*
G02*
X132609000Y-105026000I-200000J0D01*
G01*
X132109000Y-105026000D01*
G75*
G02*
X131909000Y-104826000I0J200000D01*
G01*
X131909000Y-104526000D01*
G75*
G02*
X132109000Y-104326000I200000J0D01*
G01*
X132609000Y-104326000D01*
G75*
G02*
X132809000Y-104526000I0J-200000D01*
G01*
G37*
G36*
G01*
X132809000Y-105026000D02*
X132809000Y-105326000D01*
G75*
G02*
X132609000Y-105526000I-200000J0D01*
G01*
X132109000Y-105526000D01*
G75*
G02*
X131909000Y-105326000I0J200000D01*
G01*
X131909000Y-105026000D01*
G75*
G02*
X132109000Y-104826000I200000J0D01*
G01*
X132609000Y-104826000D01*
G75*
G02*
X132809000Y-105026000I0J-200000D01*
G01*
G37*
G36*
G01*
X132809000Y-105526000D02*
X132809000Y-105826000D01*
G75*
G02*
X132609000Y-106026000I-200000J0D01*
G01*
X132109000Y-106026000D01*
G75*
G02*
X131909000Y-105826000I0J200000D01*
G01*
X131909000Y-105526000D01*
G75*
G02*
X132109000Y-105326000I200000J0D01*
G01*
X132609000Y-105326000D01*
G75*
G02*
X132809000Y-105526000I0J-200000D01*
G01*
G37*
G36*
G01*
X132809000Y-106026000D02*
X132809000Y-106326000D01*
G75*
G02*
X132609000Y-106526000I-200000J0D01*
G01*
X132109000Y-106526000D01*
G75*
G02*
X131909000Y-106326000I0J200000D01*
G01*
X131909000Y-106026000D01*
G75*
G02*
X132109000Y-105826000I200000J0D01*
G01*
X132609000Y-105826000D01*
G75*
G02*
X132809000Y-106026000I0J-200000D01*
G01*
G37*
G36*
G01*
X132809000Y-106526000D02*
X132809000Y-106826000D01*
G75*
G02*
X132609000Y-107026000I-200000J0D01*
G01*
X132109000Y-107026000D01*
G75*
G02*
X131909000Y-106826000I0J200000D01*
G01*
X131909000Y-106526000D01*
G75*
G02*
X132109000Y-106326000I200000J0D01*
G01*
X132609000Y-106326000D01*
G75*
G02*
X132809000Y-106526000I0J-200000D01*
G01*
G37*
G36*
G01*
X132809000Y-107026000D02*
X132809000Y-107326000D01*
G75*
G02*
X132609000Y-107526000I-200000J0D01*
G01*
X132109000Y-107526000D01*
G75*
G02*
X131909000Y-107326000I0J200000D01*
G01*
X131909000Y-107026000D01*
G75*
G02*
X132109000Y-106826000I200000J0D01*
G01*
X132609000Y-106826000D01*
G75*
G02*
X132809000Y-107026000I0J-200000D01*
G01*
G37*
G36*
G01*
X132809000Y-107526000D02*
X132809000Y-107826000D01*
G75*
G02*
X132609000Y-108026000I-200000J0D01*
G01*
X132109000Y-108026000D01*
G75*
G02*
X131909000Y-107826000I0J200000D01*
G01*
X131909000Y-107526000D01*
G75*
G02*
X132109000Y-107326000I200000J0D01*
G01*
X132609000Y-107326000D01*
G75*
G02*
X132809000Y-107526000I0J-200000D01*
G01*
G37*
G36*
G01*
X137659000Y-104476000D02*
X136509000Y-104476000D01*
G75*
G02*
X136309000Y-104276000I0J200000D01*
G01*
X136309000Y-103126000D01*
G75*
G02*
X136509000Y-102926000I200000J0D01*
G01*
X137659000Y-102926000D01*
G75*
G02*
X137859000Y-103126000I0J-200000D01*
G01*
X137859000Y-104276000D01*
G75*
G02*
X137659000Y-104476000I-200000J0D01*
G01*
G37*
G36*
G01*
X136509000Y-104476000D02*
X135359000Y-104476000D01*
G75*
G02*
X135159000Y-104276000I0J200000D01*
G01*
X135159000Y-103126000D01*
G75*
G02*
X135359000Y-102926000I200000J0D01*
G01*
X136509000Y-102926000D01*
G75*
G02*
X136709000Y-103126000I0J-200000D01*
G01*
X136709000Y-104276000D01*
G75*
G02*
X136509000Y-104476000I-200000J0D01*
G01*
G37*
G36*
G01*
X135359000Y-104476000D02*
X134209000Y-104476000D01*
G75*
G02*
X134009000Y-104276000I0J200000D01*
G01*
X134009000Y-103126000D01*
G75*
G02*
X134209000Y-102926000I200000J0D01*
G01*
X135359000Y-102926000D01*
G75*
G02*
X135559000Y-103126000I0J-200000D01*
G01*
X135559000Y-104276000D01*
G75*
G02*
X135359000Y-104476000I-200000J0D01*
G01*
G37*
G36*
G01*
X134209000Y-104476000D02*
X133059000Y-104476000D01*
G75*
G02*
X132859000Y-104276000I0J200000D01*
G01*
X132859000Y-103126000D01*
G75*
G02*
X133059000Y-102926000I200000J0D01*
G01*
X134209000Y-102926000D01*
G75*
G02*
X134409000Y-103126000I0J-200000D01*
G01*
X134409000Y-104276000D01*
G75*
G02*
X134209000Y-104476000I-200000J0D01*
G01*
G37*
G36*
G01*
X137659000Y-105626000D02*
X136509000Y-105626000D01*
G75*
G02*
X136309000Y-105426000I0J200000D01*
G01*
X136309000Y-104276000D01*
G75*
G02*
X136509000Y-104076000I200000J0D01*
G01*
X137659000Y-104076000D01*
G75*
G02*
X137859000Y-104276000I0J-200000D01*
G01*
X137859000Y-105426000D01*
G75*
G02*
X137659000Y-105626000I-200000J0D01*
G01*
G37*
G36*
G01*
X136509000Y-105626000D02*
X135359000Y-105626000D01*
G75*
G02*
X135159000Y-105426000I0J200000D01*
G01*
X135159000Y-104276000D01*
G75*
G02*
X135359000Y-104076000I200000J0D01*
G01*
X136509000Y-104076000D01*
G75*
G02*
X136709000Y-104276000I0J-200000D01*
G01*
X136709000Y-105426000D01*
G75*
G02*
X136509000Y-105626000I-200000J0D01*
G01*
G37*
G36*
G01*
X135359000Y-105626000D02*
X134209000Y-105626000D01*
G75*
G02*
X134009000Y-105426000I0J200000D01*
G01*
X134009000Y-104276000D01*
G75*
G02*
X134209000Y-104076000I200000J0D01*
G01*
X135359000Y-104076000D01*
G75*
G02*
X135559000Y-104276000I0J-200000D01*
G01*
X135559000Y-105426000D01*
G75*
G02*
X135359000Y-105626000I-200000J0D01*
G01*
G37*
G36*
G01*
X134209000Y-105626000D02*
X133059000Y-105626000D01*
G75*
G02*
X132859000Y-105426000I0J200000D01*
G01*
X132859000Y-104276000D01*
G75*
G02*
X133059000Y-104076000I200000J0D01*
G01*
X134209000Y-104076000D01*
G75*
G02*
X134409000Y-104276000I0J-200000D01*
G01*
X134409000Y-105426000D01*
G75*
G02*
X134209000Y-105626000I-200000J0D01*
G01*
G37*
G36*
G01*
X137659000Y-106776000D02*
X136509000Y-106776000D01*
G75*
G02*
X136309000Y-106576000I0J200000D01*
G01*
X136309000Y-105426000D01*
G75*
G02*
X136509000Y-105226000I200000J0D01*
G01*
X137659000Y-105226000D01*
G75*
G02*
X137859000Y-105426000I0J-200000D01*
G01*
X137859000Y-106576000D01*
G75*
G02*
X137659000Y-106776000I-200000J0D01*
G01*
G37*
G36*
G01*
X136509000Y-106776000D02*
X135359000Y-106776000D01*
G75*
G02*
X135159000Y-106576000I0J200000D01*
G01*
X135159000Y-105426000D01*
G75*
G02*
X135359000Y-105226000I200000J0D01*
G01*
X136509000Y-105226000D01*
G75*
G02*
X136709000Y-105426000I0J-200000D01*
G01*
X136709000Y-106576000D01*
G75*
G02*
X136509000Y-106776000I-200000J0D01*
G01*
G37*
G36*
G01*
X135359000Y-106776000D02*
X134209000Y-106776000D01*
G75*
G02*
X134009000Y-106576000I0J200000D01*
G01*
X134009000Y-105426000D01*
G75*
G02*
X134209000Y-105226000I200000J0D01*
G01*
X135359000Y-105226000D01*
G75*
G02*
X135559000Y-105426000I0J-200000D01*
G01*
X135559000Y-106576000D01*
G75*
G02*
X135359000Y-106776000I-200000J0D01*
G01*
G37*
G36*
G01*
X134209000Y-106776000D02*
X133059000Y-106776000D01*
G75*
G02*
X132859000Y-106576000I0J200000D01*
G01*
X132859000Y-105426000D01*
G75*
G02*
X133059000Y-105226000I200000J0D01*
G01*
X134209000Y-105226000D01*
G75*
G02*
X134409000Y-105426000I0J-200000D01*
G01*
X134409000Y-106576000D01*
G75*
G02*
X134209000Y-106776000I-200000J0D01*
G01*
G37*
G36*
G01*
X137659000Y-107926000D02*
X136509000Y-107926000D01*
G75*
G02*
X136309000Y-107726000I0J200000D01*
G01*
X136309000Y-106576000D01*
G75*
G02*
X136509000Y-106376000I200000J0D01*
G01*
X137659000Y-106376000D01*
G75*
G02*
X137859000Y-106576000I0J-200000D01*
G01*
X137859000Y-107726000D01*
G75*
G02*
X137659000Y-107926000I-200000J0D01*
G01*
G37*
G36*
G01*
X136509000Y-107926000D02*
X135359000Y-107926000D01*
G75*
G02*
X135159000Y-107726000I0J200000D01*
G01*
X135159000Y-106576000D01*
G75*
G02*
X135359000Y-106376000I200000J0D01*
G01*
X136509000Y-106376000D01*
G75*
G02*
X136709000Y-106576000I0J-200000D01*
G01*
X136709000Y-107726000D01*
G75*
G02*
X136509000Y-107926000I-200000J0D01*
G01*
G37*
G36*
G01*
X135359000Y-107926000D02*
X134209000Y-107926000D01*
G75*
G02*
X134009000Y-107726000I0J200000D01*
G01*
X134009000Y-106576000D01*
G75*
G02*
X134209000Y-106376000I200000J0D01*
G01*
X135359000Y-106376000D01*
G75*
G02*
X135559000Y-106576000I0J-200000D01*
G01*
X135559000Y-107726000D01*
G75*
G02*
X135359000Y-107926000I-200000J0D01*
G01*
G37*
G36*
G01*
X134209000Y-107926000D02*
X133059000Y-107926000D01*
G75*
G02*
X132859000Y-107726000I0J200000D01*
G01*
X132859000Y-106576000D01*
G75*
G02*
X133059000Y-106376000I200000J0D01*
G01*
X134209000Y-106376000D01*
G75*
G02*
X134409000Y-106576000I0J-200000D01*
G01*
X134409000Y-107726000D01*
G75*
G02*
X134209000Y-107926000I-200000J0D01*
G01*
G37*
%TD*%
D13*
%TO.C,Y1*%
X125809000Y-70236000D03*
X125809000Y-65336000D03*
%TD*%
D14*
%TO.C,J1*%
X118949000Y-83556000D03*
%TD*%
%TO.C,J2*%
X118929000Y-86156000D03*
%TD*%
%TO.C,J3*%
X118869000Y-88746000D03*
%TD*%
%TO.C,J4*%
X118899000Y-91336000D03*
%TD*%
%TO.C,J5*%
X118979000Y-93966000D03*
%TD*%
%TO.C,C39*%
G36*
G01*
X138520000Y-73035000D02*
X138520000Y-71785000D01*
G75*
G02*
X138720000Y-71585000I200000J0D01*
G01*
X139720000Y-71585000D01*
G75*
G02*
X139920000Y-71785000I0J-200000D01*
G01*
X139920000Y-73035000D01*
G75*
G02*
X139720000Y-73235000I-200000J0D01*
G01*
X138720000Y-73235000D01*
G75*
G02*
X138520000Y-73035000I0J200000D01*
G01*
G37*
G36*
G01*
X140520000Y-73035000D02*
X140520000Y-71785000D01*
G75*
G02*
X140720000Y-71585000I200000J0D01*
G01*
X141720000Y-71585000D01*
G75*
G02*
X141920000Y-71785000I0J-200000D01*
G01*
X141920000Y-73035000D01*
G75*
G02*
X141720000Y-73235000I-200000J0D01*
G01*
X140720000Y-73235000D01*
G75*
G02*
X140520000Y-73035000I0J200000D01*
G01*
G37*
%TD*%
%TO.C,D5*%
G36*
G01*
X125290000Y-54940000D02*
X125290000Y-56540000D01*
G75*
G02*
X125090000Y-56740000I-200000J0D01*
G01*
X123490000Y-56740000D01*
G75*
G02*
X123290000Y-56540000I0J200000D01*
G01*
X123290000Y-54940000D01*
G75*
G02*
X123490000Y-54740000I200000J0D01*
G01*
X125090000Y-54740000D01*
G75*
G02*
X125290000Y-54940000I0J-200000D01*
G01*
G37*
D15*
X121750000Y-55740000D03*
%TD*%
%TO.C,R3*%
G36*
G01*
X118140000Y-57690000D02*
X117240000Y-57690000D01*
G75*
G02*
X117040000Y-57490000I0J200000D01*
G01*
X117040000Y-56990000D01*
G75*
G02*
X117240000Y-56790000I200000J0D01*
G01*
X118140000Y-56790000D01*
G75*
G02*
X118340000Y-56990000I0J-200000D01*
G01*
X118340000Y-57490000D01*
G75*
G02*
X118140000Y-57690000I-200000J0D01*
G01*
G37*
G36*
G01*
X118140000Y-56190000D02*
X117240000Y-56190000D01*
G75*
G02*
X117040000Y-55990000I0J200000D01*
G01*
X117040000Y-55490000D01*
G75*
G02*
X117240000Y-55290000I200000J0D01*
G01*
X118140000Y-55290000D01*
G75*
G02*
X118340000Y-55490000I0J-200000D01*
G01*
X118340000Y-55990000D01*
G75*
G02*
X118140000Y-56190000I-200000J0D01*
G01*
G37*
%TD*%
%TO.C,C40*%
G36*
G01*
X151235000Y-70640000D02*
X151985000Y-70640000D01*
G75*
G02*
X152185000Y-70840000I0J-200000D01*
G01*
X152185000Y-71640000D01*
G75*
G02*
X151985000Y-71840000I-200000J0D01*
G01*
X151235000Y-71840000D01*
G75*
G02*
X151035000Y-71640000I0J200000D01*
G01*
X151035000Y-70840000D01*
G75*
G02*
X151235000Y-70640000I200000J0D01*
G01*
G37*
G36*
G01*
X151235000Y-69140000D02*
X151985000Y-69140000D01*
G75*
G02*
X152185000Y-69340000I0J-200000D01*
G01*
X152185000Y-70140000D01*
G75*
G02*
X151985000Y-70340000I-200000J0D01*
G01*
X151235000Y-70340000D01*
G75*
G02*
X151035000Y-70140000I0J200000D01*
G01*
X151035000Y-69340000D01*
G75*
G02*
X151235000Y-69140000I200000J0D01*
G01*
G37*
%TD*%
%TO.C,R4*%
G36*
G01*
X119600000Y-66280000D02*
X120500000Y-66280000D01*
G75*
G02*
X120700000Y-66480000I0J-200000D01*
G01*
X120700000Y-66980000D01*
G75*
G02*
X120500000Y-67180000I-200000J0D01*
G01*
X119600000Y-67180000D01*
G75*
G02*
X119400000Y-66980000I0J200000D01*
G01*
X119400000Y-66480000D01*
G75*
G02*
X119600000Y-66280000I200000J0D01*
G01*
G37*
G36*
G01*
X119600000Y-67780000D02*
X120500000Y-67780000D01*
G75*
G02*
X120700000Y-67980000I0J-200000D01*
G01*
X120700000Y-68480000D01*
G75*
G02*
X120500000Y-68680000I-200000J0D01*
G01*
X119600000Y-68680000D01*
G75*
G02*
X119400000Y-68480000I0J200000D01*
G01*
X119400000Y-67980000D01*
G75*
G02*
X119600000Y-67780000I200000J0D01*
G01*
G37*
%TD*%
%TO.C,U3*%
G36*
G01*
X146670000Y-65885000D02*
X146670000Y-65235000D01*
G75*
G02*
X146870000Y-65035000I200000J0D01*
G01*
X147930000Y-65035000D01*
G75*
G02*
X148130000Y-65235000I0J-200000D01*
G01*
X148130000Y-65885000D01*
G75*
G02*
X147930000Y-66085000I-200000J0D01*
G01*
X146870000Y-66085000D01*
G75*
G02*
X146670000Y-65885000I0J200000D01*
G01*
G37*
G36*
G01*
X146670000Y-66835000D02*
X146670000Y-66185000D01*
G75*
G02*
X146870000Y-65985000I200000J0D01*
G01*
X147930000Y-65985000D01*
G75*
G02*
X148130000Y-66185000I0J-200000D01*
G01*
X148130000Y-66835000D01*
G75*
G02*
X147930000Y-67035000I-200000J0D01*
G01*
X146870000Y-67035000D01*
G75*
G02*
X146670000Y-66835000I0J200000D01*
G01*
G37*
G36*
G01*
X146670000Y-67785000D02*
X146670000Y-67135000D01*
G75*
G02*
X146870000Y-66935000I200000J0D01*
G01*
X147930000Y-66935000D01*
G75*
G02*
X148130000Y-67135000I0J-200000D01*
G01*
X148130000Y-67785000D01*
G75*
G02*
X147930000Y-67985000I-200000J0D01*
G01*
X146870000Y-67985000D01*
G75*
G02*
X146670000Y-67785000I0J200000D01*
G01*
G37*
G36*
G01*
X148870000Y-67785000D02*
X148870000Y-67135000D01*
G75*
G02*
X149070000Y-66935000I200000J0D01*
G01*
X150130000Y-66935000D01*
G75*
G02*
X150330000Y-67135000I0J-200000D01*
G01*
X150330000Y-67785000D01*
G75*
G02*
X150130000Y-67985000I-200000J0D01*
G01*
X149070000Y-67985000D01*
G75*
G02*
X148870000Y-67785000I0J200000D01*
G01*
G37*
G36*
G01*
X148870000Y-65885000D02*
X148870000Y-65235000D01*
G75*
G02*
X149070000Y-65035000I200000J0D01*
G01*
X150130000Y-65035000D01*
G75*
G02*
X150330000Y-65235000I0J-200000D01*
G01*
X150330000Y-65885000D01*
G75*
G02*
X150130000Y-66085000I-200000J0D01*
G01*
X149070000Y-66085000D01*
G75*
G02*
X148870000Y-65885000I0J200000D01*
G01*
G37*
%TD*%
%TO.C,U4*%
G36*
G01*
X143280000Y-57740000D02*
X143280000Y-56940000D01*
G75*
G02*
X143480000Y-56740000I200000J0D01*
G01*
X144380000Y-56740000D01*
G75*
G02*
X144580000Y-56940000I0J-200000D01*
G01*
X144580000Y-57740000D01*
G75*
G02*
X144380000Y-57940000I-200000J0D01*
G01*
X143480000Y-57940000D01*
G75*
G02*
X143280000Y-57740000I0J200000D01*
G01*
G37*
G36*
G01*
X143280000Y-59640000D02*
X143280000Y-58840000D01*
G75*
G02*
X143480000Y-58640000I200000J0D01*
G01*
X144380000Y-58640000D01*
G75*
G02*
X144580000Y-58840000I0J-200000D01*
G01*
X144580000Y-59640000D01*
G75*
G02*
X144380000Y-59840000I-200000J0D01*
G01*
X143480000Y-59840000D01*
G75*
G02*
X143280000Y-59640000I0J200000D01*
G01*
G37*
G36*
G01*
X145280000Y-58690000D02*
X145280000Y-57890000D01*
G75*
G02*
X145480000Y-57690000I200000J0D01*
G01*
X146380000Y-57690000D01*
G75*
G02*
X146580000Y-57890000I0J-200000D01*
G01*
X146580000Y-58690000D01*
G75*
G02*
X146380000Y-58890000I-200000J0D01*
G01*
X145480000Y-58890000D01*
G75*
G02*
X145280000Y-58690000I0J200000D01*
G01*
G37*
%TD*%
%TO.C,Y2*%
G36*
G01*
X121440000Y-70110000D02*
X121440000Y-68410000D01*
G75*
G02*
X121640000Y-68210000I200000J0D01*
G01*
X123740000Y-68210000D01*
G75*
G02*
X123940000Y-68410000I0J-200000D01*
G01*
X123940000Y-70110000D01*
G75*
G02*
X123740000Y-70310000I-200000J0D01*
G01*
X121640000Y-70310000D01*
G75*
G02*
X121440000Y-70110000I0J200000D01*
G01*
G37*
G36*
G01*
X127340000Y-70110000D02*
X127340000Y-68410000D01*
G75*
G02*
X127540000Y-68210000I200000J0D01*
G01*
X129640000Y-68210000D01*
G75*
G02*
X129840000Y-68410000I0J-200000D01*
G01*
X129840000Y-70110000D01*
G75*
G02*
X129640000Y-70310000I-200000J0D01*
G01*
X127540000Y-70310000D01*
G75*
G02*
X127340000Y-70110000I0J200000D01*
G01*
G37*
G36*
G01*
X127340000Y-67410000D02*
X127340000Y-65710000D01*
G75*
G02*
X127540000Y-65510000I200000J0D01*
G01*
X129640000Y-65510000D01*
G75*
G02*
X129840000Y-65710000I0J-200000D01*
G01*
X129840000Y-67410000D01*
G75*
G02*
X129640000Y-67610000I-200000J0D01*
G01*
X127540000Y-67610000D01*
G75*
G02*
X127340000Y-67410000I0J200000D01*
G01*
G37*
G36*
G01*
X121440000Y-67410000D02*
X121440000Y-65710000D01*
G75*
G02*
X121640000Y-65510000I200000J0D01*
G01*
X123740000Y-65510000D01*
G75*
G02*
X123940000Y-65710000I0J-200000D01*
G01*
X123940000Y-67410000D01*
G75*
G02*
X123740000Y-67610000I-200000J0D01*
G01*
X121640000Y-67610000D01*
G75*
G02*
X121440000Y-67410000I0J200000D01*
G01*
G37*
%TD*%
%TO.C,D1*%
G36*
G01*
X132420000Y-59870000D02*
X131620000Y-59870000D01*
G75*
G02*
X131420000Y-59670000I0J200000D01*
G01*
X131420000Y-58770000D01*
G75*
G02*
X131620000Y-58570000I200000J0D01*
G01*
X132420000Y-58570000D01*
G75*
G02*
X132620000Y-58770000I0J-200000D01*
G01*
X132620000Y-59670000D01*
G75*
G02*
X132420000Y-59870000I-200000J0D01*
G01*
G37*
G36*
G01*
X134320000Y-59870000D02*
X133520000Y-59870000D01*
G75*
G02*
X133320000Y-59670000I0J200000D01*
G01*
X133320000Y-58770000D01*
G75*
G02*
X133520000Y-58570000I200000J0D01*
G01*
X134320000Y-58570000D01*
G75*
G02*
X134520000Y-58770000I0J-200000D01*
G01*
X134520000Y-59670000D01*
G75*
G02*
X134320000Y-59870000I-200000J0D01*
G01*
G37*
G36*
G01*
X133370000Y-57870000D02*
X132570000Y-57870000D01*
G75*
G02*
X132370000Y-57670000I0J200000D01*
G01*
X132370000Y-56770000D01*
G75*
G02*
X132570000Y-56570000I200000J0D01*
G01*
X133370000Y-56570000D01*
G75*
G02*
X133570000Y-56770000I0J-200000D01*
G01*
X133570000Y-57670000D01*
G75*
G02*
X133370000Y-57870000I-200000J0D01*
G01*
G37*
%TD*%
%TO.C,D2*%
G36*
G01*
X139340000Y-59880000D02*
X138540000Y-59880000D01*
G75*
G02*
X138340000Y-59680000I0J200000D01*
G01*
X138340000Y-58780000D01*
G75*
G02*
X138540000Y-58580000I200000J0D01*
G01*
X139340000Y-58580000D01*
G75*
G02*
X139540000Y-58780000I0J-200000D01*
G01*
X139540000Y-59680000D01*
G75*
G02*
X139340000Y-59880000I-200000J0D01*
G01*
G37*
G36*
G01*
X141240000Y-59880000D02*
X140440000Y-59880000D01*
G75*
G02*
X140240000Y-59680000I0J200000D01*
G01*
X140240000Y-58780000D01*
G75*
G02*
X140440000Y-58580000I200000J0D01*
G01*
X141240000Y-58580000D01*
G75*
G02*
X141440000Y-58780000I0J-200000D01*
G01*
X141440000Y-59680000D01*
G75*
G02*
X141240000Y-59880000I-200000J0D01*
G01*
G37*
G36*
G01*
X140290000Y-57880000D02*
X139490000Y-57880000D01*
G75*
G02*
X139290000Y-57680000I0J200000D01*
G01*
X139290000Y-56780000D01*
G75*
G02*
X139490000Y-56580000I200000J0D01*
G01*
X140290000Y-56580000D01*
G75*
G02*
X140490000Y-56780000I0J-200000D01*
G01*
X140490000Y-57680000D01*
G75*
G02*
X140290000Y-57880000I-200000J0D01*
G01*
G37*
%TD*%
%TO.C,R5*%
G36*
G01*
X123770000Y-85710000D02*
X123770000Y-84810000D01*
G75*
G02*
X123970000Y-84610000I200000J0D01*
G01*
X124470000Y-84610000D01*
G75*
G02*
X124670000Y-84810000I0J-200000D01*
G01*
X124670000Y-85710000D01*
G75*
G02*
X124470000Y-85910000I-200000J0D01*
G01*
X123970000Y-85910000D01*
G75*
G02*
X123770000Y-85710000I0J200000D01*
G01*
G37*
G36*
G01*
X125270000Y-85710000D02*
X125270000Y-84810000D01*
G75*
G02*
X125470000Y-84610000I200000J0D01*
G01*
X125970000Y-84610000D01*
G75*
G02*
X126170000Y-84810000I0J-200000D01*
G01*
X126170000Y-85710000D01*
G75*
G02*
X125970000Y-85910000I-200000J0D01*
G01*
X125470000Y-85910000D01*
G75*
G02*
X125270000Y-85710000I0J200000D01*
G01*
G37*
%TD*%
%TO.C,R6*%
G36*
G01*
X123790000Y-88440000D02*
X123790000Y-87540000D01*
G75*
G02*
X123990000Y-87340000I200000J0D01*
G01*
X124490000Y-87340000D01*
G75*
G02*
X124690000Y-87540000I0J-200000D01*
G01*
X124690000Y-88440000D01*
G75*
G02*
X124490000Y-88640000I-200000J0D01*
G01*
X123990000Y-88640000D01*
G75*
G02*
X123790000Y-88440000I0J200000D01*
G01*
G37*
G36*
G01*
X125290000Y-88440000D02*
X125290000Y-87540000D01*
G75*
G02*
X125490000Y-87340000I200000J0D01*
G01*
X125990000Y-87340000D01*
G75*
G02*
X126190000Y-87540000I0J-200000D01*
G01*
X126190000Y-88440000D01*
G75*
G02*
X125990000Y-88640000I-200000J0D01*
G01*
X125490000Y-88640000D01*
G75*
G02*
X125290000Y-88440000I0J200000D01*
G01*
G37*
%TD*%
%TO.C,R7*%
G36*
G01*
X123810000Y-91300000D02*
X123810000Y-90400000D01*
G75*
G02*
X124010000Y-90200000I200000J0D01*
G01*
X124510000Y-90200000D01*
G75*
G02*
X124710000Y-90400000I0J-200000D01*
G01*
X124710000Y-91300000D01*
G75*
G02*
X124510000Y-91500000I-200000J0D01*
G01*
X124010000Y-91500000D01*
G75*
G02*
X123810000Y-91300000I0J200000D01*
G01*
G37*
G36*
G01*
X125310000Y-91300000D02*
X125310000Y-90400000D01*
G75*
G02*
X125510000Y-90200000I200000J0D01*
G01*
X126010000Y-90200000D01*
G75*
G02*
X126210000Y-90400000I0J-200000D01*
G01*
X126210000Y-91300000D01*
G75*
G02*
X126010000Y-91500000I-200000J0D01*
G01*
X125510000Y-91500000D01*
G75*
G02*
X125310000Y-91300000I0J200000D01*
G01*
G37*
%TD*%
%TO.C,R8*%
G36*
G01*
X123790000Y-94000000D02*
X123790000Y-93100000D01*
G75*
G02*
X123990000Y-92900000I200000J0D01*
G01*
X124490000Y-92900000D01*
G75*
G02*
X124690000Y-93100000I0J-200000D01*
G01*
X124690000Y-94000000D01*
G75*
G02*
X124490000Y-94200000I-200000J0D01*
G01*
X123990000Y-94200000D01*
G75*
G02*
X123790000Y-94000000I0J200000D01*
G01*
G37*
G36*
G01*
X125290000Y-94000000D02*
X125290000Y-93100000D01*
G75*
G02*
X125490000Y-92900000I200000J0D01*
G01*
X125990000Y-92900000D01*
G75*
G02*
X126190000Y-93100000I0J-200000D01*
G01*
X126190000Y-94000000D01*
G75*
G02*
X125990000Y-94200000I-200000J0D01*
G01*
X125490000Y-94200000D01*
G75*
G02*
X125290000Y-94000000I0J200000D01*
G01*
G37*
%TD*%
%TO.C,C41*%
G36*
G01*
X115935000Y-78250000D02*
X117185000Y-78250000D01*
G75*
G02*
X117385000Y-78450000I0J-200000D01*
G01*
X117385000Y-79450000D01*
G75*
G02*
X117185000Y-79650000I-200000J0D01*
G01*
X115935000Y-79650000D01*
G75*
G02*
X115735000Y-79450000I0J200000D01*
G01*
X115735000Y-78450000D01*
G75*
G02*
X115935000Y-78250000I200000J0D01*
G01*
G37*
G36*
G01*
X115935000Y-80250000D02*
X117185000Y-80250000D01*
G75*
G02*
X117385000Y-80450000I0J-200000D01*
G01*
X117385000Y-81450000D01*
G75*
G02*
X117185000Y-81650000I-200000J0D01*
G01*
X115935000Y-81650000D01*
G75*
G02*
X115735000Y-81450000I0J200000D01*
G01*
X115735000Y-80450000D01*
G75*
G02*
X115935000Y-80250000I200000J0D01*
G01*
G37*
%TD*%
%TO.C,C42*%
G36*
G01*
X143125000Y-97980000D02*
X142375000Y-97980000D01*
G75*
G02*
X142175000Y-97780000I0J200000D01*
G01*
X142175000Y-96980000D01*
G75*
G02*
X142375000Y-96780000I200000J0D01*
G01*
X143125000Y-96780000D01*
G75*
G02*
X143325000Y-96980000I0J-200000D01*
G01*
X143325000Y-97780000D01*
G75*
G02*
X143125000Y-97980000I-200000J0D01*
G01*
G37*
G36*
G01*
X143125000Y-99480000D02*
X142375000Y-99480000D01*
G75*
G02*
X142175000Y-99280000I0J200000D01*
G01*
X142175000Y-98480000D01*
G75*
G02*
X142375000Y-98280000I200000J0D01*
G01*
X143125000Y-98280000D01*
G75*
G02*
X143325000Y-98480000I0J-200000D01*
G01*
X143325000Y-99280000D01*
G75*
G02*
X143125000Y-99480000I-200000J0D01*
G01*
G37*
%TD*%
M02*
