%TF.GenerationSoftware,KiCad,Pcbnew,5.1.8*%
%TF.CreationDate,2020-12-01T22:53:24+08:00*%
%TF.ProjectId,msisdr,6d736973-6472-42e6-9b69-6361645f7063,rev?*%
%TF.SameCoordinates,Original*%
%TF.FileFunction,Legend,Bot*%
%TF.FilePolarity,Positive*%
%FSLAX46Y46*%
G04 Gerber Fmt 4.6, Leading zero omitted, Abs format (unit mm)*
G04 Created by KiCad (PCBNEW 5.1.8) date 2020-12-01 22:53:24*
%MOMM*%
%LPD*%
G01*
G04 APERTURE LIST*
%ADD10C,0.120000*%
%ADD11C,0.150000*%
G04 APERTURE END LIST*
D10*
%TO.C,J12*%
X138660000Y-88670000D02*
X137860000Y-88670000D01*
X138660000Y-88870000D02*
X138660000Y-88670000D01*
X135660000Y-88670000D02*
X135660000Y-88870000D01*
X136460000Y-88670000D02*
X135660000Y-88670000D01*
X135660000Y-91670000D02*
X136460000Y-91670000D01*
X135660000Y-91470000D02*
X135660000Y-91670000D01*
X138460000Y-91670000D02*
X138660000Y-91470000D01*
X137860000Y-91670000D02*
X138460000Y-91670000D01*
X137860000Y-91670000D02*
X137860000Y-92170000D01*
X136460000Y-91670000D02*
X136460000Y-92170000D01*
D11*
X137969523Y-93122380D02*
X137969523Y-93836666D01*
X138017142Y-93979523D01*
X138112380Y-94074761D01*
X138255238Y-94122380D01*
X138350476Y-94122380D01*
X136969523Y-94122380D02*
X137540952Y-94122380D01*
X137255238Y-94122380D02*
X137255238Y-93122380D01*
X137350476Y-93265238D01*
X137445714Y-93360476D01*
X137540952Y-93408095D01*
X136588571Y-93217619D02*
X136540952Y-93170000D01*
X136445714Y-93122380D01*
X136207619Y-93122380D01*
X136112380Y-93170000D01*
X136064761Y-93217619D01*
X136017142Y-93312857D01*
X136017142Y-93408095D01*
X136064761Y-93550952D01*
X136636190Y-94122380D01*
X136017142Y-94122380D01*
%TD*%
M02*
