%TF.GenerationSoftware,KiCad,Pcbnew,5.1.8*%
%TF.CreationDate,2020-12-04T12:34:20+08:00*%
%TF.ProjectId,msisdr,6d736973-6472-42e6-9b69-6361645f7063,rev?*%
%TF.SameCoordinates,Original*%
%TF.FileFunction,Copper,L2,Bot*%
%TF.FilePolarity,Positive*%
%FSLAX46Y46*%
G04 Gerber Fmt 4.6, Leading zero omitted, Abs format (unit mm)*
G04 Created by KiCad (PCBNEW 5.1.8) date 2020-12-04 12:34:20*
%MOMM*%
%LPD*%
G01*
G04 APERTURE LIST*
%TA.AperFunction,SMDPad,CuDef*%
%ADD10R,1.350000X4.200000*%
%TD*%
%TA.AperFunction,ComponentPad*%
%ADD11C,2.300000*%
%TD*%
%TA.AperFunction,SMDPad,CuDef*%
%ADD12R,4.600000X4.600000*%
%TD*%
%TA.AperFunction,ComponentPad*%
%ADD13C,0.500000*%
%TD*%
%TA.AperFunction,SMDPad,CuDef*%
%ADD14R,2.500000X2.500000*%
%TD*%
%TA.AperFunction,ComponentPad*%
%ADD15O,1.150000X1.800000*%
%TD*%
%TA.AperFunction,ComponentPad*%
%ADD16O,1.450000X2.000000*%
%TD*%
%TA.AperFunction,ComponentPad*%
%ADD17C,1.400000*%
%TD*%
%TA.AperFunction,ComponentPad*%
%ADD18O,1.600000X1.600000*%
%TD*%
%TA.AperFunction,ComponentPad*%
%ADD19R,1.600000X1.600000*%
%TD*%
%TA.AperFunction,ComponentPad*%
%ADD20C,1.600000*%
%TD*%
%TA.AperFunction,ComponentPad*%
%ADD21C,4.064000*%
%TD*%
%TA.AperFunction,ViaPad*%
%ADD22C,0.400000*%
%TD*%
%TA.AperFunction,Conductor*%
%ADD23C,0.200000*%
%TD*%
%TA.AperFunction,Conductor*%
%ADD24C,0.254000*%
%TD*%
%TA.AperFunction,Conductor*%
%ADD25C,0.100000*%
%TD*%
G04 APERTURE END LIST*
D10*
%TO.P,J10,2*%
%TO.N,GND*%
X156749000Y-132080000D03*
X151099000Y-132080000D03*
%TD*%
%TO.P,J8,2*%
%TO.N,GND*%
X121189000Y-132080000D03*
X115539000Y-132080000D03*
%TD*%
D11*
%TO.P,Y1,2*%
%TO.N,Net-(C10-Pad2)*%
X125809000Y-65336000D03*
%TO.P,Y1,1*%
%TO.N,Net-(C9-Pad2)*%
X125809000Y-70236000D03*
%TD*%
D12*
%TO.P,U2,41*%
%TO.N,GND*%
X135359000Y-105426000D03*
D13*
X137409000Y-103376000D03*
X137409000Y-104401000D03*
X137409000Y-105426000D03*
X137409000Y-106451000D03*
X137409000Y-107476000D03*
X136384000Y-103376000D03*
X136384000Y-104401000D03*
X136384000Y-105426000D03*
X136384000Y-106451000D03*
X136384000Y-107476000D03*
X135359000Y-103376000D03*
X135359000Y-104401000D03*
X135359000Y-105426000D03*
X135359000Y-106451000D03*
X135359000Y-107476000D03*
X134334000Y-103376000D03*
X134334000Y-104401000D03*
X134334000Y-105426000D03*
X134334000Y-106451000D03*
X134334000Y-107476000D03*
X133309000Y-103376000D03*
X133309000Y-104401000D03*
X133309000Y-105426000D03*
X133309000Y-106451000D03*
X133309000Y-107476000D03*
%TD*%
D14*
%TO.P,U1,33*%
%TO.N,GND*%
X135529000Y-76566000D03*
D13*
X136529000Y-75566000D03*
X136529000Y-76566000D03*
X136529000Y-77566000D03*
X135529000Y-75566000D03*
X135529000Y-76566000D03*
X135529000Y-77566000D03*
X134529000Y-75566000D03*
X134529000Y-76566000D03*
X134529000Y-77566000D03*
%TD*%
D15*
%TO.P,J11,6*%
%TO.N,Net-(J11-Pad6)*%
X132425000Y-45250000D03*
X140175000Y-45250000D03*
D16*
X132575000Y-49050000D03*
X140025000Y-49050000D03*
%TD*%
D10*
%TO.P,J9,2*%
%TO.N,GND*%
X138969000Y-132080000D03*
X133319000Y-132080000D03*
%TD*%
%TO.P,J7,2*%
%TO.N,GND*%
X147859000Y-132080000D03*
X142209000Y-132080000D03*
%TD*%
%TO.P,J6,2*%
%TO.N,GND*%
X130079000Y-132080000D03*
X124429000Y-132080000D03*
%TD*%
D17*
%TO.P,J5,1*%
%TO.N,Net-(J5-Pad1)*%
X118979000Y-93966000D03*
%TD*%
%TO.P,J4,1*%
%TO.N,Net-(J4-Pad1)*%
X118899000Y-91336000D03*
%TD*%
%TO.P,J3,1*%
%TO.N,Net-(J3-Pad1)*%
X118869000Y-88746000D03*
%TD*%
%TO.P,J2,1*%
%TO.N,Net-(J2-Pad1)*%
X118929000Y-86156000D03*
%TD*%
%TO.P,J1,1*%
%TO.N,Net-(C41-Pad2)*%
X118949000Y-83556000D03*
%TD*%
D18*
%TO.P,D5,2*%
%TO.N,Net-(D5-Pad2)*%
X121750000Y-55740000D03*
D19*
%TO.P,D5,1*%
%TO.N,GND*%
X124290000Y-55740000D03*
%TD*%
%TO.P,C35,1*%
%TO.N,VDIG*%
X142499000Y-64986000D03*
D20*
%TO.P,C35,2*%
%TO.N,GND*%
X144999000Y-64986000D03*
%TD*%
D21*
%TO.P,REF\u002A\u002A,1*%
%TO.N,N/C*%
X154500000Y-124000000D03*
%TD*%
%TO.P,REF\u002A\u002A,1*%
%TO.N,N/C*%
X118000000Y-124000000D03*
%TD*%
%TO.P,REF\u002A\u002A,1*%
%TO.N,N/C*%
X154500000Y-50000000D03*
%TD*%
%TO.P,REF\u002A\u002A,1*%
%TO.N,N/C*%
X118000000Y-50000000D03*
%TD*%
D22*
%TO.N,VDDI*%
X131740200Y-77816000D03*
X139242800Y-84201000D03*
%TO.N,VDIG*%
X143687800Y-77724000D03*
X138258422Y-72294622D03*
X128930400Y-78308200D03*
X128092200Y-79146400D03*
X132308600Y-72288400D03*
%TO.N,VRF*%
X148237500Y-96948700D03*
X143332200Y-101854000D03*
X132536700Y-102488500D03*
X131502600Y-103676000D03*
X136609000Y-101785600D03*
X136609000Y-109034400D03*
X143992600Y-110566200D03*
X127442220Y-105676000D03*
X131292600Y-108585000D03*
%TO.N,Net-(C13-Pad2)*%
X137109000Y-109042000D03*
X140131800Y-106756200D03*
%TO.N,Net-(C14-Pad2)*%
X134950200Y-110109000D03*
X138252200Y-112064800D03*
%TO.N,Net-(C16-Pad2)*%
X135370006Y-111392406D03*
X131900000Y-108134990D03*
%TO.N,USB_DP*%
X132969000Y-60858400D03*
X132969000Y-58750200D03*
%TO.N,USB_DM*%
X135737600Y-68630800D03*
X137388600Y-58801000D03*
%TO.N,I_IN_N*%
X139845700Y-80448500D03*
X139004287Y-79497268D03*
%TO.N,Q_IN_P*%
X137092589Y-101778758D03*
X139540099Y-79373099D03*
%TO.N,Q_IN_N*%
X137642600Y-101777800D03*
X140081000Y-79248000D03*
%TO.N,SPI_LAT*%
X131155000Y-104176000D03*
X132169200Y-74816000D03*
%TO.N,SPI_DATA*%
X130104200Y-105176000D03*
X130454400Y-75311000D03*
%TO.N,SPI_CLK*%
X130705800Y-104676000D03*
X130860800Y-75819000D03*
%TO.N,GND*%
X145162500Y-78738500D03*
X132842000Y-113512600D03*
X136398000Y-113563400D03*
X134401501Y-110804901D03*
X134401501Y-111842416D03*
X125145800Y-85115400D03*
X125095000Y-91033600D03*
X125120400Y-88112600D03*
X143611600Y-87960200D03*
X153212800Y-88036400D03*
X153670000Y-102006400D03*
X116052600Y-100177600D03*
X141528800Y-125222000D03*
X148717000Y-126619000D03*
X122453400Y-125476000D03*
X130632200Y-70586600D03*
X128574800Y-52781200D03*
X128600200Y-63271400D03*
X135255000Y-57378600D03*
X143586200Y-56616600D03*
X141249400Y-61366400D03*
%TO.N,Net-(C30-Pad1)*%
X139400000Y-119800000D03*
X137000000Y-119800000D03*
%TO.N,Net-(C42-Pad2)*%
X131276401Y-81626399D03*
X139404401Y-89754399D03*
%TO.N,Net-(C43-Pad2)*%
X135609000Y-101855600D03*
X135600000Y-100548000D03*
%TD*%
D23*
%TO.N,VDDI*%
X131740200Y-77816000D02*
X131241800Y-78314400D01*
X131241800Y-78314400D02*
X131241800Y-80441800D01*
X131241800Y-80441800D02*
X135001000Y-84201000D01*
X135001000Y-84201000D02*
X139242800Y-84201000D01*
X139242800Y-84201000D02*
X139242800Y-84201000D01*
%TO.N,VDIG*%
X143687800Y-77724000D02*
X138582400Y-72618600D01*
X138582400Y-72618600D02*
X138258422Y-72294622D01*
X128930400Y-78308200D02*
X128092200Y-79146400D01*
X128092200Y-79146400D02*
X128092200Y-79146400D01*
X138258422Y-72294622D02*
X132340222Y-72294622D01*
%TO.N,VRF*%
X148237500Y-96948700D02*
X143332200Y-101854000D01*
X143332200Y-101854000D02*
X143332200Y-101854000D01*
X132536700Y-102641900D02*
X131502600Y-103676000D01*
X132536700Y-102488500D02*
X132536700Y-102641900D01*
X136769317Y-102228759D02*
X142957441Y-102228759D01*
X142957441Y-102228759D02*
X143332200Y-101854000D01*
X136609000Y-102068442D02*
X136769317Y-102228759D01*
X136609000Y-101785600D02*
X136609000Y-102068442D01*
X143332200Y-102502802D02*
X143332200Y-101854000D01*
X137859001Y-107976001D02*
X143332200Y-102502802D01*
X137384557Y-107976001D02*
X137859001Y-107976001D01*
X136609000Y-108751558D02*
X137384557Y-107976001D01*
X136609000Y-109034400D02*
X136609000Y-108751558D01*
X143992600Y-103163202D02*
X143332200Y-102502802D01*
X143992600Y-110566200D02*
X143992600Y-103163202D01*
X127442220Y-105676000D02*
X130351220Y-108585000D01*
X130351220Y-108585000D02*
X131292600Y-108585000D01*
X135816001Y-100097999D02*
X134927201Y-100097999D01*
X134927201Y-100097999D02*
X132536700Y-102488500D01*
X136609000Y-100890998D02*
X135816001Y-100097999D01*
X136609000Y-101785600D02*
X136609000Y-100890998D01*
X131292600Y-108585000D02*
X131292600Y-108585000D01*
%TO.N,Net-(C13-Pad2)*%
X137109000Y-109042000D02*
X137668200Y-109042000D01*
X137668200Y-109042000D02*
X137846000Y-109042000D01*
X137846000Y-109042000D02*
X139979400Y-106908600D01*
X139979400Y-106908600D02*
X140131800Y-106756200D01*
X140131800Y-106756200D02*
X140131800Y-106756200D01*
%TO.N,Net-(C14-Pad2)*%
X134950200Y-110109000D02*
X136296400Y-110109000D01*
X136296400Y-110109000D02*
X138252200Y-112064800D01*
X138252200Y-112064800D02*
X138252200Y-112064800D01*
%TO.N,Net-(C16-Pad2)*%
X131900000Y-109182842D02*
X131900000Y-108134990D01*
X134109564Y-111392406D02*
X131900000Y-109182842D01*
X135370006Y-111392406D02*
X134109564Y-111392406D01*
%TO.N,USB_DP*%
X132969000Y-60858400D02*
X132969000Y-58750200D01*
X132969000Y-58750200D02*
X132969000Y-58750200D01*
%TO.N,USB_DM*%
X135737600Y-68630800D02*
X135737600Y-60452000D01*
X135737600Y-60452000D02*
X137388600Y-58801000D01*
X137388600Y-58801000D02*
X137388600Y-58801000D01*
%TO.N,I_IN_N*%
X139004287Y-79607087D02*
X139004287Y-79497268D01*
X139845700Y-80448500D02*
X139004287Y-79607087D01*
%TO.N,Q_IN_P*%
X140316799Y-80149799D02*
X139540099Y-79373099D01*
X137092589Y-101495916D02*
X140316799Y-98271706D01*
X140316799Y-98271706D02*
X140316799Y-80149799D01*
X137092589Y-101778758D02*
X137092589Y-101495916D01*
%TO.N,Q_IN_N*%
X140865199Y-98555201D02*
X140865199Y-80032199D01*
X137642600Y-101777800D02*
X140865199Y-98555201D01*
X140865199Y-80032199D02*
X140081000Y-79248000D01*
%TO.N,SPI_LAT*%
X130683000Y-78232000D02*
X130683000Y-103704000D01*
X131310801Y-77604199D02*
X130683000Y-78232000D01*
X131310801Y-75292799D02*
X131310801Y-77604199D01*
X130683000Y-103704000D02*
X131155000Y-104176000D01*
X131787600Y-74816000D02*
X131310801Y-75292799D01*
X132169200Y-74816000D02*
X131787600Y-74816000D01*
%TO.N,SPI_DATA*%
X130104200Y-105176000D02*
X129413000Y-104484800D01*
X129413000Y-104484800D02*
X129413000Y-104267000D01*
X129413000Y-104267000D02*
X129413000Y-76352400D01*
X129413000Y-76352400D02*
X130454400Y-75311000D01*
X130454400Y-75311000D02*
X130454400Y-75311000D01*
%TO.N,SPI_CLK*%
X130705800Y-104676000D02*
X130124200Y-104094400D01*
X130124200Y-104094400D02*
X130124200Y-76555600D01*
X130124200Y-76555600D02*
X130860800Y-75819000D01*
X130860800Y-75819000D02*
X130860800Y-75819000D01*
%TO.N,GND*%
X137701500Y-78738500D02*
X135529000Y-76566000D01*
X145162500Y-78738500D02*
X137701500Y-78738500D01*
X134401501Y-109489299D02*
X134401501Y-110804901D01*
X135359000Y-108531800D02*
X134401501Y-109489299D01*
X135359000Y-105426000D02*
X135359000Y-108531800D01*
X133309000Y-105426000D02*
X131683000Y-105426000D01*
%TO.N,Net-(C30-Pad1)*%
X139400000Y-119800000D02*
X137000000Y-119800000D01*
%TO.N,Net-(C42-Pad2)*%
X139404401Y-89754399D02*
X131276401Y-81626399D01*
%TO.N,Net-(C43-Pad2)*%
X135600000Y-101846600D02*
X135609000Y-101855600D01*
X135600000Y-100548000D02*
X135600000Y-101846600D01*
%TD*%
D24*
%TO.N,GND*%
X131414055Y-44249508D02*
X131301697Y-44459713D01*
X131232508Y-44687799D01*
X131215000Y-44865563D01*
X131215000Y-45634436D01*
X131232508Y-45812200D01*
X131301697Y-46040286D01*
X131414054Y-46250491D01*
X131565261Y-46434739D01*
X131749508Y-46585946D01*
X131959713Y-46698303D01*
X132187799Y-46767492D01*
X132425000Y-46790854D01*
X132662200Y-46767492D01*
X132890286Y-46698303D01*
X133100491Y-46585946D01*
X133284739Y-46434739D01*
X133435946Y-46250492D01*
X133548303Y-46040287D01*
X133617492Y-45812201D01*
X133635000Y-45634437D01*
X133635000Y-44865564D01*
X133617492Y-44687800D01*
X133548303Y-44459713D01*
X133435946Y-44249508D01*
X133382710Y-44184640D01*
X139217291Y-44184640D01*
X139164055Y-44249508D01*
X139051697Y-44459713D01*
X138982508Y-44687799D01*
X138965000Y-44865563D01*
X138965000Y-45634436D01*
X138982508Y-45812200D01*
X139051697Y-46040286D01*
X139164054Y-46250491D01*
X139315261Y-46434739D01*
X139499508Y-46585946D01*
X139709713Y-46698303D01*
X139937799Y-46767492D01*
X140175000Y-46790854D01*
X140412200Y-46767492D01*
X140640286Y-46698303D01*
X140850491Y-46585946D01*
X141034739Y-46434739D01*
X141185946Y-46250492D01*
X141298303Y-46040287D01*
X141367492Y-45812201D01*
X141385000Y-45634437D01*
X141385000Y-44865564D01*
X141367492Y-44687800D01*
X141298303Y-44459713D01*
X141185946Y-44249508D01*
X141132710Y-44184640D01*
X158700441Y-44184640D01*
X158705440Y-133422320D01*
X158060789Y-133422320D01*
X158059000Y-132365750D01*
X157900250Y-132207000D01*
X156876000Y-132207000D01*
X156876000Y-132227000D01*
X156622000Y-132227000D01*
X156622000Y-132207000D01*
X155597750Y-132207000D01*
X155439000Y-132365750D01*
X155437211Y-133422320D01*
X152410789Y-133422320D01*
X152409000Y-132365750D01*
X152250250Y-132207000D01*
X151226000Y-132207000D01*
X151226000Y-132227000D01*
X150972000Y-132227000D01*
X150972000Y-132207000D01*
X149947750Y-132207000D01*
X149789000Y-132365750D01*
X149787211Y-133422320D01*
X149170789Y-133422320D01*
X149169000Y-132365750D01*
X149010250Y-132207000D01*
X147986000Y-132207000D01*
X147986000Y-132227000D01*
X147732000Y-132227000D01*
X147732000Y-132207000D01*
X146707750Y-132207000D01*
X146549000Y-132365750D01*
X146547211Y-133422320D01*
X143520789Y-133422320D01*
X143519000Y-132365750D01*
X143360250Y-132207000D01*
X142336000Y-132207000D01*
X142336000Y-132227000D01*
X142082000Y-132227000D01*
X142082000Y-132207000D01*
X141057750Y-132207000D01*
X140899000Y-132365750D01*
X140897211Y-133422320D01*
X140280789Y-133422320D01*
X140279000Y-132365750D01*
X140120250Y-132207000D01*
X139096000Y-132207000D01*
X139096000Y-132227000D01*
X138842000Y-132227000D01*
X138842000Y-132207000D01*
X137817750Y-132207000D01*
X137659000Y-132365750D01*
X137657211Y-133422320D01*
X134630789Y-133422320D01*
X134629000Y-132365750D01*
X134470250Y-132207000D01*
X133446000Y-132207000D01*
X133446000Y-132227000D01*
X133192000Y-132227000D01*
X133192000Y-132207000D01*
X132167750Y-132207000D01*
X132009000Y-132365750D01*
X132007211Y-133422320D01*
X131390789Y-133422320D01*
X131389000Y-132365750D01*
X131230250Y-132207000D01*
X130206000Y-132207000D01*
X130206000Y-132227000D01*
X129952000Y-132227000D01*
X129952000Y-132207000D01*
X128927750Y-132207000D01*
X128769000Y-132365750D01*
X128767211Y-133422320D01*
X125740789Y-133422320D01*
X125739000Y-132365750D01*
X125580250Y-132207000D01*
X124556000Y-132207000D01*
X124556000Y-132227000D01*
X124302000Y-132227000D01*
X124302000Y-132207000D01*
X123277750Y-132207000D01*
X123119000Y-132365750D01*
X123117211Y-133422320D01*
X122500789Y-133422320D01*
X122499000Y-132365750D01*
X122340250Y-132207000D01*
X121316000Y-132207000D01*
X121316000Y-132227000D01*
X121062000Y-132227000D01*
X121062000Y-132207000D01*
X120037750Y-132207000D01*
X119879000Y-132365750D01*
X119877211Y-133422320D01*
X116850789Y-133422320D01*
X116849000Y-132365750D01*
X116690250Y-132207000D01*
X115666000Y-132207000D01*
X115666000Y-132227000D01*
X115412000Y-132227000D01*
X115412000Y-132207000D01*
X114387750Y-132207000D01*
X114229000Y-132365750D01*
X114227211Y-133422320D01*
X113841600Y-133422320D01*
X113841600Y-129980000D01*
X114225928Y-129980000D01*
X114229000Y-131794250D01*
X114387750Y-131953000D01*
X115412000Y-131953000D01*
X115412000Y-129503750D01*
X115666000Y-129503750D01*
X115666000Y-131953000D01*
X116690250Y-131953000D01*
X116849000Y-131794250D01*
X116852072Y-129980000D01*
X119875928Y-129980000D01*
X119879000Y-131794250D01*
X120037750Y-131953000D01*
X121062000Y-131953000D01*
X121062000Y-129503750D01*
X121316000Y-129503750D01*
X121316000Y-131953000D01*
X122340250Y-131953000D01*
X122499000Y-131794250D01*
X122502072Y-129980000D01*
X123115928Y-129980000D01*
X123119000Y-131794250D01*
X123277750Y-131953000D01*
X124302000Y-131953000D01*
X124302000Y-129503750D01*
X124556000Y-129503750D01*
X124556000Y-131953000D01*
X125580250Y-131953000D01*
X125739000Y-131794250D01*
X125742072Y-129980000D01*
X128765928Y-129980000D01*
X128769000Y-131794250D01*
X128927750Y-131953000D01*
X129952000Y-131953000D01*
X129952000Y-129503750D01*
X130206000Y-129503750D01*
X130206000Y-131953000D01*
X131230250Y-131953000D01*
X131389000Y-131794250D01*
X131392072Y-129980000D01*
X132005928Y-129980000D01*
X132009000Y-131794250D01*
X132167750Y-131953000D01*
X133192000Y-131953000D01*
X133192000Y-129503750D01*
X133446000Y-129503750D01*
X133446000Y-131953000D01*
X134470250Y-131953000D01*
X134629000Y-131794250D01*
X134632072Y-129980000D01*
X137655928Y-129980000D01*
X137659000Y-131794250D01*
X137817750Y-131953000D01*
X138842000Y-131953000D01*
X138842000Y-129503750D01*
X139096000Y-129503750D01*
X139096000Y-131953000D01*
X140120250Y-131953000D01*
X140279000Y-131794250D01*
X140282072Y-129980000D01*
X140895928Y-129980000D01*
X140899000Y-131794250D01*
X141057750Y-131953000D01*
X142082000Y-131953000D01*
X142082000Y-129503750D01*
X142336000Y-129503750D01*
X142336000Y-131953000D01*
X143360250Y-131953000D01*
X143519000Y-131794250D01*
X143522072Y-129980000D01*
X146545928Y-129980000D01*
X146549000Y-131794250D01*
X146707750Y-131953000D01*
X147732000Y-131953000D01*
X147732000Y-129503750D01*
X147986000Y-129503750D01*
X147986000Y-131953000D01*
X149010250Y-131953000D01*
X149169000Y-131794250D01*
X149172072Y-129980000D01*
X149785928Y-129980000D01*
X149789000Y-131794250D01*
X149947750Y-131953000D01*
X150972000Y-131953000D01*
X150972000Y-129503750D01*
X151226000Y-129503750D01*
X151226000Y-131953000D01*
X152250250Y-131953000D01*
X152409000Y-131794250D01*
X152412072Y-129980000D01*
X155435928Y-129980000D01*
X155439000Y-131794250D01*
X155597750Y-131953000D01*
X156622000Y-131953000D01*
X156622000Y-129503750D01*
X156876000Y-129503750D01*
X156876000Y-131953000D01*
X157900250Y-131953000D01*
X158059000Y-131794250D01*
X158062072Y-129980000D01*
X158049812Y-129855518D01*
X158013502Y-129735820D01*
X157954537Y-129625506D01*
X157875185Y-129528815D01*
X157778494Y-129449463D01*
X157668180Y-129390498D01*
X157548482Y-129354188D01*
X157424000Y-129341928D01*
X157034750Y-129345000D01*
X156876000Y-129503750D01*
X156622000Y-129503750D01*
X156463250Y-129345000D01*
X156074000Y-129341928D01*
X155949518Y-129354188D01*
X155829820Y-129390498D01*
X155719506Y-129449463D01*
X155622815Y-129528815D01*
X155543463Y-129625506D01*
X155484498Y-129735820D01*
X155448188Y-129855518D01*
X155435928Y-129980000D01*
X152412072Y-129980000D01*
X152399812Y-129855518D01*
X152363502Y-129735820D01*
X152304537Y-129625506D01*
X152225185Y-129528815D01*
X152128494Y-129449463D01*
X152018180Y-129390498D01*
X151898482Y-129354188D01*
X151774000Y-129341928D01*
X151384750Y-129345000D01*
X151226000Y-129503750D01*
X150972000Y-129503750D01*
X150813250Y-129345000D01*
X150424000Y-129341928D01*
X150299518Y-129354188D01*
X150179820Y-129390498D01*
X150069506Y-129449463D01*
X149972815Y-129528815D01*
X149893463Y-129625506D01*
X149834498Y-129735820D01*
X149798188Y-129855518D01*
X149785928Y-129980000D01*
X149172072Y-129980000D01*
X149159812Y-129855518D01*
X149123502Y-129735820D01*
X149064537Y-129625506D01*
X148985185Y-129528815D01*
X148888494Y-129449463D01*
X148778180Y-129390498D01*
X148658482Y-129354188D01*
X148534000Y-129341928D01*
X148144750Y-129345000D01*
X147986000Y-129503750D01*
X147732000Y-129503750D01*
X147573250Y-129345000D01*
X147184000Y-129341928D01*
X147059518Y-129354188D01*
X146939820Y-129390498D01*
X146829506Y-129449463D01*
X146732815Y-129528815D01*
X146653463Y-129625506D01*
X146594498Y-129735820D01*
X146558188Y-129855518D01*
X146545928Y-129980000D01*
X143522072Y-129980000D01*
X143509812Y-129855518D01*
X143473502Y-129735820D01*
X143414537Y-129625506D01*
X143335185Y-129528815D01*
X143238494Y-129449463D01*
X143128180Y-129390498D01*
X143008482Y-129354188D01*
X142884000Y-129341928D01*
X142494750Y-129345000D01*
X142336000Y-129503750D01*
X142082000Y-129503750D01*
X141923250Y-129345000D01*
X141534000Y-129341928D01*
X141409518Y-129354188D01*
X141289820Y-129390498D01*
X141179506Y-129449463D01*
X141082815Y-129528815D01*
X141003463Y-129625506D01*
X140944498Y-129735820D01*
X140908188Y-129855518D01*
X140895928Y-129980000D01*
X140282072Y-129980000D01*
X140269812Y-129855518D01*
X140233502Y-129735820D01*
X140174537Y-129625506D01*
X140095185Y-129528815D01*
X139998494Y-129449463D01*
X139888180Y-129390498D01*
X139768482Y-129354188D01*
X139644000Y-129341928D01*
X139254750Y-129345000D01*
X139096000Y-129503750D01*
X138842000Y-129503750D01*
X138683250Y-129345000D01*
X138294000Y-129341928D01*
X138169518Y-129354188D01*
X138049820Y-129390498D01*
X137939506Y-129449463D01*
X137842815Y-129528815D01*
X137763463Y-129625506D01*
X137704498Y-129735820D01*
X137668188Y-129855518D01*
X137655928Y-129980000D01*
X134632072Y-129980000D01*
X134619812Y-129855518D01*
X134583502Y-129735820D01*
X134524537Y-129625506D01*
X134445185Y-129528815D01*
X134348494Y-129449463D01*
X134238180Y-129390498D01*
X134118482Y-129354188D01*
X133994000Y-129341928D01*
X133604750Y-129345000D01*
X133446000Y-129503750D01*
X133192000Y-129503750D01*
X133033250Y-129345000D01*
X132644000Y-129341928D01*
X132519518Y-129354188D01*
X132399820Y-129390498D01*
X132289506Y-129449463D01*
X132192815Y-129528815D01*
X132113463Y-129625506D01*
X132054498Y-129735820D01*
X132018188Y-129855518D01*
X132005928Y-129980000D01*
X131392072Y-129980000D01*
X131379812Y-129855518D01*
X131343502Y-129735820D01*
X131284537Y-129625506D01*
X131205185Y-129528815D01*
X131108494Y-129449463D01*
X130998180Y-129390498D01*
X130878482Y-129354188D01*
X130754000Y-129341928D01*
X130364750Y-129345000D01*
X130206000Y-129503750D01*
X129952000Y-129503750D01*
X129793250Y-129345000D01*
X129404000Y-129341928D01*
X129279518Y-129354188D01*
X129159820Y-129390498D01*
X129049506Y-129449463D01*
X128952815Y-129528815D01*
X128873463Y-129625506D01*
X128814498Y-129735820D01*
X128778188Y-129855518D01*
X128765928Y-129980000D01*
X125742072Y-129980000D01*
X125729812Y-129855518D01*
X125693502Y-129735820D01*
X125634537Y-129625506D01*
X125555185Y-129528815D01*
X125458494Y-129449463D01*
X125348180Y-129390498D01*
X125228482Y-129354188D01*
X125104000Y-129341928D01*
X124714750Y-129345000D01*
X124556000Y-129503750D01*
X124302000Y-129503750D01*
X124143250Y-129345000D01*
X123754000Y-129341928D01*
X123629518Y-129354188D01*
X123509820Y-129390498D01*
X123399506Y-129449463D01*
X123302815Y-129528815D01*
X123223463Y-129625506D01*
X123164498Y-129735820D01*
X123128188Y-129855518D01*
X123115928Y-129980000D01*
X122502072Y-129980000D01*
X122489812Y-129855518D01*
X122453502Y-129735820D01*
X122394537Y-129625506D01*
X122315185Y-129528815D01*
X122218494Y-129449463D01*
X122108180Y-129390498D01*
X121988482Y-129354188D01*
X121864000Y-129341928D01*
X121474750Y-129345000D01*
X121316000Y-129503750D01*
X121062000Y-129503750D01*
X120903250Y-129345000D01*
X120514000Y-129341928D01*
X120389518Y-129354188D01*
X120269820Y-129390498D01*
X120159506Y-129449463D01*
X120062815Y-129528815D01*
X119983463Y-129625506D01*
X119924498Y-129735820D01*
X119888188Y-129855518D01*
X119875928Y-129980000D01*
X116852072Y-129980000D01*
X116839812Y-129855518D01*
X116803502Y-129735820D01*
X116744537Y-129625506D01*
X116665185Y-129528815D01*
X116568494Y-129449463D01*
X116458180Y-129390498D01*
X116338482Y-129354188D01*
X116214000Y-129341928D01*
X115824750Y-129345000D01*
X115666000Y-129503750D01*
X115412000Y-129503750D01*
X115253250Y-129345000D01*
X114864000Y-129341928D01*
X114739518Y-129354188D01*
X114619820Y-129390498D01*
X114509506Y-129449463D01*
X114412815Y-129528815D01*
X114333463Y-129625506D01*
X114274498Y-129735820D01*
X114238188Y-129855518D01*
X114225928Y-129980000D01*
X113841600Y-129980000D01*
X113841600Y-123737323D01*
X115333000Y-123737323D01*
X115333000Y-124262677D01*
X115435492Y-124777935D01*
X115636536Y-125263298D01*
X115928406Y-125700113D01*
X116299887Y-126071594D01*
X116736702Y-126363464D01*
X117222065Y-126564508D01*
X117737323Y-126667000D01*
X118262677Y-126667000D01*
X118777935Y-126564508D01*
X119263298Y-126363464D01*
X119700113Y-126071594D01*
X120071594Y-125700113D01*
X120363464Y-125263298D01*
X120564508Y-124777935D01*
X120667000Y-124262677D01*
X120667000Y-123737323D01*
X151833000Y-123737323D01*
X151833000Y-124262677D01*
X151935492Y-124777935D01*
X152136536Y-125263298D01*
X152428406Y-125700113D01*
X152799887Y-126071594D01*
X153236702Y-126363464D01*
X153722065Y-126564508D01*
X154237323Y-126667000D01*
X154762677Y-126667000D01*
X155277935Y-126564508D01*
X155763298Y-126363464D01*
X156200113Y-126071594D01*
X156571594Y-125700113D01*
X156863464Y-125263298D01*
X157064508Y-124777935D01*
X157167000Y-124262677D01*
X157167000Y-123737323D01*
X157064508Y-123222065D01*
X156863464Y-122736702D01*
X156571594Y-122299887D01*
X156200113Y-121928406D01*
X155763298Y-121636536D01*
X155277935Y-121435492D01*
X154762677Y-121333000D01*
X154237323Y-121333000D01*
X153722065Y-121435492D01*
X153236702Y-121636536D01*
X152799887Y-121928406D01*
X152428406Y-122299887D01*
X152136536Y-122736702D01*
X151935492Y-123222065D01*
X151833000Y-123737323D01*
X120667000Y-123737323D01*
X120564508Y-123222065D01*
X120363464Y-122736702D01*
X120071594Y-122299887D01*
X119700113Y-121928406D01*
X119263298Y-121636536D01*
X118777935Y-121435492D01*
X118262677Y-121333000D01*
X117737323Y-121333000D01*
X117222065Y-121435492D01*
X116736702Y-121636536D01*
X116299887Y-121928406D01*
X115928406Y-122299887D01*
X115636536Y-122736702D01*
X115435492Y-123222065D01*
X115333000Y-123737323D01*
X113841600Y-123737323D01*
X113841600Y-119717760D01*
X136165000Y-119717760D01*
X136165000Y-119882240D01*
X136197089Y-120043560D01*
X136260033Y-120195521D01*
X136351413Y-120332281D01*
X136467719Y-120448587D01*
X136604479Y-120539967D01*
X136756440Y-120602911D01*
X136917760Y-120635000D01*
X137082240Y-120635000D01*
X137243560Y-120602911D01*
X137395521Y-120539967D01*
X137402955Y-120535000D01*
X138997045Y-120535000D01*
X139004479Y-120539967D01*
X139156440Y-120602911D01*
X139317760Y-120635000D01*
X139482240Y-120635000D01*
X139643560Y-120602911D01*
X139795521Y-120539967D01*
X139932281Y-120448587D01*
X140048587Y-120332281D01*
X140139967Y-120195521D01*
X140202911Y-120043560D01*
X140235000Y-119882240D01*
X140235000Y-119717760D01*
X140202911Y-119556440D01*
X140139967Y-119404479D01*
X140048587Y-119267719D01*
X139932281Y-119151413D01*
X139795521Y-119060033D01*
X139643560Y-118997089D01*
X139482240Y-118965000D01*
X139317760Y-118965000D01*
X139156440Y-118997089D01*
X139004479Y-119060033D01*
X138997045Y-119065000D01*
X137402955Y-119065000D01*
X137395521Y-119060033D01*
X137243560Y-118997089D01*
X137082240Y-118965000D01*
X136917760Y-118965000D01*
X136756440Y-118997089D01*
X136604479Y-119060033D01*
X136467719Y-119151413D01*
X136351413Y-119267719D01*
X136260033Y-119404479D01*
X136197089Y-119556440D01*
X136165000Y-119717760D01*
X113841600Y-119717760D01*
X113841600Y-105593760D01*
X126607220Y-105593760D01*
X126607220Y-105758240D01*
X126639309Y-105919560D01*
X126702253Y-106071521D01*
X126793633Y-106208281D01*
X126909939Y-106324587D01*
X127046699Y-106415967D01*
X127198660Y-106478911D01*
X127207429Y-106480655D01*
X129805966Y-109079193D01*
X129828982Y-109107238D01*
X129940900Y-109199087D01*
X130068587Y-109267337D01*
X130207135Y-109309365D01*
X130315115Y-109320000D01*
X130315124Y-109320000D01*
X130351219Y-109323555D01*
X130387314Y-109320000D01*
X130889645Y-109320000D01*
X130897079Y-109324967D01*
X131049040Y-109387911D01*
X131203452Y-109418626D01*
X131217663Y-109465474D01*
X131285913Y-109593161D01*
X131377762Y-109705079D01*
X131405808Y-109728096D01*
X133564310Y-111886599D01*
X133587326Y-111914644D01*
X133699244Y-112006493D01*
X133826931Y-112074743D01*
X133965479Y-112116771D01*
X134073459Y-112127406D01*
X134073468Y-112127406D01*
X134109563Y-112130961D01*
X134145658Y-112127406D01*
X134967051Y-112127406D01*
X134974485Y-112132373D01*
X135126446Y-112195317D01*
X135287766Y-112227406D01*
X135452246Y-112227406D01*
X135613566Y-112195317D01*
X135765527Y-112132373D01*
X135902287Y-112040993D01*
X136018593Y-111924687D01*
X136109973Y-111787927D01*
X136172917Y-111635966D01*
X136205006Y-111474646D01*
X136205006Y-111310166D01*
X136172917Y-111148846D01*
X136109973Y-110996885D01*
X136039765Y-110891811D01*
X137447545Y-112299592D01*
X137449289Y-112308360D01*
X137512233Y-112460321D01*
X137603613Y-112597081D01*
X137719919Y-112713387D01*
X137856679Y-112804767D01*
X138008640Y-112867711D01*
X138169960Y-112899800D01*
X138334440Y-112899800D01*
X138495760Y-112867711D01*
X138647721Y-112804767D01*
X138784481Y-112713387D01*
X138900787Y-112597081D01*
X138992167Y-112460321D01*
X139055111Y-112308360D01*
X139087200Y-112147040D01*
X139087200Y-111982560D01*
X139055111Y-111821240D01*
X138992167Y-111669279D01*
X138900787Y-111532519D01*
X138784481Y-111416213D01*
X138647721Y-111324833D01*
X138495760Y-111261889D01*
X138486992Y-111260145D01*
X137103846Y-109877000D01*
X137191240Y-109877000D01*
X137352560Y-109844911D01*
X137504521Y-109781967D01*
X137511955Y-109777000D01*
X137809895Y-109777000D01*
X137846000Y-109780556D01*
X137882105Y-109777000D01*
X137990085Y-109766365D01*
X138128633Y-109724337D01*
X138256320Y-109656087D01*
X138368238Y-109564238D01*
X138391258Y-109536188D01*
X140366592Y-107560855D01*
X140375360Y-107559111D01*
X140527321Y-107496167D01*
X140664081Y-107404787D01*
X140780387Y-107288481D01*
X140871767Y-107151721D01*
X140934711Y-106999760D01*
X140966800Y-106838440D01*
X140966800Y-106673960D01*
X140934711Y-106512640D01*
X140871767Y-106360679D01*
X140780387Y-106223919D01*
X140715458Y-106158990D01*
X143257601Y-103616848D01*
X143257600Y-110163245D01*
X143252633Y-110170679D01*
X143189689Y-110322640D01*
X143157600Y-110483960D01*
X143157600Y-110648440D01*
X143189689Y-110809760D01*
X143252633Y-110961721D01*
X143344013Y-111098481D01*
X143460319Y-111214787D01*
X143597079Y-111306167D01*
X143749040Y-111369111D01*
X143910360Y-111401200D01*
X144074840Y-111401200D01*
X144236160Y-111369111D01*
X144388121Y-111306167D01*
X144524881Y-111214787D01*
X144641187Y-111098481D01*
X144732567Y-110961721D01*
X144795511Y-110809760D01*
X144827600Y-110648440D01*
X144827600Y-110483960D01*
X144795511Y-110322640D01*
X144732567Y-110170679D01*
X144727600Y-110163245D01*
X144727600Y-103199307D01*
X144731156Y-103163202D01*
X144716965Y-103019117D01*
X144674937Y-102880568D01*
X144606687Y-102752882D01*
X144554260Y-102689000D01*
X144514838Y-102640964D01*
X144486793Y-102617948D01*
X144085698Y-102216854D01*
X144135111Y-102097560D01*
X144136855Y-102088791D01*
X148472292Y-97753355D01*
X148481060Y-97751611D01*
X148633021Y-97688667D01*
X148769781Y-97597287D01*
X148886087Y-97480981D01*
X148977467Y-97344221D01*
X149040411Y-97192260D01*
X149072500Y-97030940D01*
X149072500Y-96866460D01*
X149040411Y-96705140D01*
X148977467Y-96553179D01*
X148886087Y-96416419D01*
X148769781Y-96300113D01*
X148633021Y-96208733D01*
X148481060Y-96145789D01*
X148319740Y-96113700D01*
X148155260Y-96113700D01*
X147993940Y-96145789D01*
X147841979Y-96208733D01*
X147705219Y-96300113D01*
X147588913Y-96416419D01*
X147497533Y-96553179D01*
X147434589Y-96705140D01*
X147432845Y-96713908D01*
X143097409Y-101049345D01*
X143088640Y-101051089D01*
X142936679Y-101114033D01*
X142799919Y-101205413D01*
X142683613Y-101321719D01*
X142592233Y-101458479D01*
X142577620Y-101493759D01*
X138966087Y-101493759D01*
X141359396Y-99100451D01*
X141387436Y-99077439D01*
X141410449Y-99049398D01*
X141410452Y-99049395D01*
X141479285Y-98965522D01*
X141479286Y-98965521D01*
X141547536Y-98837834D01*
X141589564Y-98699286D01*
X141600199Y-98591306D01*
X141600199Y-98591297D01*
X141603754Y-98555202D01*
X141600199Y-98519107D01*
X141600199Y-80068304D01*
X141603755Y-80032199D01*
X141589564Y-79888114D01*
X141583248Y-79867292D01*
X141547536Y-79749566D01*
X141479286Y-79621879D01*
X141387437Y-79509961D01*
X141359392Y-79486945D01*
X140885655Y-79013209D01*
X140883911Y-79004440D01*
X140820967Y-78852479D01*
X140729587Y-78715719D01*
X140613281Y-78599413D01*
X140476521Y-78508033D01*
X140324560Y-78445089D01*
X140163240Y-78413000D01*
X139998760Y-78413000D01*
X139837440Y-78445089D01*
X139685479Y-78508033D01*
X139636320Y-78540880D01*
X139622339Y-78538099D01*
X139457859Y-78538099D01*
X139296539Y-78570188D01*
X139144578Y-78633132D01*
X139097659Y-78664482D01*
X139086527Y-78662268D01*
X138922047Y-78662268D01*
X138760727Y-78694357D01*
X138608766Y-78757301D01*
X138472006Y-78848681D01*
X138355700Y-78964987D01*
X138264320Y-79101747D01*
X138201376Y-79253708D01*
X138169287Y-79415028D01*
X138169287Y-79579508D01*
X138201376Y-79740828D01*
X138264320Y-79892789D01*
X138355700Y-80029549D01*
X138472006Y-80145855D01*
X138567246Y-80209493D01*
X139041045Y-80683291D01*
X139042789Y-80692060D01*
X139105733Y-80844021D01*
X139197113Y-80980781D01*
X139313419Y-81097087D01*
X139450179Y-81188467D01*
X139581800Y-81242986D01*
X139581800Y-83437621D01*
X139486360Y-83398089D01*
X139325040Y-83366000D01*
X139160560Y-83366000D01*
X138999240Y-83398089D01*
X138847279Y-83461033D01*
X138839845Y-83466000D01*
X135305447Y-83466000D01*
X131976800Y-80137354D01*
X131976800Y-78620295D01*
X131983760Y-78618911D01*
X132135721Y-78555967D01*
X132272481Y-78464587D01*
X132388787Y-78348281D01*
X132480167Y-78211521D01*
X132543111Y-78059560D01*
X132575200Y-77898240D01*
X132575200Y-77733760D01*
X132543111Y-77572440D01*
X132480167Y-77420479D01*
X132388787Y-77283719D01*
X132272481Y-77167413D01*
X132135721Y-77076033D01*
X132045801Y-77038787D01*
X132045801Y-75642813D01*
X132086960Y-75651000D01*
X132251440Y-75651000D01*
X132412760Y-75618911D01*
X132564721Y-75555967D01*
X132701481Y-75464587D01*
X132817787Y-75348281D01*
X132839356Y-75316000D01*
X133640928Y-75316000D01*
X133644000Y-76280250D01*
X133676856Y-76313106D01*
X133643887Y-76479998D01*
X133644116Y-76654328D01*
X133677039Y-76818711D01*
X133644000Y-76851750D01*
X133640928Y-77816000D01*
X133653188Y-77940482D01*
X133689498Y-78060180D01*
X133748463Y-78170494D01*
X133827815Y-78267185D01*
X133924506Y-78346537D01*
X134034820Y-78405502D01*
X134154518Y-78441812D01*
X134279000Y-78454072D01*
X135243250Y-78451000D01*
X135276106Y-78418144D01*
X135442998Y-78451113D01*
X135617328Y-78450884D01*
X135781711Y-78417961D01*
X135814750Y-78451000D01*
X136779000Y-78454072D01*
X136903482Y-78441812D01*
X137023180Y-78405502D01*
X137133494Y-78346537D01*
X137230185Y-78267185D01*
X137309537Y-78170494D01*
X137368502Y-78060180D01*
X137404812Y-77940482D01*
X137417072Y-77816000D01*
X137414000Y-76851750D01*
X137381144Y-76818894D01*
X137414113Y-76652002D01*
X137413884Y-76477672D01*
X137380961Y-76313289D01*
X137414000Y-76280250D01*
X137417072Y-75316000D01*
X137404812Y-75191518D01*
X137368502Y-75071820D01*
X137309537Y-74961506D01*
X137230185Y-74864815D01*
X137133494Y-74785463D01*
X137023180Y-74726498D01*
X136903482Y-74690188D01*
X136779000Y-74677928D01*
X135814750Y-74681000D01*
X135781894Y-74713856D01*
X135615002Y-74680887D01*
X135440672Y-74681116D01*
X135276289Y-74714039D01*
X135243250Y-74681000D01*
X134279000Y-74677928D01*
X134154518Y-74690188D01*
X134034820Y-74726498D01*
X133924506Y-74785463D01*
X133827815Y-74864815D01*
X133748463Y-74961506D01*
X133689498Y-75071820D01*
X133653188Y-75191518D01*
X133640928Y-75316000D01*
X132839356Y-75316000D01*
X132909167Y-75211521D01*
X132972111Y-75059560D01*
X133004200Y-74898240D01*
X133004200Y-74733760D01*
X132972111Y-74572440D01*
X132909167Y-74420479D01*
X132817787Y-74283719D01*
X132701481Y-74167413D01*
X132564721Y-74076033D01*
X132412760Y-74013089D01*
X132251440Y-73981000D01*
X132086960Y-73981000D01*
X131925640Y-74013089D01*
X131773679Y-74076033D01*
X131768795Y-74079296D01*
X131643515Y-74091635D01*
X131504966Y-74133663D01*
X131441825Y-74167413D01*
X131377280Y-74201913D01*
X131265362Y-74293762D01*
X131242341Y-74321813D01*
X130935763Y-74628391D01*
X130849921Y-74571033D01*
X130697960Y-74508089D01*
X130536640Y-74476000D01*
X130372160Y-74476000D01*
X130210840Y-74508089D01*
X130058879Y-74571033D01*
X129922119Y-74662413D01*
X129805813Y-74778719D01*
X129714433Y-74915479D01*
X129651489Y-75067440D01*
X129649745Y-75076208D01*
X128918808Y-75807146D01*
X128890763Y-75830162D01*
X128798914Y-75942080D01*
X128774254Y-75988216D01*
X128730664Y-76069767D01*
X128688635Y-76208315D01*
X128674444Y-76352400D01*
X128678001Y-76388515D01*
X128678001Y-77508950D01*
X128534879Y-77568233D01*
X128398119Y-77659613D01*
X128281813Y-77775919D01*
X128190433Y-77912679D01*
X128127489Y-78064640D01*
X128125745Y-78073409D01*
X127857409Y-78341745D01*
X127848640Y-78343489D01*
X127696679Y-78406433D01*
X127559919Y-78497813D01*
X127443613Y-78614119D01*
X127352233Y-78750879D01*
X127289289Y-78902840D01*
X127257200Y-79064160D01*
X127257200Y-79228640D01*
X127289289Y-79389960D01*
X127352233Y-79541921D01*
X127443613Y-79678681D01*
X127559919Y-79794987D01*
X127696679Y-79886367D01*
X127848640Y-79949311D01*
X128009960Y-79981400D01*
X128174440Y-79981400D01*
X128335760Y-79949311D01*
X128487721Y-79886367D01*
X128624481Y-79794987D01*
X128678001Y-79741467D01*
X128678000Y-104230895D01*
X128678000Y-104448695D01*
X128674444Y-104484800D01*
X128684443Y-104586320D01*
X128688635Y-104628884D01*
X128730663Y-104767432D01*
X128798913Y-104895119D01*
X128890762Y-105007037D01*
X128918808Y-105030054D01*
X129299545Y-105410791D01*
X129301289Y-105419560D01*
X129364233Y-105571521D01*
X129455613Y-105708281D01*
X129571919Y-105824587D01*
X129708679Y-105915967D01*
X129860640Y-105978911D01*
X130021960Y-106011000D01*
X130186440Y-106011000D01*
X130347760Y-105978911D01*
X130499721Y-105915967D01*
X130636481Y-105824587D01*
X130752787Y-105708281D01*
X130844167Y-105571521D01*
X130876526Y-105493399D01*
X130949360Y-105478911D01*
X131101321Y-105415967D01*
X131238081Y-105324587D01*
X131354387Y-105208281D01*
X131445767Y-105071521D01*
X131501848Y-104936128D01*
X131550521Y-104915967D01*
X131687281Y-104824587D01*
X131803587Y-104708281D01*
X131894967Y-104571521D01*
X131957911Y-104419560D01*
X131967900Y-104369342D01*
X132034881Y-104324587D01*
X132151187Y-104208281D01*
X132242567Y-104071521D01*
X132305511Y-103919560D01*
X132307255Y-103910791D01*
X132421950Y-103796096D01*
X132424000Y-105140250D01*
X132456856Y-105173106D01*
X132423887Y-105339998D01*
X132424116Y-105514328D01*
X132457039Y-105678711D01*
X132424000Y-105711750D01*
X132421305Y-107479069D01*
X132295521Y-107395023D01*
X132143560Y-107332079D01*
X131982240Y-107299990D01*
X131817760Y-107299990D01*
X131656440Y-107332079D01*
X131504479Y-107395023D01*
X131367719Y-107486403D01*
X131251413Y-107602709D01*
X131160033Y-107739469D01*
X131150760Y-107761855D01*
X131049040Y-107782089D01*
X130897079Y-107845033D01*
X130889645Y-107850000D01*
X130655667Y-107850000D01*
X128246875Y-105441209D01*
X128245131Y-105432440D01*
X128182187Y-105280479D01*
X128090807Y-105143719D01*
X127974501Y-105027413D01*
X127837741Y-104936033D01*
X127685780Y-104873089D01*
X127524460Y-104841000D01*
X127359980Y-104841000D01*
X127198660Y-104873089D01*
X127046699Y-104936033D01*
X126909939Y-105027413D01*
X126793633Y-105143719D01*
X126702253Y-105280479D01*
X126639309Y-105432440D01*
X126607220Y-105593760D01*
X113841600Y-105593760D01*
X113841600Y-88614514D01*
X117534000Y-88614514D01*
X117534000Y-88877486D01*
X117585304Y-89135405D01*
X117685939Y-89378359D01*
X117832038Y-89597013D01*
X118017987Y-89782962D01*
X118236641Y-89929061D01*
X118479595Y-90029696D01*
X118551423Y-90043984D01*
X118509595Y-90052304D01*
X118266641Y-90152939D01*
X118047987Y-90299038D01*
X117862038Y-90484987D01*
X117715939Y-90703641D01*
X117615304Y-90946595D01*
X117564000Y-91204514D01*
X117564000Y-91467486D01*
X117615304Y-91725405D01*
X117715939Y-91968359D01*
X117862038Y-92187013D01*
X118047987Y-92372962D01*
X118266641Y-92519061D01*
X118509595Y-92619696D01*
X118706969Y-92658957D01*
X118589595Y-92682304D01*
X118346641Y-92782939D01*
X118127987Y-92929038D01*
X117942038Y-93114987D01*
X117795939Y-93333641D01*
X117695304Y-93576595D01*
X117644000Y-93834514D01*
X117644000Y-94097486D01*
X117695304Y-94355405D01*
X117795939Y-94598359D01*
X117942038Y-94817013D01*
X118127987Y-95002962D01*
X118346641Y-95149061D01*
X118589595Y-95249696D01*
X118847514Y-95301000D01*
X119110486Y-95301000D01*
X119368405Y-95249696D01*
X119611359Y-95149061D01*
X119830013Y-95002962D01*
X120015962Y-94817013D01*
X120162061Y-94598359D01*
X120262696Y-94355405D01*
X120314000Y-94097486D01*
X120314000Y-93834514D01*
X120262696Y-93576595D01*
X120162061Y-93333641D01*
X120015962Y-93114987D01*
X119830013Y-92929038D01*
X119611359Y-92782939D01*
X119368405Y-92682304D01*
X119171031Y-92643043D01*
X119288405Y-92619696D01*
X119531359Y-92519061D01*
X119750013Y-92372962D01*
X119935962Y-92187013D01*
X120082061Y-91968359D01*
X120182696Y-91725405D01*
X120234000Y-91467486D01*
X120234000Y-91204514D01*
X120182696Y-90946595D01*
X120082061Y-90703641D01*
X119935962Y-90484987D01*
X119750013Y-90299038D01*
X119531359Y-90152939D01*
X119288405Y-90052304D01*
X119216577Y-90038016D01*
X119258405Y-90029696D01*
X119501359Y-89929061D01*
X119720013Y-89782962D01*
X119905962Y-89597013D01*
X120052061Y-89378359D01*
X120152696Y-89135405D01*
X120204000Y-88877486D01*
X120204000Y-88614514D01*
X120152696Y-88356595D01*
X120052061Y-88113641D01*
X119905962Y-87894987D01*
X119720013Y-87709038D01*
X119501359Y-87562939D01*
X119258405Y-87462304D01*
X119231577Y-87456967D01*
X119318405Y-87439696D01*
X119561359Y-87339061D01*
X119780013Y-87192962D01*
X119965962Y-87007013D01*
X120112061Y-86788359D01*
X120212696Y-86545405D01*
X120264000Y-86287486D01*
X120264000Y-86024514D01*
X120212696Y-85766595D01*
X120112061Y-85523641D01*
X119965962Y-85304987D01*
X119780013Y-85119038D01*
X119561359Y-84972939D01*
X119318405Y-84872304D01*
X119246440Y-84857989D01*
X119338405Y-84839696D01*
X119581359Y-84739061D01*
X119800013Y-84592962D01*
X119985962Y-84407013D01*
X120132061Y-84188359D01*
X120232696Y-83945405D01*
X120284000Y-83687486D01*
X120284000Y-83424514D01*
X120232696Y-83166595D01*
X120132061Y-82923641D01*
X119985962Y-82704987D01*
X119800013Y-82519038D01*
X119581359Y-82372939D01*
X119338405Y-82272304D01*
X119080486Y-82221000D01*
X118817514Y-82221000D01*
X118559595Y-82272304D01*
X118316641Y-82372939D01*
X118097987Y-82519038D01*
X117912038Y-82704987D01*
X117765939Y-82923641D01*
X117665304Y-83166595D01*
X117614000Y-83424514D01*
X117614000Y-83687486D01*
X117665304Y-83945405D01*
X117765939Y-84188359D01*
X117912038Y-84407013D01*
X118097987Y-84592962D01*
X118316641Y-84739061D01*
X118559595Y-84839696D01*
X118631560Y-84854011D01*
X118539595Y-84872304D01*
X118296641Y-84972939D01*
X118077987Y-85119038D01*
X117892038Y-85304987D01*
X117745939Y-85523641D01*
X117645304Y-85766595D01*
X117594000Y-86024514D01*
X117594000Y-86287486D01*
X117645304Y-86545405D01*
X117745939Y-86788359D01*
X117892038Y-87007013D01*
X118077987Y-87192962D01*
X118296641Y-87339061D01*
X118539595Y-87439696D01*
X118566423Y-87445033D01*
X118479595Y-87462304D01*
X118236641Y-87562939D01*
X118017987Y-87709038D01*
X117832038Y-87894987D01*
X117685939Y-88113641D01*
X117585304Y-88356595D01*
X117534000Y-88614514D01*
X113841600Y-88614514D01*
X113841600Y-72206160D01*
X131473600Y-72206160D01*
X131473600Y-72370640D01*
X131505689Y-72531960D01*
X131568633Y-72683921D01*
X131660013Y-72820681D01*
X131776319Y-72936987D01*
X131913079Y-73028367D01*
X132065040Y-73091311D01*
X132226360Y-73123400D01*
X132390840Y-73123400D01*
X132552160Y-73091311D01*
X132701091Y-73029622D01*
X137855467Y-73029622D01*
X137862901Y-73034589D01*
X138014862Y-73097533D01*
X138023631Y-73099277D01*
X138037147Y-73112793D01*
X142883145Y-77958792D01*
X142884889Y-77967560D01*
X142947833Y-78119521D01*
X143039213Y-78256281D01*
X143155519Y-78372587D01*
X143292279Y-78463967D01*
X143444240Y-78526911D01*
X143605560Y-78559000D01*
X143770040Y-78559000D01*
X143931360Y-78526911D01*
X144083321Y-78463967D01*
X144220081Y-78372587D01*
X144336387Y-78256281D01*
X144427767Y-78119521D01*
X144490711Y-77967560D01*
X144522800Y-77806240D01*
X144522800Y-77641760D01*
X144490711Y-77480440D01*
X144427767Y-77328479D01*
X144336387Y-77191719D01*
X144220081Y-77075413D01*
X144083321Y-76984033D01*
X143931360Y-76921089D01*
X143922592Y-76919345D01*
X139076593Y-72073347D01*
X139063077Y-72059831D01*
X139061333Y-72051062D01*
X138998389Y-71899101D01*
X138907009Y-71762341D01*
X138790703Y-71646035D01*
X138653943Y-71554655D01*
X138501982Y-71491711D01*
X138340662Y-71459622D01*
X138176182Y-71459622D01*
X138014862Y-71491711D01*
X137862901Y-71554655D01*
X137855467Y-71559622D01*
X132720867Y-71559622D01*
X132704121Y-71548433D01*
X132552160Y-71485489D01*
X132390840Y-71453400D01*
X132226360Y-71453400D01*
X132065040Y-71485489D01*
X131913079Y-71548433D01*
X131776319Y-71639813D01*
X131660013Y-71756119D01*
X131568633Y-71892879D01*
X131505689Y-72044840D01*
X131473600Y-72206160D01*
X113841600Y-72206160D01*
X113841600Y-70060193D01*
X124024000Y-70060193D01*
X124024000Y-70411807D01*
X124092596Y-70756665D01*
X124227153Y-71081515D01*
X124422500Y-71373871D01*
X124671129Y-71622500D01*
X124963485Y-71817847D01*
X125288335Y-71952404D01*
X125633193Y-72021000D01*
X125984807Y-72021000D01*
X126329665Y-71952404D01*
X126654515Y-71817847D01*
X126946871Y-71622500D01*
X127195500Y-71373871D01*
X127390847Y-71081515D01*
X127525404Y-70756665D01*
X127594000Y-70411807D01*
X127594000Y-70060193D01*
X127525404Y-69715335D01*
X127390847Y-69390485D01*
X127195500Y-69098129D01*
X126946871Y-68849500D01*
X126654515Y-68654153D01*
X126399591Y-68548560D01*
X134902600Y-68548560D01*
X134902600Y-68713040D01*
X134934689Y-68874360D01*
X134997633Y-69026321D01*
X135089013Y-69163081D01*
X135205319Y-69279387D01*
X135342079Y-69370767D01*
X135494040Y-69433711D01*
X135655360Y-69465800D01*
X135819840Y-69465800D01*
X135981160Y-69433711D01*
X136133121Y-69370767D01*
X136269881Y-69279387D01*
X136386187Y-69163081D01*
X136477567Y-69026321D01*
X136540511Y-68874360D01*
X136572600Y-68713040D01*
X136572600Y-68548560D01*
X136540511Y-68387240D01*
X136477567Y-68235279D01*
X136472600Y-68227845D01*
X136472600Y-64186000D01*
X141060928Y-64186000D01*
X141060928Y-65786000D01*
X141073188Y-65910482D01*
X141109498Y-66030180D01*
X141168463Y-66140494D01*
X141247815Y-66237185D01*
X141344506Y-66316537D01*
X141454820Y-66375502D01*
X141574518Y-66411812D01*
X141699000Y-66424072D01*
X143299000Y-66424072D01*
X143423482Y-66411812D01*
X143543180Y-66375502D01*
X143653494Y-66316537D01*
X143750185Y-66237185D01*
X143829537Y-66140494D01*
X143888502Y-66030180D01*
X143904117Y-65978702D01*
X144185903Y-65978702D01*
X144257486Y-66222671D01*
X144512996Y-66343571D01*
X144787184Y-66412300D01*
X145069512Y-66426217D01*
X145349130Y-66384787D01*
X145615292Y-66289603D01*
X145740514Y-66222671D01*
X145812097Y-65978702D01*
X144999000Y-65165605D01*
X144185903Y-65978702D01*
X143904117Y-65978702D01*
X143924812Y-65910482D01*
X143937072Y-65786000D01*
X143937072Y-65778785D01*
X144006298Y-65799097D01*
X144819395Y-64986000D01*
X145178605Y-64986000D01*
X145991702Y-65799097D01*
X146235671Y-65727514D01*
X146356571Y-65472004D01*
X146425300Y-65197816D01*
X146439217Y-64915488D01*
X146397787Y-64635870D01*
X146302603Y-64369708D01*
X146235671Y-64244486D01*
X145991702Y-64172903D01*
X145178605Y-64986000D01*
X144819395Y-64986000D01*
X144006298Y-64172903D01*
X143937072Y-64193215D01*
X143937072Y-64186000D01*
X143924812Y-64061518D01*
X143904118Y-63993298D01*
X144185903Y-63993298D01*
X144999000Y-64806395D01*
X145812097Y-63993298D01*
X145740514Y-63749329D01*
X145485004Y-63628429D01*
X145210816Y-63559700D01*
X144928488Y-63545783D01*
X144648870Y-63587213D01*
X144382708Y-63682397D01*
X144257486Y-63749329D01*
X144185903Y-63993298D01*
X143904118Y-63993298D01*
X143888502Y-63941820D01*
X143829537Y-63831506D01*
X143750185Y-63734815D01*
X143653494Y-63655463D01*
X143543180Y-63596498D01*
X143423482Y-63560188D01*
X143299000Y-63547928D01*
X141699000Y-63547928D01*
X141574518Y-63560188D01*
X141454820Y-63596498D01*
X141344506Y-63655463D01*
X141247815Y-63734815D01*
X141168463Y-63831506D01*
X141109498Y-63941820D01*
X141073188Y-64061518D01*
X141060928Y-64186000D01*
X136472600Y-64186000D01*
X136472600Y-60756446D01*
X137623392Y-59605655D01*
X137632160Y-59603911D01*
X137784121Y-59540967D01*
X137920881Y-59449587D01*
X138037187Y-59333281D01*
X138128567Y-59196521D01*
X138191511Y-59044560D01*
X138223600Y-58883240D01*
X138223600Y-58718760D01*
X138191511Y-58557440D01*
X138128567Y-58405479D01*
X138037187Y-58268719D01*
X137920881Y-58152413D01*
X137784121Y-58061033D01*
X137632160Y-57998089D01*
X137470840Y-57966000D01*
X137306360Y-57966000D01*
X137145040Y-57998089D01*
X136993079Y-58061033D01*
X136856319Y-58152413D01*
X136740013Y-58268719D01*
X136648633Y-58405479D01*
X136585689Y-58557440D01*
X136583945Y-58566208D01*
X135243408Y-59906746D01*
X135215363Y-59929762D01*
X135123514Y-60041680D01*
X135116133Y-60055489D01*
X135055264Y-60169367D01*
X135013235Y-60307915D01*
X134999044Y-60452000D01*
X135002601Y-60488115D01*
X135002600Y-68227845D01*
X134997633Y-68235279D01*
X134934689Y-68387240D01*
X134902600Y-68548560D01*
X126399591Y-68548560D01*
X126329665Y-68519596D01*
X125984807Y-68451000D01*
X125633193Y-68451000D01*
X125288335Y-68519596D01*
X124963485Y-68654153D01*
X124671129Y-68849500D01*
X124422500Y-69098129D01*
X124227153Y-69390485D01*
X124092596Y-69715335D01*
X124024000Y-70060193D01*
X113841600Y-70060193D01*
X113841600Y-65160193D01*
X124024000Y-65160193D01*
X124024000Y-65511807D01*
X124092596Y-65856665D01*
X124227153Y-66181515D01*
X124422500Y-66473871D01*
X124671129Y-66722500D01*
X124963485Y-66917847D01*
X125288335Y-67052404D01*
X125633193Y-67121000D01*
X125984807Y-67121000D01*
X126329665Y-67052404D01*
X126654515Y-66917847D01*
X126946871Y-66722500D01*
X127195500Y-66473871D01*
X127390847Y-66181515D01*
X127525404Y-65856665D01*
X127594000Y-65511807D01*
X127594000Y-65160193D01*
X127525404Y-64815335D01*
X127390847Y-64490485D01*
X127195500Y-64198129D01*
X126946871Y-63949500D01*
X126654515Y-63754153D01*
X126329665Y-63619596D01*
X125984807Y-63551000D01*
X125633193Y-63551000D01*
X125288335Y-63619596D01*
X124963485Y-63754153D01*
X124671129Y-63949500D01*
X124422500Y-64198129D01*
X124227153Y-64490485D01*
X124092596Y-64815335D01*
X124024000Y-65160193D01*
X113841600Y-65160193D01*
X113841600Y-58667960D01*
X132134000Y-58667960D01*
X132134000Y-58832440D01*
X132166089Y-58993760D01*
X132229033Y-59145721D01*
X132234001Y-59153156D01*
X132234000Y-60455445D01*
X132229033Y-60462879D01*
X132166089Y-60614840D01*
X132134000Y-60776160D01*
X132134000Y-60940640D01*
X132166089Y-61101960D01*
X132229033Y-61253921D01*
X132320413Y-61390681D01*
X132436719Y-61506987D01*
X132573479Y-61598367D01*
X132725440Y-61661311D01*
X132886760Y-61693400D01*
X133051240Y-61693400D01*
X133212560Y-61661311D01*
X133364521Y-61598367D01*
X133501281Y-61506987D01*
X133617587Y-61390681D01*
X133708967Y-61253921D01*
X133771911Y-61101960D01*
X133804000Y-60940640D01*
X133804000Y-60776160D01*
X133771911Y-60614840D01*
X133708967Y-60462879D01*
X133704000Y-60455445D01*
X133704000Y-59153155D01*
X133708967Y-59145721D01*
X133771911Y-58993760D01*
X133804000Y-58832440D01*
X133804000Y-58667960D01*
X133771911Y-58506640D01*
X133708967Y-58354679D01*
X133617587Y-58217919D01*
X133501281Y-58101613D01*
X133364521Y-58010233D01*
X133212560Y-57947289D01*
X133051240Y-57915200D01*
X132886760Y-57915200D01*
X132725440Y-57947289D01*
X132573479Y-58010233D01*
X132436719Y-58101613D01*
X132320413Y-58217919D01*
X132229033Y-58354679D01*
X132166089Y-58506640D01*
X132134000Y-58667960D01*
X113841600Y-58667960D01*
X113841600Y-55598665D01*
X120315000Y-55598665D01*
X120315000Y-55881335D01*
X120370147Y-56158574D01*
X120478320Y-56419727D01*
X120635363Y-56654759D01*
X120835241Y-56854637D01*
X121070273Y-57011680D01*
X121331426Y-57119853D01*
X121608665Y-57175000D01*
X121891335Y-57175000D01*
X122168574Y-57119853D01*
X122429727Y-57011680D01*
X122664759Y-56854637D01*
X122863357Y-56656039D01*
X122864188Y-56664482D01*
X122900498Y-56784180D01*
X122959463Y-56894494D01*
X123038815Y-56991185D01*
X123135506Y-57070537D01*
X123245820Y-57129502D01*
X123365518Y-57165812D01*
X123490000Y-57178072D01*
X124004250Y-57175000D01*
X124163000Y-57016250D01*
X124163000Y-55867000D01*
X124417000Y-55867000D01*
X124417000Y-57016250D01*
X124575750Y-57175000D01*
X125090000Y-57178072D01*
X125214482Y-57165812D01*
X125334180Y-57129502D01*
X125444494Y-57070537D01*
X125541185Y-56991185D01*
X125620537Y-56894494D01*
X125679502Y-56784180D01*
X125715812Y-56664482D01*
X125728072Y-56540000D01*
X125725000Y-56025750D01*
X125566250Y-55867000D01*
X124417000Y-55867000D01*
X124163000Y-55867000D01*
X124143000Y-55867000D01*
X124143000Y-55613000D01*
X124163000Y-55613000D01*
X124163000Y-54463750D01*
X124417000Y-54463750D01*
X124417000Y-55613000D01*
X125566250Y-55613000D01*
X125725000Y-55454250D01*
X125728072Y-54940000D01*
X125715812Y-54815518D01*
X125679502Y-54695820D01*
X125620537Y-54585506D01*
X125541185Y-54488815D01*
X125444494Y-54409463D01*
X125334180Y-54350498D01*
X125214482Y-54314188D01*
X125090000Y-54301928D01*
X124575750Y-54305000D01*
X124417000Y-54463750D01*
X124163000Y-54463750D01*
X124004250Y-54305000D01*
X123490000Y-54301928D01*
X123365518Y-54314188D01*
X123245820Y-54350498D01*
X123135506Y-54409463D01*
X123038815Y-54488815D01*
X122959463Y-54585506D01*
X122900498Y-54695820D01*
X122864188Y-54815518D01*
X122863357Y-54823961D01*
X122664759Y-54625363D01*
X122429727Y-54468320D01*
X122168574Y-54360147D01*
X121891335Y-54305000D01*
X121608665Y-54305000D01*
X121331426Y-54360147D01*
X121070273Y-54468320D01*
X120835241Y-54625363D01*
X120635363Y-54825241D01*
X120478320Y-55060273D01*
X120370147Y-55321426D01*
X120315000Y-55598665D01*
X113841600Y-55598665D01*
X113841600Y-49737323D01*
X115333000Y-49737323D01*
X115333000Y-50262677D01*
X115435492Y-50777935D01*
X115636536Y-51263298D01*
X115928406Y-51700113D01*
X116299887Y-52071594D01*
X116736702Y-52363464D01*
X117222065Y-52564508D01*
X117737323Y-52667000D01*
X118262677Y-52667000D01*
X118777935Y-52564508D01*
X119263298Y-52363464D01*
X119700113Y-52071594D01*
X120071594Y-51700113D01*
X120363464Y-51263298D01*
X120564508Y-50777935D01*
X120667000Y-50262677D01*
X120667000Y-49737323D01*
X120564508Y-49222065D01*
X120363464Y-48736702D01*
X120344414Y-48708191D01*
X131215000Y-48708191D01*
X131215000Y-49391808D01*
X131234678Y-49591606D01*
X131312445Y-49847967D01*
X131438730Y-50084230D01*
X131608682Y-50291317D01*
X131815769Y-50461270D01*
X132052032Y-50587555D01*
X132308393Y-50665322D01*
X132575000Y-50691580D01*
X132841606Y-50665322D01*
X133097967Y-50587555D01*
X133334230Y-50461270D01*
X133541317Y-50291318D01*
X133711270Y-50084231D01*
X133837555Y-49847968D01*
X133915322Y-49591607D01*
X133935000Y-49391809D01*
X133935000Y-49028424D01*
X134101898Y-48995226D01*
X134290256Y-48917205D01*
X134459774Y-48803937D01*
X134603937Y-48659774D01*
X134717205Y-48490256D01*
X134795226Y-48301898D01*
X134835000Y-48101939D01*
X134835000Y-47898061D01*
X137765000Y-47898061D01*
X137765000Y-48101939D01*
X137804774Y-48301898D01*
X137882795Y-48490256D01*
X137996063Y-48659774D01*
X138140226Y-48803937D01*
X138309744Y-48917205D01*
X138498102Y-48995226D01*
X138665000Y-49028424D01*
X138665000Y-49391808D01*
X138684678Y-49591606D01*
X138762445Y-49847967D01*
X138888730Y-50084230D01*
X139058682Y-50291317D01*
X139265769Y-50461270D01*
X139502032Y-50587555D01*
X139758393Y-50665322D01*
X140025000Y-50691580D01*
X140291606Y-50665322D01*
X140547967Y-50587555D01*
X140784230Y-50461270D01*
X140991317Y-50291318D01*
X141161270Y-50084231D01*
X141287555Y-49847968D01*
X141321119Y-49737323D01*
X151833000Y-49737323D01*
X151833000Y-50262677D01*
X151935492Y-50777935D01*
X152136536Y-51263298D01*
X152428406Y-51700113D01*
X152799887Y-52071594D01*
X153236702Y-52363464D01*
X153722065Y-52564508D01*
X154237323Y-52667000D01*
X154762677Y-52667000D01*
X155277935Y-52564508D01*
X155763298Y-52363464D01*
X156200113Y-52071594D01*
X156571594Y-51700113D01*
X156863464Y-51263298D01*
X157064508Y-50777935D01*
X157167000Y-50262677D01*
X157167000Y-49737323D01*
X157064508Y-49222065D01*
X156863464Y-48736702D01*
X156571594Y-48299887D01*
X156200113Y-47928406D01*
X155763298Y-47636536D01*
X155277935Y-47435492D01*
X154762677Y-47333000D01*
X154237323Y-47333000D01*
X153722065Y-47435492D01*
X153236702Y-47636536D01*
X152799887Y-47928406D01*
X152428406Y-48299887D01*
X152136536Y-48736702D01*
X151935492Y-49222065D01*
X151833000Y-49737323D01*
X141321119Y-49737323D01*
X141365322Y-49591607D01*
X141385000Y-49391809D01*
X141385000Y-48708192D01*
X141365322Y-48508394D01*
X141287555Y-48252032D01*
X141161270Y-48015769D01*
X140991318Y-47808682D01*
X140784231Y-47638730D01*
X140547968Y-47512445D01*
X140291607Y-47434678D01*
X140025000Y-47408420D01*
X139758394Y-47434678D01*
X139682442Y-47457718D01*
X139603937Y-47340226D01*
X139459774Y-47196063D01*
X139290256Y-47082795D01*
X139101898Y-47004774D01*
X138901939Y-46965000D01*
X138698061Y-46965000D01*
X138498102Y-47004774D01*
X138309744Y-47082795D01*
X138140226Y-47196063D01*
X137996063Y-47340226D01*
X137882795Y-47509744D01*
X137804774Y-47698102D01*
X137765000Y-47898061D01*
X134835000Y-47898061D01*
X134795226Y-47698102D01*
X134717205Y-47509744D01*
X134603937Y-47340226D01*
X134459774Y-47196063D01*
X134290256Y-47082795D01*
X134101898Y-47004774D01*
X133901939Y-46965000D01*
X133698061Y-46965000D01*
X133498102Y-47004774D01*
X133309744Y-47082795D01*
X133140226Y-47196063D01*
X132996063Y-47340226D01*
X132917558Y-47457718D01*
X132841607Y-47434678D01*
X132575000Y-47408420D01*
X132308394Y-47434678D01*
X132052033Y-47512445D01*
X131815770Y-47638730D01*
X131608683Y-47808682D01*
X131438730Y-48015769D01*
X131312445Y-48252032D01*
X131234678Y-48508393D01*
X131215000Y-48708191D01*
X120344414Y-48708191D01*
X120071594Y-48299887D01*
X119700113Y-47928406D01*
X119263298Y-47636536D01*
X118777935Y-47435492D01*
X118262677Y-47333000D01*
X117737323Y-47333000D01*
X117222065Y-47435492D01*
X116736702Y-47636536D01*
X116299887Y-47928406D01*
X115928406Y-48299887D01*
X115636536Y-48736702D01*
X115435492Y-49222065D01*
X115333000Y-49737323D01*
X113841600Y-49737323D01*
X113841600Y-44184640D01*
X131467291Y-44184640D01*
X131414055Y-44249508D01*
%TA.AperFunction,Conductor*%
D25*
G36*
X131414055Y-44249508D02*
G01*
X131301697Y-44459713D01*
X131232508Y-44687799D01*
X131215000Y-44865563D01*
X131215000Y-45634436D01*
X131232508Y-45812200D01*
X131301697Y-46040286D01*
X131414054Y-46250491D01*
X131565261Y-46434739D01*
X131749508Y-46585946D01*
X131959713Y-46698303D01*
X132187799Y-46767492D01*
X132425000Y-46790854D01*
X132662200Y-46767492D01*
X132890286Y-46698303D01*
X133100491Y-46585946D01*
X133284739Y-46434739D01*
X133435946Y-46250492D01*
X133548303Y-46040287D01*
X133617492Y-45812201D01*
X133635000Y-45634437D01*
X133635000Y-44865564D01*
X133617492Y-44687800D01*
X133548303Y-44459713D01*
X133435946Y-44249508D01*
X133382710Y-44184640D01*
X139217291Y-44184640D01*
X139164055Y-44249508D01*
X139051697Y-44459713D01*
X138982508Y-44687799D01*
X138965000Y-44865563D01*
X138965000Y-45634436D01*
X138982508Y-45812200D01*
X139051697Y-46040286D01*
X139164054Y-46250491D01*
X139315261Y-46434739D01*
X139499508Y-46585946D01*
X139709713Y-46698303D01*
X139937799Y-46767492D01*
X140175000Y-46790854D01*
X140412200Y-46767492D01*
X140640286Y-46698303D01*
X140850491Y-46585946D01*
X141034739Y-46434739D01*
X141185946Y-46250492D01*
X141298303Y-46040287D01*
X141367492Y-45812201D01*
X141385000Y-45634437D01*
X141385000Y-44865564D01*
X141367492Y-44687800D01*
X141298303Y-44459713D01*
X141185946Y-44249508D01*
X141132710Y-44184640D01*
X158700441Y-44184640D01*
X158705440Y-133422320D01*
X158060789Y-133422320D01*
X158059000Y-132365750D01*
X157900250Y-132207000D01*
X156876000Y-132207000D01*
X156876000Y-132227000D01*
X156622000Y-132227000D01*
X156622000Y-132207000D01*
X155597750Y-132207000D01*
X155439000Y-132365750D01*
X155437211Y-133422320D01*
X152410789Y-133422320D01*
X152409000Y-132365750D01*
X152250250Y-132207000D01*
X151226000Y-132207000D01*
X151226000Y-132227000D01*
X150972000Y-132227000D01*
X150972000Y-132207000D01*
X149947750Y-132207000D01*
X149789000Y-132365750D01*
X149787211Y-133422320D01*
X149170789Y-133422320D01*
X149169000Y-132365750D01*
X149010250Y-132207000D01*
X147986000Y-132207000D01*
X147986000Y-132227000D01*
X147732000Y-132227000D01*
X147732000Y-132207000D01*
X146707750Y-132207000D01*
X146549000Y-132365750D01*
X146547211Y-133422320D01*
X143520789Y-133422320D01*
X143519000Y-132365750D01*
X143360250Y-132207000D01*
X142336000Y-132207000D01*
X142336000Y-132227000D01*
X142082000Y-132227000D01*
X142082000Y-132207000D01*
X141057750Y-132207000D01*
X140899000Y-132365750D01*
X140897211Y-133422320D01*
X140280789Y-133422320D01*
X140279000Y-132365750D01*
X140120250Y-132207000D01*
X139096000Y-132207000D01*
X139096000Y-132227000D01*
X138842000Y-132227000D01*
X138842000Y-132207000D01*
X137817750Y-132207000D01*
X137659000Y-132365750D01*
X137657211Y-133422320D01*
X134630789Y-133422320D01*
X134629000Y-132365750D01*
X134470250Y-132207000D01*
X133446000Y-132207000D01*
X133446000Y-132227000D01*
X133192000Y-132227000D01*
X133192000Y-132207000D01*
X132167750Y-132207000D01*
X132009000Y-132365750D01*
X132007211Y-133422320D01*
X131390789Y-133422320D01*
X131389000Y-132365750D01*
X131230250Y-132207000D01*
X130206000Y-132207000D01*
X130206000Y-132227000D01*
X129952000Y-132227000D01*
X129952000Y-132207000D01*
X128927750Y-132207000D01*
X128769000Y-132365750D01*
X128767211Y-133422320D01*
X125740789Y-133422320D01*
X125739000Y-132365750D01*
X125580250Y-132207000D01*
X124556000Y-132207000D01*
X124556000Y-132227000D01*
X124302000Y-132227000D01*
X124302000Y-132207000D01*
X123277750Y-132207000D01*
X123119000Y-132365750D01*
X123117211Y-133422320D01*
X122500789Y-133422320D01*
X122499000Y-132365750D01*
X122340250Y-132207000D01*
X121316000Y-132207000D01*
X121316000Y-132227000D01*
X121062000Y-132227000D01*
X121062000Y-132207000D01*
X120037750Y-132207000D01*
X119879000Y-132365750D01*
X119877211Y-133422320D01*
X116850789Y-133422320D01*
X116849000Y-132365750D01*
X116690250Y-132207000D01*
X115666000Y-132207000D01*
X115666000Y-132227000D01*
X115412000Y-132227000D01*
X115412000Y-132207000D01*
X114387750Y-132207000D01*
X114229000Y-132365750D01*
X114227211Y-133422320D01*
X113841600Y-133422320D01*
X113841600Y-129980000D01*
X114225928Y-129980000D01*
X114229000Y-131794250D01*
X114387750Y-131953000D01*
X115412000Y-131953000D01*
X115412000Y-129503750D01*
X115666000Y-129503750D01*
X115666000Y-131953000D01*
X116690250Y-131953000D01*
X116849000Y-131794250D01*
X116852072Y-129980000D01*
X119875928Y-129980000D01*
X119879000Y-131794250D01*
X120037750Y-131953000D01*
X121062000Y-131953000D01*
X121062000Y-129503750D01*
X121316000Y-129503750D01*
X121316000Y-131953000D01*
X122340250Y-131953000D01*
X122499000Y-131794250D01*
X122502072Y-129980000D01*
X123115928Y-129980000D01*
X123119000Y-131794250D01*
X123277750Y-131953000D01*
X124302000Y-131953000D01*
X124302000Y-129503750D01*
X124556000Y-129503750D01*
X124556000Y-131953000D01*
X125580250Y-131953000D01*
X125739000Y-131794250D01*
X125742072Y-129980000D01*
X128765928Y-129980000D01*
X128769000Y-131794250D01*
X128927750Y-131953000D01*
X129952000Y-131953000D01*
X129952000Y-129503750D01*
X130206000Y-129503750D01*
X130206000Y-131953000D01*
X131230250Y-131953000D01*
X131389000Y-131794250D01*
X131392072Y-129980000D01*
X132005928Y-129980000D01*
X132009000Y-131794250D01*
X132167750Y-131953000D01*
X133192000Y-131953000D01*
X133192000Y-129503750D01*
X133446000Y-129503750D01*
X133446000Y-131953000D01*
X134470250Y-131953000D01*
X134629000Y-131794250D01*
X134632072Y-129980000D01*
X137655928Y-129980000D01*
X137659000Y-131794250D01*
X137817750Y-131953000D01*
X138842000Y-131953000D01*
X138842000Y-129503750D01*
X139096000Y-129503750D01*
X139096000Y-131953000D01*
X140120250Y-131953000D01*
X140279000Y-131794250D01*
X140282072Y-129980000D01*
X140895928Y-129980000D01*
X140899000Y-131794250D01*
X141057750Y-131953000D01*
X142082000Y-131953000D01*
X142082000Y-129503750D01*
X142336000Y-129503750D01*
X142336000Y-131953000D01*
X143360250Y-131953000D01*
X143519000Y-131794250D01*
X143522072Y-129980000D01*
X146545928Y-129980000D01*
X146549000Y-131794250D01*
X146707750Y-131953000D01*
X147732000Y-131953000D01*
X147732000Y-129503750D01*
X147986000Y-129503750D01*
X147986000Y-131953000D01*
X149010250Y-131953000D01*
X149169000Y-131794250D01*
X149172072Y-129980000D01*
X149785928Y-129980000D01*
X149789000Y-131794250D01*
X149947750Y-131953000D01*
X150972000Y-131953000D01*
X150972000Y-129503750D01*
X151226000Y-129503750D01*
X151226000Y-131953000D01*
X152250250Y-131953000D01*
X152409000Y-131794250D01*
X152412072Y-129980000D01*
X155435928Y-129980000D01*
X155439000Y-131794250D01*
X155597750Y-131953000D01*
X156622000Y-131953000D01*
X156622000Y-129503750D01*
X156876000Y-129503750D01*
X156876000Y-131953000D01*
X157900250Y-131953000D01*
X158059000Y-131794250D01*
X158062072Y-129980000D01*
X158049812Y-129855518D01*
X158013502Y-129735820D01*
X157954537Y-129625506D01*
X157875185Y-129528815D01*
X157778494Y-129449463D01*
X157668180Y-129390498D01*
X157548482Y-129354188D01*
X157424000Y-129341928D01*
X157034750Y-129345000D01*
X156876000Y-129503750D01*
X156622000Y-129503750D01*
X156463250Y-129345000D01*
X156074000Y-129341928D01*
X155949518Y-129354188D01*
X155829820Y-129390498D01*
X155719506Y-129449463D01*
X155622815Y-129528815D01*
X155543463Y-129625506D01*
X155484498Y-129735820D01*
X155448188Y-129855518D01*
X155435928Y-129980000D01*
X152412072Y-129980000D01*
X152399812Y-129855518D01*
X152363502Y-129735820D01*
X152304537Y-129625506D01*
X152225185Y-129528815D01*
X152128494Y-129449463D01*
X152018180Y-129390498D01*
X151898482Y-129354188D01*
X151774000Y-129341928D01*
X151384750Y-129345000D01*
X151226000Y-129503750D01*
X150972000Y-129503750D01*
X150813250Y-129345000D01*
X150424000Y-129341928D01*
X150299518Y-129354188D01*
X150179820Y-129390498D01*
X150069506Y-129449463D01*
X149972815Y-129528815D01*
X149893463Y-129625506D01*
X149834498Y-129735820D01*
X149798188Y-129855518D01*
X149785928Y-129980000D01*
X149172072Y-129980000D01*
X149159812Y-129855518D01*
X149123502Y-129735820D01*
X149064537Y-129625506D01*
X148985185Y-129528815D01*
X148888494Y-129449463D01*
X148778180Y-129390498D01*
X148658482Y-129354188D01*
X148534000Y-129341928D01*
X148144750Y-129345000D01*
X147986000Y-129503750D01*
X147732000Y-129503750D01*
X147573250Y-129345000D01*
X147184000Y-129341928D01*
X147059518Y-129354188D01*
X146939820Y-129390498D01*
X146829506Y-129449463D01*
X146732815Y-129528815D01*
X146653463Y-129625506D01*
X146594498Y-129735820D01*
X146558188Y-129855518D01*
X146545928Y-129980000D01*
X143522072Y-129980000D01*
X143509812Y-129855518D01*
X143473502Y-129735820D01*
X143414537Y-129625506D01*
X143335185Y-129528815D01*
X143238494Y-129449463D01*
X143128180Y-129390498D01*
X143008482Y-129354188D01*
X142884000Y-129341928D01*
X142494750Y-129345000D01*
X142336000Y-129503750D01*
X142082000Y-129503750D01*
X141923250Y-129345000D01*
X141534000Y-129341928D01*
X141409518Y-129354188D01*
X141289820Y-129390498D01*
X141179506Y-129449463D01*
X141082815Y-129528815D01*
X141003463Y-129625506D01*
X140944498Y-129735820D01*
X140908188Y-129855518D01*
X140895928Y-129980000D01*
X140282072Y-129980000D01*
X140269812Y-129855518D01*
X140233502Y-129735820D01*
X140174537Y-129625506D01*
X140095185Y-129528815D01*
X139998494Y-129449463D01*
X139888180Y-129390498D01*
X139768482Y-129354188D01*
X139644000Y-129341928D01*
X139254750Y-129345000D01*
X139096000Y-129503750D01*
X138842000Y-129503750D01*
X138683250Y-129345000D01*
X138294000Y-129341928D01*
X138169518Y-129354188D01*
X138049820Y-129390498D01*
X137939506Y-129449463D01*
X137842815Y-129528815D01*
X137763463Y-129625506D01*
X137704498Y-129735820D01*
X137668188Y-129855518D01*
X137655928Y-129980000D01*
X134632072Y-129980000D01*
X134619812Y-129855518D01*
X134583502Y-129735820D01*
X134524537Y-129625506D01*
X134445185Y-129528815D01*
X134348494Y-129449463D01*
X134238180Y-129390498D01*
X134118482Y-129354188D01*
X133994000Y-129341928D01*
X133604750Y-129345000D01*
X133446000Y-129503750D01*
X133192000Y-129503750D01*
X133033250Y-129345000D01*
X132644000Y-129341928D01*
X132519518Y-129354188D01*
X132399820Y-129390498D01*
X132289506Y-129449463D01*
X132192815Y-129528815D01*
X132113463Y-129625506D01*
X132054498Y-129735820D01*
X132018188Y-129855518D01*
X132005928Y-129980000D01*
X131392072Y-129980000D01*
X131379812Y-129855518D01*
X131343502Y-129735820D01*
X131284537Y-129625506D01*
X131205185Y-129528815D01*
X131108494Y-129449463D01*
X130998180Y-129390498D01*
X130878482Y-129354188D01*
X130754000Y-129341928D01*
X130364750Y-129345000D01*
X130206000Y-129503750D01*
X129952000Y-129503750D01*
X129793250Y-129345000D01*
X129404000Y-129341928D01*
X129279518Y-129354188D01*
X129159820Y-129390498D01*
X129049506Y-129449463D01*
X128952815Y-129528815D01*
X128873463Y-129625506D01*
X128814498Y-129735820D01*
X128778188Y-129855518D01*
X128765928Y-129980000D01*
X125742072Y-129980000D01*
X125729812Y-129855518D01*
X125693502Y-129735820D01*
X125634537Y-129625506D01*
X125555185Y-129528815D01*
X125458494Y-129449463D01*
X125348180Y-129390498D01*
X125228482Y-129354188D01*
X125104000Y-129341928D01*
X124714750Y-129345000D01*
X124556000Y-129503750D01*
X124302000Y-129503750D01*
X124143250Y-129345000D01*
X123754000Y-129341928D01*
X123629518Y-129354188D01*
X123509820Y-129390498D01*
X123399506Y-129449463D01*
X123302815Y-129528815D01*
X123223463Y-129625506D01*
X123164498Y-129735820D01*
X123128188Y-129855518D01*
X123115928Y-129980000D01*
X122502072Y-129980000D01*
X122489812Y-129855518D01*
X122453502Y-129735820D01*
X122394537Y-129625506D01*
X122315185Y-129528815D01*
X122218494Y-129449463D01*
X122108180Y-129390498D01*
X121988482Y-129354188D01*
X121864000Y-129341928D01*
X121474750Y-129345000D01*
X121316000Y-129503750D01*
X121062000Y-129503750D01*
X120903250Y-129345000D01*
X120514000Y-129341928D01*
X120389518Y-129354188D01*
X120269820Y-129390498D01*
X120159506Y-129449463D01*
X120062815Y-129528815D01*
X119983463Y-129625506D01*
X119924498Y-129735820D01*
X119888188Y-129855518D01*
X119875928Y-129980000D01*
X116852072Y-129980000D01*
X116839812Y-129855518D01*
X116803502Y-129735820D01*
X116744537Y-129625506D01*
X116665185Y-129528815D01*
X116568494Y-129449463D01*
X116458180Y-129390498D01*
X116338482Y-129354188D01*
X116214000Y-129341928D01*
X115824750Y-129345000D01*
X115666000Y-129503750D01*
X115412000Y-129503750D01*
X115253250Y-129345000D01*
X114864000Y-129341928D01*
X114739518Y-129354188D01*
X114619820Y-129390498D01*
X114509506Y-129449463D01*
X114412815Y-129528815D01*
X114333463Y-129625506D01*
X114274498Y-129735820D01*
X114238188Y-129855518D01*
X114225928Y-129980000D01*
X113841600Y-129980000D01*
X113841600Y-123737323D01*
X115333000Y-123737323D01*
X115333000Y-124262677D01*
X115435492Y-124777935D01*
X115636536Y-125263298D01*
X115928406Y-125700113D01*
X116299887Y-126071594D01*
X116736702Y-126363464D01*
X117222065Y-126564508D01*
X117737323Y-126667000D01*
X118262677Y-126667000D01*
X118777935Y-126564508D01*
X119263298Y-126363464D01*
X119700113Y-126071594D01*
X120071594Y-125700113D01*
X120363464Y-125263298D01*
X120564508Y-124777935D01*
X120667000Y-124262677D01*
X120667000Y-123737323D01*
X151833000Y-123737323D01*
X151833000Y-124262677D01*
X151935492Y-124777935D01*
X152136536Y-125263298D01*
X152428406Y-125700113D01*
X152799887Y-126071594D01*
X153236702Y-126363464D01*
X153722065Y-126564508D01*
X154237323Y-126667000D01*
X154762677Y-126667000D01*
X155277935Y-126564508D01*
X155763298Y-126363464D01*
X156200113Y-126071594D01*
X156571594Y-125700113D01*
X156863464Y-125263298D01*
X157064508Y-124777935D01*
X157167000Y-124262677D01*
X157167000Y-123737323D01*
X157064508Y-123222065D01*
X156863464Y-122736702D01*
X156571594Y-122299887D01*
X156200113Y-121928406D01*
X155763298Y-121636536D01*
X155277935Y-121435492D01*
X154762677Y-121333000D01*
X154237323Y-121333000D01*
X153722065Y-121435492D01*
X153236702Y-121636536D01*
X152799887Y-121928406D01*
X152428406Y-122299887D01*
X152136536Y-122736702D01*
X151935492Y-123222065D01*
X151833000Y-123737323D01*
X120667000Y-123737323D01*
X120564508Y-123222065D01*
X120363464Y-122736702D01*
X120071594Y-122299887D01*
X119700113Y-121928406D01*
X119263298Y-121636536D01*
X118777935Y-121435492D01*
X118262677Y-121333000D01*
X117737323Y-121333000D01*
X117222065Y-121435492D01*
X116736702Y-121636536D01*
X116299887Y-121928406D01*
X115928406Y-122299887D01*
X115636536Y-122736702D01*
X115435492Y-123222065D01*
X115333000Y-123737323D01*
X113841600Y-123737323D01*
X113841600Y-119717760D01*
X136165000Y-119717760D01*
X136165000Y-119882240D01*
X136197089Y-120043560D01*
X136260033Y-120195521D01*
X136351413Y-120332281D01*
X136467719Y-120448587D01*
X136604479Y-120539967D01*
X136756440Y-120602911D01*
X136917760Y-120635000D01*
X137082240Y-120635000D01*
X137243560Y-120602911D01*
X137395521Y-120539967D01*
X137402955Y-120535000D01*
X138997045Y-120535000D01*
X139004479Y-120539967D01*
X139156440Y-120602911D01*
X139317760Y-120635000D01*
X139482240Y-120635000D01*
X139643560Y-120602911D01*
X139795521Y-120539967D01*
X139932281Y-120448587D01*
X140048587Y-120332281D01*
X140139967Y-120195521D01*
X140202911Y-120043560D01*
X140235000Y-119882240D01*
X140235000Y-119717760D01*
X140202911Y-119556440D01*
X140139967Y-119404479D01*
X140048587Y-119267719D01*
X139932281Y-119151413D01*
X139795521Y-119060033D01*
X139643560Y-118997089D01*
X139482240Y-118965000D01*
X139317760Y-118965000D01*
X139156440Y-118997089D01*
X139004479Y-119060033D01*
X138997045Y-119065000D01*
X137402955Y-119065000D01*
X137395521Y-119060033D01*
X137243560Y-118997089D01*
X137082240Y-118965000D01*
X136917760Y-118965000D01*
X136756440Y-118997089D01*
X136604479Y-119060033D01*
X136467719Y-119151413D01*
X136351413Y-119267719D01*
X136260033Y-119404479D01*
X136197089Y-119556440D01*
X136165000Y-119717760D01*
X113841600Y-119717760D01*
X113841600Y-105593760D01*
X126607220Y-105593760D01*
X126607220Y-105758240D01*
X126639309Y-105919560D01*
X126702253Y-106071521D01*
X126793633Y-106208281D01*
X126909939Y-106324587D01*
X127046699Y-106415967D01*
X127198660Y-106478911D01*
X127207429Y-106480655D01*
X129805966Y-109079193D01*
X129828982Y-109107238D01*
X129940900Y-109199087D01*
X130068587Y-109267337D01*
X130207135Y-109309365D01*
X130315115Y-109320000D01*
X130315124Y-109320000D01*
X130351219Y-109323555D01*
X130387314Y-109320000D01*
X130889645Y-109320000D01*
X130897079Y-109324967D01*
X131049040Y-109387911D01*
X131203452Y-109418626D01*
X131217663Y-109465474D01*
X131285913Y-109593161D01*
X131377762Y-109705079D01*
X131405808Y-109728096D01*
X133564310Y-111886599D01*
X133587326Y-111914644D01*
X133699244Y-112006493D01*
X133826931Y-112074743D01*
X133965479Y-112116771D01*
X134073459Y-112127406D01*
X134073468Y-112127406D01*
X134109563Y-112130961D01*
X134145658Y-112127406D01*
X134967051Y-112127406D01*
X134974485Y-112132373D01*
X135126446Y-112195317D01*
X135287766Y-112227406D01*
X135452246Y-112227406D01*
X135613566Y-112195317D01*
X135765527Y-112132373D01*
X135902287Y-112040993D01*
X136018593Y-111924687D01*
X136109973Y-111787927D01*
X136172917Y-111635966D01*
X136205006Y-111474646D01*
X136205006Y-111310166D01*
X136172917Y-111148846D01*
X136109973Y-110996885D01*
X136039765Y-110891811D01*
X137447545Y-112299592D01*
X137449289Y-112308360D01*
X137512233Y-112460321D01*
X137603613Y-112597081D01*
X137719919Y-112713387D01*
X137856679Y-112804767D01*
X138008640Y-112867711D01*
X138169960Y-112899800D01*
X138334440Y-112899800D01*
X138495760Y-112867711D01*
X138647721Y-112804767D01*
X138784481Y-112713387D01*
X138900787Y-112597081D01*
X138992167Y-112460321D01*
X139055111Y-112308360D01*
X139087200Y-112147040D01*
X139087200Y-111982560D01*
X139055111Y-111821240D01*
X138992167Y-111669279D01*
X138900787Y-111532519D01*
X138784481Y-111416213D01*
X138647721Y-111324833D01*
X138495760Y-111261889D01*
X138486992Y-111260145D01*
X137103846Y-109877000D01*
X137191240Y-109877000D01*
X137352560Y-109844911D01*
X137504521Y-109781967D01*
X137511955Y-109777000D01*
X137809895Y-109777000D01*
X137846000Y-109780556D01*
X137882105Y-109777000D01*
X137990085Y-109766365D01*
X138128633Y-109724337D01*
X138256320Y-109656087D01*
X138368238Y-109564238D01*
X138391258Y-109536188D01*
X140366592Y-107560855D01*
X140375360Y-107559111D01*
X140527321Y-107496167D01*
X140664081Y-107404787D01*
X140780387Y-107288481D01*
X140871767Y-107151721D01*
X140934711Y-106999760D01*
X140966800Y-106838440D01*
X140966800Y-106673960D01*
X140934711Y-106512640D01*
X140871767Y-106360679D01*
X140780387Y-106223919D01*
X140715458Y-106158990D01*
X143257601Y-103616848D01*
X143257600Y-110163245D01*
X143252633Y-110170679D01*
X143189689Y-110322640D01*
X143157600Y-110483960D01*
X143157600Y-110648440D01*
X143189689Y-110809760D01*
X143252633Y-110961721D01*
X143344013Y-111098481D01*
X143460319Y-111214787D01*
X143597079Y-111306167D01*
X143749040Y-111369111D01*
X143910360Y-111401200D01*
X144074840Y-111401200D01*
X144236160Y-111369111D01*
X144388121Y-111306167D01*
X144524881Y-111214787D01*
X144641187Y-111098481D01*
X144732567Y-110961721D01*
X144795511Y-110809760D01*
X144827600Y-110648440D01*
X144827600Y-110483960D01*
X144795511Y-110322640D01*
X144732567Y-110170679D01*
X144727600Y-110163245D01*
X144727600Y-103199307D01*
X144731156Y-103163202D01*
X144716965Y-103019117D01*
X144674937Y-102880568D01*
X144606687Y-102752882D01*
X144554260Y-102689000D01*
X144514838Y-102640964D01*
X144486793Y-102617948D01*
X144085698Y-102216854D01*
X144135111Y-102097560D01*
X144136855Y-102088791D01*
X148472292Y-97753355D01*
X148481060Y-97751611D01*
X148633021Y-97688667D01*
X148769781Y-97597287D01*
X148886087Y-97480981D01*
X148977467Y-97344221D01*
X149040411Y-97192260D01*
X149072500Y-97030940D01*
X149072500Y-96866460D01*
X149040411Y-96705140D01*
X148977467Y-96553179D01*
X148886087Y-96416419D01*
X148769781Y-96300113D01*
X148633021Y-96208733D01*
X148481060Y-96145789D01*
X148319740Y-96113700D01*
X148155260Y-96113700D01*
X147993940Y-96145789D01*
X147841979Y-96208733D01*
X147705219Y-96300113D01*
X147588913Y-96416419D01*
X147497533Y-96553179D01*
X147434589Y-96705140D01*
X147432845Y-96713908D01*
X143097409Y-101049345D01*
X143088640Y-101051089D01*
X142936679Y-101114033D01*
X142799919Y-101205413D01*
X142683613Y-101321719D01*
X142592233Y-101458479D01*
X142577620Y-101493759D01*
X138966087Y-101493759D01*
X141359396Y-99100451D01*
X141387436Y-99077439D01*
X141410449Y-99049398D01*
X141410452Y-99049395D01*
X141479285Y-98965522D01*
X141479286Y-98965521D01*
X141547536Y-98837834D01*
X141589564Y-98699286D01*
X141600199Y-98591306D01*
X141600199Y-98591297D01*
X141603754Y-98555202D01*
X141600199Y-98519107D01*
X141600199Y-80068304D01*
X141603755Y-80032199D01*
X141589564Y-79888114D01*
X141583248Y-79867292D01*
X141547536Y-79749566D01*
X141479286Y-79621879D01*
X141387437Y-79509961D01*
X141359392Y-79486945D01*
X140885655Y-79013209D01*
X140883911Y-79004440D01*
X140820967Y-78852479D01*
X140729587Y-78715719D01*
X140613281Y-78599413D01*
X140476521Y-78508033D01*
X140324560Y-78445089D01*
X140163240Y-78413000D01*
X139998760Y-78413000D01*
X139837440Y-78445089D01*
X139685479Y-78508033D01*
X139636320Y-78540880D01*
X139622339Y-78538099D01*
X139457859Y-78538099D01*
X139296539Y-78570188D01*
X139144578Y-78633132D01*
X139097659Y-78664482D01*
X139086527Y-78662268D01*
X138922047Y-78662268D01*
X138760727Y-78694357D01*
X138608766Y-78757301D01*
X138472006Y-78848681D01*
X138355700Y-78964987D01*
X138264320Y-79101747D01*
X138201376Y-79253708D01*
X138169287Y-79415028D01*
X138169287Y-79579508D01*
X138201376Y-79740828D01*
X138264320Y-79892789D01*
X138355700Y-80029549D01*
X138472006Y-80145855D01*
X138567246Y-80209493D01*
X139041045Y-80683291D01*
X139042789Y-80692060D01*
X139105733Y-80844021D01*
X139197113Y-80980781D01*
X139313419Y-81097087D01*
X139450179Y-81188467D01*
X139581800Y-81242986D01*
X139581800Y-83437621D01*
X139486360Y-83398089D01*
X139325040Y-83366000D01*
X139160560Y-83366000D01*
X138999240Y-83398089D01*
X138847279Y-83461033D01*
X138839845Y-83466000D01*
X135305447Y-83466000D01*
X131976800Y-80137354D01*
X131976800Y-78620295D01*
X131983760Y-78618911D01*
X132135721Y-78555967D01*
X132272481Y-78464587D01*
X132388787Y-78348281D01*
X132480167Y-78211521D01*
X132543111Y-78059560D01*
X132575200Y-77898240D01*
X132575200Y-77733760D01*
X132543111Y-77572440D01*
X132480167Y-77420479D01*
X132388787Y-77283719D01*
X132272481Y-77167413D01*
X132135721Y-77076033D01*
X132045801Y-77038787D01*
X132045801Y-75642813D01*
X132086960Y-75651000D01*
X132251440Y-75651000D01*
X132412760Y-75618911D01*
X132564721Y-75555967D01*
X132701481Y-75464587D01*
X132817787Y-75348281D01*
X132839356Y-75316000D01*
X133640928Y-75316000D01*
X133644000Y-76280250D01*
X133676856Y-76313106D01*
X133643887Y-76479998D01*
X133644116Y-76654328D01*
X133677039Y-76818711D01*
X133644000Y-76851750D01*
X133640928Y-77816000D01*
X133653188Y-77940482D01*
X133689498Y-78060180D01*
X133748463Y-78170494D01*
X133827815Y-78267185D01*
X133924506Y-78346537D01*
X134034820Y-78405502D01*
X134154518Y-78441812D01*
X134279000Y-78454072D01*
X135243250Y-78451000D01*
X135276106Y-78418144D01*
X135442998Y-78451113D01*
X135617328Y-78450884D01*
X135781711Y-78417961D01*
X135814750Y-78451000D01*
X136779000Y-78454072D01*
X136903482Y-78441812D01*
X137023180Y-78405502D01*
X137133494Y-78346537D01*
X137230185Y-78267185D01*
X137309537Y-78170494D01*
X137368502Y-78060180D01*
X137404812Y-77940482D01*
X137417072Y-77816000D01*
X137414000Y-76851750D01*
X137381144Y-76818894D01*
X137414113Y-76652002D01*
X137413884Y-76477672D01*
X137380961Y-76313289D01*
X137414000Y-76280250D01*
X137417072Y-75316000D01*
X137404812Y-75191518D01*
X137368502Y-75071820D01*
X137309537Y-74961506D01*
X137230185Y-74864815D01*
X137133494Y-74785463D01*
X137023180Y-74726498D01*
X136903482Y-74690188D01*
X136779000Y-74677928D01*
X135814750Y-74681000D01*
X135781894Y-74713856D01*
X135615002Y-74680887D01*
X135440672Y-74681116D01*
X135276289Y-74714039D01*
X135243250Y-74681000D01*
X134279000Y-74677928D01*
X134154518Y-74690188D01*
X134034820Y-74726498D01*
X133924506Y-74785463D01*
X133827815Y-74864815D01*
X133748463Y-74961506D01*
X133689498Y-75071820D01*
X133653188Y-75191518D01*
X133640928Y-75316000D01*
X132839356Y-75316000D01*
X132909167Y-75211521D01*
X132972111Y-75059560D01*
X133004200Y-74898240D01*
X133004200Y-74733760D01*
X132972111Y-74572440D01*
X132909167Y-74420479D01*
X132817787Y-74283719D01*
X132701481Y-74167413D01*
X132564721Y-74076033D01*
X132412760Y-74013089D01*
X132251440Y-73981000D01*
X132086960Y-73981000D01*
X131925640Y-74013089D01*
X131773679Y-74076033D01*
X131768795Y-74079296D01*
X131643515Y-74091635D01*
X131504966Y-74133663D01*
X131441825Y-74167413D01*
X131377280Y-74201913D01*
X131265362Y-74293762D01*
X131242341Y-74321813D01*
X130935763Y-74628391D01*
X130849921Y-74571033D01*
X130697960Y-74508089D01*
X130536640Y-74476000D01*
X130372160Y-74476000D01*
X130210840Y-74508089D01*
X130058879Y-74571033D01*
X129922119Y-74662413D01*
X129805813Y-74778719D01*
X129714433Y-74915479D01*
X129651489Y-75067440D01*
X129649745Y-75076208D01*
X128918808Y-75807146D01*
X128890763Y-75830162D01*
X128798914Y-75942080D01*
X128774254Y-75988216D01*
X128730664Y-76069767D01*
X128688635Y-76208315D01*
X128674444Y-76352400D01*
X128678001Y-76388515D01*
X128678001Y-77508950D01*
X128534879Y-77568233D01*
X128398119Y-77659613D01*
X128281813Y-77775919D01*
X128190433Y-77912679D01*
X128127489Y-78064640D01*
X128125745Y-78073409D01*
X127857409Y-78341745D01*
X127848640Y-78343489D01*
X127696679Y-78406433D01*
X127559919Y-78497813D01*
X127443613Y-78614119D01*
X127352233Y-78750879D01*
X127289289Y-78902840D01*
X127257200Y-79064160D01*
X127257200Y-79228640D01*
X127289289Y-79389960D01*
X127352233Y-79541921D01*
X127443613Y-79678681D01*
X127559919Y-79794987D01*
X127696679Y-79886367D01*
X127848640Y-79949311D01*
X128009960Y-79981400D01*
X128174440Y-79981400D01*
X128335760Y-79949311D01*
X128487721Y-79886367D01*
X128624481Y-79794987D01*
X128678001Y-79741467D01*
X128678000Y-104230895D01*
X128678000Y-104448695D01*
X128674444Y-104484800D01*
X128684443Y-104586320D01*
X128688635Y-104628884D01*
X128730663Y-104767432D01*
X128798913Y-104895119D01*
X128890762Y-105007037D01*
X128918808Y-105030054D01*
X129299545Y-105410791D01*
X129301289Y-105419560D01*
X129364233Y-105571521D01*
X129455613Y-105708281D01*
X129571919Y-105824587D01*
X129708679Y-105915967D01*
X129860640Y-105978911D01*
X130021960Y-106011000D01*
X130186440Y-106011000D01*
X130347760Y-105978911D01*
X130499721Y-105915967D01*
X130636481Y-105824587D01*
X130752787Y-105708281D01*
X130844167Y-105571521D01*
X130876526Y-105493399D01*
X130949360Y-105478911D01*
X131101321Y-105415967D01*
X131238081Y-105324587D01*
X131354387Y-105208281D01*
X131445767Y-105071521D01*
X131501848Y-104936128D01*
X131550521Y-104915967D01*
X131687281Y-104824587D01*
X131803587Y-104708281D01*
X131894967Y-104571521D01*
X131957911Y-104419560D01*
X131967900Y-104369342D01*
X132034881Y-104324587D01*
X132151187Y-104208281D01*
X132242567Y-104071521D01*
X132305511Y-103919560D01*
X132307255Y-103910791D01*
X132421950Y-103796096D01*
X132424000Y-105140250D01*
X132456856Y-105173106D01*
X132423887Y-105339998D01*
X132424116Y-105514328D01*
X132457039Y-105678711D01*
X132424000Y-105711750D01*
X132421305Y-107479069D01*
X132295521Y-107395023D01*
X132143560Y-107332079D01*
X131982240Y-107299990D01*
X131817760Y-107299990D01*
X131656440Y-107332079D01*
X131504479Y-107395023D01*
X131367719Y-107486403D01*
X131251413Y-107602709D01*
X131160033Y-107739469D01*
X131150760Y-107761855D01*
X131049040Y-107782089D01*
X130897079Y-107845033D01*
X130889645Y-107850000D01*
X130655667Y-107850000D01*
X128246875Y-105441209D01*
X128245131Y-105432440D01*
X128182187Y-105280479D01*
X128090807Y-105143719D01*
X127974501Y-105027413D01*
X127837741Y-104936033D01*
X127685780Y-104873089D01*
X127524460Y-104841000D01*
X127359980Y-104841000D01*
X127198660Y-104873089D01*
X127046699Y-104936033D01*
X126909939Y-105027413D01*
X126793633Y-105143719D01*
X126702253Y-105280479D01*
X126639309Y-105432440D01*
X126607220Y-105593760D01*
X113841600Y-105593760D01*
X113841600Y-88614514D01*
X117534000Y-88614514D01*
X117534000Y-88877486D01*
X117585304Y-89135405D01*
X117685939Y-89378359D01*
X117832038Y-89597013D01*
X118017987Y-89782962D01*
X118236641Y-89929061D01*
X118479595Y-90029696D01*
X118551423Y-90043984D01*
X118509595Y-90052304D01*
X118266641Y-90152939D01*
X118047987Y-90299038D01*
X117862038Y-90484987D01*
X117715939Y-90703641D01*
X117615304Y-90946595D01*
X117564000Y-91204514D01*
X117564000Y-91467486D01*
X117615304Y-91725405D01*
X117715939Y-91968359D01*
X117862038Y-92187013D01*
X118047987Y-92372962D01*
X118266641Y-92519061D01*
X118509595Y-92619696D01*
X118706969Y-92658957D01*
X118589595Y-92682304D01*
X118346641Y-92782939D01*
X118127987Y-92929038D01*
X117942038Y-93114987D01*
X117795939Y-93333641D01*
X117695304Y-93576595D01*
X117644000Y-93834514D01*
X117644000Y-94097486D01*
X117695304Y-94355405D01*
X117795939Y-94598359D01*
X117942038Y-94817013D01*
X118127987Y-95002962D01*
X118346641Y-95149061D01*
X118589595Y-95249696D01*
X118847514Y-95301000D01*
X119110486Y-95301000D01*
X119368405Y-95249696D01*
X119611359Y-95149061D01*
X119830013Y-95002962D01*
X120015962Y-94817013D01*
X120162061Y-94598359D01*
X120262696Y-94355405D01*
X120314000Y-94097486D01*
X120314000Y-93834514D01*
X120262696Y-93576595D01*
X120162061Y-93333641D01*
X120015962Y-93114987D01*
X119830013Y-92929038D01*
X119611359Y-92782939D01*
X119368405Y-92682304D01*
X119171031Y-92643043D01*
X119288405Y-92619696D01*
X119531359Y-92519061D01*
X119750013Y-92372962D01*
X119935962Y-92187013D01*
X120082061Y-91968359D01*
X120182696Y-91725405D01*
X120234000Y-91467486D01*
X120234000Y-91204514D01*
X120182696Y-90946595D01*
X120082061Y-90703641D01*
X119935962Y-90484987D01*
X119750013Y-90299038D01*
X119531359Y-90152939D01*
X119288405Y-90052304D01*
X119216577Y-90038016D01*
X119258405Y-90029696D01*
X119501359Y-89929061D01*
X119720013Y-89782962D01*
X119905962Y-89597013D01*
X120052061Y-89378359D01*
X120152696Y-89135405D01*
X120204000Y-88877486D01*
X120204000Y-88614514D01*
X120152696Y-88356595D01*
X120052061Y-88113641D01*
X119905962Y-87894987D01*
X119720013Y-87709038D01*
X119501359Y-87562939D01*
X119258405Y-87462304D01*
X119231577Y-87456967D01*
X119318405Y-87439696D01*
X119561359Y-87339061D01*
X119780013Y-87192962D01*
X119965962Y-87007013D01*
X120112061Y-86788359D01*
X120212696Y-86545405D01*
X120264000Y-86287486D01*
X120264000Y-86024514D01*
X120212696Y-85766595D01*
X120112061Y-85523641D01*
X119965962Y-85304987D01*
X119780013Y-85119038D01*
X119561359Y-84972939D01*
X119318405Y-84872304D01*
X119246440Y-84857989D01*
X119338405Y-84839696D01*
X119581359Y-84739061D01*
X119800013Y-84592962D01*
X119985962Y-84407013D01*
X120132061Y-84188359D01*
X120232696Y-83945405D01*
X120284000Y-83687486D01*
X120284000Y-83424514D01*
X120232696Y-83166595D01*
X120132061Y-82923641D01*
X119985962Y-82704987D01*
X119800013Y-82519038D01*
X119581359Y-82372939D01*
X119338405Y-82272304D01*
X119080486Y-82221000D01*
X118817514Y-82221000D01*
X118559595Y-82272304D01*
X118316641Y-82372939D01*
X118097987Y-82519038D01*
X117912038Y-82704987D01*
X117765939Y-82923641D01*
X117665304Y-83166595D01*
X117614000Y-83424514D01*
X117614000Y-83687486D01*
X117665304Y-83945405D01*
X117765939Y-84188359D01*
X117912038Y-84407013D01*
X118097987Y-84592962D01*
X118316641Y-84739061D01*
X118559595Y-84839696D01*
X118631560Y-84854011D01*
X118539595Y-84872304D01*
X118296641Y-84972939D01*
X118077987Y-85119038D01*
X117892038Y-85304987D01*
X117745939Y-85523641D01*
X117645304Y-85766595D01*
X117594000Y-86024514D01*
X117594000Y-86287486D01*
X117645304Y-86545405D01*
X117745939Y-86788359D01*
X117892038Y-87007013D01*
X118077987Y-87192962D01*
X118296641Y-87339061D01*
X118539595Y-87439696D01*
X118566423Y-87445033D01*
X118479595Y-87462304D01*
X118236641Y-87562939D01*
X118017987Y-87709038D01*
X117832038Y-87894987D01*
X117685939Y-88113641D01*
X117585304Y-88356595D01*
X117534000Y-88614514D01*
X113841600Y-88614514D01*
X113841600Y-72206160D01*
X131473600Y-72206160D01*
X131473600Y-72370640D01*
X131505689Y-72531960D01*
X131568633Y-72683921D01*
X131660013Y-72820681D01*
X131776319Y-72936987D01*
X131913079Y-73028367D01*
X132065040Y-73091311D01*
X132226360Y-73123400D01*
X132390840Y-73123400D01*
X132552160Y-73091311D01*
X132701091Y-73029622D01*
X137855467Y-73029622D01*
X137862901Y-73034589D01*
X138014862Y-73097533D01*
X138023631Y-73099277D01*
X138037147Y-73112793D01*
X142883145Y-77958792D01*
X142884889Y-77967560D01*
X142947833Y-78119521D01*
X143039213Y-78256281D01*
X143155519Y-78372587D01*
X143292279Y-78463967D01*
X143444240Y-78526911D01*
X143605560Y-78559000D01*
X143770040Y-78559000D01*
X143931360Y-78526911D01*
X144083321Y-78463967D01*
X144220081Y-78372587D01*
X144336387Y-78256281D01*
X144427767Y-78119521D01*
X144490711Y-77967560D01*
X144522800Y-77806240D01*
X144522800Y-77641760D01*
X144490711Y-77480440D01*
X144427767Y-77328479D01*
X144336387Y-77191719D01*
X144220081Y-77075413D01*
X144083321Y-76984033D01*
X143931360Y-76921089D01*
X143922592Y-76919345D01*
X139076593Y-72073347D01*
X139063077Y-72059831D01*
X139061333Y-72051062D01*
X138998389Y-71899101D01*
X138907009Y-71762341D01*
X138790703Y-71646035D01*
X138653943Y-71554655D01*
X138501982Y-71491711D01*
X138340662Y-71459622D01*
X138176182Y-71459622D01*
X138014862Y-71491711D01*
X137862901Y-71554655D01*
X137855467Y-71559622D01*
X132720867Y-71559622D01*
X132704121Y-71548433D01*
X132552160Y-71485489D01*
X132390840Y-71453400D01*
X132226360Y-71453400D01*
X132065040Y-71485489D01*
X131913079Y-71548433D01*
X131776319Y-71639813D01*
X131660013Y-71756119D01*
X131568633Y-71892879D01*
X131505689Y-72044840D01*
X131473600Y-72206160D01*
X113841600Y-72206160D01*
X113841600Y-70060193D01*
X124024000Y-70060193D01*
X124024000Y-70411807D01*
X124092596Y-70756665D01*
X124227153Y-71081515D01*
X124422500Y-71373871D01*
X124671129Y-71622500D01*
X124963485Y-71817847D01*
X125288335Y-71952404D01*
X125633193Y-72021000D01*
X125984807Y-72021000D01*
X126329665Y-71952404D01*
X126654515Y-71817847D01*
X126946871Y-71622500D01*
X127195500Y-71373871D01*
X127390847Y-71081515D01*
X127525404Y-70756665D01*
X127594000Y-70411807D01*
X127594000Y-70060193D01*
X127525404Y-69715335D01*
X127390847Y-69390485D01*
X127195500Y-69098129D01*
X126946871Y-68849500D01*
X126654515Y-68654153D01*
X126399591Y-68548560D01*
X134902600Y-68548560D01*
X134902600Y-68713040D01*
X134934689Y-68874360D01*
X134997633Y-69026321D01*
X135089013Y-69163081D01*
X135205319Y-69279387D01*
X135342079Y-69370767D01*
X135494040Y-69433711D01*
X135655360Y-69465800D01*
X135819840Y-69465800D01*
X135981160Y-69433711D01*
X136133121Y-69370767D01*
X136269881Y-69279387D01*
X136386187Y-69163081D01*
X136477567Y-69026321D01*
X136540511Y-68874360D01*
X136572600Y-68713040D01*
X136572600Y-68548560D01*
X136540511Y-68387240D01*
X136477567Y-68235279D01*
X136472600Y-68227845D01*
X136472600Y-64186000D01*
X141060928Y-64186000D01*
X141060928Y-65786000D01*
X141073188Y-65910482D01*
X141109498Y-66030180D01*
X141168463Y-66140494D01*
X141247815Y-66237185D01*
X141344506Y-66316537D01*
X141454820Y-66375502D01*
X141574518Y-66411812D01*
X141699000Y-66424072D01*
X143299000Y-66424072D01*
X143423482Y-66411812D01*
X143543180Y-66375502D01*
X143653494Y-66316537D01*
X143750185Y-66237185D01*
X143829537Y-66140494D01*
X143888502Y-66030180D01*
X143904117Y-65978702D01*
X144185903Y-65978702D01*
X144257486Y-66222671D01*
X144512996Y-66343571D01*
X144787184Y-66412300D01*
X145069512Y-66426217D01*
X145349130Y-66384787D01*
X145615292Y-66289603D01*
X145740514Y-66222671D01*
X145812097Y-65978702D01*
X144999000Y-65165605D01*
X144185903Y-65978702D01*
X143904117Y-65978702D01*
X143924812Y-65910482D01*
X143937072Y-65786000D01*
X143937072Y-65778785D01*
X144006298Y-65799097D01*
X144819395Y-64986000D01*
X145178605Y-64986000D01*
X145991702Y-65799097D01*
X146235671Y-65727514D01*
X146356571Y-65472004D01*
X146425300Y-65197816D01*
X146439217Y-64915488D01*
X146397787Y-64635870D01*
X146302603Y-64369708D01*
X146235671Y-64244486D01*
X145991702Y-64172903D01*
X145178605Y-64986000D01*
X144819395Y-64986000D01*
X144006298Y-64172903D01*
X143937072Y-64193215D01*
X143937072Y-64186000D01*
X143924812Y-64061518D01*
X143904118Y-63993298D01*
X144185903Y-63993298D01*
X144999000Y-64806395D01*
X145812097Y-63993298D01*
X145740514Y-63749329D01*
X145485004Y-63628429D01*
X145210816Y-63559700D01*
X144928488Y-63545783D01*
X144648870Y-63587213D01*
X144382708Y-63682397D01*
X144257486Y-63749329D01*
X144185903Y-63993298D01*
X143904118Y-63993298D01*
X143888502Y-63941820D01*
X143829537Y-63831506D01*
X143750185Y-63734815D01*
X143653494Y-63655463D01*
X143543180Y-63596498D01*
X143423482Y-63560188D01*
X143299000Y-63547928D01*
X141699000Y-63547928D01*
X141574518Y-63560188D01*
X141454820Y-63596498D01*
X141344506Y-63655463D01*
X141247815Y-63734815D01*
X141168463Y-63831506D01*
X141109498Y-63941820D01*
X141073188Y-64061518D01*
X141060928Y-64186000D01*
X136472600Y-64186000D01*
X136472600Y-60756446D01*
X137623392Y-59605655D01*
X137632160Y-59603911D01*
X137784121Y-59540967D01*
X137920881Y-59449587D01*
X138037187Y-59333281D01*
X138128567Y-59196521D01*
X138191511Y-59044560D01*
X138223600Y-58883240D01*
X138223600Y-58718760D01*
X138191511Y-58557440D01*
X138128567Y-58405479D01*
X138037187Y-58268719D01*
X137920881Y-58152413D01*
X137784121Y-58061033D01*
X137632160Y-57998089D01*
X137470840Y-57966000D01*
X137306360Y-57966000D01*
X137145040Y-57998089D01*
X136993079Y-58061033D01*
X136856319Y-58152413D01*
X136740013Y-58268719D01*
X136648633Y-58405479D01*
X136585689Y-58557440D01*
X136583945Y-58566208D01*
X135243408Y-59906746D01*
X135215363Y-59929762D01*
X135123514Y-60041680D01*
X135116133Y-60055489D01*
X135055264Y-60169367D01*
X135013235Y-60307915D01*
X134999044Y-60452000D01*
X135002601Y-60488115D01*
X135002600Y-68227845D01*
X134997633Y-68235279D01*
X134934689Y-68387240D01*
X134902600Y-68548560D01*
X126399591Y-68548560D01*
X126329665Y-68519596D01*
X125984807Y-68451000D01*
X125633193Y-68451000D01*
X125288335Y-68519596D01*
X124963485Y-68654153D01*
X124671129Y-68849500D01*
X124422500Y-69098129D01*
X124227153Y-69390485D01*
X124092596Y-69715335D01*
X124024000Y-70060193D01*
X113841600Y-70060193D01*
X113841600Y-65160193D01*
X124024000Y-65160193D01*
X124024000Y-65511807D01*
X124092596Y-65856665D01*
X124227153Y-66181515D01*
X124422500Y-66473871D01*
X124671129Y-66722500D01*
X124963485Y-66917847D01*
X125288335Y-67052404D01*
X125633193Y-67121000D01*
X125984807Y-67121000D01*
X126329665Y-67052404D01*
X126654515Y-66917847D01*
X126946871Y-66722500D01*
X127195500Y-66473871D01*
X127390847Y-66181515D01*
X127525404Y-65856665D01*
X127594000Y-65511807D01*
X127594000Y-65160193D01*
X127525404Y-64815335D01*
X127390847Y-64490485D01*
X127195500Y-64198129D01*
X126946871Y-63949500D01*
X126654515Y-63754153D01*
X126329665Y-63619596D01*
X125984807Y-63551000D01*
X125633193Y-63551000D01*
X125288335Y-63619596D01*
X124963485Y-63754153D01*
X124671129Y-63949500D01*
X124422500Y-64198129D01*
X124227153Y-64490485D01*
X124092596Y-64815335D01*
X124024000Y-65160193D01*
X113841600Y-65160193D01*
X113841600Y-58667960D01*
X132134000Y-58667960D01*
X132134000Y-58832440D01*
X132166089Y-58993760D01*
X132229033Y-59145721D01*
X132234001Y-59153156D01*
X132234000Y-60455445D01*
X132229033Y-60462879D01*
X132166089Y-60614840D01*
X132134000Y-60776160D01*
X132134000Y-60940640D01*
X132166089Y-61101960D01*
X132229033Y-61253921D01*
X132320413Y-61390681D01*
X132436719Y-61506987D01*
X132573479Y-61598367D01*
X132725440Y-61661311D01*
X132886760Y-61693400D01*
X133051240Y-61693400D01*
X133212560Y-61661311D01*
X133364521Y-61598367D01*
X133501281Y-61506987D01*
X133617587Y-61390681D01*
X133708967Y-61253921D01*
X133771911Y-61101960D01*
X133804000Y-60940640D01*
X133804000Y-60776160D01*
X133771911Y-60614840D01*
X133708967Y-60462879D01*
X133704000Y-60455445D01*
X133704000Y-59153155D01*
X133708967Y-59145721D01*
X133771911Y-58993760D01*
X133804000Y-58832440D01*
X133804000Y-58667960D01*
X133771911Y-58506640D01*
X133708967Y-58354679D01*
X133617587Y-58217919D01*
X133501281Y-58101613D01*
X133364521Y-58010233D01*
X133212560Y-57947289D01*
X133051240Y-57915200D01*
X132886760Y-57915200D01*
X132725440Y-57947289D01*
X132573479Y-58010233D01*
X132436719Y-58101613D01*
X132320413Y-58217919D01*
X132229033Y-58354679D01*
X132166089Y-58506640D01*
X132134000Y-58667960D01*
X113841600Y-58667960D01*
X113841600Y-55598665D01*
X120315000Y-55598665D01*
X120315000Y-55881335D01*
X120370147Y-56158574D01*
X120478320Y-56419727D01*
X120635363Y-56654759D01*
X120835241Y-56854637D01*
X121070273Y-57011680D01*
X121331426Y-57119853D01*
X121608665Y-57175000D01*
X121891335Y-57175000D01*
X122168574Y-57119853D01*
X122429727Y-57011680D01*
X122664759Y-56854637D01*
X122863357Y-56656039D01*
X122864188Y-56664482D01*
X122900498Y-56784180D01*
X122959463Y-56894494D01*
X123038815Y-56991185D01*
X123135506Y-57070537D01*
X123245820Y-57129502D01*
X123365518Y-57165812D01*
X123490000Y-57178072D01*
X124004250Y-57175000D01*
X124163000Y-57016250D01*
X124163000Y-55867000D01*
X124417000Y-55867000D01*
X124417000Y-57016250D01*
X124575750Y-57175000D01*
X125090000Y-57178072D01*
X125214482Y-57165812D01*
X125334180Y-57129502D01*
X125444494Y-57070537D01*
X125541185Y-56991185D01*
X125620537Y-56894494D01*
X125679502Y-56784180D01*
X125715812Y-56664482D01*
X125728072Y-56540000D01*
X125725000Y-56025750D01*
X125566250Y-55867000D01*
X124417000Y-55867000D01*
X124163000Y-55867000D01*
X124143000Y-55867000D01*
X124143000Y-55613000D01*
X124163000Y-55613000D01*
X124163000Y-54463750D01*
X124417000Y-54463750D01*
X124417000Y-55613000D01*
X125566250Y-55613000D01*
X125725000Y-55454250D01*
X125728072Y-54940000D01*
X125715812Y-54815518D01*
X125679502Y-54695820D01*
X125620537Y-54585506D01*
X125541185Y-54488815D01*
X125444494Y-54409463D01*
X125334180Y-54350498D01*
X125214482Y-54314188D01*
X125090000Y-54301928D01*
X124575750Y-54305000D01*
X124417000Y-54463750D01*
X124163000Y-54463750D01*
X124004250Y-54305000D01*
X123490000Y-54301928D01*
X123365518Y-54314188D01*
X123245820Y-54350498D01*
X123135506Y-54409463D01*
X123038815Y-54488815D01*
X122959463Y-54585506D01*
X122900498Y-54695820D01*
X122864188Y-54815518D01*
X122863357Y-54823961D01*
X122664759Y-54625363D01*
X122429727Y-54468320D01*
X122168574Y-54360147D01*
X121891335Y-54305000D01*
X121608665Y-54305000D01*
X121331426Y-54360147D01*
X121070273Y-54468320D01*
X120835241Y-54625363D01*
X120635363Y-54825241D01*
X120478320Y-55060273D01*
X120370147Y-55321426D01*
X120315000Y-55598665D01*
X113841600Y-55598665D01*
X113841600Y-49737323D01*
X115333000Y-49737323D01*
X115333000Y-50262677D01*
X115435492Y-50777935D01*
X115636536Y-51263298D01*
X115928406Y-51700113D01*
X116299887Y-52071594D01*
X116736702Y-52363464D01*
X117222065Y-52564508D01*
X117737323Y-52667000D01*
X118262677Y-52667000D01*
X118777935Y-52564508D01*
X119263298Y-52363464D01*
X119700113Y-52071594D01*
X120071594Y-51700113D01*
X120363464Y-51263298D01*
X120564508Y-50777935D01*
X120667000Y-50262677D01*
X120667000Y-49737323D01*
X120564508Y-49222065D01*
X120363464Y-48736702D01*
X120344414Y-48708191D01*
X131215000Y-48708191D01*
X131215000Y-49391808D01*
X131234678Y-49591606D01*
X131312445Y-49847967D01*
X131438730Y-50084230D01*
X131608682Y-50291317D01*
X131815769Y-50461270D01*
X132052032Y-50587555D01*
X132308393Y-50665322D01*
X132575000Y-50691580D01*
X132841606Y-50665322D01*
X133097967Y-50587555D01*
X133334230Y-50461270D01*
X133541317Y-50291318D01*
X133711270Y-50084231D01*
X133837555Y-49847968D01*
X133915322Y-49591607D01*
X133935000Y-49391809D01*
X133935000Y-49028424D01*
X134101898Y-48995226D01*
X134290256Y-48917205D01*
X134459774Y-48803937D01*
X134603937Y-48659774D01*
X134717205Y-48490256D01*
X134795226Y-48301898D01*
X134835000Y-48101939D01*
X134835000Y-47898061D01*
X137765000Y-47898061D01*
X137765000Y-48101939D01*
X137804774Y-48301898D01*
X137882795Y-48490256D01*
X137996063Y-48659774D01*
X138140226Y-48803937D01*
X138309744Y-48917205D01*
X138498102Y-48995226D01*
X138665000Y-49028424D01*
X138665000Y-49391808D01*
X138684678Y-49591606D01*
X138762445Y-49847967D01*
X138888730Y-50084230D01*
X139058682Y-50291317D01*
X139265769Y-50461270D01*
X139502032Y-50587555D01*
X139758393Y-50665322D01*
X140025000Y-50691580D01*
X140291606Y-50665322D01*
X140547967Y-50587555D01*
X140784230Y-50461270D01*
X140991317Y-50291318D01*
X141161270Y-50084231D01*
X141287555Y-49847968D01*
X141321119Y-49737323D01*
X151833000Y-49737323D01*
X151833000Y-50262677D01*
X151935492Y-50777935D01*
X152136536Y-51263298D01*
X152428406Y-51700113D01*
X152799887Y-52071594D01*
X153236702Y-52363464D01*
X153722065Y-52564508D01*
X154237323Y-52667000D01*
X154762677Y-52667000D01*
X155277935Y-52564508D01*
X155763298Y-52363464D01*
X156200113Y-52071594D01*
X156571594Y-51700113D01*
X156863464Y-51263298D01*
X157064508Y-50777935D01*
X157167000Y-50262677D01*
X157167000Y-49737323D01*
X157064508Y-49222065D01*
X156863464Y-48736702D01*
X156571594Y-48299887D01*
X156200113Y-47928406D01*
X155763298Y-47636536D01*
X155277935Y-47435492D01*
X154762677Y-47333000D01*
X154237323Y-47333000D01*
X153722065Y-47435492D01*
X153236702Y-47636536D01*
X152799887Y-47928406D01*
X152428406Y-48299887D01*
X152136536Y-48736702D01*
X151935492Y-49222065D01*
X151833000Y-49737323D01*
X141321119Y-49737323D01*
X141365322Y-49591607D01*
X141385000Y-49391809D01*
X141385000Y-48708192D01*
X141365322Y-48508394D01*
X141287555Y-48252032D01*
X141161270Y-48015769D01*
X140991318Y-47808682D01*
X140784231Y-47638730D01*
X140547968Y-47512445D01*
X140291607Y-47434678D01*
X140025000Y-47408420D01*
X139758394Y-47434678D01*
X139682442Y-47457718D01*
X139603937Y-47340226D01*
X139459774Y-47196063D01*
X139290256Y-47082795D01*
X139101898Y-47004774D01*
X138901939Y-46965000D01*
X138698061Y-46965000D01*
X138498102Y-47004774D01*
X138309744Y-47082795D01*
X138140226Y-47196063D01*
X137996063Y-47340226D01*
X137882795Y-47509744D01*
X137804774Y-47698102D01*
X137765000Y-47898061D01*
X134835000Y-47898061D01*
X134795226Y-47698102D01*
X134717205Y-47509744D01*
X134603937Y-47340226D01*
X134459774Y-47196063D01*
X134290256Y-47082795D01*
X134101898Y-47004774D01*
X133901939Y-46965000D01*
X133698061Y-46965000D01*
X133498102Y-47004774D01*
X133309744Y-47082795D01*
X133140226Y-47196063D01*
X132996063Y-47340226D01*
X132917558Y-47457718D01*
X132841607Y-47434678D01*
X132575000Y-47408420D01*
X132308394Y-47434678D01*
X132052033Y-47512445D01*
X131815770Y-47638730D01*
X131608683Y-47808682D01*
X131438730Y-48015769D01*
X131312445Y-48252032D01*
X131234678Y-48508393D01*
X131215000Y-48708191D01*
X120344414Y-48708191D01*
X120071594Y-48299887D01*
X119700113Y-47928406D01*
X119263298Y-47636536D01*
X118777935Y-47435492D01*
X118262677Y-47333000D01*
X117737323Y-47333000D01*
X117222065Y-47435492D01*
X116736702Y-47636536D01*
X116299887Y-47928406D01*
X115928406Y-48299887D01*
X115636536Y-48736702D01*
X115435492Y-49222065D01*
X115333000Y-49737323D01*
X113841600Y-49737323D01*
X113841600Y-44184640D01*
X131467291Y-44184640D01*
X131414055Y-44249508D01*
G37*
%TD.AperFunction*%
D24*
X132814820Y-108315502D02*
X132934518Y-108351812D01*
X133059000Y-108364072D01*
X135073250Y-108361000D01*
X135106106Y-108328144D01*
X135231998Y-108353014D01*
X135231998Y-108361000D01*
X135272426Y-108361000D01*
X135272998Y-108361113D01*
X135359021Y-108361000D01*
X135486002Y-108361000D01*
X135486002Y-108353138D01*
X135611711Y-108327961D01*
X135644750Y-108361000D01*
X135984073Y-108361518D01*
X135926663Y-108468925D01*
X135891452Y-108585000D01*
X135884635Y-108607473D01*
X135883704Y-108616922D01*
X135869033Y-108638879D01*
X135806089Y-108790840D01*
X135774000Y-108952160D01*
X135774000Y-109116640D01*
X135806089Y-109277960D01*
X135845870Y-109374000D01*
X135353155Y-109374000D01*
X135345721Y-109369033D01*
X135193760Y-109306089D01*
X135032440Y-109274000D01*
X134867960Y-109274000D01*
X134706640Y-109306089D01*
X134554679Y-109369033D01*
X134417919Y-109460413D01*
X134301613Y-109576719D01*
X134210233Y-109713479D01*
X134147289Y-109865440D01*
X134115200Y-110026760D01*
X134115200Y-110191240D01*
X134147289Y-110352560D01*
X134174247Y-110417642D01*
X132635000Y-108878396D01*
X132635000Y-108537945D01*
X132639967Y-108530511D01*
X132702911Y-108378550D01*
X132725002Y-108267493D01*
X132814820Y-108315502D01*
%TA.AperFunction,Conductor*%
D25*
G36*
X132814820Y-108315502D02*
G01*
X132934518Y-108351812D01*
X133059000Y-108364072D01*
X135073250Y-108361000D01*
X135106106Y-108328144D01*
X135231998Y-108353014D01*
X135231998Y-108361000D01*
X135272426Y-108361000D01*
X135272998Y-108361113D01*
X135359021Y-108361000D01*
X135486002Y-108361000D01*
X135486002Y-108353138D01*
X135611711Y-108327961D01*
X135644750Y-108361000D01*
X135984073Y-108361518D01*
X135926663Y-108468925D01*
X135891452Y-108585000D01*
X135884635Y-108607473D01*
X135883704Y-108616922D01*
X135869033Y-108638879D01*
X135806089Y-108790840D01*
X135774000Y-108952160D01*
X135774000Y-109116640D01*
X135806089Y-109277960D01*
X135845870Y-109374000D01*
X135353155Y-109374000D01*
X135345721Y-109369033D01*
X135193760Y-109306089D01*
X135032440Y-109274000D01*
X134867960Y-109274000D01*
X134706640Y-109306089D01*
X134554679Y-109369033D01*
X134417919Y-109460413D01*
X134301613Y-109576719D01*
X134210233Y-109713479D01*
X134147289Y-109865440D01*
X134115200Y-110026760D01*
X134115200Y-110191240D01*
X134147289Y-110352560D01*
X134174247Y-110417642D01*
X132635000Y-108878396D01*
X132635000Y-108537945D01*
X132639967Y-108530511D01*
X132702911Y-108378550D01*
X132725002Y-108267493D01*
X132814820Y-108315502D01*
G37*
%TD.AperFunction*%
D24*
X135498911Y-105358021D02*
X135499089Y-105493801D01*
X135426979Y-105565911D01*
X135291199Y-105566089D01*
X135219089Y-105493979D01*
X135218911Y-105358199D01*
X135291021Y-105286089D01*
X135426801Y-105285911D01*
X135498911Y-105358021D01*
%TA.AperFunction,Conductor*%
D25*
G36*
X135498911Y-105358021D02*
G01*
X135499089Y-105493801D01*
X135426979Y-105565911D01*
X135291199Y-105566089D01*
X135219089Y-105493979D01*
X135218911Y-105358199D01*
X135291021Y-105286089D01*
X135426801Y-105285911D01*
X135498911Y-105358021D01*
G37*
%TD.AperFunction*%
D24*
X134473911Y-105358021D02*
X134474089Y-105493801D01*
X134414890Y-105553000D01*
X134253110Y-105553000D01*
X134194089Y-105493979D01*
X134193911Y-105358199D01*
X134253110Y-105299000D01*
X134414890Y-105299000D01*
X134473911Y-105358021D01*
%TA.AperFunction,Conductor*%
D25*
G36*
X134473911Y-105358021D02*
G01*
X134474089Y-105493801D01*
X134414890Y-105553000D01*
X134253110Y-105553000D01*
X134194089Y-105493979D01*
X134193911Y-105358199D01*
X134253110Y-105299000D01*
X134414890Y-105299000D01*
X134473911Y-105358021D01*
G37*
%TD.AperFunction*%
D24*
X133448911Y-105358021D02*
X133449089Y-105493801D01*
X133389890Y-105553000D01*
X133228110Y-105553000D01*
X133118081Y-105442971D01*
X133135052Y-105426000D01*
X133118081Y-105409029D01*
X133228110Y-105299000D01*
X133389890Y-105299000D01*
X133448911Y-105358021D01*
%TA.AperFunction,Conductor*%
D25*
G36*
X133448911Y-105358021D02*
G01*
X133449089Y-105493801D01*
X133389890Y-105553000D01*
X133228110Y-105553000D01*
X133118081Y-105442971D01*
X133135052Y-105426000D01*
X133118081Y-105409029D01*
X133228110Y-105299000D01*
X133389890Y-105299000D01*
X133448911Y-105358021D01*
G37*
%TD.AperFunction*%
D24*
X135442998Y-77451113D02*
X135617328Y-77450884D01*
X135621032Y-77450142D01*
X135645042Y-77474152D01*
X135643887Y-77479998D01*
X135644116Y-77654328D01*
X135644858Y-77658032D01*
X135545971Y-77756919D01*
X135529000Y-77739948D01*
X135512029Y-77756919D01*
X135412958Y-77657848D01*
X135414113Y-77652002D01*
X135413884Y-77477672D01*
X135413142Y-77473968D01*
X135437152Y-77449958D01*
X135442998Y-77451113D01*
%TA.AperFunction,Conductor*%
D25*
G36*
X135442998Y-77451113D02*
G01*
X135617328Y-77450884D01*
X135621032Y-77450142D01*
X135645042Y-77474152D01*
X135643887Y-77479998D01*
X135644116Y-77654328D01*
X135644858Y-77658032D01*
X135545971Y-77756919D01*
X135529000Y-77739948D01*
X135512029Y-77756919D01*
X135412958Y-77657848D01*
X135414113Y-77652002D01*
X135413884Y-77477672D01*
X135413142Y-77473968D01*
X135437152Y-77449958D01*
X135442998Y-77451113D01*
G37*
%TD.AperFunction*%
D24*
X134442998Y-76451113D02*
X134617328Y-76450884D01*
X134621032Y-76450142D01*
X134645042Y-76474152D01*
X134643887Y-76479998D01*
X134644116Y-76654328D01*
X134644858Y-76658032D01*
X134620848Y-76682042D01*
X134615002Y-76680887D01*
X134440672Y-76681116D01*
X134436968Y-76681858D01*
X134338081Y-76582971D01*
X134355052Y-76566000D01*
X134338081Y-76549029D01*
X134437152Y-76449958D01*
X134442998Y-76451113D01*
%TA.AperFunction,Conductor*%
D25*
G36*
X134442998Y-76451113D02*
G01*
X134617328Y-76450884D01*
X134621032Y-76450142D01*
X134645042Y-76474152D01*
X134643887Y-76479998D01*
X134644116Y-76654328D01*
X134644858Y-76658032D01*
X134620848Y-76682042D01*
X134615002Y-76680887D01*
X134440672Y-76681116D01*
X134436968Y-76681858D01*
X134338081Y-76582971D01*
X134355052Y-76566000D01*
X134338081Y-76549029D01*
X134437152Y-76449958D01*
X134442998Y-76451113D01*
G37*
%TD.AperFunction*%
D24*
X135442998Y-76451113D02*
X135617328Y-76450884D01*
X135621032Y-76450142D01*
X135645042Y-76474152D01*
X135643887Y-76479998D01*
X135644116Y-76654328D01*
X135644858Y-76658032D01*
X135620848Y-76682042D01*
X135615002Y-76680887D01*
X135440672Y-76681116D01*
X135436968Y-76681858D01*
X135412958Y-76657848D01*
X135414113Y-76652002D01*
X135413884Y-76477672D01*
X135413142Y-76473968D01*
X135437152Y-76449958D01*
X135442998Y-76451113D01*
%TA.AperFunction,Conductor*%
D25*
G36*
X135442998Y-76451113D02*
G01*
X135617328Y-76450884D01*
X135621032Y-76450142D01*
X135645042Y-76474152D01*
X135643887Y-76479998D01*
X135644116Y-76654328D01*
X135644858Y-76658032D01*
X135620848Y-76682042D01*
X135615002Y-76680887D01*
X135440672Y-76681116D01*
X135436968Y-76681858D01*
X135412958Y-76657848D01*
X135414113Y-76652002D01*
X135413884Y-76477672D01*
X135413142Y-76473968D01*
X135437152Y-76449958D01*
X135442998Y-76451113D01*
G37*
%TD.AperFunction*%
D24*
X136442998Y-76451113D02*
X136617328Y-76450884D01*
X136621032Y-76450142D01*
X136719919Y-76549029D01*
X136702948Y-76566000D01*
X136719919Y-76582971D01*
X136620848Y-76682042D01*
X136615002Y-76680887D01*
X136440672Y-76681116D01*
X136436968Y-76681858D01*
X136412958Y-76657848D01*
X136414113Y-76652002D01*
X136413884Y-76477672D01*
X136413142Y-76473968D01*
X136437152Y-76449958D01*
X136442998Y-76451113D01*
%TA.AperFunction,Conductor*%
D25*
G36*
X136442998Y-76451113D02*
G01*
X136617328Y-76450884D01*
X136621032Y-76450142D01*
X136719919Y-76549029D01*
X136702948Y-76566000D01*
X136719919Y-76582971D01*
X136620848Y-76682042D01*
X136615002Y-76680887D01*
X136440672Y-76681116D01*
X136436968Y-76681858D01*
X136412958Y-76657848D01*
X136414113Y-76652002D01*
X136413884Y-76477672D01*
X136413142Y-76473968D01*
X136437152Y-76449958D01*
X136442998Y-76451113D01*
G37*
%TD.AperFunction*%
D24*
X135645042Y-75474152D02*
X135643887Y-75479998D01*
X135644116Y-75654328D01*
X135644858Y-75658032D01*
X135620848Y-75682042D01*
X135615002Y-75680887D01*
X135440672Y-75681116D01*
X135436968Y-75681858D01*
X135412958Y-75657848D01*
X135414113Y-75652002D01*
X135413884Y-75477672D01*
X135413142Y-75473968D01*
X135512029Y-75375081D01*
X135529000Y-75392052D01*
X135545971Y-75375081D01*
X135645042Y-75474152D01*
%TA.AperFunction,Conductor*%
D25*
G36*
X135645042Y-75474152D02*
G01*
X135643887Y-75479998D01*
X135644116Y-75654328D01*
X135644858Y-75658032D01*
X135620848Y-75682042D01*
X135615002Y-75680887D01*
X135440672Y-75681116D01*
X135436968Y-75681858D01*
X135412958Y-75657848D01*
X135414113Y-75652002D01*
X135413884Y-75477672D01*
X135413142Y-75473968D01*
X135512029Y-75375081D01*
X135529000Y-75392052D01*
X135545971Y-75375081D01*
X135645042Y-75474152D01*
G37*
%TD.AperFunction*%
%TD*%
M02*
