M48
; DRILL file {KiCad 5.1.8} date Fri Dec  4 12:34:24 2020
; FORMAT={-:-/ absolute / inch / decimal}
; #@! TF.CreationDate,2020-12-04T12:34:24+08:00
; #@! TF.GenerationSoftware,Kicad,Pcbnew,5.1.8
; #@! TF.FileFunction,Plated,1,2,PTH
FMAT,2
INCH
T1C0.0079
T2C0.0118
T3C0.0217
T4C0.0276
T5C0.0315
T6C0.0335
T7C0.0591
T8C0.1181
%
G90
G05
T1
X5.2484Y-4.0699
X5.2484Y-4.1103
X5.2484Y-4.1506
X5.2484Y-4.191
X5.2484Y-4.2313
X5.2887Y-4.0699
X5.2887Y-4.1103
X5.2887Y-4.1506
X5.2887Y-4.191
X5.2887Y-4.2313
X5.3291Y-4.0699
X5.3291Y-4.1103
X5.3291Y-4.1506
X5.3291Y-4.191
X5.3291Y-4.2313
X5.3694Y-4.0699
X5.3694Y-4.1103
X5.3694Y-4.1506
X5.3694Y-4.191
X5.3694Y-4.2313
X5.4098Y-4.0699
X5.4098Y-4.1103
X5.4098Y-4.1506
X5.4098Y-4.191
X5.4098Y-4.2313
X5.2964Y-2.975
X5.2964Y-3.0144
X5.2964Y-3.0538
X5.3358Y-2.975
X5.3358Y-3.0144
X5.3358Y-3.0538
X5.3752Y-2.975
X5.3752Y-3.0144
X5.3752Y-3.0538
T2
X4.569Y-3.944
X4.821Y-4.94
X4.925Y-3.584
X4.926Y-3.469
X4.927Y-3.351
X5.0174Y-4.1605
X5.043Y-3.116
X5.062Y-2.078
X5.063Y-2.491
X5.076Y-3.083
X5.1222Y-4.1408
X5.136Y-2.965
X5.143Y-2.779
X5.1459Y-4.1211
X5.152Y-2.985
X5.1636Y-4.1014
X5.1684Y-3.2136
X5.169Y-4.275
X5.1773Y-4.0817
X5.1866Y-3.0636
X5.1929Y-4.2573
X5.2035Y-2.9455
X5.209Y-2.846
X5.218Y-4.035
X5.23Y-4.469
X5.235Y-2.313
X5.235Y-2.396
X5.2914Y-4.3624
X5.2914Y-4.4032
X5.313Y-4.335
X5.325Y-2.259
X5.3295Y-4.3855
X5.3386Y-3.9586
X5.3389Y-4.0101
X5.344Y-2.702
X5.37Y-4.471
X5.3783Y-4.0073
X5.3783Y-4.2927
X5.3937Y-4.7165
X5.3973Y-4.007
X5.398Y-4.293
X5.409Y-2.315
X5.419Y-4.007
X5.443Y-4.412
X5.4432Y-2.8462
X5.4726Y-3.1298
X5.482Y-3.315
X5.4882Y-4.7165
X5.4884Y-3.5336
X5.4937Y-3.1249
X5.5057Y-3.1673
X5.515Y-3.12
X5.517Y-4.203
X5.561Y-2.416
X5.572Y-4.93
X5.643Y-4.01
X5.653Y-2.229
X5.654Y-3.463
X5.657Y-3.06
X5.669Y-4.353
X5.7151Y-3.0999
X5.8361Y-3.8169
X5.855Y-4.985
X6.032Y-3.466
X6.05Y-4.016
T4
X4.683Y-3.2896
X4.6822Y-3.392
X4.6842Y-3.6994
X4.6799Y-3.4939
X4.6811Y-3.5959
T5
X4.7933Y-2.1945
X4.8933Y-2.1945
X5.6102Y-2.5585
X5.7086Y-2.5585
T7
X4.9531Y-2.5723
X4.9531Y-2.7652
T8
X6.0827Y-4.8819
X4.6457Y-4.8819
X6.0827Y-1.9685
X4.6457Y-1.9685
T3
G00X5.2136Y-1.7943
M15
G01X5.2136Y-1.7687
M16
G05
G00X5.5187Y-1.7943
M15
G01X5.5187Y-1.7687
M16
G05
T6
G00X5.2195Y-1.9419
M15
G01X5.2195Y-1.9203
M16
G05
G00X5.5128Y-1.9419
M15
G01X5.5128Y-1.9203
M16
G05
T0
M30
