%TF.GenerationSoftware,KiCad,Pcbnew,5.1.8*%
%TF.CreationDate,2020-12-04T12:35:24+08:00*%
%TF.ProjectId,msisdr,6d736973-6472-42e6-9b69-6361645f7063,rev?*%
%TF.SameCoordinates,Original*%
%TF.FileFunction,Legend,Top*%
%TF.FilePolarity,Positive*%
%FSLAX46Y46*%
G04 Gerber Fmt 4.6, Leading zero omitted, Abs format (unit mm)*
G04 Created by KiCad (PCBNEW 5.1.8) date 2020-12-04 12:35:24*
%MOMM*%
%LPD*%
G01*
G04 APERTURE LIST*
%ADD10C,0.120000*%
%ADD11C,0.150000*%
%ADD12R,1.270000X3.600000*%
%ADD13R,1.350000X4.200000*%
%ADD14R,2.100000X1.700000*%
%ADD15C,2.300000*%
%ADD16R,0.800000X0.900000*%
%ADD17R,0.650000X1.060000*%
%ADD18R,4.600000X4.600000*%
%ADD19R,3.700000X3.700000*%
%ADD20O,0.800000X0.800000*%
%ADD21O,1.150000X1.800000*%
%ADD22O,1.450000X2.000000*%
%ADD23R,0.450000X1.300000*%
%ADD24C,1.400000*%
%ADD25O,1.600000X1.600000*%
%ADD26R,1.600000X1.600000*%
%ADD27C,1.600000*%
%ADD28R,1.000000X1.000000*%
%ADD29R,1.050000X2.200000*%
%ADD30C,4.064000*%
G04 APERTURE END LIST*
D10*
%TO.C,J10*%
X153674000Y-129320000D02*
X153924000Y-129820000D01*
X154174000Y-129320000D02*
X153674000Y-129320000D01*
X153924000Y-129820000D02*
X154174000Y-129320000D01*
X151974000Y-134080000D02*
X153084000Y-134080000D01*
X154764000Y-134080000D02*
X155874000Y-134080000D01*
X151974000Y-130370000D02*
X153084000Y-130370000D01*
X154764000Y-130370000D02*
X155874000Y-130370000D01*
%TO.C,J8*%
X118114000Y-129320000D02*
X118364000Y-129820000D01*
X118614000Y-129320000D02*
X118114000Y-129320000D01*
X118364000Y-129820000D02*
X118614000Y-129320000D01*
X116414000Y-134080000D02*
X117524000Y-134080000D01*
X119204000Y-134080000D02*
X120314000Y-134080000D01*
X116414000Y-130370000D02*
X117524000Y-130370000D01*
X119204000Y-130370000D02*
X120314000Y-130370000D01*
%TO.C,Y2*%
X121940000Y-65510000D02*
X121940000Y-65210000D01*
X121940000Y-65210000D02*
X129340000Y-65210000D01*
X129340000Y-65210000D02*
X129340000Y-65510000D01*
X121440000Y-70310000D02*
X121940000Y-70310000D01*
X121940000Y-70310000D02*
X121940000Y-70610000D01*
X121940000Y-70610000D02*
X129340000Y-70610000D01*
X129340000Y-70610000D02*
X129340000Y-70310000D01*
X121440000Y-68210000D02*
X121940000Y-68210000D01*
X121940000Y-68210000D02*
X121940000Y-67610000D01*
X129340000Y-67610000D02*
X129340000Y-68210000D01*
%TO.C,Y1*%
X128334000Y-64586000D02*
G75*
G03*
X123284000Y-64586000I-2525000J0D01*
G01*
X128334000Y-70986000D02*
G75*
G02*
X123284000Y-70986000I-2525000J0D01*
G01*
X123284000Y-70986000D02*
X123284000Y-64586000D01*
X128334000Y-70986000D02*
X128334000Y-64586000D01*
%TO.C,U4*%
X143380000Y-57440000D02*
X142450000Y-57440000D01*
X140220000Y-57440000D02*
X141150000Y-57440000D01*
X140220000Y-57440000D02*
X140220000Y-59600000D01*
X143380000Y-57440000D02*
X143380000Y-58900000D01*
%TO.C,U3*%
X148010000Y-59100000D02*
X148010000Y-57300000D01*
X144790000Y-57300000D02*
X144790000Y-59750000D01*
%TO.C,U2*%
X132249000Y-102791000D02*
X132249000Y-102316000D01*
X132249000Y-102316000D02*
X132724000Y-102316000D01*
X138469000Y-108061000D02*
X138469000Y-108536000D01*
X138469000Y-108536000D02*
X137994000Y-108536000D01*
X138469000Y-102791000D02*
X138469000Y-102316000D01*
X138469000Y-102316000D02*
X137994000Y-102316000D01*
X132249000Y-108061000D02*
X132249000Y-108536000D01*
%TO.C,U1*%
X132919000Y-74431000D02*
X132919000Y-73956000D01*
X132919000Y-73956000D02*
X133394000Y-73956000D01*
X138139000Y-78701000D02*
X138139000Y-79176000D01*
X138139000Y-79176000D02*
X137664000Y-79176000D01*
X138139000Y-74431000D02*
X138139000Y-73956000D01*
X138139000Y-73956000D02*
X137664000Y-73956000D01*
X132919000Y-78701000D02*
X132919000Y-79176000D01*
%TO.C,R8*%
X124262936Y-92640000D02*
X125717064Y-92640000D01*
X124262936Y-94460000D02*
X125717064Y-94460000D01*
%TO.C,R7*%
X124282936Y-89940000D02*
X125737064Y-89940000D01*
X124282936Y-91760000D02*
X125737064Y-91760000D01*
%TO.C,R6*%
X124262936Y-87080000D02*
X125717064Y-87080000D01*
X124262936Y-88900000D02*
X125717064Y-88900000D01*
%TO.C,R5*%
X124242936Y-84350000D02*
X125697064Y-84350000D01*
X124242936Y-86170000D02*
X125697064Y-86170000D01*
%TO.C,R4*%
X120310000Y-67172936D02*
X120310000Y-68627064D01*
X118490000Y-67172936D02*
X118490000Y-68627064D01*
%TO.C,R3*%
X116780000Y-57217064D02*
X116780000Y-55762936D01*
X118600000Y-57217064D02*
X118600000Y-55762936D01*
%TO.C,R2*%
X129772936Y-89990000D02*
X131227064Y-89990000D01*
X129772936Y-91810000D02*
X131227064Y-91810000D01*
%TO.C,R1*%
X133241936Y-64296000D02*
X134696064Y-64296000D01*
X133241936Y-66116000D02*
X134696064Y-66116000D01*
%TO.C,L6*%
X126660000Y-113097936D02*
X126660000Y-114302064D01*
X124840000Y-113097936D02*
X124840000Y-114302064D01*
%TO.C,L5*%
X123110000Y-113097936D02*
X123110000Y-114302064D01*
X121290000Y-113097936D02*
X121290000Y-114302064D01*
%TO.C,L4*%
X123110000Y-119185436D02*
X123110000Y-120389564D01*
X121290000Y-119185436D02*
X121290000Y-120389564D01*
%TO.C,L3*%
X126610000Y-119185436D02*
X126610000Y-120389564D01*
X124790000Y-119185436D02*
X124790000Y-120389564D01*
%TO.C,L2*%
X140936000Y-119201936D02*
X140936000Y-120406064D01*
X139116000Y-119201936D02*
X139116000Y-120406064D01*
%TO.C,L1*%
X147910000Y-119197936D02*
X147910000Y-120402064D01*
X146090000Y-119197936D02*
X146090000Y-120402064D01*
D11*
%TO.C,J11*%
X140450000Y-47850000D02*
X140450000Y-46450000D01*
X140450000Y-44050000D02*
X140450000Y-43900000D01*
X140450000Y-43900000D02*
X140150000Y-43900000D01*
X140150000Y-43900000D02*
X140150000Y-43450000D01*
X132450000Y-43450000D02*
X132450000Y-43900000D01*
X132450000Y-43900000D02*
X132150000Y-43900000D01*
X132150000Y-43900000D02*
X132150000Y-44050000D01*
X132150000Y-46450000D02*
X132150000Y-47850000D01*
X137375000Y-50025000D02*
X138100000Y-50025000D01*
X138100000Y-50025000D02*
X138100000Y-49600000D01*
X138100000Y-49600000D02*
X139100000Y-49600000D01*
X134500000Y-49600000D02*
X133500000Y-49600000D01*
D10*
%TO.C,J9*%
X135894000Y-129320000D02*
X136144000Y-129820000D01*
X136394000Y-129320000D02*
X135894000Y-129320000D01*
X136144000Y-129820000D02*
X136394000Y-129320000D01*
X134194000Y-134080000D02*
X135304000Y-134080000D01*
X136984000Y-134080000D02*
X138094000Y-134080000D01*
X134194000Y-130370000D02*
X135304000Y-130370000D01*
X136984000Y-130370000D02*
X138094000Y-130370000D01*
%TO.C,J7*%
X144784000Y-129320000D02*
X145034000Y-129820000D01*
X145284000Y-129320000D02*
X144784000Y-129320000D01*
X145034000Y-129820000D02*
X145284000Y-129320000D01*
X143084000Y-134080000D02*
X144194000Y-134080000D01*
X145874000Y-134080000D02*
X146984000Y-134080000D01*
X143084000Y-130370000D02*
X144194000Y-130370000D01*
X145874000Y-130370000D02*
X146984000Y-130370000D01*
%TO.C,J6*%
X127004000Y-129320000D02*
X127254000Y-129820000D01*
X127504000Y-129320000D02*
X127004000Y-129320000D01*
X127254000Y-129820000D02*
X127504000Y-129320000D01*
X125304000Y-134080000D02*
X126414000Y-134080000D01*
X128094000Y-134080000D02*
X129204000Y-134080000D01*
X125304000Y-130370000D02*
X126414000Y-130370000D01*
X128094000Y-130370000D02*
X129204000Y-130370000D01*
%TO.C,J5*%
X118029000Y-93016000D02*
X118029000Y-94916000D01*
X118029000Y-94916000D02*
X119879000Y-94916000D01*
X119879000Y-94916000D02*
X119879000Y-93066000D01*
X119879000Y-93066000D02*
X119879000Y-93016000D01*
X119879000Y-93016000D02*
X118029000Y-93016000D01*
%TO.C,J4*%
X117949000Y-90386000D02*
X117949000Y-92286000D01*
X117949000Y-92286000D02*
X119799000Y-92286000D01*
X119799000Y-92286000D02*
X119799000Y-90436000D01*
X119799000Y-90436000D02*
X119799000Y-90386000D01*
X119799000Y-90386000D02*
X117949000Y-90386000D01*
%TO.C,J3*%
X117919000Y-87796000D02*
X117919000Y-89696000D01*
X117919000Y-89696000D02*
X119769000Y-89696000D01*
X119769000Y-89696000D02*
X119769000Y-87846000D01*
X119769000Y-87846000D02*
X119769000Y-87796000D01*
X119769000Y-87796000D02*
X117919000Y-87796000D01*
%TO.C,J2*%
X117979000Y-85206000D02*
X117979000Y-87106000D01*
X117979000Y-87106000D02*
X119829000Y-87106000D01*
X119829000Y-87106000D02*
X119829000Y-85256000D01*
X119829000Y-85256000D02*
X119829000Y-85206000D01*
X119829000Y-85206000D02*
X117979000Y-85206000D01*
%TO.C,J1*%
X117999000Y-82606000D02*
X117999000Y-84506000D01*
X117999000Y-84506000D02*
X119849000Y-84506000D01*
X119849000Y-84506000D02*
X119849000Y-82656000D01*
X119849000Y-82656000D02*
X119849000Y-82606000D01*
X119849000Y-82606000D02*
X117999000Y-82606000D01*
%TO.C,D5*%
X125616371Y-55740000D02*
G75*
G03*
X125616371Y-55740000I-1326371J0D01*
G01*
X122963629Y-55740000D02*
X122850000Y-55740000D01*
%TO.C,D2*%
X138980000Y-57440000D02*
X138050000Y-57440000D01*
X135820000Y-57440000D02*
X136750000Y-57440000D01*
X135820000Y-57440000D02*
X135820000Y-59600000D01*
X138980000Y-57440000D02*
X138980000Y-58900000D01*
%TO.C,D1*%
X134550000Y-57460000D02*
X133620000Y-57460000D01*
X131390000Y-57460000D02*
X132320000Y-57460000D01*
X131390000Y-57460000D02*
X131390000Y-59620000D01*
X134550000Y-57460000D02*
X134550000Y-58920000D01*
%TO.C,C43*%
X136510000Y-97488748D02*
X136510000Y-98911252D01*
X134690000Y-97488748D02*
X134690000Y-98911252D01*
%TO.C,C42*%
X141090000Y-98911252D02*
X141090000Y-97488748D01*
X142910000Y-98911252D02*
X142910000Y-97488748D01*
%TO.C,C41*%
X117470000Y-79238748D02*
X117470000Y-80661252D01*
X115650000Y-79238748D02*
X115650000Y-80661252D01*
%TO.C,C40*%
X152288748Y-55790000D02*
X153711252Y-55790000D01*
X152288748Y-57610000D02*
X153711252Y-57610000D01*
%TO.C,C39*%
X142888748Y-74810000D02*
X144311252Y-74810000D01*
X142888748Y-72990000D02*
X144311252Y-72990000D01*
%TO.C,C38*%
X152288748Y-59390000D02*
X153711252Y-59390000D01*
X152288748Y-61210000D02*
X153711252Y-61210000D01*
%TO.C,C37*%
X138180000Y-65531252D02*
X138180000Y-64108748D01*
X140000000Y-65531252D02*
X140000000Y-64108748D01*
%TO.C,C36*%
X149087748Y-73016000D02*
X150510252Y-73016000D01*
X149087748Y-74836000D02*
X150510252Y-74836000D01*
%TO.C,C35*%
X141194225Y-63261000D02*
X141194225Y-63761000D01*
X140944225Y-63511000D02*
X141444225Y-63511000D01*
X146350000Y-64702000D02*
X146350000Y-65270000D01*
X146310000Y-64468000D02*
X146310000Y-65504000D01*
X146270000Y-64309000D02*
X146270000Y-65663000D01*
X146230000Y-64181000D02*
X146230000Y-65791000D01*
X146190000Y-64071000D02*
X146190000Y-65901000D01*
X146150000Y-63975000D02*
X146150000Y-65997000D01*
X146110000Y-63888000D02*
X146110000Y-66084000D01*
X146070000Y-63808000D02*
X146070000Y-66164000D01*
X146030000Y-66026000D02*
X146030000Y-66237000D01*
X146030000Y-63735000D02*
X146030000Y-63946000D01*
X145990000Y-66026000D02*
X145990000Y-66305000D01*
X145990000Y-63667000D02*
X145990000Y-63946000D01*
X145950000Y-66026000D02*
X145950000Y-66369000D01*
X145950000Y-63603000D02*
X145950000Y-63946000D01*
X145910000Y-66026000D02*
X145910000Y-66429000D01*
X145910000Y-63543000D02*
X145910000Y-63946000D01*
X145870000Y-66026000D02*
X145870000Y-66486000D01*
X145870000Y-63486000D02*
X145870000Y-63946000D01*
X145830000Y-66026000D02*
X145830000Y-66540000D01*
X145830000Y-63432000D02*
X145830000Y-63946000D01*
X145790000Y-66026000D02*
X145790000Y-66591000D01*
X145790000Y-63381000D02*
X145790000Y-63946000D01*
X145750000Y-66026000D02*
X145750000Y-66639000D01*
X145750000Y-63333000D02*
X145750000Y-63946000D01*
X145710000Y-66026000D02*
X145710000Y-66685000D01*
X145710000Y-63287000D02*
X145710000Y-63946000D01*
X145670000Y-66026000D02*
X145670000Y-66729000D01*
X145670000Y-63243000D02*
X145670000Y-63946000D01*
X145630000Y-66026000D02*
X145630000Y-66771000D01*
X145630000Y-63201000D02*
X145630000Y-63946000D01*
X145590000Y-66026000D02*
X145590000Y-66812000D01*
X145590000Y-63160000D02*
X145590000Y-63946000D01*
X145550000Y-66026000D02*
X145550000Y-66850000D01*
X145550000Y-63122000D02*
X145550000Y-63946000D01*
X145510000Y-66026000D02*
X145510000Y-66887000D01*
X145510000Y-63085000D02*
X145510000Y-63946000D01*
X145470000Y-66026000D02*
X145470000Y-66923000D01*
X145470000Y-63049000D02*
X145470000Y-63946000D01*
X145430000Y-66026000D02*
X145430000Y-66957000D01*
X145430000Y-63015000D02*
X145430000Y-63946000D01*
X145390000Y-66026000D02*
X145390000Y-66990000D01*
X145390000Y-62982000D02*
X145390000Y-63946000D01*
X145350000Y-66026000D02*
X145350000Y-67021000D01*
X145350000Y-62951000D02*
X145350000Y-63946000D01*
X145310000Y-66026000D02*
X145310000Y-67051000D01*
X145310000Y-62921000D02*
X145310000Y-63946000D01*
X145270000Y-66026000D02*
X145270000Y-67081000D01*
X145270000Y-62891000D02*
X145270000Y-63946000D01*
X145230000Y-66026000D02*
X145230000Y-67108000D01*
X145230000Y-62864000D02*
X145230000Y-63946000D01*
X145190000Y-66026000D02*
X145190000Y-67135000D01*
X145190000Y-62837000D02*
X145190000Y-63946000D01*
X145150000Y-66026000D02*
X145150000Y-67161000D01*
X145150000Y-62811000D02*
X145150000Y-63946000D01*
X145110000Y-66026000D02*
X145110000Y-67186000D01*
X145110000Y-62786000D02*
X145110000Y-63946000D01*
X145070000Y-66026000D02*
X145070000Y-67210000D01*
X145070000Y-62762000D02*
X145070000Y-63946000D01*
X145030000Y-66026000D02*
X145030000Y-67233000D01*
X145030000Y-62739000D02*
X145030000Y-63946000D01*
X144990000Y-66026000D02*
X144990000Y-67254000D01*
X144990000Y-62718000D02*
X144990000Y-63946000D01*
X144950000Y-66026000D02*
X144950000Y-67276000D01*
X144950000Y-62696000D02*
X144950000Y-63946000D01*
X144910000Y-66026000D02*
X144910000Y-67296000D01*
X144910000Y-62676000D02*
X144910000Y-63946000D01*
X144870000Y-66026000D02*
X144870000Y-67315000D01*
X144870000Y-62657000D02*
X144870000Y-63946000D01*
X144830000Y-66026000D02*
X144830000Y-67334000D01*
X144830000Y-62638000D02*
X144830000Y-63946000D01*
X144790000Y-66026000D02*
X144790000Y-67351000D01*
X144790000Y-62621000D02*
X144790000Y-63946000D01*
X144750000Y-66026000D02*
X144750000Y-67368000D01*
X144750000Y-62604000D02*
X144750000Y-63946000D01*
X144710000Y-66026000D02*
X144710000Y-67384000D01*
X144710000Y-62588000D02*
X144710000Y-63946000D01*
X144670000Y-66026000D02*
X144670000Y-67400000D01*
X144670000Y-62572000D02*
X144670000Y-63946000D01*
X144630000Y-66026000D02*
X144630000Y-67414000D01*
X144630000Y-62558000D02*
X144630000Y-63946000D01*
X144590000Y-66026000D02*
X144590000Y-67428000D01*
X144590000Y-62544000D02*
X144590000Y-63946000D01*
X144550000Y-66026000D02*
X144550000Y-67441000D01*
X144550000Y-62531000D02*
X144550000Y-63946000D01*
X144510000Y-66026000D02*
X144510000Y-67454000D01*
X144510000Y-62518000D02*
X144510000Y-63946000D01*
X144470000Y-66026000D02*
X144470000Y-67466000D01*
X144470000Y-62506000D02*
X144470000Y-63946000D01*
X144429000Y-66026000D02*
X144429000Y-67477000D01*
X144429000Y-62495000D02*
X144429000Y-63946000D01*
X144389000Y-66026000D02*
X144389000Y-67487000D01*
X144389000Y-62485000D02*
X144389000Y-63946000D01*
X144349000Y-66026000D02*
X144349000Y-67497000D01*
X144349000Y-62475000D02*
X144349000Y-63946000D01*
X144309000Y-66026000D02*
X144309000Y-67506000D01*
X144309000Y-62466000D02*
X144309000Y-63946000D01*
X144269000Y-66026000D02*
X144269000Y-67514000D01*
X144269000Y-62458000D02*
X144269000Y-63946000D01*
X144229000Y-66026000D02*
X144229000Y-67522000D01*
X144229000Y-62450000D02*
X144229000Y-63946000D01*
X144189000Y-66026000D02*
X144189000Y-67529000D01*
X144189000Y-62443000D02*
X144189000Y-63946000D01*
X144149000Y-66026000D02*
X144149000Y-67536000D01*
X144149000Y-62436000D02*
X144149000Y-63946000D01*
X144109000Y-66026000D02*
X144109000Y-67542000D01*
X144109000Y-62430000D02*
X144109000Y-63946000D01*
X144069000Y-66026000D02*
X144069000Y-67547000D01*
X144069000Y-62425000D02*
X144069000Y-63946000D01*
X144029000Y-66026000D02*
X144029000Y-67551000D01*
X144029000Y-62421000D02*
X144029000Y-63946000D01*
X143989000Y-66026000D02*
X143989000Y-67555000D01*
X143989000Y-62417000D02*
X143989000Y-63946000D01*
X143949000Y-62413000D02*
X143949000Y-67559000D01*
X143909000Y-62410000D02*
X143909000Y-67562000D01*
X143869000Y-62408000D02*
X143869000Y-67564000D01*
X143829000Y-62407000D02*
X143829000Y-67565000D01*
X143789000Y-62406000D02*
X143789000Y-67566000D01*
X143749000Y-62406000D02*
X143749000Y-67566000D01*
X146369000Y-64986000D02*
G75*
G03*
X146369000Y-64986000I-2620000J0D01*
G01*
%TO.C,C34*%
X133720000Y-112948748D02*
X133720000Y-114371252D01*
X131900000Y-112948748D02*
X131900000Y-114371252D01*
%TO.C,C33*%
X131890000Y-120548752D02*
X131890000Y-119126248D01*
X133710000Y-120548752D02*
X133710000Y-119126248D01*
%TO.C,C32*%
X137310000Y-119088748D02*
X137310000Y-120511252D01*
X135490000Y-119088748D02*
X135490000Y-120511252D01*
%TO.C,C31*%
X128290000Y-120548752D02*
X128290000Y-119126248D01*
X130110000Y-120548752D02*
X130110000Y-119126248D01*
%TO.C,C30*%
X144410000Y-119092748D02*
X144410000Y-120515252D01*
X142590000Y-119092748D02*
X142590000Y-120515252D01*
%TO.C,C29*%
X131890000Y-126511252D02*
X131890000Y-125088748D01*
X133710000Y-126511252D02*
X133710000Y-125088748D01*
%TO.C,C28*%
X128290000Y-126548752D02*
X128290000Y-125126248D01*
X130110000Y-126548752D02*
X130110000Y-125126248D01*
%TO.C,C27*%
X124790000Y-126511252D02*
X124790000Y-125088748D01*
X126610000Y-126511252D02*
X126610000Y-125088748D01*
%TO.C,C26*%
X129888748Y-95690000D02*
X131311252Y-95690000D01*
X129888748Y-97510000D02*
X131311252Y-97510000D01*
%TO.C,C25*%
X150511252Y-81410000D02*
X149088748Y-81410000D01*
X150511252Y-79590000D02*
X149088748Y-79590000D01*
%TO.C,C24*%
X121080760Y-106033972D02*
X121080760Y-104611468D01*
X122900760Y-106033972D02*
X122900760Y-104611468D01*
%TO.C,C23*%
X137990000Y-98911252D02*
X137990000Y-97488748D01*
X139810000Y-98911252D02*
X139810000Y-97488748D01*
%TO.C,C22*%
X129857748Y-92690000D02*
X131280252Y-92690000D01*
X129857748Y-94510000D02*
X131280252Y-94510000D01*
%TO.C,C21*%
X144211252Y-86990000D02*
X142788748Y-86990000D01*
X144211252Y-88810000D02*
X142788748Y-88810000D01*
%TO.C,C20*%
X150511252Y-85110000D02*
X149088748Y-85110000D01*
X150511252Y-83290000D02*
X149088748Y-83290000D01*
%TO.C,C19*%
X143711252Y-104610000D02*
X142288748Y-104610000D01*
X143711252Y-102790000D02*
X142288748Y-102790000D01*
%TO.C,C18*%
X150520252Y-78110000D02*
X149097748Y-78110000D01*
X150520252Y-76290000D02*
X149097748Y-76290000D01*
%TO.C,C17*%
X128290000Y-114411252D02*
X128290000Y-112988748D01*
X130110000Y-114411252D02*
X130110000Y-112988748D01*
%TO.C,C16*%
X135490000Y-114351252D02*
X135490000Y-112928748D01*
X137310000Y-114351252D02*
X137310000Y-112928748D01*
%TO.C,C15*%
X142590000Y-114311252D02*
X142590000Y-112888748D01*
X144410000Y-114311252D02*
X144410000Y-112888748D01*
%TO.C,C14*%
X139090000Y-114348752D02*
X139090000Y-112926248D01*
X140910000Y-114348752D02*
X140910000Y-112926248D01*
%TO.C,C13*%
X143711252Y-107810000D02*
X142288748Y-107810000D01*
X143711252Y-105990000D02*
X142288748Y-105990000D01*
%TO.C,C12*%
X146090000Y-114311252D02*
X146090000Y-112888748D01*
X147910000Y-114311252D02*
X147910000Y-112888748D01*
%TO.C,C11*%
X124596120Y-106013652D02*
X124596120Y-104591148D01*
X126416120Y-106013652D02*
X126416120Y-104591148D01*
%TO.C,C10*%
X119788748Y-61990000D02*
X121211252Y-61990000D01*
X119788748Y-63810000D02*
X121211252Y-63810000D01*
%TO.C,C9*%
X119788748Y-71790000D02*
X121211252Y-71790000D01*
X119788748Y-73610000D02*
X121211252Y-73610000D01*
%TO.C,C8*%
X142888748Y-78110000D02*
X144311252Y-78110000D01*
X142888748Y-76290000D02*
X144311252Y-76290000D01*
%TO.C,C7*%
X125711252Y-80510000D02*
X124288748Y-80510000D01*
X125711252Y-78690000D02*
X124288748Y-78690000D01*
%TO.C,C6*%
X149088748Y-69690000D02*
X150511252Y-69690000D01*
X149088748Y-71510000D02*
X150511252Y-71510000D01*
%TO.C,C5*%
X125711252Y-83410000D02*
X124288748Y-83410000D01*
X125711252Y-81590000D02*
X124288748Y-81590000D01*
%TO.C,C4*%
X142888748Y-81410000D02*
X144311252Y-81410000D01*
X142888748Y-79590000D02*
X144311252Y-79590000D01*
%TO.C,C3*%
X142867748Y-71566000D02*
X144290252Y-71566000D01*
X142867748Y-69746000D02*
X144290252Y-69746000D01*
%TO.C,C2*%
X142788748Y-83290000D02*
X144211252Y-83290000D01*
X142788748Y-85110000D02*
X144211252Y-85110000D01*
%TO.C,C1*%
X136987748Y-81576000D02*
X138410252Y-81576000D01*
X136987748Y-83396000D02*
X138410252Y-83396000D01*
%TO.C,J12*%
X136000000Y-89900000D02*
X136800000Y-89900000D01*
X136000000Y-90100000D02*
X136000000Y-89900000D01*
X139000000Y-89900000D02*
X139000000Y-90100000D01*
X138200000Y-89900000D02*
X139000000Y-89900000D01*
X139000000Y-92900000D02*
X138200000Y-92900000D01*
X139000000Y-92700000D02*
X139000000Y-92900000D01*
X136200000Y-92900000D02*
X136000000Y-92700000D01*
X136800000Y-92900000D02*
X136200000Y-92900000D01*
X136800000Y-92900000D02*
X136800000Y-93400000D01*
X138200000Y-92900000D02*
X138200000Y-93400000D01*
%TO.C,REF\u002A\u002A*%
X156786000Y-124000000D02*
G75*
G03*
X156786000Y-124000000I-2286000J0D01*
G01*
X120286000Y-124000000D02*
G75*
G03*
X120286000Y-124000000I-2286000J0D01*
G01*
X156786000Y-50000000D02*
G75*
G03*
X156786000Y-50000000I-2286000J0D01*
G01*
X120286000Y-50000000D02*
G75*
G03*
X120286000Y-50000000I-2286000J0D01*
G01*
%TO.C,J10*%
D11*
X153114476Y-128032380D02*
X153114476Y-128746666D01*
X153066857Y-128889523D01*
X152971619Y-128984761D01*
X152828761Y-129032380D01*
X152733523Y-129032380D01*
X154114476Y-129032380D02*
X153543047Y-129032380D01*
X153828761Y-129032380D02*
X153828761Y-128032380D01*
X153733523Y-128175238D01*
X153638285Y-128270476D01*
X153543047Y-128318095D01*
X154733523Y-128032380D02*
X154828761Y-128032380D01*
X154924000Y-128080000D01*
X154971619Y-128127619D01*
X155019238Y-128222857D01*
X155066857Y-128413333D01*
X155066857Y-128651428D01*
X155019238Y-128841904D01*
X154971619Y-128937142D01*
X154924000Y-128984761D01*
X154828761Y-129032380D01*
X154733523Y-129032380D01*
X154638285Y-128984761D01*
X154590666Y-128937142D01*
X154543047Y-128841904D01*
X154495428Y-128651428D01*
X154495428Y-128413333D01*
X154543047Y-128222857D01*
X154590666Y-128127619D01*
X154638285Y-128080000D01*
X154733523Y-128032380D01*
%TO.C,J8*%
X118030666Y-128032380D02*
X118030666Y-128746666D01*
X117983047Y-128889523D01*
X117887809Y-128984761D01*
X117744952Y-129032380D01*
X117649714Y-129032380D01*
X118649714Y-128460952D02*
X118554476Y-128413333D01*
X118506857Y-128365714D01*
X118459238Y-128270476D01*
X118459238Y-128222857D01*
X118506857Y-128127619D01*
X118554476Y-128080000D01*
X118649714Y-128032380D01*
X118840190Y-128032380D01*
X118935428Y-128080000D01*
X118983047Y-128127619D01*
X119030666Y-128222857D01*
X119030666Y-128270476D01*
X118983047Y-128365714D01*
X118935428Y-128413333D01*
X118840190Y-128460952D01*
X118649714Y-128460952D01*
X118554476Y-128508571D01*
X118506857Y-128556190D01*
X118459238Y-128651428D01*
X118459238Y-128841904D01*
X118506857Y-128937142D01*
X118554476Y-128984761D01*
X118649714Y-129032380D01*
X118840190Y-129032380D01*
X118935428Y-128984761D01*
X118983047Y-128937142D01*
X119030666Y-128841904D01*
X119030666Y-128651428D01*
X118983047Y-128556190D01*
X118935428Y-128508571D01*
X118840190Y-128460952D01*
%TO.C,Y2*%
X130384609Y-67997390D02*
X130384609Y-68473580D01*
X130051276Y-67473580D02*
X130384609Y-67997390D01*
X130717942Y-67473580D01*
X131003657Y-67568819D02*
X131051276Y-67521200D01*
X131146514Y-67473580D01*
X131384609Y-67473580D01*
X131479847Y-67521200D01*
X131527466Y-67568819D01*
X131575085Y-67664057D01*
X131575085Y-67759295D01*
X131527466Y-67902152D01*
X130956038Y-68473580D01*
X131575085Y-68473580D01*
%TO.C,Y1*%
X129592390Y-73145590D02*
X130068580Y-73145590D01*
X129068580Y-73478923D02*
X129592390Y-73145590D01*
X129068580Y-72812257D01*
X130068580Y-71955114D02*
X130068580Y-72526542D01*
X130068580Y-72240828D02*
X129068580Y-72240828D01*
X129211438Y-72336066D01*
X129306676Y-72431304D01*
X129354295Y-72526542D01*
%TO.C,U4*%
X140970095Y-55230780D02*
X140970095Y-56040304D01*
X141017714Y-56135542D01*
X141065333Y-56183161D01*
X141160571Y-56230780D01*
X141351047Y-56230780D01*
X141446285Y-56183161D01*
X141493904Y-56135542D01*
X141541523Y-56040304D01*
X141541523Y-55230780D01*
X142446285Y-55564114D02*
X142446285Y-56230780D01*
X142208190Y-55183161D02*
X141970095Y-55897447D01*
X142589142Y-55897447D01*
%TO.C,U3*%
X145618295Y-55154580D02*
X145618295Y-55964104D01*
X145665914Y-56059342D01*
X145713533Y-56106961D01*
X145808771Y-56154580D01*
X145999247Y-56154580D01*
X146094485Y-56106961D01*
X146142104Y-56059342D01*
X146189723Y-55964104D01*
X146189723Y-55154580D01*
X146570676Y-55154580D02*
X147189723Y-55154580D01*
X146856390Y-55535533D01*
X146999247Y-55535533D01*
X147094485Y-55583152D01*
X147142104Y-55630771D01*
X147189723Y-55726009D01*
X147189723Y-55964104D01*
X147142104Y-56059342D01*
X147094485Y-56106961D01*
X146999247Y-56154580D01*
X146713533Y-56154580D01*
X146618295Y-56106961D01*
X146570676Y-56059342D01*
%TO.C,U2*%
X130511380Y-106187904D02*
X131320904Y-106187904D01*
X131416142Y-106140285D01*
X131463761Y-106092666D01*
X131511380Y-105997428D01*
X131511380Y-105806952D01*
X131463761Y-105711714D01*
X131416142Y-105664095D01*
X131320904Y-105616476D01*
X130511380Y-105616476D01*
X130606619Y-105187904D02*
X130559000Y-105140285D01*
X130511380Y-105045047D01*
X130511380Y-104806952D01*
X130559000Y-104711714D01*
X130606619Y-104664095D01*
X130701857Y-104616476D01*
X130797095Y-104616476D01*
X130939952Y-104664095D01*
X131511380Y-105235523D01*
X131511380Y-104616476D01*
%TO.C,U1*%
X131181380Y-77327904D02*
X131990904Y-77327904D01*
X132086142Y-77280285D01*
X132133761Y-77232666D01*
X132181380Y-77137428D01*
X132181380Y-76946952D01*
X132133761Y-76851714D01*
X132086142Y-76804095D01*
X131990904Y-76756476D01*
X131181380Y-76756476D01*
X132181380Y-75756476D02*
X132181380Y-76327904D01*
X132181380Y-76042190D02*
X131181380Y-76042190D01*
X131324238Y-76137428D01*
X131419476Y-76232666D01*
X131467095Y-76327904D01*
%TO.C,R8*%
X121473933Y-94051380D02*
X121140600Y-93575190D01*
X120902504Y-94051380D02*
X120902504Y-93051380D01*
X121283457Y-93051380D01*
X121378695Y-93099000D01*
X121426314Y-93146619D01*
X121473933Y-93241857D01*
X121473933Y-93384714D01*
X121426314Y-93479952D01*
X121378695Y-93527571D01*
X121283457Y-93575190D01*
X120902504Y-93575190D01*
X122045361Y-93479952D02*
X121950123Y-93432333D01*
X121902504Y-93384714D01*
X121854885Y-93289476D01*
X121854885Y-93241857D01*
X121902504Y-93146619D01*
X121950123Y-93099000D01*
X122045361Y-93051380D01*
X122235838Y-93051380D01*
X122331076Y-93099000D01*
X122378695Y-93146619D01*
X122426314Y-93241857D01*
X122426314Y-93289476D01*
X122378695Y-93384714D01*
X122331076Y-93432333D01*
X122235838Y-93479952D01*
X122045361Y-93479952D01*
X121950123Y-93527571D01*
X121902504Y-93575190D01*
X121854885Y-93670428D01*
X121854885Y-93860904D01*
X121902504Y-93956142D01*
X121950123Y-94003761D01*
X122045361Y-94051380D01*
X122235838Y-94051380D01*
X122331076Y-94003761D01*
X122378695Y-93956142D01*
X122426314Y-93860904D01*
X122426314Y-93670428D01*
X122378695Y-93575190D01*
X122331076Y-93527571D01*
X122235838Y-93479952D01*
%TO.C,R7*%
X121473933Y-91460580D02*
X121140600Y-90984390D01*
X120902504Y-91460580D02*
X120902504Y-90460580D01*
X121283457Y-90460580D01*
X121378695Y-90508200D01*
X121426314Y-90555819D01*
X121473933Y-90651057D01*
X121473933Y-90793914D01*
X121426314Y-90889152D01*
X121378695Y-90936771D01*
X121283457Y-90984390D01*
X120902504Y-90984390D01*
X121807266Y-90460580D02*
X122473933Y-90460580D01*
X122045361Y-91460580D01*
%TO.C,R6*%
X121448533Y-88463380D02*
X121115200Y-87987190D01*
X120877104Y-88463380D02*
X120877104Y-87463380D01*
X121258057Y-87463380D01*
X121353295Y-87511000D01*
X121400914Y-87558619D01*
X121448533Y-87653857D01*
X121448533Y-87796714D01*
X121400914Y-87891952D01*
X121353295Y-87939571D01*
X121258057Y-87987190D01*
X120877104Y-87987190D01*
X122305676Y-87463380D02*
X122115200Y-87463380D01*
X122019961Y-87511000D01*
X121972342Y-87558619D01*
X121877104Y-87701476D01*
X121829485Y-87891952D01*
X121829485Y-88272904D01*
X121877104Y-88368142D01*
X121924723Y-88415761D01*
X122019961Y-88463380D01*
X122210438Y-88463380D01*
X122305676Y-88415761D01*
X122353295Y-88368142D01*
X122400914Y-88272904D01*
X122400914Y-88034809D01*
X122353295Y-87939571D01*
X122305676Y-87891952D01*
X122210438Y-87844333D01*
X122019961Y-87844333D01*
X121924723Y-87891952D01*
X121877104Y-87939571D01*
X121829485Y-88034809D01*
%TO.C,R5*%
X121423133Y-85669380D02*
X121089800Y-85193190D01*
X120851704Y-85669380D02*
X120851704Y-84669380D01*
X121232657Y-84669380D01*
X121327895Y-84717000D01*
X121375514Y-84764619D01*
X121423133Y-84859857D01*
X121423133Y-85002714D01*
X121375514Y-85097952D01*
X121327895Y-85145571D01*
X121232657Y-85193190D01*
X120851704Y-85193190D01*
X122327895Y-84669380D02*
X121851704Y-84669380D01*
X121804085Y-85145571D01*
X121851704Y-85097952D01*
X121946942Y-85050333D01*
X122185038Y-85050333D01*
X122280276Y-85097952D01*
X122327895Y-85145571D01*
X122375514Y-85240809D01*
X122375514Y-85478904D01*
X122327895Y-85574142D01*
X122280276Y-85621761D01*
X122185038Y-85669380D01*
X121946942Y-85669380D01*
X121851704Y-85621761D01*
X121804085Y-85574142D01*
%TO.C,R4*%
X117952780Y-68035466D02*
X117476590Y-68368800D01*
X117952780Y-68606895D02*
X116952780Y-68606895D01*
X116952780Y-68225942D01*
X117000400Y-68130704D01*
X117048019Y-68083085D01*
X117143257Y-68035466D01*
X117286114Y-68035466D01*
X117381352Y-68083085D01*
X117428971Y-68130704D01*
X117476590Y-68225942D01*
X117476590Y-68606895D01*
X117286114Y-67178323D02*
X117952780Y-67178323D01*
X116905161Y-67416419D02*
X117619447Y-67654514D01*
X117619447Y-67035466D01*
%TO.C,R3*%
X116322380Y-56656666D02*
X115846190Y-56990000D01*
X116322380Y-57228095D02*
X115322380Y-57228095D01*
X115322380Y-56847142D01*
X115370000Y-56751904D01*
X115417619Y-56704285D01*
X115512857Y-56656666D01*
X115655714Y-56656666D01*
X115750952Y-56704285D01*
X115798571Y-56751904D01*
X115846190Y-56847142D01*
X115846190Y-57228095D01*
X115322380Y-56323333D02*
X115322380Y-55704285D01*
X115703333Y-56037619D01*
X115703333Y-55894761D01*
X115750952Y-55799523D01*
X115798571Y-55751904D01*
X115893809Y-55704285D01*
X116131904Y-55704285D01*
X116227142Y-55751904D01*
X116274761Y-55799523D01*
X116322380Y-55894761D01*
X116322380Y-56180476D01*
X116274761Y-56275714D01*
X116227142Y-56323333D01*
%TO.C,R2*%
X134361180Y-90844666D02*
X133884990Y-91178000D01*
X134361180Y-91416095D02*
X133361180Y-91416095D01*
X133361180Y-91035142D01*
X133408800Y-90939904D01*
X133456419Y-90892285D01*
X133551657Y-90844666D01*
X133694514Y-90844666D01*
X133789752Y-90892285D01*
X133837371Y-90939904D01*
X133884990Y-91035142D01*
X133884990Y-91416095D01*
X133456419Y-90463714D02*
X133408800Y-90416095D01*
X133361180Y-90320857D01*
X133361180Y-90082761D01*
X133408800Y-89987523D01*
X133456419Y-89939904D01*
X133551657Y-89892285D01*
X133646895Y-89892285D01*
X133789752Y-89939904D01*
X134361180Y-90511333D01*
X134361180Y-89892285D01*
%TO.C,R1*%
X133802333Y-63838380D02*
X133469000Y-63362190D01*
X133230904Y-63838380D02*
X133230904Y-62838380D01*
X133611857Y-62838380D01*
X133707095Y-62886000D01*
X133754714Y-62933619D01*
X133802333Y-63028857D01*
X133802333Y-63171714D01*
X133754714Y-63266952D01*
X133707095Y-63314571D01*
X133611857Y-63362190D01*
X133230904Y-63362190D01*
X134754714Y-63838380D02*
X134183285Y-63838380D01*
X134469000Y-63838380D02*
X134469000Y-62838380D01*
X134373761Y-62981238D01*
X134278523Y-63076476D01*
X134183285Y-63124095D01*
%TO.C,L6*%
X124318733Y-113888780D02*
X123842542Y-113888780D01*
X123842542Y-112888780D01*
X125080638Y-112888780D02*
X124890161Y-112888780D01*
X124794923Y-112936400D01*
X124747304Y-112984019D01*
X124652066Y-113126876D01*
X124604447Y-113317352D01*
X124604447Y-113698304D01*
X124652066Y-113793542D01*
X124699685Y-113841161D01*
X124794923Y-113888780D01*
X124985400Y-113888780D01*
X125080638Y-113841161D01*
X125128257Y-113793542D01*
X125175876Y-113698304D01*
X125175876Y-113460209D01*
X125128257Y-113364971D01*
X125080638Y-113317352D01*
X124985400Y-113269733D01*
X124794923Y-113269733D01*
X124699685Y-113317352D01*
X124652066Y-113364971D01*
X124604447Y-113460209D01*
%TO.C,L5*%
X124267933Y-110281980D02*
X123791742Y-110281980D01*
X123791742Y-109281980D01*
X125077457Y-109281980D02*
X124601266Y-109281980D01*
X124553647Y-109758171D01*
X124601266Y-109710552D01*
X124696504Y-109662933D01*
X124934600Y-109662933D01*
X125029838Y-109710552D01*
X125077457Y-109758171D01*
X125125076Y-109853409D01*
X125125076Y-110091504D01*
X125077457Y-110186742D01*
X125029838Y-110234361D01*
X124934600Y-110281980D01*
X124696504Y-110281980D01*
X124601266Y-110234361D01*
X124553647Y-110186742D01*
%TO.C,L4*%
X120848380Y-119978466D02*
X120848380Y-120454657D01*
X119848380Y-120454657D01*
X120181714Y-119216561D02*
X120848380Y-119216561D01*
X119800761Y-119454657D02*
X120515047Y-119692752D01*
X120515047Y-119073704D01*
%TO.C,L3*%
X124455180Y-120080066D02*
X124455180Y-120556257D01*
X123455180Y-120556257D01*
X123455180Y-119841971D02*
X123455180Y-119222923D01*
X123836133Y-119556257D01*
X123836133Y-119413400D01*
X123883752Y-119318161D01*
X123931371Y-119270542D01*
X124026609Y-119222923D01*
X124264704Y-119222923D01*
X124359942Y-119270542D01*
X124407561Y-119318161D01*
X124455180Y-119413400D01*
X124455180Y-119699114D01*
X124407561Y-119794352D01*
X124359942Y-119841971D01*
%TO.C,L2*%
X138704580Y-120105466D02*
X138704580Y-120581657D01*
X137704580Y-120581657D01*
X137799819Y-119819752D02*
X137752200Y-119772133D01*
X137704580Y-119676895D01*
X137704580Y-119438800D01*
X137752200Y-119343561D01*
X137799819Y-119295942D01*
X137895057Y-119248323D01*
X137990295Y-119248323D01*
X138133152Y-119295942D01*
X138704580Y-119867371D01*
X138704580Y-119248323D01*
%TO.C,L1*%
X145765780Y-119953066D02*
X145765780Y-120429257D01*
X144765780Y-120429257D01*
X145765780Y-119095923D02*
X145765780Y-119667352D01*
X145765780Y-119381638D02*
X144765780Y-119381638D01*
X144908638Y-119476876D01*
X145003876Y-119572114D01*
X145051495Y-119667352D01*
%TO.C,J11*%
X135512276Y-50658780D02*
X135512276Y-51373066D01*
X135464657Y-51515923D01*
X135369419Y-51611161D01*
X135226561Y-51658780D01*
X135131323Y-51658780D01*
X136512276Y-51658780D02*
X135940847Y-51658780D01*
X136226561Y-51658780D02*
X136226561Y-50658780D01*
X136131323Y-50801638D01*
X136036085Y-50896876D01*
X135940847Y-50944495D01*
X137464657Y-51658780D02*
X136893228Y-51658780D01*
X137178942Y-51658780D02*
X137178942Y-50658780D01*
X137083704Y-50801638D01*
X136988466Y-50896876D01*
X136893228Y-50944495D01*
%TO.C,J9*%
X135810666Y-128032380D02*
X135810666Y-128746666D01*
X135763047Y-128889523D01*
X135667809Y-128984761D01*
X135524952Y-129032380D01*
X135429714Y-129032380D01*
X136334476Y-129032380D02*
X136524952Y-129032380D01*
X136620190Y-128984761D01*
X136667809Y-128937142D01*
X136763047Y-128794285D01*
X136810666Y-128603809D01*
X136810666Y-128222857D01*
X136763047Y-128127619D01*
X136715428Y-128080000D01*
X136620190Y-128032380D01*
X136429714Y-128032380D01*
X136334476Y-128080000D01*
X136286857Y-128127619D01*
X136239238Y-128222857D01*
X136239238Y-128460952D01*
X136286857Y-128556190D01*
X136334476Y-128603809D01*
X136429714Y-128651428D01*
X136620190Y-128651428D01*
X136715428Y-128603809D01*
X136763047Y-128556190D01*
X136810666Y-128460952D01*
%TO.C,J7*%
X144700666Y-128032380D02*
X144700666Y-128746666D01*
X144653047Y-128889523D01*
X144557809Y-128984761D01*
X144414952Y-129032380D01*
X144319714Y-129032380D01*
X145081619Y-128032380D02*
X145748285Y-128032380D01*
X145319714Y-129032380D01*
%TO.C,J6*%
X126920666Y-128032380D02*
X126920666Y-128746666D01*
X126873047Y-128889523D01*
X126777809Y-128984761D01*
X126634952Y-129032380D01*
X126539714Y-129032380D01*
X127825428Y-128032380D02*
X127634952Y-128032380D01*
X127539714Y-128080000D01*
X127492095Y-128127619D01*
X127396857Y-128270476D01*
X127349238Y-128460952D01*
X127349238Y-128841904D01*
X127396857Y-128937142D01*
X127444476Y-128984761D01*
X127539714Y-129032380D01*
X127730190Y-129032380D01*
X127825428Y-128984761D01*
X127873047Y-128937142D01*
X127920666Y-128841904D01*
X127920666Y-128603809D01*
X127873047Y-128508571D01*
X127825428Y-128460952D01*
X127730190Y-128413333D01*
X127539714Y-128413333D01*
X127444476Y-128460952D01*
X127396857Y-128508571D01*
X127349238Y-128603809D01*
%TO.C,J5*%
X116410466Y-93465780D02*
X116410466Y-94180066D01*
X116362847Y-94322923D01*
X116267609Y-94418161D01*
X116124752Y-94465780D01*
X116029514Y-94465780D01*
X117362847Y-93465780D02*
X116886657Y-93465780D01*
X116839038Y-93941971D01*
X116886657Y-93894352D01*
X116981895Y-93846733D01*
X117219990Y-93846733D01*
X117315228Y-93894352D01*
X117362847Y-93941971D01*
X117410466Y-94037209D01*
X117410466Y-94275304D01*
X117362847Y-94370542D01*
X117315228Y-94418161D01*
X117219990Y-94465780D01*
X116981895Y-94465780D01*
X116886657Y-94418161D01*
X116839038Y-94370542D01*
%TO.C,J4*%
X116330466Y-90835780D02*
X116330466Y-91550066D01*
X116282847Y-91692923D01*
X116187609Y-91788161D01*
X116044752Y-91835780D01*
X115949514Y-91835780D01*
X117235228Y-91169114D02*
X117235228Y-91835780D01*
X116997133Y-90788161D02*
X116759038Y-91502447D01*
X117378085Y-91502447D01*
%TO.C,J3*%
X116300466Y-88245780D02*
X116300466Y-88960066D01*
X116252847Y-89102923D01*
X116157609Y-89198161D01*
X116014752Y-89245780D01*
X115919514Y-89245780D01*
X116681419Y-88245780D02*
X117300466Y-88245780D01*
X116967133Y-88626733D01*
X117109990Y-88626733D01*
X117205228Y-88674352D01*
X117252847Y-88721971D01*
X117300466Y-88817209D01*
X117300466Y-89055304D01*
X117252847Y-89150542D01*
X117205228Y-89198161D01*
X117109990Y-89245780D01*
X116824276Y-89245780D01*
X116729038Y-89198161D01*
X116681419Y-89150542D01*
%TO.C,J2*%
X116360466Y-85655780D02*
X116360466Y-86370066D01*
X116312847Y-86512923D01*
X116217609Y-86608161D01*
X116074752Y-86655780D01*
X115979514Y-86655780D01*
X116789038Y-85751019D02*
X116836657Y-85703400D01*
X116931895Y-85655780D01*
X117169990Y-85655780D01*
X117265228Y-85703400D01*
X117312847Y-85751019D01*
X117360466Y-85846257D01*
X117360466Y-85941495D01*
X117312847Y-86084352D01*
X116741419Y-86655780D01*
X117360466Y-86655780D01*
%TO.C,J1*%
X116380466Y-83055780D02*
X116380466Y-83770066D01*
X116332847Y-83912923D01*
X116237609Y-84008161D01*
X116094752Y-84055780D01*
X115999514Y-84055780D01*
X117380466Y-84055780D02*
X116809038Y-84055780D01*
X117094752Y-84055780D02*
X117094752Y-83055780D01*
X116999514Y-83198638D01*
X116904276Y-83293876D01*
X116809038Y-83341495D01*
%TO.C,D5*%
X122281904Y-58518751D02*
X122281904Y-57518751D01*
X122520000Y-57518751D01*
X122662857Y-57566371D01*
X122758095Y-57661609D01*
X122805714Y-57756847D01*
X122853333Y-57947323D01*
X122853333Y-58090180D01*
X122805714Y-58280656D01*
X122758095Y-58375894D01*
X122662857Y-58471132D01*
X122520000Y-58518751D01*
X122281904Y-58518751D01*
X123758095Y-57518751D02*
X123281904Y-57518751D01*
X123234285Y-57994942D01*
X123281904Y-57947323D01*
X123377142Y-57899704D01*
X123615238Y-57899704D01*
X123710476Y-57947323D01*
X123758095Y-57994942D01*
X123805714Y-58090180D01*
X123805714Y-58328275D01*
X123758095Y-58423513D01*
X123710476Y-58471132D01*
X123615238Y-58518751D01*
X123377142Y-58518751D01*
X123281904Y-58471132D01*
X123234285Y-58423513D01*
X126330104Y-55919666D02*
X126806295Y-55919666D01*
X126234866Y-56205380D02*
X126568200Y-55205380D01*
X126901533Y-56205380D01*
%TO.C,D2*%
X136599704Y-56230780D02*
X136599704Y-55230780D01*
X136837800Y-55230780D01*
X136980657Y-55278400D01*
X137075895Y-55373638D01*
X137123514Y-55468876D01*
X137171133Y-55659352D01*
X137171133Y-55802209D01*
X137123514Y-55992685D01*
X137075895Y-56087923D01*
X136980657Y-56183161D01*
X136837800Y-56230780D01*
X136599704Y-56230780D01*
X137552085Y-55326019D02*
X137599704Y-55278400D01*
X137694942Y-55230780D01*
X137933038Y-55230780D01*
X138028276Y-55278400D01*
X138075895Y-55326019D01*
X138123514Y-55421257D01*
X138123514Y-55516495D01*
X138075895Y-55659352D01*
X137504466Y-56230780D01*
X138123514Y-56230780D01*
%TO.C,D1*%
X132256304Y-56281580D02*
X132256304Y-55281580D01*
X132494400Y-55281580D01*
X132637257Y-55329200D01*
X132732495Y-55424438D01*
X132780114Y-55519676D01*
X132827733Y-55710152D01*
X132827733Y-55853009D01*
X132780114Y-56043485D01*
X132732495Y-56138723D01*
X132637257Y-56233961D01*
X132494400Y-56281580D01*
X132256304Y-56281580D01*
X133780114Y-56281580D02*
X133208685Y-56281580D01*
X133494400Y-56281580D02*
X133494400Y-55281580D01*
X133399161Y-55424438D01*
X133303923Y-55519676D01*
X133208685Y-55567295D01*
%TO.C,C43*%
X135145542Y-95353142D02*
X135097923Y-95400761D01*
X134955066Y-95448380D01*
X134859828Y-95448380D01*
X134716971Y-95400761D01*
X134621733Y-95305523D01*
X134574114Y-95210285D01*
X134526495Y-95019809D01*
X134526495Y-94876952D01*
X134574114Y-94686476D01*
X134621733Y-94591238D01*
X134716971Y-94496000D01*
X134859828Y-94448380D01*
X134955066Y-94448380D01*
X135097923Y-94496000D01*
X135145542Y-94543619D01*
X136002685Y-94781714D02*
X136002685Y-95448380D01*
X135764590Y-94400761D02*
X135526495Y-95115047D01*
X136145542Y-95115047D01*
X136431257Y-94448380D02*
X137050304Y-94448380D01*
X136716971Y-94829333D01*
X136859828Y-94829333D01*
X136955066Y-94876952D01*
X137002685Y-94924571D01*
X137050304Y-95019809D01*
X137050304Y-95257904D01*
X137002685Y-95353142D01*
X136955066Y-95400761D01*
X136859828Y-95448380D01*
X136574114Y-95448380D01*
X136478876Y-95400761D01*
X136431257Y-95353142D01*
%TO.C,C42*%
X141419342Y-95302342D02*
X141371723Y-95349961D01*
X141228866Y-95397580D01*
X141133628Y-95397580D01*
X140990771Y-95349961D01*
X140895533Y-95254723D01*
X140847914Y-95159485D01*
X140800295Y-94969009D01*
X140800295Y-94826152D01*
X140847914Y-94635676D01*
X140895533Y-94540438D01*
X140990771Y-94445200D01*
X141133628Y-94397580D01*
X141228866Y-94397580D01*
X141371723Y-94445200D01*
X141419342Y-94492819D01*
X142276485Y-94730914D02*
X142276485Y-95397580D01*
X142038390Y-94349961D02*
X141800295Y-95064247D01*
X142419342Y-95064247D01*
X142752676Y-94492819D02*
X142800295Y-94445200D01*
X142895533Y-94397580D01*
X143133628Y-94397580D01*
X143228866Y-94445200D01*
X143276485Y-94492819D01*
X143324104Y-94588057D01*
X143324104Y-94683295D01*
X143276485Y-94826152D01*
X142705057Y-95397580D01*
X143324104Y-95397580D01*
%TO.C,C41*%
X118767142Y-80592857D02*
X118814761Y-80640476D01*
X118862380Y-80783333D01*
X118862380Y-80878571D01*
X118814761Y-81021428D01*
X118719523Y-81116666D01*
X118624285Y-81164285D01*
X118433809Y-81211904D01*
X118290952Y-81211904D01*
X118100476Y-81164285D01*
X118005238Y-81116666D01*
X117910000Y-81021428D01*
X117862380Y-80878571D01*
X117862380Y-80783333D01*
X117910000Y-80640476D01*
X117957619Y-80592857D01*
X118195714Y-79735714D02*
X118862380Y-79735714D01*
X117814761Y-79973809D02*
X118529047Y-80211904D01*
X118529047Y-79592857D01*
X118862380Y-78688095D02*
X118862380Y-79259523D01*
X118862380Y-78973809D02*
X117862380Y-78973809D01*
X118005238Y-79069047D01*
X118100476Y-79164285D01*
X118148095Y-79259523D01*
%TO.C,C40*%
X152357142Y-55207142D02*
X152309523Y-55254761D01*
X152166666Y-55302380D01*
X152071428Y-55302380D01*
X151928571Y-55254761D01*
X151833333Y-55159523D01*
X151785714Y-55064285D01*
X151738095Y-54873809D01*
X151738095Y-54730952D01*
X151785714Y-54540476D01*
X151833333Y-54445238D01*
X151928571Y-54350000D01*
X152071428Y-54302380D01*
X152166666Y-54302380D01*
X152309523Y-54350000D01*
X152357142Y-54397619D01*
X153214285Y-54635714D02*
X153214285Y-55302380D01*
X152976190Y-54254761D02*
X152738095Y-54969047D01*
X153357142Y-54969047D01*
X153928571Y-54302380D02*
X154023809Y-54302380D01*
X154119047Y-54350000D01*
X154166666Y-54397619D01*
X154214285Y-54492857D01*
X154261904Y-54683333D01*
X154261904Y-54921428D01*
X154214285Y-55111904D01*
X154166666Y-55207142D01*
X154119047Y-55254761D01*
X154023809Y-55302380D01*
X153928571Y-55302380D01*
X153833333Y-55254761D01*
X153785714Y-55207142D01*
X153738095Y-55111904D01*
X153690476Y-54921428D01*
X153690476Y-54683333D01*
X153738095Y-54492857D01*
X153785714Y-54397619D01*
X153833333Y-54350000D01*
X153928571Y-54302380D01*
%TO.C,C39*%
X142957142Y-72635742D02*
X142909523Y-72683361D01*
X142766666Y-72730980D01*
X142671428Y-72730980D01*
X142528571Y-72683361D01*
X142433333Y-72588123D01*
X142385714Y-72492885D01*
X142338095Y-72302409D01*
X142338095Y-72159552D01*
X142385714Y-71969076D01*
X142433333Y-71873838D01*
X142528571Y-71778600D01*
X142671428Y-71730980D01*
X142766666Y-71730980D01*
X142909523Y-71778600D01*
X142957142Y-71826219D01*
X143290476Y-71730980D02*
X143909523Y-71730980D01*
X143576190Y-72111933D01*
X143719047Y-72111933D01*
X143814285Y-72159552D01*
X143861904Y-72207171D01*
X143909523Y-72302409D01*
X143909523Y-72540504D01*
X143861904Y-72635742D01*
X143814285Y-72683361D01*
X143719047Y-72730980D01*
X143433333Y-72730980D01*
X143338095Y-72683361D01*
X143290476Y-72635742D01*
X144385714Y-72730980D02*
X144576190Y-72730980D01*
X144671428Y-72683361D01*
X144719047Y-72635742D01*
X144814285Y-72492885D01*
X144861904Y-72302409D01*
X144861904Y-71921457D01*
X144814285Y-71826219D01*
X144766666Y-71778600D01*
X144671428Y-71730980D01*
X144480952Y-71730980D01*
X144385714Y-71778600D01*
X144338095Y-71826219D01*
X144290476Y-71921457D01*
X144290476Y-72159552D01*
X144338095Y-72254790D01*
X144385714Y-72302409D01*
X144480952Y-72350028D01*
X144671428Y-72350028D01*
X144766666Y-72302409D01*
X144814285Y-72254790D01*
X144861904Y-72159552D01*
%TO.C,C38*%
X152357142Y-58807142D02*
X152309523Y-58854761D01*
X152166666Y-58902380D01*
X152071428Y-58902380D01*
X151928571Y-58854761D01*
X151833333Y-58759523D01*
X151785714Y-58664285D01*
X151738095Y-58473809D01*
X151738095Y-58330952D01*
X151785714Y-58140476D01*
X151833333Y-58045238D01*
X151928571Y-57950000D01*
X152071428Y-57902380D01*
X152166666Y-57902380D01*
X152309523Y-57950000D01*
X152357142Y-57997619D01*
X152690476Y-57902380D02*
X153309523Y-57902380D01*
X152976190Y-58283333D01*
X153119047Y-58283333D01*
X153214285Y-58330952D01*
X153261904Y-58378571D01*
X153309523Y-58473809D01*
X153309523Y-58711904D01*
X153261904Y-58807142D01*
X153214285Y-58854761D01*
X153119047Y-58902380D01*
X152833333Y-58902380D01*
X152738095Y-58854761D01*
X152690476Y-58807142D01*
X153880952Y-58330952D02*
X153785714Y-58283333D01*
X153738095Y-58235714D01*
X153690476Y-58140476D01*
X153690476Y-58092857D01*
X153738095Y-57997619D01*
X153785714Y-57950000D01*
X153880952Y-57902380D01*
X154071428Y-57902380D01*
X154166666Y-57950000D01*
X154214285Y-57997619D01*
X154261904Y-58092857D01*
X154261904Y-58140476D01*
X154214285Y-58235714D01*
X154166666Y-58283333D01*
X154071428Y-58330952D01*
X153880952Y-58330952D01*
X153785714Y-58378571D01*
X153738095Y-58426190D01*
X153690476Y-58521428D01*
X153690476Y-58711904D01*
X153738095Y-58807142D01*
X153785714Y-58854761D01*
X153880952Y-58902380D01*
X154071428Y-58902380D01*
X154166666Y-58854761D01*
X154214285Y-58807142D01*
X154261904Y-58711904D01*
X154261904Y-58521428D01*
X154214285Y-58426190D01*
X154166666Y-58378571D01*
X154071428Y-58330952D01*
%TO.C,C37*%
X137597142Y-65462857D02*
X137644761Y-65510476D01*
X137692380Y-65653333D01*
X137692380Y-65748571D01*
X137644761Y-65891428D01*
X137549523Y-65986666D01*
X137454285Y-66034285D01*
X137263809Y-66081904D01*
X137120952Y-66081904D01*
X136930476Y-66034285D01*
X136835238Y-65986666D01*
X136740000Y-65891428D01*
X136692380Y-65748571D01*
X136692380Y-65653333D01*
X136740000Y-65510476D01*
X136787619Y-65462857D01*
X136692380Y-65129523D02*
X136692380Y-64510476D01*
X137073333Y-64843809D01*
X137073333Y-64700952D01*
X137120952Y-64605714D01*
X137168571Y-64558095D01*
X137263809Y-64510476D01*
X137501904Y-64510476D01*
X137597142Y-64558095D01*
X137644761Y-64605714D01*
X137692380Y-64700952D01*
X137692380Y-64986666D01*
X137644761Y-65081904D01*
X137597142Y-65129523D01*
X136692380Y-64177142D02*
X136692380Y-63510476D01*
X137692380Y-63939047D01*
%TO.C,C36*%
X149156142Y-72433142D02*
X149108523Y-72480761D01*
X148965666Y-72528380D01*
X148870428Y-72528380D01*
X148727571Y-72480761D01*
X148632333Y-72385523D01*
X148584714Y-72290285D01*
X148537095Y-72099809D01*
X148537095Y-71956952D01*
X148584714Y-71766476D01*
X148632333Y-71671238D01*
X148727571Y-71576000D01*
X148870428Y-71528380D01*
X148965666Y-71528380D01*
X149108523Y-71576000D01*
X149156142Y-71623619D01*
X149489476Y-71528380D02*
X150108523Y-71528380D01*
X149775190Y-71909333D01*
X149918047Y-71909333D01*
X150013285Y-71956952D01*
X150060904Y-72004571D01*
X150108523Y-72099809D01*
X150108523Y-72337904D01*
X150060904Y-72433142D01*
X150013285Y-72480761D01*
X149918047Y-72528380D01*
X149632333Y-72528380D01*
X149537095Y-72480761D01*
X149489476Y-72433142D01*
X150965666Y-71528380D02*
X150775190Y-71528380D01*
X150679952Y-71576000D01*
X150632333Y-71623619D01*
X150537095Y-71766476D01*
X150489476Y-71956952D01*
X150489476Y-72337904D01*
X150537095Y-72433142D01*
X150584714Y-72480761D01*
X150679952Y-72528380D01*
X150870428Y-72528380D01*
X150965666Y-72480761D01*
X151013285Y-72433142D01*
X151060904Y-72337904D01*
X151060904Y-72099809D01*
X151013285Y-72004571D01*
X150965666Y-71956952D01*
X150870428Y-71909333D01*
X150679952Y-71909333D01*
X150584714Y-71956952D01*
X150537095Y-72004571D01*
X150489476Y-72099809D01*
%TO.C,C35*%
X143106142Y-61593142D02*
X143058523Y-61640761D01*
X142915666Y-61688380D01*
X142820428Y-61688380D01*
X142677571Y-61640761D01*
X142582333Y-61545523D01*
X142534714Y-61450285D01*
X142487095Y-61259809D01*
X142487095Y-61116952D01*
X142534714Y-60926476D01*
X142582333Y-60831238D01*
X142677571Y-60736000D01*
X142820428Y-60688380D01*
X142915666Y-60688380D01*
X143058523Y-60736000D01*
X143106142Y-60783619D01*
X143439476Y-60688380D02*
X144058523Y-60688380D01*
X143725190Y-61069333D01*
X143868047Y-61069333D01*
X143963285Y-61116952D01*
X144010904Y-61164571D01*
X144058523Y-61259809D01*
X144058523Y-61497904D01*
X144010904Y-61593142D01*
X143963285Y-61640761D01*
X143868047Y-61688380D01*
X143582333Y-61688380D01*
X143487095Y-61640761D01*
X143439476Y-61593142D01*
X144963285Y-60688380D02*
X144487095Y-60688380D01*
X144439476Y-61164571D01*
X144487095Y-61116952D01*
X144582333Y-61069333D01*
X144820428Y-61069333D01*
X144915666Y-61116952D01*
X144963285Y-61164571D01*
X145010904Y-61259809D01*
X145010904Y-61497904D01*
X144963285Y-61593142D01*
X144915666Y-61640761D01*
X144820428Y-61688380D01*
X144582333Y-61688380D01*
X144487095Y-61640761D01*
X144439476Y-61593142D01*
%TO.C,C34*%
X131497342Y-114384057D02*
X131544961Y-114431676D01*
X131592580Y-114574533D01*
X131592580Y-114669771D01*
X131544961Y-114812628D01*
X131449723Y-114907866D01*
X131354485Y-114955485D01*
X131164009Y-115003104D01*
X131021152Y-115003104D01*
X130830676Y-114955485D01*
X130735438Y-114907866D01*
X130640200Y-114812628D01*
X130592580Y-114669771D01*
X130592580Y-114574533D01*
X130640200Y-114431676D01*
X130687819Y-114384057D01*
X130592580Y-114050723D02*
X130592580Y-113431676D01*
X130973533Y-113765009D01*
X130973533Y-113622152D01*
X131021152Y-113526914D01*
X131068771Y-113479295D01*
X131164009Y-113431676D01*
X131402104Y-113431676D01*
X131497342Y-113479295D01*
X131544961Y-113526914D01*
X131592580Y-113622152D01*
X131592580Y-113907866D01*
X131544961Y-114003104D01*
X131497342Y-114050723D01*
X130925914Y-112574533D02*
X131592580Y-112574533D01*
X130544961Y-112812628D02*
X131259247Y-113050723D01*
X131259247Y-112431676D01*
%TO.C,C33*%
X131548142Y-120607057D02*
X131595761Y-120654676D01*
X131643380Y-120797533D01*
X131643380Y-120892771D01*
X131595761Y-121035628D01*
X131500523Y-121130866D01*
X131405285Y-121178485D01*
X131214809Y-121226104D01*
X131071952Y-121226104D01*
X130881476Y-121178485D01*
X130786238Y-121130866D01*
X130691000Y-121035628D01*
X130643380Y-120892771D01*
X130643380Y-120797533D01*
X130691000Y-120654676D01*
X130738619Y-120607057D01*
X130643380Y-120273723D02*
X130643380Y-119654676D01*
X131024333Y-119988009D01*
X131024333Y-119845152D01*
X131071952Y-119749914D01*
X131119571Y-119702295D01*
X131214809Y-119654676D01*
X131452904Y-119654676D01*
X131548142Y-119702295D01*
X131595761Y-119749914D01*
X131643380Y-119845152D01*
X131643380Y-120130866D01*
X131595761Y-120226104D01*
X131548142Y-120273723D01*
X130643380Y-119321342D02*
X130643380Y-118702295D01*
X131024333Y-119035628D01*
X131024333Y-118892771D01*
X131071952Y-118797533D01*
X131119571Y-118749914D01*
X131214809Y-118702295D01*
X131452904Y-118702295D01*
X131548142Y-118749914D01*
X131595761Y-118797533D01*
X131643380Y-118892771D01*
X131643380Y-119178485D01*
X131595761Y-119273723D01*
X131548142Y-119321342D01*
%TO.C,C32*%
X135180342Y-120530857D02*
X135227961Y-120578476D01*
X135275580Y-120721333D01*
X135275580Y-120816571D01*
X135227961Y-120959428D01*
X135132723Y-121054666D01*
X135037485Y-121102285D01*
X134847009Y-121149904D01*
X134704152Y-121149904D01*
X134513676Y-121102285D01*
X134418438Y-121054666D01*
X134323200Y-120959428D01*
X134275580Y-120816571D01*
X134275580Y-120721333D01*
X134323200Y-120578476D01*
X134370819Y-120530857D01*
X134275580Y-120197523D02*
X134275580Y-119578476D01*
X134656533Y-119911809D01*
X134656533Y-119768952D01*
X134704152Y-119673714D01*
X134751771Y-119626095D01*
X134847009Y-119578476D01*
X135085104Y-119578476D01*
X135180342Y-119626095D01*
X135227961Y-119673714D01*
X135275580Y-119768952D01*
X135275580Y-120054666D01*
X135227961Y-120149904D01*
X135180342Y-120197523D01*
X134370819Y-119197523D02*
X134323200Y-119149904D01*
X134275580Y-119054666D01*
X134275580Y-118816571D01*
X134323200Y-118721333D01*
X134370819Y-118673714D01*
X134466057Y-118626095D01*
X134561295Y-118626095D01*
X134704152Y-118673714D01*
X135275580Y-119245142D01*
X135275580Y-118626095D01*
%TO.C,C31*%
X127966742Y-120657857D02*
X128014361Y-120705476D01*
X128061980Y-120848333D01*
X128061980Y-120943571D01*
X128014361Y-121086428D01*
X127919123Y-121181666D01*
X127823885Y-121229285D01*
X127633409Y-121276904D01*
X127490552Y-121276904D01*
X127300076Y-121229285D01*
X127204838Y-121181666D01*
X127109600Y-121086428D01*
X127061980Y-120943571D01*
X127061980Y-120848333D01*
X127109600Y-120705476D01*
X127157219Y-120657857D01*
X127061980Y-120324523D02*
X127061980Y-119705476D01*
X127442933Y-120038809D01*
X127442933Y-119895952D01*
X127490552Y-119800714D01*
X127538171Y-119753095D01*
X127633409Y-119705476D01*
X127871504Y-119705476D01*
X127966742Y-119753095D01*
X128014361Y-119800714D01*
X128061980Y-119895952D01*
X128061980Y-120181666D01*
X128014361Y-120276904D01*
X127966742Y-120324523D01*
X128061980Y-118753095D02*
X128061980Y-119324523D01*
X128061980Y-119038809D02*
X127061980Y-119038809D01*
X127204838Y-119134047D01*
X127300076Y-119229285D01*
X127347695Y-119324523D01*
%TO.C,C30*%
X142216142Y-120861057D02*
X142263761Y-120908676D01*
X142311380Y-121051533D01*
X142311380Y-121146771D01*
X142263761Y-121289628D01*
X142168523Y-121384866D01*
X142073285Y-121432485D01*
X141882809Y-121480104D01*
X141739952Y-121480104D01*
X141549476Y-121432485D01*
X141454238Y-121384866D01*
X141359000Y-121289628D01*
X141311380Y-121146771D01*
X141311380Y-121051533D01*
X141359000Y-120908676D01*
X141406619Y-120861057D01*
X141311380Y-120527723D02*
X141311380Y-119908676D01*
X141692333Y-120242009D01*
X141692333Y-120099152D01*
X141739952Y-120003914D01*
X141787571Y-119956295D01*
X141882809Y-119908676D01*
X142120904Y-119908676D01*
X142216142Y-119956295D01*
X142263761Y-120003914D01*
X142311380Y-120099152D01*
X142311380Y-120384866D01*
X142263761Y-120480104D01*
X142216142Y-120527723D01*
X141311380Y-119289628D02*
X141311380Y-119194390D01*
X141359000Y-119099152D01*
X141406619Y-119051533D01*
X141501857Y-119003914D01*
X141692333Y-118956295D01*
X141930428Y-118956295D01*
X142120904Y-119003914D01*
X142216142Y-119051533D01*
X142263761Y-119099152D01*
X142311380Y-119194390D01*
X142311380Y-119289628D01*
X142263761Y-119384866D01*
X142216142Y-119432485D01*
X142120904Y-119480104D01*
X141930428Y-119527723D01*
X141692333Y-119527723D01*
X141501857Y-119480104D01*
X141406619Y-119432485D01*
X141359000Y-119384866D01*
X141311380Y-119289628D01*
%TO.C,C29*%
X131307142Y-126442857D02*
X131354761Y-126490476D01*
X131402380Y-126633333D01*
X131402380Y-126728571D01*
X131354761Y-126871428D01*
X131259523Y-126966666D01*
X131164285Y-127014285D01*
X130973809Y-127061904D01*
X130830952Y-127061904D01*
X130640476Y-127014285D01*
X130545238Y-126966666D01*
X130450000Y-126871428D01*
X130402380Y-126728571D01*
X130402380Y-126633333D01*
X130450000Y-126490476D01*
X130497619Y-126442857D01*
X130497619Y-126061904D02*
X130450000Y-126014285D01*
X130402380Y-125919047D01*
X130402380Y-125680952D01*
X130450000Y-125585714D01*
X130497619Y-125538095D01*
X130592857Y-125490476D01*
X130688095Y-125490476D01*
X130830952Y-125538095D01*
X131402380Y-126109523D01*
X131402380Y-125490476D01*
X131402380Y-125014285D02*
X131402380Y-124823809D01*
X131354761Y-124728571D01*
X131307142Y-124680952D01*
X131164285Y-124585714D01*
X130973809Y-124538095D01*
X130592857Y-124538095D01*
X130497619Y-124585714D01*
X130450000Y-124633333D01*
X130402380Y-124728571D01*
X130402380Y-124919047D01*
X130450000Y-125014285D01*
X130497619Y-125061904D01*
X130592857Y-125109523D01*
X130830952Y-125109523D01*
X130926190Y-125061904D01*
X130973809Y-125014285D01*
X131021428Y-124919047D01*
X131021428Y-124728571D01*
X130973809Y-124633333D01*
X130926190Y-124585714D01*
X130830952Y-124538095D01*
%TO.C,C28*%
X127707142Y-126480357D02*
X127754761Y-126527976D01*
X127802380Y-126670833D01*
X127802380Y-126766071D01*
X127754761Y-126908928D01*
X127659523Y-127004166D01*
X127564285Y-127051785D01*
X127373809Y-127099404D01*
X127230952Y-127099404D01*
X127040476Y-127051785D01*
X126945238Y-127004166D01*
X126850000Y-126908928D01*
X126802380Y-126766071D01*
X126802380Y-126670833D01*
X126850000Y-126527976D01*
X126897619Y-126480357D01*
X126897619Y-126099404D02*
X126850000Y-126051785D01*
X126802380Y-125956547D01*
X126802380Y-125718452D01*
X126850000Y-125623214D01*
X126897619Y-125575595D01*
X126992857Y-125527976D01*
X127088095Y-125527976D01*
X127230952Y-125575595D01*
X127802380Y-126147023D01*
X127802380Y-125527976D01*
X127230952Y-124956547D02*
X127183333Y-125051785D01*
X127135714Y-125099404D01*
X127040476Y-125147023D01*
X126992857Y-125147023D01*
X126897619Y-125099404D01*
X126850000Y-125051785D01*
X126802380Y-124956547D01*
X126802380Y-124766071D01*
X126850000Y-124670833D01*
X126897619Y-124623214D01*
X126992857Y-124575595D01*
X127040476Y-124575595D01*
X127135714Y-124623214D01*
X127183333Y-124670833D01*
X127230952Y-124766071D01*
X127230952Y-124956547D01*
X127278571Y-125051785D01*
X127326190Y-125099404D01*
X127421428Y-125147023D01*
X127611904Y-125147023D01*
X127707142Y-125099404D01*
X127754761Y-125051785D01*
X127802380Y-124956547D01*
X127802380Y-124766071D01*
X127754761Y-124670833D01*
X127707142Y-124623214D01*
X127611904Y-124575595D01*
X127421428Y-124575595D01*
X127326190Y-124623214D01*
X127278571Y-124670833D01*
X127230952Y-124766071D01*
%TO.C,C27*%
X124207142Y-126442857D02*
X124254761Y-126490476D01*
X124302380Y-126633333D01*
X124302380Y-126728571D01*
X124254761Y-126871428D01*
X124159523Y-126966666D01*
X124064285Y-127014285D01*
X123873809Y-127061904D01*
X123730952Y-127061904D01*
X123540476Y-127014285D01*
X123445238Y-126966666D01*
X123350000Y-126871428D01*
X123302380Y-126728571D01*
X123302380Y-126633333D01*
X123350000Y-126490476D01*
X123397619Y-126442857D01*
X123397619Y-126061904D02*
X123350000Y-126014285D01*
X123302380Y-125919047D01*
X123302380Y-125680952D01*
X123350000Y-125585714D01*
X123397619Y-125538095D01*
X123492857Y-125490476D01*
X123588095Y-125490476D01*
X123730952Y-125538095D01*
X124302380Y-126109523D01*
X124302380Y-125490476D01*
X123302380Y-125157142D02*
X123302380Y-124490476D01*
X124302380Y-124919047D01*
%TO.C,C26*%
X134265942Y-97391457D02*
X134313561Y-97439076D01*
X134361180Y-97581933D01*
X134361180Y-97677171D01*
X134313561Y-97820028D01*
X134218323Y-97915266D01*
X134123085Y-97962885D01*
X133932609Y-98010504D01*
X133789752Y-98010504D01*
X133599276Y-97962885D01*
X133504038Y-97915266D01*
X133408800Y-97820028D01*
X133361180Y-97677171D01*
X133361180Y-97581933D01*
X133408800Y-97439076D01*
X133456419Y-97391457D01*
X133456419Y-97010504D02*
X133408800Y-96962885D01*
X133361180Y-96867647D01*
X133361180Y-96629552D01*
X133408800Y-96534314D01*
X133456419Y-96486695D01*
X133551657Y-96439076D01*
X133646895Y-96439076D01*
X133789752Y-96486695D01*
X134361180Y-97058123D01*
X134361180Y-96439076D01*
X133361180Y-95581933D02*
X133361180Y-95772409D01*
X133408800Y-95867647D01*
X133456419Y-95915266D01*
X133599276Y-96010504D01*
X133789752Y-96058123D01*
X134170704Y-96058123D01*
X134265942Y-96010504D01*
X134313561Y-95962885D01*
X134361180Y-95867647D01*
X134361180Y-95677171D01*
X134313561Y-95581933D01*
X134265942Y-95534314D01*
X134170704Y-95486695D01*
X133932609Y-95486695D01*
X133837371Y-95534314D01*
X133789752Y-95581933D01*
X133742133Y-95677171D01*
X133742133Y-95867647D01*
X133789752Y-95962885D01*
X133837371Y-96010504D01*
X133932609Y-96058123D01*
%TO.C,C25*%
X149115542Y-79122542D02*
X149067923Y-79170161D01*
X148925066Y-79217780D01*
X148829828Y-79217780D01*
X148686971Y-79170161D01*
X148591733Y-79074923D01*
X148544114Y-78979685D01*
X148496495Y-78789209D01*
X148496495Y-78646352D01*
X148544114Y-78455876D01*
X148591733Y-78360638D01*
X148686971Y-78265400D01*
X148829828Y-78217780D01*
X148925066Y-78217780D01*
X149067923Y-78265400D01*
X149115542Y-78313019D01*
X149496495Y-78313019D02*
X149544114Y-78265400D01*
X149639352Y-78217780D01*
X149877447Y-78217780D01*
X149972685Y-78265400D01*
X150020304Y-78313019D01*
X150067923Y-78408257D01*
X150067923Y-78503495D01*
X150020304Y-78646352D01*
X149448876Y-79217780D01*
X150067923Y-79217780D01*
X150972685Y-78217780D02*
X150496495Y-78217780D01*
X150448876Y-78693971D01*
X150496495Y-78646352D01*
X150591733Y-78598733D01*
X150829828Y-78598733D01*
X150925066Y-78646352D01*
X150972685Y-78693971D01*
X151020304Y-78789209D01*
X151020304Y-79027304D01*
X150972685Y-79122542D01*
X150925066Y-79170161D01*
X150829828Y-79217780D01*
X150591733Y-79217780D01*
X150496495Y-79170161D01*
X150448876Y-79122542D01*
%TO.C,C24*%
X120497902Y-105965577D02*
X120545521Y-106013196D01*
X120593140Y-106156053D01*
X120593140Y-106251291D01*
X120545521Y-106394148D01*
X120450283Y-106489386D01*
X120355045Y-106537005D01*
X120164569Y-106584624D01*
X120021712Y-106584624D01*
X119831236Y-106537005D01*
X119735998Y-106489386D01*
X119640760Y-106394148D01*
X119593140Y-106251291D01*
X119593140Y-106156053D01*
X119640760Y-106013196D01*
X119688379Y-105965577D01*
X119688379Y-105584624D02*
X119640760Y-105537005D01*
X119593140Y-105441767D01*
X119593140Y-105203672D01*
X119640760Y-105108434D01*
X119688379Y-105060815D01*
X119783617Y-105013196D01*
X119878855Y-105013196D01*
X120021712Y-105060815D01*
X120593140Y-105632243D01*
X120593140Y-105013196D01*
X119926474Y-104156053D02*
X120593140Y-104156053D01*
X119545521Y-104394148D02*
X120259807Y-104632243D01*
X120259807Y-104013196D01*
%TO.C,C23*%
X138295142Y-95353142D02*
X138247523Y-95400761D01*
X138104666Y-95448380D01*
X138009428Y-95448380D01*
X137866571Y-95400761D01*
X137771333Y-95305523D01*
X137723714Y-95210285D01*
X137676095Y-95019809D01*
X137676095Y-94876952D01*
X137723714Y-94686476D01*
X137771333Y-94591238D01*
X137866571Y-94496000D01*
X138009428Y-94448380D01*
X138104666Y-94448380D01*
X138247523Y-94496000D01*
X138295142Y-94543619D01*
X138676095Y-94543619D02*
X138723714Y-94496000D01*
X138818952Y-94448380D01*
X139057047Y-94448380D01*
X139152285Y-94496000D01*
X139199904Y-94543619D01*
X139247523Y-94638857D01*
X139247523Y-94734095D01*
X139199904Y-94876952D01*
X138628476Y-95448380D01*
X139247523Y-95448380D01*
X139580857Y-94448380D02*
X140199904Y-94448380D01*
X139866571Y-94829333D01*
X140009428Y-94829333D01*
X140104666Y-94876952D01*
X140152285Y-94924571D01*
X140199904Y-95019809D01*
X140199904Y-95257904D01*
X140152285Y-95353142D01*
X140104666Y-95400761D01*
X140009428Y-95448380D01*
X139723714Y-95448380D01*
X139628476Y-95400761D01*
X139580857Y-95353142D01*
%TO.C,C22*%
X134316742Y-94241857D02*
X134364361Y-94289476D01*
X134411980Y-94432333D01*
X134411980Y-94527571D01*
X134364361Y-94670428D01*
X134269123Y-94765666D01*
X134173885Y-94813285D01*
X133983409Y-94860904D01*
X133840552Y-94860904D01*
X133650076Y-94813285D01*
X133554838Y-94765666D01*
X133459600Y-94670428D01*
X133411980Y-94527571D01*
X133411980Y-94432333D01*
X133459600Y-94289476D01*
X133507219Y-94241857D01*
X133507219Y-93860904D02*
X133459600Y-93813285D01*
X133411980Y-93718047D01*
X133411980Y-93479952D01*
X133459600Y-93384714D01*
X133507219Y-93337095D01*
X133602457Y-93289476D01*
X133697695Y-93289476D01*
X133840552Y-93337095D01*
X134411980Y-93908523D01*
X134411980Y-93289476D01*
X133507219Y-92908523D02*
X133459600Y-92860904D01*
X133411980Y-92765666D01*
X133411980Y-92527571D01*
X133459600Y-92432333D01*
X133507219Y-92384714D01*
X133602457Y-92337095D01*
X133697695Y-92337095D01*
X133840552Y-92384714D01*
X134411980Y-92956142D01*
X134411980Y-92337095D01*
%TO.C,C21*%
X142943342Y-86488542D02*
X142895723Y-86536161D01*
X142752866Y-86583780D01*
X142657628Y-86583780D01*
X142514771Y-86536161D01*
X142419533Y-86440923D01*
X142371914Y-86345685D01*
X142324295Y-86155209D01*
X142324295Y-86012352D01*
X142371914Y-85821876D01*
X142419533Y-85726638D01*
X142514771Y-85631400D01*
X142657628Y-85583780D01*
X142752866Y-85583780D01*
X142895723Y-85631400D01*
X142943342Y-85679019D01*
X143324295Y-85679019D02*
X143371914Y-85631400D01*
X143467152Y-85583780D01*
X143705247Y-85583780D01*
X143800485Y-85631400D01*
X143848104Y-85679019D01*
X143895723Y-85774257D01*
X143895723Y-85869495D01*
X143848104Y-86012352D01*
X143276676Y-86583780D01*
X143895723Y-86583780D01*
X144848104Y-86583780D02*
X144276676Y-86583780D01*
X144562390Y-86583780D02*
X144562390Y-85583780D01*
X144467152Y-85726638D01*
X144371914Y-85821876D01*
X144276676Y-85869495D01*
%TO.C,C20*%
X149140942Y-82780142D02*
X149093323Y-82827761D01*
X148950466Y-82875380D01*
X148855228Y-82875380D01*
X148712371Y-82827761D01*
X148617133Y-82732523D01*
X148569514Y-82637285D01*
X148521895Y-82446809D01*
X148521895Y-82303952D01*
X148569514Y-82113476D01*
X148617133Y-82018238D01*
X148712371Y-81923000D01*
X148855228Y-81875380D01*
X148950466Y-81875380D01*
X149093323Y-81923000D01*
X149140942Y-81970619D01*
X149521895Y-81970619D02*
X149569514Y-81923000D01*
X149664752Y-81875380D01*
X149902847Y-81875380D01*
X149998085Y-81923000D01*
X150045704Y-81970619D01*
X150093323Y-82065857D01*
X150093323Y-82161095D01*
X150045704Y-82303952D01*
X149474276Y-82875380D01*
X150093323Y-82875380D01*
X150712371Y-81875380D02*
X150807609Y-81875380D01*
X150902847Y-81923000D01*
X150950466Y-81970619D01*
X150998085Y-82065857D01*
X151045704Y-82256333D01*
X151045704Y-82494428D01*
X150998085Y-82684904D01*
X150950466Y-82780142D01*
X150902847Y-82827761D01*
X150807609Y-82875380D01*
X150712371Y-82875380D01*
X150617133Y-82827761D01*
X150569514Y-82780142D01*
X150521895Y-82684904D01*
X150474276Y-82494428D01*
X150474276Y-82256333D01*
X150521895Y-82065857D01*
X150569514Y-81970619D01*
X150617133Y-81923000D01*
X150712371Y-81875380D01*
%TO.C,C19*%
X146423142Y-104065342D02*
X146375523Y-104112961D01*
X146232666Y-104160580D01*
X146137428Y-104160580D01*
X145994571Y-104112961D01*
X145899333Y-104017723D01*
X145851714Y-103922485D01*
X145804095Y-103732009D01*
X145804095Y-103589152D01*
X145851714Y-103398676D01*
X145899333Y-103303438D01*
X145994571Y-103208200D01*
X146137428Y-103160580D01*
X146232666Y-103160580D01*
X146375523Y-103208200D01*
X146423142Y-103255819D01*
X147375523Y-104160580D02*
X146804095Y-104160580D01*
X147089809Y-104160580D02*
X147089809Y-103160580D01*
X146994571Y-103303438D01*
X146899333Y-103398676D01*
X146804095Y-103446295D01*
X147851714Y-104160580D02*
X148042190Y-104160580D01*
X148137428Y-104112961D01*
X148185047Y-104065342D01*
X148280285Y-103922485D01*
X148327904Y-103732009D01*
X148327904Y-103351057D01*
X148280285Y-103255819D01*
X148232666Y-103208200D01*
X148137428Y-103160580D01*
X147946952Y-103160580D01*
X147851714Y-103208200D01*
X147804095Y-103255819D01*
X147756476Y-103351057D01*
X147756476Y-103589152D01*
X147804095Y-103684390D01*
X147851714Y-103732009D01*
X147946952Y-103779628D01*
X148137428Y-103779628D01*
X148232666Y-103732009D01*
X148280285Y-103684390D01*
X148327904Y-103589152D01*
%TO.C,C18*%
X149115542Y-75871342D02*
X149067923Y-75918961D01*
X148925066Y-75966580D01*
X148829828Y-75966580D01*
X148686971Y-75918961D01*
X148591733Y-75823723D01*
X148544114Y-75728485D01*
X148496495Y-75538009D01*
X148496495Y-75395152D01*
X148544114Y-75204676D01*
X148591733Y-75109438D01*
X148686971Y-75014200D01*
X148829828Y-74966580D01*
X148925066Y-74966580D01*
X149067923Y-75014200D01*
X149115542Y-75061819D01*
X150067923Y-75966580D02*
X149496495Y-75966580D01*
X149782209Y-75966580D02*
X149782209Y-74966580D01*
X149686971Y-75109438D01*
X149591733Y-75204676D01*
X149496495Y-75252295D01*
X150639352Y-75395152D02*
X150544114Y-75347533D01*
X150496495Y-75299914D01*
X150448876Y-75204676D01*
X150448876Y-75157057D01*
X150496495Y-75061819D01*
X150544114Y-75014200D01*
X150639352Y-74966580D01*
X150829828Y-74966580D01*
X150925066Y-75014200D01*
X150972685Y-75061819D01*
X151020304Y-75157057D01*
X151020304Y-75204676D01*
X150972685Y-75299914D01*
X150925066Y-75347533D01*
X150829828Y-75395152D01*
X150639352Y-75395152D01*
X150544114Y-75442771D01*
X150496495Y-75490390D01*
X150448876Y-75585628D01*
X150448876Y-75776104D01*
X150496495Y-75871342D01*
X150544114Y-75918961D01*
X150639352Y-75966580D01*
X150829828Y-75966580D01*
X150925066Y-75918961D01*
X150972685Y-75871342D01*
X151020304Y-75776104D01*
X151020304Y-75585628D01*
X150972685Y-75490390D01*
X150925066Y-75442771D01*
X150829828Y-75395152D01*
%TO.C,C17*%
X127915942Y-114434857D02*
X127963561Y-114482476D01*
X128011180Y-114625333D01*
X128011180Y-114720571D01*
X127963561Y-114863428D01*
X127868323Y-114958666D01*
X127773085Y-115006285D01*
X127582609Y-115053904D01*
X127439752Y-115053904D01*
X127249276Y-115006285D01*
X127154038Y-114958666D01*
X127058800Y-114863428D01*
X127011180Y-114720571D01*
X127011180Y-114625333D01*
X127058800Y-114482476D01*
X127106419Y-114434857D01*
X128011180Y-113482476D02*
X128011180Y-114053904D01*
X128011180Y-113768190D02*
X127011180Y-113768190D01*
X127154038Y-113863428D01*
X127249276Y-113958666D01*
X127296895Y-114053904D01*
X127011180Y-113149142D02*
X127011180Y-112482476D01*
X128011180Y-112911047D01*
%TO.C,C16*%
X134900942Y-114460257D02*
X134948561Y-114507876D01*
X134996180Y-114650733D01*
X134996180Y-114745971D01*
X134948561Y-114888828D01*
X134853323Y-114984066D01*
X134758085Y-115031685D01*
X134567609Y-115079304D01*
X134424752Y-115079304D01*
X134234276Y-115031685D01*
X134139038Y-114984066D01*
X134043800Y-114888828D01*
X133996180Y-114745971D01*
X133996180Y-114650733D01*
X134043800Y-114507876D01*
X134091419Y-114460257D01*
X134996180Y-113507876D02*
X134996180Y-114079304D01*
X134996180Y-113793590D02*
X133996180Y-113793590D01*
X134139038Y-113888828D01*
X134234276Y-113984066D01*
X134281895Y-114079304D01*
X133996180Y-112650733D02*
X133996180Y-112841209D01*
X134043800Y-112936447D01*
X134091419Y-112984066D01*
X134234276Y-113079304D01*
X134424752Y-113126923D01*
X134805704Y-113126923D01*
X134900942Y-113079304D01*
X134948561Y-113031685D01*
X134996180Y-112936447D01*
X134996180Y-112745971D01*
X134948561Y-112650733D01*
X134900942Y-112603114D01*
X134805704Y-112555495D01*
X134567609Y-112555495D01*
X134472371Y-112603114D01*
X134424752Y-112650733D01*
X134377133Y-112745971D01*
X134377133Y-112936447D01*
X134424752Y-113031685D01*
X134472371Y-113079304D01*
X134567609Y-113126923D01*
%TO.C,C15*%
X142089142Y-114511057D02*
X142136761Y-114558676D01*
X142184380Y-114701533D01*
X142184380Y-114796771D01*
X142136761Y-114939628D01*
X142041523Y-115034866D01*
X141946285Y-115082485D01*
X141755809Y-115130104D01*
X141612952Y-115130104D01*
X141422476Y-115082485D01*
X141327238Y-115034866D01*
X141232000Y-114939628D01*
X141184380Y-114796771D01*
X141184380Y-114701533D01*
X141232000Y-114558676D01*
X141279619Y-114511057D01*
X142184380Y-113558676D02*
X142184380Y-114130104D01*
X142184380Y-113844390D02*
X141184380Y-113844390D01*
X141327238Y-113939628D01*
X141422476Y-114034866D01*
X141470095Y-114130104D01*
X141184380Y-112653914D02*
X141184380Y-113130104D01*
X141660571Y-113177723D01*
X141612952Y-113130104D01*
X141565333Y-113034866D01*
X141565333Y-112796771D01*
X141612952Y-112701533D01*
X141660571Y-112653914D01*
X141755809Y-112606295D01*
X141993904Y-112606295D01*
X142089142Y-112653914D01*
X142136761Y-112701533D01*
X142184380Y-112796771D01*
X142184380Y-113034866D01*
X142136761Y-113130104D01*
X142089142Y-113177723D01*
%TO.C,C14*%
X138533142Y-114409457D02*
X138580761Y-114457076D01*
X138628380Y-114599933D01*
X138628380Y-114695171D01*
X138580761Y-114838028D01*
X138485523Y-114933266D01*
X138390285Y-114980885D01*
X138199809Y-115028504D01*
X138056952Y-115028504D01*
X137866476Y-114980885D01*
X137771238Y-114933266D01*
X137676000Y-114838028D01*
X137628380Y-114695171D01*
X137628380Y-114599933D01*
X137676000Y-114457076D01*
X137723619Y-114409457D01*
X138628380Y-113457076D02*
X138628380Y-114028504D01*
X138628380Y-113742790D02*
X137628380Y-113742790D01*
X137771238Y-113838028D01*
X137866476Y-113933266D01*
X137914095Y-114028504D01*
X137961714Y-112599933D02*
X138628380Y-112599933D01*
X137580761Y-112838028D02*
X138295047Y-113076123D01*
X138295047Y-112457076D01*
%TO.C,C13*%
X146372342Y-107392742D02*
X146324723Y-107440361D01*
X146181866Y-107487980D01*
X146086628Y-107487980D01*
X145943771Y-107440361D01*
X145848533Y-107345123D01*
X145800914Y-107249885D01*
X145753295Y-107059409D01*
X145753295Y-106916552D01*
X145800914Y-106726076D01*
X145848533Y-106630838D01*
X145943771Y-106535600D01*
X146086628Y-106487980D01*
X146181866Y-106487980D01*
X146324723Y-106535600D01*
X146372342Y-106583219D01*
X147324723Y-107487980D02*
X146753295Y-107487980D01*
X147039009Y-107487980D02*
X147039009Y-106487980D01*
X146943771Y-106630838D01*
X146848533Y-106726076D01*
X146753295Y-106773695D01*
X147658057Y-106487980D02*
X148277104Y-106487980D01*
X147943771Y-106868933D01*
X148086628Y-106868933D01*
X148181866Y-106916552D01*
X148229485Y-106964171D01*
X148277104Y-107059409D01*
X148277104Y-107297504D01*
X148229485Y-107392742D01*
X148181866Y-107440361D01*
X148086628Y-107487980D01*
X147800914Y-107487980D01*
X147705676Y-107440361D01*
X147658057Y-107392742D01*
%TO.C,C12*%
X145568942Y-114307857D02*
X145616561Y-114355476D01*
X145664180Y-114498333D01*
X145664180Y-114593571D01*
X145616561Y-114736428D01*
X145521323Y-114831666D01*
X145426085Y-114879285D01*
X145235609Y-114926904D01*
X145092752Y-114926904D01*
X144902276Y-114879285D01*
X144807038Y-114831666D01*
X144711800Y-114736428D01*
X144664180Y-114593571D01*
X144664180Y-114498333D01*
X144711800Y-114355476D01*
X144759419Y-114307857D01*
X145664180Y-113355476D02*
X145664180Y-113926904D01*
X145664180Y-113641190D02*
X144664180Y-113641190D01*
X144807038Y-113736428D01*
X144902276Y-113831666D01*
X144949895Y-113926904D01*
X144759419Y-112974523D02*
X144711800Y-112926904D01*
X144664180Y-112831666D01*
X144664180Y-112593571D01*
X144711800Y-112498333D01*
X144759419Y-112450714D01*
X144854657Y-112403095D01*
X144949895Y-112403095D01*
X145092752Y-112450714D01*
X145664180Y-113022142D01*
X145664180Y-112403095D01*
%TO.C,C11*%
X124013262Y-105945257D02*
X124060881Y-105992876D01*
X124108500Y-106135733D01*
X124108500Y-106230971D01*
X124060881Y-106373828D01*
X123965643Y-106469066D01*
X123870405Y-106516685D01*
X123679929Y-106564304D01*
X123537072Y-106564304D01*
X123346596Y-106516685D01*
X123251358Y-106469066D01*
X123156120Y-106373828D01*
X123108500Y-106230971D01*
X123108500Y-106135733D01*
X123156120Y-105992876D01*
X123203739Y-105945257D01*
X124108500Y-104992876D02*
X124108500Y-105564304D01*
X124108500Y-105278590D02*
X123108500Y-105278590D01*
X123251358Y-105373828D01*
X123346596Y-105469066D01*
X123394215Y-105564304D01*
X124108500Y-104040495D02*
X124108500Y-104611923D01*
X124108500Y-104326209D02*
X123108500Y-104326209D01*
X123251358Y-104421447D01*
X123346596Y-104516685D01*
X123394215Y-104611923D01*
%TO.C,C10*%
X115993942Y-63272942D02*
X115946323Y-63320561D01*
X115803466Y-63368180D01*
X115708228Y-63368180D01*
X115565371Y-63320561D01*
X115470133Y-63225323D01*
X115422514Y-63130085D01*
X115374895Y-62939609D01*
X115374895Y-62796752D01*
X115422514Y-62606276D01*
X115470133Y-62511038D01*
X115565371Y-62415800D01*
X115708228Y-62368180D01*
X115803466Y-62368180D01*
X115946323Y-62415800D01*
X115993942Y-62463419D01*
X116946323Y-63368180D02*
X116374895Y-63368180D01*
X116660609Y-63368180D02*
X116660609Y-62368180D01*
X116565371Y-62511038D01*
X116470133Y-62606276D01*
X116374895Y-62653895D01*
X117565371Y-62368180D02*
X117660609Y-62368180D01*
X117755847Y-62415800D01*
X117803466Y-62463419D01*
X117851085Y-62558657D01*
X117898704Y-62749133D01*
X117898704Y-62987228D01*
X117851085Y-63177704D01*
X117803466Y-63272942D01*
X117755847Y-63320561D01*
X117660609Y-63368180D01*
X117565371Y-63368180D01*
X117470133Y-63320561D01*
X117422514Y-63272942D01*
X117374895Y-63177704D01*
X117327276Y-62987228D01*
X117327276Y-62749133D01*
X117374895Y-62558657D01*
X117422514Y-62463419D01*
X117470133Y-62415800D01*
X117565371Y-62368180D01*
%TO.C,C9*%
X116698733Y-73026542D02*
X116651114Y-73074161D01*
X116508257Y-73121780D01*
X116413019Y-73121780D01*
X116270161Y-73074161D01*
X116174923Y-72978923D01*
X116127304Y-72883685D01*
X116079685Y-72693209D01*
X116079685Y-72550352D01*
X116127304Y-72359876D01*
X116174923Y-72264638D01*
X116270161Y-72169400D01*
X116413019Y-72121780D01*
X116508257Y-72121780D01*
X116651114Y-72169400D01*
X116698733Y-72217019D01*
X117174923Y-73121780D02*
X117365400Y-73121780D01*
X117460638Y-73074161D01*
X117508257Y-73026542D01*
X117603495Y-72883685D01*
X117651114Y-72693209D01*
X117651114Y-72312257D01*
X117603495Y-72217019D01*
X117555876Y-72169400D01*
X117460638Y-72121780D01*
X117270161Y-72121780D01*
X117174923Y-72169400D01*
X117127304Y-72217019D01*
X117079685Y-72312257D01*
X117079685Y-72550352D01*
X117127304Y-72645590D01*
X117174923Y-72693209D01*
X117270161Y-72740828D01*
X117460638Y-72740828D01*
X117555876Y-72693209D01*
X117603495Y-72645590D01*
X117651114Y-72550352D01*
%TO.C,C8*%
X143433333Y-75935742D02*
X143385714Y-75983361D01*
X143242857Y-76030980D01*
X143147619Y-76030980D01*
X143004761Y-75983361D01*
X142909523Y-75888123D01*
X142861904Y-75792885D01*
X142814285Y-75602409D01*
X142814285Y-75459552D01*
X142861904Y-75269076D01*
X142909523Y-75173838D01*
X143004761Y-75078600D01*
X143147619Y-75030980D01*
X143242857Y-75030980D01*
X143385714Y-75078600D01*
X143433333Y-75126219D01*
X144004761Y-75459552D02*
X143909523Y-75411933D01*
X143861904Y-75364314D01*
X143814285Y-75269076D01*
X143814285Y-75221457D01*
X143861904Y-75126219D01*
X143909523Y-75078600D01*
X144004761Y-75030980D01*
X144195238Y-75030980D01*
X144290476Y-75078600D01*
X144338095Y-75126219D01*
X144385714Y-75221457D01*
X144385714Y-75269076D01*
X144338095Y-75364314D01*
X144290476Y-75411933D01*
X144195238Y-75459552D01*
X144004761Y-75459552D01*
X143909523Y-75507171D01*
X143861904Y-75554790D01*
X143814285Y-75650028D01*
X143814285Y-75840504D01*
X143861904Y-75935742D01*
X143909523Y-75983361D01*
X144004761Y-76030980D01*
X144195238Y-76030980D01*
X144290476Y-75983361D01*
X144338095Y-75935742D01*
X144385714Y-75840504D01*
X144385714Y-75650028D01*
X144338095Y-75554790D01*
X144290476Y-75507171D01*
X144195238Y-75459552D01*
%TO.C,C7*%
X121219933Y-80087742D02*
X121172314Y-80135361D01*
X121029457Y-80182980D01*
X120934219Y-80182980D01*
X120791361Y-80135361D01*
X120696123Y-80040123D01*
X120648504Y-79944885D01*
X120600885Y-79754409D01*
X120600885Y-79611552D01*
X120648504Y-79421076D01*
X120696123Y-79325838D01*
X120791361Y-79230600D01*
X120934219Y-79182980D01*
X121029457Y-79182980D01*
X121172314Y-79230600D01*
X121219933Y-79278219D01*
X121553266Y-79182980D02*
X122219933Y-79182980D01*
X121791361Y-80182980D01*
%TO.C,C6*%
X149633333Y-69107142D02*
X149585714Y-69154761D01*
X149442857Y-69202380D01*
X149347619Y-69202380D01*
X149204761Y-69154761D01*
X149109523Y-69059523D01*
X149061904Y-68964285D01*
X149014285Y-68773809D01*
X149014285Y-68630952D01*
X149061904Y-68440476D01*
X149109523Y-68345238D01*
X149204761Y-68250000D01*
X149347619Y-68202380D01*
X149442857Y-68202380D01*
X149585714Y-68250000D01*
X149633333Y-68297619D01*
X150490476Y-68202380D02*
X150300000Y-68202380D01*
X150204761Y-68250000D01*
X150157142Y-68297619D01*
X150061904Y-68440476D01*
X150014285Y-68630952D01*
X150014285Y-69011904D01*
X150061904Y-69107142D01*
X150109523Y-69154761D01*
X150204761Y-69202380D01*
X150395238Y-69202380D01*
X150490476Y-69154761D01*
X150538095Y-69107142D01*
X150585714Y-69011904D01*
X150585714Y-68773809D01*
X150538095Y-68678571D01*
X150490476Y-68630952D01*
X150395238Y-68583333D01*
X150204761Y-68583333D01*
X150109523Y-68630952D01*
X150061904Y-68678571D01*
X150014285Y-68773809D01*
%TO.C,C5*%
X121270733Y-82957942D02*
X121223114Y-83005561D01*
X121080257Y-83053180D01*
X120985019Y-83053180D01*
X120842161Y-83005561D01*
X120746923Y-82910323D01*
X120699304Y-82815085D01*
X120651685Y-82624609D01*
X120651685Y-82481752D01*
X120699304Y-82291276D01*
X120746923Y-82196038D01*
X120842161Y-82100800D01*
X120985019Y-82053180D01*
X121080257Y-82053180D01*
X121223114Y-82100800D01*
X121270733Y-82148419D01*
X122175495Y-82053180D02*
X121699304Y-82053180D01*
X121651685Y-82529371D01*
X121699304Y-82481752D01*
X121794542Y-82434133D01*
X122032638Y-82434133D01*
X122127876Y-82481752D01*
X122175495Y-82529371D01*
X122223114Y-82624609D01*
X122223114Y-82862704D01*
X122175495Y-82957942D01*
X122127876Y-83005561D01*
X122032638Y-83053180D01*
X121794542Y-83053180D01*
X121699304Y-83005561D01*
X121651685Y-82957942D01*
%TO.C,C4*%
X143433333Y-79235742D02*
X143385714Y-79283361D01*
X143242857Y-79330980D01*
X143147619Y-79330980D01*
X143004761Y-79283361D01*
X142909523Y-79188123D01*
X142861904Y-79092885D01*
X142814285Y-78902409D01*
X142814285Y-78759552D01*
X142861904Y-78569076D01*
X142909523Y-78473838D01*
X143004761Y-78378600D01*
X143147619Y-78330980D01*
X143242857Y-78330980D01*
X143385714Y-78378600D01*
X143433333Y-78426219D01*
X144290476Y-78664314D02*
X144290476Y-79330980D01*
X144052380Y-78283361D02*
X143814285Y-78997647D01*
X144433333Y-78997647D01*
%TO.C,C3*%
X143412333Y-69163142D02*
X143364714Y-69210761D01*
X143221857Y-69258380D01*
X143126619Y-69258380D01*
X142983761Y-69210761D01*
X142888523Y-69115523D01*
X142840904Y-69020285D01*
X142793285Y-68829809D01*
X142793285Y-68686952D01*
X142840904Y-68496476D01*
X142888523Y-68401238D01*
X142983761Y-68306000D01*
X143126619Y-68258380D01*
X143221857Y-68258380D01*
X143364714Y-68306000D01*
X143412333Y-68353619D01*
X143745666Y-68258380D02*
X144364714Y-68258380D01*
X144031380Y-68639333D01*
X144174238Y-68639333D01*
X144269476Y-68686952D01*
X144317095Y-68734571D01*
X144364714Y-68829809D01*
X144364714Y-69067904D01*
X144317095Y-69163142D01*
X144269476Y-69210761D01*
X144174238Y-69258380D01*
X143888523Y-69258380D01*
X143793285Y-69210761D01*
X143745666Y-69163142D01*
%TO.C,C2*%
X143333333Y-82707142D02*
X143285714Y-82754761D01*
X143142857Y-82802380D01*
X143047619Y-82802380D01*
X142904761Y-82754761D01*
X142809523Y-82659523D01*
X142761904Y-82564285D01*
X142714285Y-82373809D01*
X142714285Y-82230952D01*
X142761904Y-82040476D01*
X142809523Y-81945238D01*
X142904761Y-81850000D01*
X143047619Y-81802380D01*
X143142857Y-81802380D01*
X143285714Y-81850000D01*
X143333333Y-81897619D01*
X143714285Y-81897619D02*
X143761904Y-81850000D01*
X143857142Y-81802380D01*
X144095238Y-81802380D01*
X144190476Y-81850000D01*
X144238095Y-81897619D01*
X144285714Y-81992857D01*
X144285714Y-82088095D01*
X144238095Y-82230952D01*
X143666666Y-82802380D01*
X144285714Y-82802380D01*
%TO.C,C1*%
X137532333Y-80993142D02*
X137484714Y-81040761D01*
X137341857Y-81088380D01*
X137246619Y-81088380D01*
X137103761Y-81040761D01*
X137008523Y-80945523D01*
X136960904Y-80850285D01*
X136913285Y-80659809D01*
X136913285Y-80516952D01*
X136960904Y-80326476D01*
X137008523Y-80231238D01*
X137103761Y-80136000D01*
X137246619Y-80088380D01*
X137341857Y-80088380D01*
X137484714Y-80136000D01*
X137532333Y-80183619D01*
X138484714Y-81088380D02*
X137913285Y-81088380D01*
X138199000Y-81088380D02*
X138199000Y-80088380D01*
X138103761Y-80231238D01*
X138008523Y-80326476D01*
X137913285Y-80374095D01*
%TO.C,J12*%
X140744676Y-90841580D02*
X140744676Y-91555866D01*
X140697057Y-91698723D01*
X140601819Y-91793961D01*
X140458961Y-91841580D01*
X140363723Y-91841580D01*
X141744676Y-91841580D02*
X141173247Y-91841580D01*
X141458961Y-91841580D02*
X141458961Y-90841580D01*
X141363723Y-90984438D01*
X141268485Y-91079676D01*
X141173247Y-91127295D01*
X142125628Y-90936819D02*
X142173247Y-90889200D01*
X142268485Y-90841580D01*
X142506580Y-90841580D01*
X142601819Y-90889200D01*
X142649438Y-90936819D01*
X142697057Y-91032057D01*
X142697057Y-91127295D01*
X142649438Y-91270152D01*
X142078009Y-91841580D01*
X142697057Y-91841580D01*
%TO.C,REF\u002A\u002A*%
X153166666Y-121404380D02*
X152833333Y-120928190D01*
X152595238Y-121404380D02*
X152595238Y-120404380D01*
X152976190Y-120404380D01*
X153071428Y-120452000D01*
X153119047Y-120499619D01*
X153166666Y-120594857D01*
X153166666Y-120737714D01*
X153119047Y-120832952D01*
X153071428Y-120880571D01*
X152976190Y-120928190D01*
X152595238Y-120928190D01*
X153595238Y-120880571D02*
X153928571Y-120880571D01*
X154071428Y-121404380D02*
X153595238Y-121404380D01*
X153595238Y-120404380D01*
X154071428Y-120404380D01*
X154833333Y-120880571D02*
X154500000Y-120880571D01*
X154500000Y-121404380D02*
X154500000Y-120404380D01*
X154976190Y-120404380D01*
X155500000Y-120404380D02*
X155500000Y-120642476D01*
X155261904Y-120547238D02*
X155500000Y-120642476D01*
X155738095Y-120547238D01*
X155357142Y-120832952D02*
X155500000Y-120642476D01*
X155642857Y-120832952D01*
X156261904Y-120404380D02*
X156261904Y-120642476D01*
X156023809Y-120547238D02*
X156261904Y-120642476D01*
X156500000Y-120547238D01*
X156119047Y-120832952D02*
X156261904Y-120642476D01*
X156404761Y-120832952D01*
X116666666Y-121404380D02*
X116333333Y-120928190D01*
X116095238Y-121404380D02*
X116095238Y-120404380D01*
X116476190Y-120404380D01*
X116571428Y-120452000D01*
X116619047Y-120499619D01*
X116666666Y-120594857D01*
X116666666Y-120737714D01*
X116619047Y-120832952D01*
X116571428Y-120880571D01*
X116476190Y-120928190D01*
X116095238Y-120928190D01*
X117095238Y-120880571D02*
X117428571Y-120880571D01*
X117571428Y-121404380D02*
X117095238Y-121404380D01*
X117095238Y-120404380D01*
X117571428Y-120404380D01*
X118333333Y-120880571D02*
X118000000Y-120880571D01*
X118000000Y-121404380D02*
X118000000Y-120404380D01*
X118476190Y-120404380D01*
X119000000Y-120404380D02*
X119000000Y-120642476D01*
X118761904Y-120547238D02*
X119000000Y-120642476D01*
X119238095Y-120547238D01*
X118857142Y-120832952D02*
X119000000Y-120642476D01*
X119142857Y-120832952D01*
X119761904Y-120404380D02*
X119761904Y-120642476D01*
X119523809Y-120547238D02*
X119761904Y-120642476D01*
X120000000Y-120547238D01*
X119619047Y-120832952D02*
X119761904Y-120642476D01*
X119904761Y-120832952D01*
X153166666Y-47404380D02*
X152833333Y-46928190D01*
X152595238Y-47404380D02*
X152595238Y-46404380D01*
X152976190Y-46404380D01*
X153071428Y-46452000D01*
X153119047Y-46499619D01*
X153166666Y-46594857D01*
X153166666Y-46737714D01*
X153119047Y-46832952D01*
X153071428Y-46880571D01*
X152976190Y-46928190D01*
X152595238Y-46928190D01*
X153595238Y-46880571D02*
X153928571Y-46880571D01*
X154071428Y-47404380D02*
X153595238Y-47404380D01*
X153595238Y-46404380D01*
X154071428Y-46404380D01*
X154833333Y-46880571D02*
X154500000Y-46880571D01*
X154500000Y-47404380D02*
X154500000Y-46404380D01*
X154976190Y-46404380D01*
X155500000Y-46404380D02*
X155500000Y-46642476D01*
X155261904Y-46547238D02*
X155500000Y-46642476D01*
X155738095Y-46547238D01*
X155357142Y-46832952D02*
X155500000Y-46642476D01*
X155642857Y-46832952D01*
X156261904Y-46404380D02*
X156261904Y-46642476D01*
X156023809Y-46547238D02*
X156261904Y-46642476D01*
X156500000Y-46547238D01*
X156119047Y-46832952D02*
X156261904Y-46642476D01*
X156404761Y-46832952D01*
X116666666Y-47404380D02*
X116333333Y-46928190D01*
X116095238Y-47404380D02*
X116095238Y-46404380D01*
X116476190Y-46404380D01*
X116571428Y-46452000D01*
X116619047Y-46499619D01*
X116666666Y-46594857D01*
X116666666Y-46737714D01*
X116619047Y-46832952D01*
X116571428Y-46880571D01*
X116476190Y-46928190D01*
X116095238Y-46928190D01*
X117095238Y-46880571D02*
X117428571Y-46880571D01*
X117571428Y-47404380D02*
X117095238Y-47404380D01*
X117095238Y-46404380D01*
X117571428Y-46404380D01*
X118333333Y-46880571D02*
X118000000Y-46880571D01*
X118000000Y-47404380D02*
X118000000Y-46404380D01*
X118476190Y-46404380D01*
X119000000Y-46404380D02*
X119000000Y-46642476D01*
X118761904Y-46547238D02*
X119000000Y-46642476D01*
X119238095Y-46547238D01*
X118857142Y-46832952D02*
X119000000Y-46642476D01*
X119142857Y-46832952D01*
X119761904Y-46404380D02*
X119761904Y-46642476D01*
X119523809Y-46547238D02*
X119761904Y-46642476D01*
X120000000Y-46547238D01*
X119619047Y-46832952D02*
X119761904Y-46642476D01*
X119904761Y-46832952D01*
%TD*%
%LPC*%
D12*
%TO.C,J10*%
X153924000Y-132280000D03*
D13*
X156749000Y-132080000D03*
X151099000Y-132080000D03*
%TD*%
D12*
%TO.C,J8*%
X118364000Y-132280000D03*
D13*
X121189000Y-132080000D03*
X115539000Y-132080000D03*
%TD*%
D14*
%TO.C,Y2*%
X122690000Y-66560000D03*
X128590000Y-66560000D03*
X128590000Y-69260000D03*
X122690000Y-69260000D03*
%TD*%
D15*
%TO.C,Y1*%
X125809000Y-65336000D03*
X125809000Y-70236000D03*
%TD*%
D16*
%TO.C,U4*%
X141800000Y-57200000D03*
X142750000Y-59200000D03*
X140850000Y-59200000D03*
%TD*%
D17*
%TO.C,U3*%
X145450000Y-57100000D03*
X147350000Y-57100000D03*
X147350000Y-59300000D03*
X146400000Y-59300000D03*
X145450000Y-59300000D03*
%TD*%
D18*
%TO.C,U2*%
X135359000Y-105426000D03*
G36*
G01*
X132771500Y-107801000D02*
X132071500Y-107801000D01*
G75*
G02*
X132009000Y-107738500I0J62500D01*
G01*
X132009000Y-107613500D01*
G75*
G02*
X132071500Y-107551000I62500J0D01*
G01*
X132771500Y-107551000D01*
G75*
G02*
X132834000Y-107613500I0J-62500D01*
G01*
X132834000Y-107738500D01*
G75*
G02*
X132771500Y-107801000I-62500J0D01*
G01*
G37*
G36*
G01*
X132771500Y-107301000D02*
X132071500Y-107301000D01*
G75*
G02*
X132009000Y-107238500I0J62500D01*
G01*
X132009000Y-107113500D01*
G75*
G02*
X132071500Y-107051000I62500J0D01*
G01*
X132771500Y-107051000D01*
G75*
G02*
X132834000Y-107113500I0J-62500D01*
G01*
X132834000Y-107238500D01*
G75*
G02*
X132771500Y-107301000I-62500J0D01*
G01*
G37*
G36*
G01*
X132771500Y-106801000D02*
X132071500Y-106801000D01*
G75*
G02*
X132009000Y-106738500I0J62500D01*
G01*
X132009000Y-106613500D01*
G75*
G02*
X132071500Y-106551000I62500J0D01*
G01*
X132771500Y-106551000D01*
G75*
G02*
X132834000Y-106613500I0J-62500D01*
G01*
X132834000Y-106738500D01*
G75*
G02*
X132771500Y-106801000I-62500J0D01*
G01*
G37*
G36*
G01*
X132771500Y-106301000D02*
X132071500Y-106301000D01*
G75*
G02*
X132009000Y-106238500I0J62500D01*
G01*
X132009000Y-106113500D01*
G75*
G02*
X132071500Y-106051000I62500J0D01*
G01*
X132771500Y-106051000D01*
G75*
G02*
X132834000Y-106113500I0J-62500D01*
G01*
X132834000Y-106238500D01*
G75*
G02*
X132771500Y-106301000I-62500J0D01*
G01*
G37*
G36*
G01*
X132771500Y-105801000D02*
X132071500Y-105801000D01*
G75*
G02*
X132009000Y-105738500I0J62500D01*
G01*
X132009000Y-105613500D01*
G75*
G02*
X132071500Y-105551000I62500J0D01*
G01*
X132771500Y-105551000D01*
G75*
G02*
X132834000Y-105613500I0J-62500D01*
G01*
X132834000Y-105738500D01*
G75*
G02*
X132771500Y-105801000I-62500J0D01*
G01*
G37*
G36*
G01*
X132771500Y-105301000D02*
X132071500Y-105301000D01*
G75*
G02*
X132009000Y-105238500I0J62500D01*
G01*
X132009000Y-105113500D01*
G75*
G02*
X132071500Y-105051000I62500J0D01*
G01*
X132771500Y-105051000D01*
G75*
G02*
X132834000Y-105113500I0J-62500D01*
G01*
X132834000Y-105238500D01*
G75*
G02*
X132771500Y-105301000I-62500J0D01*
G01*
G37*
G36*
G01*
X132771500Y-104801000D02*
X132071500Y-104801000D01*
G75*
G02*
X132009000Y-104738500I0J62500D01*
G01*
X132009000Y-104613500D01*
G75*
G02*
X132071500Y-104551000I62500J0D01*
G01*
X132771500Y-104551000D01*
G75*
G02*
X132834000Y-104613500I0J-62500D01*
G01*
X132834000Y-104738500D01*
G75*
G02*
X132771500Y-104801000I-62500J0D01*
G01*
G37*
G36*
G01*
X132771500Y-104301000D02*
X132071500Y-104301000D01*
G75*
G02*
X132009000Y-104238500I0J62500D01*
G01*
X132009000Y-104113500D01*
G75*
G02*
X132071500Y-104051000I62500J0D01*
G01*
X132771500Y-104051000D01*
G75*
G02*
X132834000Y-104113500I0J-62500D01*
G01*
X132834000Y-104238500D01*
G75*
G02*
X132771500Y-104301000I-62500J0D01*
G01*
G37*
G36*
G01*
X132771500Y-103801000D02*
X132071500Y-103801000D01*
G75*
G02*
X132009000Y-103738500I0J62500D01*
G01*
X132009000Y-103613500D01*
G75*
G02*
X132071500Y-103551000I62500J0D01*
G01*
X132771500Y-103551000D01*
G75*
G02*
X132834000Y-103613500I0J-62500D01*
G01*
X132834000Y-103738500D01*
G75*
G02*
X132771500Y-103801000I-62500J0D01*
G01*
G37*
G36*
G01*
X132771500Y-103301000D02*
X132071500Y-103301000D01*
G75*
G02*
X132009000Y-103238500I0J62500D01*
G01*
X132009000Y-103113500D01*
G75*
G02*
X132071500Y-103051000I62500J0D01*
G01*
X132771500Y-103051000D01*
G75*
G02*
X132834000Y-103113500I0J-62500D01*
G01*
X132834000Y-103238500D01*
G75*
G02*
X132771500Y-103301000I-62500J0D01*
G01*
G37*
G36*
G01*
X133171500Y-102901000D02*
X133046500Y-102901000D01*
G75*
G02*
X132984000Y-102838500I0J62500D01*
G01*
X132984000Y-102138500D01*
G75*
G02*
X133046500Y-102076000I62500J0D01*
G01*
X133171500Y-102076000D01*
G75*
G02*
X133234000Y-102138500I0J-62500D01*
G01*
X133234000Y-102838500D01*
G75*
G02*
X133171500Y-102901000I-62500J0D01*
G01*
G37*
G36*
G01*
X133671500Y-102901000D02*
X133546500Y-102901000D01*
G75*
G02*
X133484000Y-102838500I0J62500D01*
G01*
X133484000Y-102138500D01*
G75*
G02*
X133546500Y-102076000I62500J0D01*
G01*
X133671500Y-102076000D01*
G75*
G02*
X133734000Y-102138500I0J-62500D01*
G01*
X133734000Y-102838500D01*
G75*
G02*
X133671500Y-102901000I-62500J0D01*
G01*
G37*
G36*
G01*
X134171500Y-102901000D02*
X134046500Y-102901000D01*
G75*
G02*
X133984000Y-102838500I0J62500D01*
G01*
X133984000Y-102138500D01*
G75*
G02*
X134046500Y-102076000I62500J0D01*
G01*
X134171500Y-102076000D01*
G75*
G02*
X134234000Y-102138500I0J-62500D01*
G01*
X134234000Y-102838500D01*
G75*
G02*
X134171500Y-102901000I-62500J0D01*
G01*
G37*
G36*
G01*
X134671500Y-102901000D02*
X134546500Y-102901000D01*
G75*
G02*
X134484000Y-102838500I0J62500D01*
G01*
X134484000Y-102138500D01*
G75*
G02*
X134546500Y-102076000I62500J0D01*
G01*
X134671500Y-102076000D01*
G75*
G02*
X134734000Y-102138500I0J-62500D01*
G01*
X134734000Y-102838500D01*
G75*
G02*
X134671500Y-102901000I-62500J0D01*
G01*
G37*
G36*
G01*
X135171500Y-102901000D02*
X135046500Y-102901000D01*
G75*
G02*
X134984000Y-102838500I0J62500D01*
G01*
X134984000Y-102138500D01*
G75*
G02*
X135046500Y-102076000I62500J0D01*
G01*
X135171500Y-102076000D01*
G75*
G02*
X135234000Y-102138500I0J-62500D01*
G01*
X135234000Y-102838500D01*
G75*
G02*
X135171500Y-102901000I-62500J0D01*
G01*
G37*
G36*
G01*
X135671500Y-102901000D02*
X135546500Y-102901000D01*
G75*
G02*
X135484000Y-102838500I0J62500D01*
G01*
X135484000Y-102138500D01*
G75*
G02*
X135546500Y-102076000I62500J0D01*
G01*
X135671500Y-102076000D01*
G75*
G02*
X135734000Y-102138500I0J-62500D01*
G01*
X135734000Y-102838500D01*
G75*
G02*
X135671500Y-102901000I-62500J0D01*
G01*
G37*
G36*
G01*
X136171500Y-102901000D02*
X136046500Y-102901000D01*
G75*
G02*
X135984000Y-102838500I0J62500D01*
G01*
X135984000Y-102138500D01*
G75*
G02*
X136046500Y-102076000I62500J0D01*
G01*
X136171500Y-102076000D01*
G75*
G02*
X136234000Y-102138500I0J-62500D01*
G01*
X136234000Y-102838500D01*
G75*
G02*
X136171500Y-102901000I-62500J0D01*
G01*
G37*
G36*
G01*
X136671500Y-102901000D02*
X136546500Y-102901000D01*
G75*
G02*
X136484000Y-102838500I0J62500D01*
G01*
X136484000Y-102138500D01*
G75*
G02*
X136546500Y-102076000I62500J0D01*
G01*
X136671500Y-102076000D01*
G75*
G02*
X136734000Y-102138500I0J-62500D01*
G01*
X136734000Y-102838500D01*
G75*
G02*
X136671500Y-102901000I-62500J0D01*
G01*
G37*
G36*
G01*
X137171500Y-102901000D02*
X137046500Y-102901000D01*
G75*
G02*
X136984000Y-102838500I0J62500D01*
G01*
X136984000Y-102138500D01*
G75*
G02*
X137046500Y-102076000I62500J0D01*
G01*
X137171500Y-102076000D01*
G75*
G02*
X137234000Y-102138500I0J-62500D01*
G01*
X137234000Y-102838500D01*
G75*
G02*
X137171500Y-102901000I-62500J0D01*
G01*
G37*
G36*
G01*
X137671500Y-102901000D02*
X137546500Y-102901000D01*
G75*
G02*
X137484000Y-102838500I0J62500D01*
G01*
X137484000Y-102138500D01*
G75*
G02*
X137546500Y-102076000I62500J0D01*
G01*
X137671500Y-102076000D01*
G75*
G02*
X137734000Y-102138500I0J-62500D01*
G01*
X137734000Y-102838500D01*
G75*
G02*
X137671500Y-102901000I-62500J0D01*
G01*
G37*
G36*
G01*
X138646500Y-103301000D02*
X137946500Y-103301000D01*
G75*
G02*
X137884000Y-103238500I0J62500D01*
G01*
X137884000Y-103113500D01*
G75*
G02*
X137946500Y-103051000I62500J0D01*
G01*
X138646500Y-103051000D01*
G75*
G02*
X138709000Y-103113500I0J-62500D01*
G01*
X138709000Y-103238500D01*
G75*
G02*
X138646500Y-103301000I-62500J0D01*
G01*
G37*
G36*
G01*
X138646500Y-103801000D02*
X137946500Y-103801000D01*
G75*
G02*
X137884000Y-103738500I0J62500D01*
G01*
X137884000Y-103613500D01*
G75*
G02*
X137946500Y-103551000I62500J0D01*
G01*
X138646500Y-103551000D01*
G75*
G02*
X138709000Y-103613500I0J-62500D01*
G01*
X138709000Y-103738500D01*
G75*
G02*
X138646500Y-103801000I-62500J0D01*
G01*
G37*
G36*
G01*
X138646500Y-104301000D02*
X137946500Y-104301000D01*
G75*
G02*
X137884000Y-104238500I0J62500D01*
G01*
X137884000Y-104113500D01*
G75*
G02*
X137946500Y-104051000I62500J0D01*
G01*
X138646500Y-104051000D01*
G75*
G02*
X138709000Y-104113500I0J-62500D01*
G01*
X138709000Y-104238500D01*
G75*
G02*
X138646500Y-104301000I-62500J0D01*
G01*
G37*
G36*
G01*
X138646500Y-104801000D02*
X137946500Y-104801000D01*
G75*
G02*
X137884000Y-104738500I0J62500D01*
G01*
X137884000Y-104613500D01*
G75*
G02*
X137946500Y-104551000I62500J0D01*
G01*
X138646500Y-104551000D01*
G75*
G02*
X138709000Y-104613500I0J-62500D01*
G01*
X138709000Y-104738500D01*
G75*
G02*
X138646500Y-104801000I-62500J0D01*
G01*
G37*
G36*
G01*
X138646500Y-105301000D02*
X137946500Y-105301000D01*
G75*
G02*
X137884000Y-105238500I0J62500D01*
G01*
X137884000Y-105113500D01*
G75*
G02*
X137946500Y-105051000I62500J0D01*
G01*
X138646500Y-105051000D01*
G75*
G02*
X138709000Y-105113500I0J-62500D01*
G01*
X138709000Y-105238500D01*
G75*
G02*
X138646500Y-105301000I-62500J0D01*
G01*
G37*
G36*
G01*
X138646500Y-105801000D02*
X137946500Y-105801000D01*
G75*
G02*
X137884000Y-105738500I0J62500D01*
G01*
X137884000Y-105613500D01*
G75*
G02*
X137946500Y-105551000I62500J0D01*
G01*
X138646500Y-105551000D01*
G75*
G02*
X138709000Y-105613500I0J-62500D01*
G01*
X138709000Y-105738500D01*
G75*
G02*
X138646500Y-105801000I-62500J0D01*
G01*
G37*
G36*
G01*
X138646500Y-106301000D02*
X137946500Y-106301000D01*
G75*
G02*
X137884000Y-106238500I0J62500D01*
G01*
X137884000Y-106113500D01*
G75*
G02*
X137946500Y-106051000I62500J0D01*
G01*
X138646500Y-106051000D01*
G75*
G02*
X138709000Y-106113500I0J-62500D01*
G01*
X138709000Y-106238500D01*
G75*
G02*
X138646500Y-106301000I-62500J0D01*
G01*
G37*
G36*
G01*
X138646500Y-106801000D02*
X137946500Y-106801000D01*
G75*
G02*
X137884000Y-106738500I0J62500D01*
G01*
X137884000Y-106613500D01*
G75*
G02*
X137946500Y-106551000I62500J0D01*
G01*
X138646500Y-106551000D01*
G75*
G02*
X138709000Y-106613500I0J-62500D01*
G01*
X138709000Y-106738500D01*
G75*
G02*
X138646500Y-106801000I-62500J0D01*
G01*
G37*
G36*
G01*
X138646500Y-107301000D02*
X137946500Y-107301000D01*
G75*
G02*
X137884000Y-107238500I0J62500D01*
G01*
X137884000Y-107113500D01*
G75*
G02*
X137946500Y-107051000I62500J0D01*
G01*
X138646500Y-107051000D01*
G75*
G02*
X138709000Y-107113500I0J-62500D01*
G01*
X138709000Y-107238500D01*
G75*
G02*
X138646500Y-107301000I-62500J0D01*
G01*
G37*
G36*
G01*
X138646500Y-107801000D02*
X137946500Y-107801000D01*
G75*
G02*
X137884000Y-107738500I0J62500D01*
G01*
X137884000Y-107613500D01*
G75*
G02*
X137946500Y-107551000I62500J0D01*
G01*
X138646500Y-107551000D01*
G75*
G02*
X138709000Y-107613500I0J-62500D01*
G01*
X138709000Y-107738500D01*
G75*
G02*
X138646500Y-107801000I-62500J0D01*
G01*
G37*
G36*
G01*
X137671500Y-108776000D02*
X137546500Y-108776000D01*
G75*
G02*
X137484000Y-108713500I0J62500D01*
G01*
X137484000Y-108013500D01*
G75*
G02*
X137546500Y-107951000I62500J0D01*
G01*
X137671500Y-107951000D01*
G75*
G02*
X137734000Y-108013500I0J-62500D01*
G01*
X137734000Y-108713500D01*
G75*
G02*
X137671500Y-108776000I-62500J0D01*
G01*
G37*
G36*
G01*
X137171500Y-108776000D02*
X137046500Y-108776000D01*
G75*
G02*
X136984000Y-108713500I0J62500D01*
G01*
X136984000Y-108013500D01*
G75*
G02*
X137046500Y-107951000I62500J0D01*
G01*
X137171500Y-107951000D01*
G75*
G02*
X137234000Y-108013500I0J-62500D01*
G01*
X137234000Y-108713500D01*
G75*
G02*
X137171500Y-108776000I-62500J0D01*
G01*
G37*
G36*
G01*
X136671500Y-108776000D02*
X136546500Y-108776000D01*
G75*
G02*
X136484000Y-108713500I0J62500D01*
G01*
X136484000Y-108013500D01*
G75*
G02*
X136546500Y-107951000I62500J0D01*
G01*
X136671500Y-107951000D01*
G75*
G02*
X136734000Y-108013500I0J-62500D01*
G01*
X136734000Y-108713500D01*
G75*
G02*
X136671500Y-108776000I-62500J0D01*
G01*
G37*
G36*
G01*
X136171500Y-108776000D02*
X136046500Y-108776000D01*
G75*
G02*
X135984000Y-108713500I0J62500D01*
G01*
X135984000Y-108013500D01*
G75*
G02*
X136046500Y-107951000I62500J0D01*
G01*
X136171500Y-107951000D01*
G75*
G02*
X136234000Y-108013500I0J-62500D01*
G01*
X136234000Y-108713500D01*
G75*
G02*
X136171500Y-108776000I-62500J0D01*
G01*
G37*
G36*
G01*
X135671500Y-108776000D02*
X135546500Y-108776000D01*
G75*
G02*
X135484000Y-108713500I0J62500D01*
G01*
X135484000Y-108013500D01*
G75*
G02*
X135546500Y-107951000I62500J0D01*
G01*
X135671500Y-107951000D01*
G75*
G02*
X135734000Y-108013500I0J-62500D01*
G01*
X135734000Y-108713500D01*
G75*
G02*
X135671500Y-108776000I-62500J0D01*
G01*
G37*
G36*
G01*
X135171500Y-108776000D02*
X135046500Y-108776000D01*
G75*
G02*
X134984000Y-108713500I0J62500D01*
G01*
X134984000Y-108013500D01*
G75*
G02*
X135046500Y-107951000I62500J0D01*
G01*
X135171500Y-107951000D01*
G75*
G02*
X135234000Y-108013500I0J-62500D01*
G01*
X135234000Y-108713500D01*
G75*
G02*
X135171500Y-108776000I-62500J0D01*
G01*
G37*
G36*
G01*
X134671500Y-108776000D02*
X134546500Y-108776000D01*
G75*
G02*
X134484000Y-108713500I0J62500D01*
G01*
X134484000Y-108013500D01*
G75*
G02*
X134546500Y-107951000I62500J0D01*
G01*
X134671500Y-107951000D01*
G75*
G02*
X134734000Y-108013500I0J-62500D01*
G01*
X134734000Y-108713500D01*
G75*
G02*
X134671500Y-108776000I-62500J0D01*
G01*
G37*
G36*
G01*
X134171500Y-108776000D02*
X134046500Y-108776000D01*
G75*
G02*
X133984000Y-108713500I0J62500D01*
G01*
X133984000Y-108013500D01*
G75*
G02*
X134046500Y-107951000I62500J0D01*
G01*
X134171500Y-107951000D01*
G75*
G02*
X134234000Y-108013500I0J-62500D01*
G01*
X134234000Y-108713500D01*
G75*
G02*
X134171500Y-108776000I-62500J0D01*
G01*
G37*
G36*
G01*
X133671500Y-108776000D02*
X133546500Y-108776000D01*
G75*
G02*
X133484000Y-108713500I0J62500D01*
G01*
X133484000Y-108013500D01*
G75*
G02*
X133546500Y-107951000I62500J0D01*
G01*
X133671500Y-107951000D01*
G75*
G02*
X133734000Y-108013500I0J-62500D01*
G01*
X133734000Y-108713500D01*
G75*
G02*
X133671500Y-108776000I-62500J0D01*
G01*
G37*
G36*
G01*
X133171500Y-108776000D02*
X133046500Y-108776000D01*
G75*
G02*
X132984000Y-108713500I0J62500D01*
G01*
X132984000Y-108013500D01*
G75*
G02*
X133046500Y-107951000I62500J0D01*
G01*
X133171500Y-107951000D01*
G75*
G02*
X133234000Y-108013500I0J-62500D01*
G01*
X133234000Y-108713500D01*
G75*
G02*
X133171500Y-108776000I-62500J0D01*
G01*
G37*
%TD*%
D19*
%TO.C,U1*%
X135529000Y-76566000D03*
G36*
G01*
X133416500Y-78441000D02*
X132741500Y-78441000D01*
G75*
G02*
X132679000Y-78378500I0J62500D01*
G01*
X132679000Y-78253500D01*
G75*
G02*
X132741500Y-78191000I62500J0D01*
G01*
X133416500Y-78191000D01*
G75*
G02*
X133479000Y-78253500I0J-62500D01*
G01*
X133479000Y-78378500D01*
G75*
G02*
X133416500Y-78441000I-62500J0D01*
G01*
G37*
G36*
G01*
X133416500Y-77941000D02*
X132741500Y-77941000D01*
G75*
G02*
X132679000Y-77878500I0J62500D01*
G01*
X132679000Y-77753500D01*
G75*
G02*
X132741500Y-77691000I62500J0D01*
G01*
X133416500Y-77691000D01*
G75*
G02*
X133479000Y-77753500I0J-62500D01*
G01*
X133479000Y-77878500D01*
G75*
G02*
X133416500Y-77941000I-62500J0D01*
G01*
G37*
G36*
G01*
X133416500Y-77441000D02*
X132741500Y-77441000D01*
G75*
G02*
X132679000Y-77378500I0J62500D01*
G01*
X132679000Y-77253500D01*
G75*
G02*
X132741500Y-77191000I62500J0D01*
G01*
X133416500Y-77191000D01*
G75*
G02*
X133479000Y-77253500I0J-62500D01*
G01*
X133479000Y-77378500D01*
G75*
G02*
X133416500Y-77441000I-62500J0D01*
G01*
G37*
G36*
G01*
X133416500Y-76941000D02*
X132741500Y-76941000D01*
G75*
G02*
X132679000Y-76878500I0J62500D01*
G01*
X132679000Y-76753500D01*
G75*
G02*
X132741500Y-76691000I62500J0D01*
G01*
X133416500Y-76691000D01*
G75*
G02*
X133479000Y-76753500I0J-62500D01*
G01*
X133479000Y-76878500D01*
G75*
G02*
X133416500Y-76941000I-62500J0D01*
G01*
G37*
G36*
G01*
X133416500Y-76441000D02*
X132741500Y-76441000D01*
G75*
G02*
X132679000Y-76378500I0J62500D01*
G01*
X132679000Y-76253500D01*
G75*
G02*
X132741500Y-76191000I62500J0D01*
G01*
X133416500Y-76191000D01*
G75*
G02*
X133479000Y-76253500I0J-62500D01*
G01*
X133479000Y-76378500D01*
G75*
G02*
X133416500Y-76441000I-62500J0D01*
G01*
G37*
G36*
G01*
X133416500Y-75941000D02*
X132741500Y-75941000D01*
G75*
G02*
X132679000Y-75878500I0J62500D01*
G01*
X132679000Y-75753500D01*
G75*
G02*
X132741500Y-75691000I62500J0D01*
G01*
X133416500Y-75691000D01*
G75*
G02*
X133479000Y-75753500I0J-62500D01*
G01*
X133479000Y-75878500D01*
G75*
G02*
X133416500Y-75941000I-62500J0D01*
G01*
G37*
G36*
G01*
X133416500Y-75441000D02*
X132741500Y-75441000D01*
G75*
G02*
X132679000Y-75378500I0J62500D01*
G01*
X132679000Y-75253500D01*
G75*
G02*
X132741500Y-75191000I62500J0D01*
G01*
X133416500Y-75191000D01*
G75*
G02*
X133479000Y-75253500I0J-62500D01*
G01*
X133479000Y-75378500D01*
G75*
G02*
X133416500Y-75441000I-62500J0D01*
G01*
G37*
G36*
G01*
X133416500Y-74941000D02*
X132741500Y-74941000D01*
G75*
G02*
X132679000Y-74878500I0J62500D01*
G01*
X132679000Y-74753500D01*
G75*
G02*
X132741500Y-74691000I62500J0D01*
G01*
X133416500Y-74691000D01*
G75*
G02*
X133479000Y-74753500I0J-62500D01*
G01*
X133479000Y-74878500D01*
G75*
G02*
X133416500Y-74941000I-62500J0D01*
G01*
G37*
G36*
G01*
X133841500Y-74516000D02*
X133716500Y-74516000D01*
G75*
G02*
X133654000Y-74453500I0J62500D01*
G01*
X133654000Y-73778500D01*
G75*
G02*
X133716500Y-73716000I62500J0D01*
G01*
X133841500Y-73716000D01*
G75*
G02*
X133904000Y-73778500I0J-62500D01*
G01*
X133904000Y-74453500D01*
G75*
G02*
X133841500Y-74516000I-62500J0D01*
G01*
G37*
G36*
G01*
X134341500Y-74516000D02*
X134216500Y-74516000D01*
G75*
G02*
X134154000Y-74453500I0J62500D01*
G01*
X134154000Y-73778500D01*
G75*
G02*
X134216500Y-73716000I62500J0D01*
G01*
X134341500Y-73716000D01*
G75*
G02*
X134404000Y-73778500I0J-62500D01*
G01*
X134404000Y-74453500D01*
G75*
G02*
X134341500Y-74516000I-62500J0D01*
G01*
G37*
G36*
G01*
X134841500Y-74516000D02*
X134716500Y-74516000D01*
G75*
G02*
X134654000Y-74453500I0J62500D01*
G01*
X134654000Y-73778500D01*
G75*
G02*
X134716500Y-73716000I62500J0D01*
G01*
X134841500Y-73716000D01*
G75*
G02*
X134904000Y-73778500I0J-62500D01*
G01*
X134904000Y-74453500D01*
G75*
G02*
X134841500Y-74516000I-62500J0D01*
G01*
G37*
G36*
G01*
X135341500Y-74516000D02*
X135216500Y-74516000D01*
G75*
G02*
X135154000Y-74453500I0J62500D01*
G01*
X135154000Y-73778500D01*
G75*
G02*
X135216500Y-73716000I62500J0D01*
G01*
X135341500Y-73716000D01*
G75*
G02*
X135404000Y-73778500I0J-62500D01*
G01*
X135404000Y-74453500D01*
G75*
G02*
X135341500Y-74516000I-62500J0D01*
G01*
G37*
G36*
G01*
X135841500Y-74516000D02*
X135716500Y-74516000D01*
G75*
G02*
X135654000Y-74453500I0J62500D01*
G01*
X135654000Y-73778500D01*
G75*
G02*
X135716500Y-73716000I62500J0D01*
G01*
X135841500Y-73716000D01*
G75*
G02*
X135904000Y-73778500I0J-62500D01*
G01*
X135904000Y-74453500D01*
G75*
G02*
X135841500Y-74516000I-62500J0D01*
G01*
G37*
G36*
G01*
X136341500Y-74516000D02*
X136216500Y-74516000D01*
G75*
G02*
X136154000Y-74453500I0J62500D01*
G01*
X136154000Y-73778500D01*
G75*
G02*
X136216500Y-73716000I62500J0D01*
G01*
X136341500Y-73716000D01*
G75*
G02*
X136404000Y-73778500I0J-62500D01*
G01*
X136404000Y-74453500D01*
G75*
G02*
X136341500Y-74516000I-62500J0D01*
G01*
G37*
G36*
G01*
X136841500Y-74516000D02*
X136716500Y-74516000D01*
G75*
G02*
X136654000Y-74453500I0J62500D01*
G01*
X136654000Y-73778500D01*
G75*
G02*
X136716500Y-73716000I62500J0D01*
G01*
X136841500Y-73716000D01*
G75*
G02*
X136904000Y-73778500I0J-62500D01*
G01*
X136904000Y-74453500D01*
G75*
G02*
X136841500Y-74516000I-62500J0D01*
G01*
G37*
G36*
G01*
X137341500Y-74516000D02*
X137216500Y-74516000D01*
G75*
G02*
X137154000Y-74453500I0J62500D01*
G01*
X137154000Y-73778500D01*
G75*
G02*
X137216500Y-73716000I62500J0D01*
G01*
X137341500Y-73716000D01*
G75*
G02*
X137404000Y-73778500I0J-62500D01*
G01*
X137404000Y-74453500D01*
G75*
G02*
X137341500Y-74516000I-62500J0D01*
G01*
G37*
G36*
G01*
X138316500Y-74941000D02*
X137641500Y-74941000D01*
G75*
G02*
X137579000Y-74878500I0J62500D01*
G01*
X137579000Y-74753500D01*
G75*
G02*
X137641500Y-74691000I62500J0D01*
G01*
X138316500Y-74691000D01*
G75*
G02*
X138379000Y-74753500I0J-62500D01*
G01*
X138379000Y-74878500D01*
G75*
G02*
X138316500Y-74941000I-62500J0D01*
G01*
G37*
G36*
G01*
X138316500Y-75441000D02*
X137641500Y-75441000D01*
G75*
G02*
X137579000Y-75378500I0J62500D01*
G01*
X137579000Y-75253500D01*
G75*
G02*
X137641500Y-75191000I62500J0D01*
G01*
X138316500Y-75191000D01*
G75*
G02*
X138379000Y-75253500I0J-62500D01*
G01*
X138379000Y-75378500D01*
G75*
G02*
X138316500Y-75441000I-62500J0D01*
G01*
G37*
G36*
G01*
X138316500Y-75941000D02*
X137641500Y-75941000D01*
G75*
G02*
X137579000Y-75878500I0J62500D01*
G01*
X137579000Y-75753500D01*
G75*
G02*
X137641500Y-75691000I62500J0D01*
G01*
X138316500Y-75691000D01*
G75*
G02*
X138379000Y-75753500I0J-62500D01*
G01*
X138379000Y-75878500D01*
G75*
G02*
X138316500Y-75941000I-62500J0D01*
G01*
G37*
G36*
G01*
X138316500Y-76441000D02*
X137641500Y-76441000D01*
G75*
G02*
X137579000Y-76378500I0J62500D01*
G01*
X137579000Y-76253500D01*
G75*
G02*
X137641500Y-76191000I62500J0D01*
G01*
X138316500Y-76191000D01*
G75*
G02*
X138379000Y-76253500I0J-62500D01*
G01*
X138379000Y-76378500D01*
G75*
G02*
X138316500Y-76441000I-62500J0D01*
G01*
G37*
G36*
G01*
X138316500Y-76941000D02*
X137641500Y-76941000D01*
G75*
G02*
X137579000Y-76878500I0J62500D01*
G01*
X137579000Y-76753500D01*
G75*
G02*
X137641500Y-76691000I62500J0D01*
G01*
X138316500Y-76691000D01*
G75*
G02*
X138379000Y-76753500I0J-62500D01*
G01*
X138379000Y-76878500D01*
G75*
G02*
X138316500Y-76941000I-62500J0D01*
G01*
G37*
G36*
G01*
X138316500Y-77441000D02*
X137641500Y-77441000D01*
G75*
G02*
X137579000Y-77378500I0J62500D01*
G01*
X137579000Y-77253500D01*
G75*
G02*
X137641500Y-77191000I62500J0D01*
G01*
X138316500Y-77191000D01*
G75*
G02*
X138379000Y-77253500I0J-62500D01*
G01*
X138379000Y-77378500D01*
G75*
G02*
X138316500Y-77441000I-62500J0D01*
G01*
G37*
G36*
G01*
X138316500Y-77941000D02*
X137641500Y-77941000D01*
G75*
G02*
X137579000Y-77878500I0J62500D01*
G01*
X137579000Y-77753500D01*
G75*
G02*
X137641500Y-77691000I62500J0D01*
G01*
X138316500Y-77691000D01*
G75*
G02*
X138379000Y-77753500I0J-62500D01*
G01*
X138379000Y-77878500D01*
G75*
G02*
X138316500Y-77941000I-62500J0D01*
G01*
G37*
G36*
G01*
X138316500Y-78441000D02*
X137641500Y-78441000D01*
G75*
G02*
X137579000Y-78378500I0J62500D01*
G01*
X137579000Y-78253500D01*
G75*
G02*
X137641500Y-78191000I62500J0D01*
G01*
X138316500Y-78191000D01*
G75*
G02*
X138379000Y-78253500I0J-62500D01*
G01*
X138379000Y-78378500D01*
G75*
G02*
X138316500Y-78441000I-62500J0D01*
G01*
G37*
G36*
G01*
X137341500Y-79416000D02*
X137216500Y-79416000D01*
G75*
G02*
X137154000Y-79353500I0J62500D01*
G01*
X137154000Y-78678500D01*
G75*
G02*
X137216500Y-78616000I62500J0D01*
G01*
X137341500Y-78616000D01*
G75*
G02*
X137404000Y-78678500I0J-62500D01*
G01*
X137404000Y-79353500D01*
G75*
G02*
X137341500Y-79416000I-62500J0D01*
G01*
G37*
G36*
G01*
X136841500Y-79416000D02*
X136716500Y-79416000D01*
G75*
G02*
X136654000Y-79353500I0J62500D01*
G01*
X136654000Y-78678500D01*
G75*
G02*
X136716500Y-78616000I62500J0D01*
G01*
X136841500Y-78616000D01*
G75*
G02*
X136904000Y-78678500I0J-62500D01*
G01*
X136904000Y-79353500D01*
G75*
G02*
X136841500Y-79416000I-62500J0D01*
G01*
G37*
G36*
G01*
X136341500Y-79416000D02*
X136216500Y-79416000D01*
G75*
G02*
X136154000Y-79353500I0J62500D01*
G01*
X136154000Y-78678500D01*
G75*
G02*
X136216500Y-78616000I62500J0D01*
G01*
X136341500Y-78616000D01*
G75*
G02*
X136404000Y-78678500I0J-62500D01*
G01*
X136404000Y-79353500D01*
G75*
G02*
X136341500Y-79416000I-62500J0D01*
G01*
G37*
G36*
G01*
X135841500Y-79416000D02*
X135716500Y-79416000D01*
G75*
G02*
X135654000Y-79353500I0J62500D01*
G01*
X135654000Y-78678500D01*
G75*
G02*
X135716500Y-78616000I62500J0D01*
G01*
X135841500Y-78616000D01*
G75*
G02*
X135904000Y-78678500I0J-62500D01*
G01*
X135904000Y-79353500D01*
G75*
G02*
X135841500Y-79416000I-62500J0D01*
G01*
G37*
G36*
G01*
X135341500Y-79416000D02*
X135216500Y-79416000D01*
G75*
G02*
X135154000Y-79353500I0J62500D01*
G01*
X135154000Y-78678500D01*
G75*
G02*
X135216500Y-78616000I62500J0D01*
G01*
X135341500Y-78616000D01*
G75*
G02*
X135404000Y-78678500I0J-62500D01*
G01*
X135404000Y-79353500D01*
G75*
G02*
X135341500Y-79416000I-62500J0D01*
G01*
G37*
G36*
G01*
X134841500Y-79416000D02*
X134716500Y-79416000D01*
G75*
G02*
X134654000Y-79353500I0J62500D01*
G01*
X134654000Y-78678500D01*
G75*
G02*
X134716500Y-78616000I62500J0D01*
G01*
X134841500Y-78616000D01*
G75*
G02*
X134904000Y-78678500I0J-62500D01*
G01*
X134904000Y-79353500D01*
G75*
G02*
X134841500Y-79416000I-62500J0D01*
G01*
G37*
G36*
G01*
X134341500Y-79416000D02*
X134216500Y-79416000D01*
G75*
G02*
X134154000Y-79353500I0J62500D01*
G01*
X134154000Y-78678500D01*
G75*
G02*
X134216500Y-78616000I62500J0D01*
G01*
X134341500Y-78616000D01*
G75*
G02*
X134404000Y-78678500I0J-62500D01*
G01*
X134404000Y-79353500D01*
G75*
G02*
X134341500Y-79416000I-62500J0D01*
G01*
G37*
G36*
G01*
X133841500Y-79416000D02*
X133716500Y-79416000D01*
G75*
G02*
X133654000Y-79353500I0J62500D01*
G01*
X133654000Y-78678500D01*
G75*
G02*
X133716500Y-78616000I62500J0D01*
G01*
X133841500Y-78616000D01*
G75*
G02*
X133904000Y-78678500I0J-62500D01*
G01*
X133904000Y-79353500D01*
G75*
G02*
X133841500Y-79416000I-62500J0D01*
G01*
G37*
%TD*%
%TO.C,R8*%
G36*
G01*
X125890000Y-94175000D02*
X125890000Y-92925000D01*
G75*
G02*
X126140000Y-92675000I250000J0D01*
G01*
X126940000Y-92675000D01*
G75*
G02*
X127190000Y-92925000I0J-250000D01*
G01*
X127190000Y-94175000D01*
G75*
G02*
X126940000Y-94425000I-250000J0D01*
G01*
X126140000Y-94425000D01*
G75*
G02*
X125890000Y-94175000I0J250000D01*
G01*
G37*
G36*
G01*
X122790000Y-94175000D02*
X122790000Y-92925000D01*
G75*
G02*
X123040000Y-92675000I250000J0D01*
G01*
X123840000Y-92675000D01*
G75*
G02*
X124090000Y-92925000I0J-250000D01*
G01*
X124090000Y-94175000D01*
G75*
G02*
X123840000Y-94425000I-250000J0D01*
G01*
X123040000Y-94425000D01*
G75*
G02*
X122790000Y-94175000I0J250000D01*
G01*
G37*
%TD*%
%TO.C,R7*%
G36*
G01*
X125910000Y-91475000D02*
X125910000Y-90225000D01*
G75*
G02*
X126160000Y-89975000I250000J0D01*
G01*
X126960000Y-89975000D01*
G75*
G02*
X127210000Y-90225000I0J-250000D01*
G01*
X127210000Y-91475000D01*
G75*
G02*
X126960000Y-91725000I-250000J0D01*
G01*
X126160000Y-91725000D01*
G75*
G02*
X125910000Y-91475000I0J250000D01*
G01*
G37*
G36*
G01*
X122810000Y-91475000D02*
X122810000Y-90225000D01*
G75*
G02*
X123060000Y-89975000I250000J0D01*
G01*
X123860000Y-89975000D01*
G75*
G02*
X124110000Y-90225000I0J-250000D01*
G01*
X124110000Y-91475000D01*
G75*
G02*
X123860000Y-91725000I-250000J0D01*
G01*
X123060000Y-91725000D01*
G75*
G02*
X122810000Y-91475000I0J250000D01*
G01*
G37*
%TD*%
%TO.C,R6*%
G36*
G01*
X125890000Y-88615000D02*
X125890000Y-87365000D01*
G75*
G02*
X126140000Y-87115000I250000J0D01*
G01*
X126940000Y-87115000D01*
G75*
G02*
X127190000Y-87365000I0J-250000D01*
G01*
X127190000Y-88615000D01*
G75*
G02*
X126940000Y-88865000I-250000J0D01*
G01*
X126140000Y-88865000D01*
G75*
G02*
X125890000Y-88615000I0J250000D01*
G01*
G37*
G36*
G01*
X122790000Y-88615000D02*
X122790000Y-87365000D01*
G75*
G02*
X123040000Y-87115000I250000J0D01*
G01*
X123840000Y-87115000D01*
G75*
G02*
X124090000Y-87365000I0J-250000D01*
G01*
X124090000Y-88615000D01*
G75*
G02*
X123840000Y-88865000I-250000J0D01*
G01*
X123040000Y-88865000D01*
G75*
G02*
X122790000Y-88615000I0J250000D01*
G01*
G37*
%TD*%
%TO.C,R5*%
G36*
G01*
X125870000Y-85885000D02*
X125870000Y-84635000D01*
G75*
G02*
X126120000Y-84385000I250000J0D01*
G01*
X126920000Y-84385000D01*
G75*
G02*
X127170000Y-84635000I0J-250000D01*
G01*
X127170000Y-85885000D01*
G75*
G02*
X126920000Y-86135000I-250000J0D01*
G01*
X126120000Y-86135000D01*
G75*
G02*
X125870000Y-85885000I0J250000D01*
G01*
G37*
G36*
G01*
X122770000Y-85885000D02*
X122770000Y-84635000D01*
G75*
G02*
X123020000Y-84385000I250000J0D01*
G01*
X123820000Y-84385000D01*
G75*
G02*
X124070000Y-84635000I0J-250000D01*
G01*
X124070000Y-85885000D01*
G75*
G02*
X123820000Y-86135000I-250000J0D01*
G01*
X123020000Y-86135000D01*
G75*
G02*
X122770000Y-85885000I0J250000D01*
G01*
G37*
%TD*%
%TO.C,R4*%
G36*
G01*
X118775000Y-68800000D02*
X120025000Y-68800000D01*
G75*
G02*
X120275000Y-69050000I0J-250000D01*
G01*
X120275000Y-69850000D01*
G75*
G02*
X120025000Y-70100000I-250000J0D01*
G01*
X118775000Y-70100000D01*
G75*
G02*
X118525000Y-69850000I0J250000D01*
G01*
X118525000Y-69050000D01*
G75*
G02*
X118775000Y-68800000I250000J0D01*
G01*
G37*
G36*
G01*
X118775000Y-65700000D02*
X120025000Y-65700000D01*
G75*
G02*
X120275000Y-65950000I0J-250000D01*
G01*
X120275000Y-66750000D01*
G75*
G02*
X120025000Y-67000000I-250000J0D01*
G01*
X118775000Y-67000000D01*
G75*
G02*
X118525000Y-66750000I0J250000D01*
G01*
X118525000Y-65950000D01*
G75*
G02*
X118775000Y-65700000I250000J0D01*
G01*
G37*
%TD*%
%TO.C,R3*%
G36*
G01*
X118315000Y-55590000D02*
X117065000Y-55590000D01*
G75*
G02*
X116815000Y-55340000I0J250000D01*
G01*
X116815000Y-54540000D01*
G75*
G02*
X117065000Y-54290000I250000J0D01*
G01*
X118315000Y-54290000D01*
G75*
G02*
X118565000Y-54540000I0J-250000D01*
G01*
X118565000Y-55340000D01*
G75*
G02*
X118315000Y-55590000I-250000J0D01*
G01*
G37*
G36*
G01*
X118315000Y-58690000D02*
X117065000Y-58690000D01*
G75*
G02*
X116815000Y-58440000I0J250000D01*
G01*
X116815000Y-57640000D01*
G75*
G02*
X117065000Y-57390000I250000J0D01*
G01*
X118315000Y-57390000D01*
G75*
G02*
X118565000Y-57640000I0J-250000D01*
G01*
X118565000Y-58440000D01*
G75*
G02*
X118315000Y-58690000I-250000J0D01*
G01*
G37*
%TD*%
%TO.C,R2*%
G36*
G01*
X131400000Y-91525000D02*
X131400000Y-90275000D01*
G75*
G02*
X131650000Y-90025000I250000J0D01*
G01*
X132450000Y-90025000D01*
G75*
G02*
X132700000Y-90275000I0J-250000D01*
G01*
X132700000Y-91525000D01*
G75*
G02*
X132450000Y-91775000I-250000J0D01*
G01*
X131650000Y-91775000D01*
G75*
G02*
X131400000Y-91525000I0J250000D01*
G01*
G37*
G36*
G01*
X128300000Y-91525000D02*
X128300000Y-90275000D01*
G75*
G02*
X128550000Y-90025000I250000J0D01*
G01*
X129350000Y-90025000D01*
G75*
G02*
X129600000Y-90275000I0J-250000D01*
G01*
X129600000Y-91525000D01*
G75*
G02*
X129350000Y-91775000I-250000J0D01*
G01*
X128550000Y-91775000D01*
G75*
G02*
X128300000Y-91525000I0J250000D01*
G01*
G37*
%TD*%
%TO.C,R1*%
G36*
G01*
X134869000Y-65831000D02*
X134869000Y-64581000D01*
G75*
G02*
X135119000Y-64331000I250000J0D01*
G01*
X135919000Y-64331000D01*
G75*
G02*
X136169000Y-64581000I0J-250000D01*
G01*
X136169000Y-65831000D01*
G75*
G02*
X135919000Y-66081000I-250000J0D01*
G01*
X135119000Y-66081000D01*
G75*
G02*
X134869000Y-65831000I0J250000D01*
G01*
G37*
G36*
G01*
X131769000Y-65831000D02*
X131769000Y-64581000D01*
G75*
G02*
X132019000Y-64331000I250000J0D01*
G01*
X132819000Y-64331000D01*
G75*
G02*
X133069000Y-64581000I0J-250000D01*
G01*
X133069000Y-65831000D01*
G75*
G02*
X132819000Y-66081000I-250000J0D01*
G01*
X132019000Y-66081000D01*
G75*
G02*
X131769000Y-65831000I0J250000D01*
G01*
G37*
%TD*%
%TO.C,L6*%
G36*
G01*
X125125000Y-114475000D02*
X126375000Y-114475000D01*
G75*
G02*
X126625000Y-114725000I0J-250000D01*
G01*
X126625000Y-115650000D01*
G75*
G02*
X126375000Y-115900000I-250000J0D01*
G01*
X125125000Y-115900000D01*
G75*
G02*
X124875000Y-115650000I0J250000D01*
G01*
X124875000Y-114725000D01*
G75*
G02*
X125125000Y-114475000I250000J0D01*
G01*
G37*
G36*
G01*
X125125000Y-111500000D02*
X126375000Y-111500000D01*
G75*
G02*
X126625000Y-111750000I0J-250000D01*
G01*
X126625000Y-112675000D01*
G75*
G02*
X126375000Y-112925000I-250000J0D01*
G01*
X125125000Y-112925000D01*
G75*
G02*
X124875000Y-112675000I0J250000D01*
G01*
X124875000Y-111750000D01*
G75*
G02*
X125125000Y-111500000I250000J0D01*
G01*
G37*
%TD*%
%TO.C,L5*%
G36*
G01*
X121575000Y-114475000D02*
X122825000Y-114475000D01*
G75*
G02*
X123075000Y-114725000I0J-250000D01*
G01*
X123075000Y-115650000D01*
G75*
G02*
X122825000Y-115900000I-250000J0D01*
G01*
X121575000Y-115900000D01*
G75*
G02*
X121325000Y-115650000I0J250000D01*
G01*
X121325000Y-114725000D01*
G75*
G02*
X121575000Y-114475000I250000J0D01*
G01*
G37*
G36*
G01*
X121575000Y-111500000D02*
X122825000Y-111500000D01*
G75*
G02*
X123075000Y-111750000I0J-250000D01*
G01*
X123075000Y-112675000D01*
G75*
G02*
X122825000Y-112925000I-250000J0D01*
G01*
X121575000Y-112925000D01*
G75*
G02*
X121325000Y-112675000I0J250000D01*
G01*
X121325000Y-111750000D01*
G75*
G02*
X121575000Y-111500000I250000J0D01*
G01*
G37*
%TD*%
%TO.C,L4*%
G36*
G01*
X121575000Y-120562500D02*
X122825000Y-120562500D01*
G75*
G02*
X123075000Y-120812500I0J-250000D01*
G01*
X123075000Y-121737500D01*
G75*
G02*
X122825000Y-121987500I-250000J0D01*
G01*
X121575000Y-121987500D01*
G75*
G02*
X121325000Y-121737500I0J250000D01*
G01*
X121325000Y-120812500D01*
G75*
G02*
X121575000Y-120562500I250000J0D01*
G01*
G37*
G36*
G01*
X121575000Y-117587500D02*
X122825000Y-117587500D01*
G75*
G02*
X123075000Y-117837500I0J-250000D01*
G01*
X123075000Y-118762500D01*
G75*
G02*
X122825000Y-119012500I-250000J0D01*
G01*
X121575000Y-119012500D01*
G75*
G02*
X121325000Y-118762500I0J250000D01*
G01*
X121325000Y-117837500D01*
G75*
G02*
X121575000Y-117587500I250000J0D01*
G01*
G37*
%TD*%
%TO.C,L3*%
G36*
G01*
X125075000Y-120562500D02*
X126325000Y-120562500D01*
G75*
G02*
X126575000Y-120812500I0J-250000D01*
G01*
X126575000Y-121737500D01*
G75*
G02*
X126325000Y-121987500I-250000J0D01*
G01*
X125075000Y-121987500D01*
G75*
G02*
X124825000Y-121737500I0J250000D01*
G01*
X124825000Y-120812500D01*
G75*
G02*
X125075000Y-120562500I250000J0D01*
G01*
G37*
G36*
G01*
X125075000Y-117587500D02*
X126325000Y-117587500D01*
G75*
G02*
X126575000Y-117837500I0J-250000D01*
G01*
X126575000Y-118762500D01*
G75*
G02*
X126325000Y-119012500I-250000J0D01*
G01*
X125075000Y-119012500D01*
G75*
G02*
X124825000Y-118762500I0J250000D01*
G01*
X124825000Y-117837500D01*
G75*
G02*
X125075000Y-117587500I250000J0D01*
G01*
G37*
%TD*%
%TO.C,L2*%
G36*
G01*
X139401000Y-120579000D02*
X140651000Y-120579000D01*
G75*
G02*
X140901000Y-120829000I0J-250000D01*
G01*
X140901000Y-121754000D01*
G75*
G02*
X140651000Y-122004000I-250000J0D01*
G01*
X139401000Y-122004000D01*
G75*
G02*
X139151000Y-121754000I0J250000D01*
G01*
X139151000Y-120829000D01*
G75*
G02*
X139401000Y-120579000I250000J0D01*
G01*
G37*
G36*
G01*
X139401000Y-117604000D02*
X140651000Y-117604000D01*
G75*
G02*
X140901000Y-117854000I0J-250000D01*
G01*
X140901000Y-118779000D01*
G75*
G02*
X140651000Y-119029000I-250000J0D01*
G01*
X139401000Y-119029000D01*
G75*
G02*
X139151000Y-118779000I0J250000D01*
G01*
X139151000Y-117854000D01*
G75*
G02*
X139401000Y-117604000I250000J0D01*
G01*
G37*
%TD*%
%TO.C,L1*%
G36*
G01*
X146375000Y-120575000D02*
X147625000Y-120575000D01*
G75*
G02*
X147875000Y-120825000I0J-250000D01*
G01*
X147875000Y-121750000D01*
G75*
G02*
X147625000Y-122000000I-250000J0D01*
G01*
X146375000Y-122000000D01*
G75*
G02*
X146125000Y-121750000I0J250000D01*
G01*
X146125000Y-120825000D01*
G75*
G02*
X146375000Y-120575000I250000J0D01*
G01*
G37*
G36*
G01*
X146375000Y-117600000D02*
X147625000Y-117600000D01*
G75*
G02*
X147875000Y-117850000I0J-250000D01*
G01*
X147875000Y-118775000D01*
G75*
G02*
X147625000Y-119025000I-250000J0D01*
G01*
X146375000Y-119025000D01*
G75*
G02*
X146125000Y-118775000I0J250000D01*
G01*
X146125000Y-117850000D01*
G75*
G02*
X146375000Y-117600000I250000J0D01*
G01*
G37*
%TD*%
D20*
%TO.C,J11*%
X133800000Y-48000000D03*
X138800000Y-48000000D03*
D21*
X132425000Y-45250000D03*
X140175000Y-45250000D03*
D22*
X132575000Y-49050000D03*
X140025000Y-49050000D03*
D23*
X135000000Y-49100000D03*
X135650000Y-49100000D03*
X136300000Y-49100000D03*
X136950000Y-49100000D03*
X137600000Y-49100000D03*
%TD*%
D12*
%TO.C,J9*%
X136144000Y-132280000D03*
D13*
X138969000Y-132080000D03*
X133319000Y-132080000D03*
%TD*%
D12*
%TO.C,J7*%
X145034000Y-132280000D03*
D13*
X147859000Y-132080000D03*
X142209000Y-132080000D03*
%TD*%
D12*
%TO.C,J6*%
X127254000Y-132280000D03*
D13*
X130079000Y-132080000D03*
X124429000Y-132080000D03*
%TD*%
D24*
%TO.C,J5*%
X118979000Y-93966000D03*
%TD*%
%TO.C,J4*%
X118899000Y-91336000D03*
%TD*%
%TO.C,J3*%
X118869000Y-88746000D03*
%TD*%
%TO.C,J2*%
X118929000Y-86156000D03*
%TD*%
%TO.C,J1*%
X118949000Y-83556000D03*
%TD*%
D25*
%TO.C,D5*%
X121750000Y-55740000D03*
D26*
X124290000Y-55740000D03*
%TD*%
D16*
%TO.C,D2*%
X137400000Y-57200000D03*
X138350000Y-59200000D03*
X136450000Y-59200000D03*
%TD*%
%TO.C,D1*%
X132970000Y-57220000D03*
X133920000Y-59220000D03*
X132020000Y-59220000D03*
%TD*%
%TO.C,C43*%
G36*
G01*
X134949999Y-99100000D02*
X136250001Y-99100000D01*
G75*
G02*
X136500000Y-99349999I0J-249999D01*
G01*
X136500000Y-100175001D01*
G75*
G02*
X136250001Y-100425000I-249999J0D01*
G01*
X134949999Y-100425000D01*
G75*
G02*
X134700000Y-100175001I0J249999D01*
G01*
X134700000Y-99349999D01*
G75*
G02*
X134949999Y-99100000I249999J0D01*
G01*
G37*
G36*
G01*
X134949999Y-95975000D02*
X136250001Y-95975000D01*
G75*
G02*
X136500000Y-96224999I0J-249999D01*
G01*
X136500000Y-97050001D01*
G75*
G02*
X136250001Y-97300000I-249999J0D01*
G01*
X134949999Y-97300000D01*
G75*
G02*
X134700000Y-97050001I0J249999D01*
G01*
X134700000Y-96224999D01*
G75*
G02*
X134949999Y-95975000I249999J0D01*
G01*
G37*
%TD*%
%TO.C,C42*%
G36*
G01*
X142650001Y-97300000D02*
X141349999Y-97300000D01*
G75*
G02*
X141100000Y-97050001I0J249999D01*
G01*
X141100000Y-96224999D01*
G75*
G02*
X141349999Y-95975000I249999J0D01*
G01*
X142650001Y-95975000D01*
G75*
G02*
X142900000Y-96224999I0J-249999D01*
G01*
X142900000Y-97050001D01*
G75*
G02*
X142650001Y-97300000I-249999J0D01*
G01*
G37*
G36*
G01*
X142650001Y-100425000D02*
X141349999Y-100425000D01*
G75*
G02*
X141100000Y-100175001I0J249999D01*
G01*
X141100000Y-99349999D01*
G75*
G02*
X141349999Y-99100000I249999J0D01*
G01*
X142650001Y-99100000D01*
G75*
G02*
X142900000Y-99349999I0J-249999D01*
G01*
X142900000Y-100175001D01*
G75*
G02*
X142650001Y-100425000I-249999J0D01*
G01*
G37*
%TD*%
%TO.C,C41*%
G36*
G01*
X115909999Y-80850000D02*
X117210001Y-80850000D01*
G75*
G02*
X117460000Y-81099999I0J-249999D01*
G01*
X117460000Y-81925001D01*
G75*
G02*
X117210001Y-82175000I-249999J0D01*
G01*
X115909999Y-82175000D01*
G75*
G02*
X115660000Y-81925001I0J249999D01*
G01*
X115660000Y-81099999D01*
G75*
G02*
X115909999Y-80850000I249999J0D01*
G01*
G37*
G36*
G01*
X115909999Y-77725000D02*
X117210001Y-77725000D01*
G75*
G02*
X117460000Y-77974999I0J-249999D01*
G01*
X117460000Y-78800001D01*
G75*
G02*
X117210001Y-79050000I-249999J0D01*
G01*
X115909999Y-79050000D01*
G75*
G02*
X115660000Y-78800001I0J249999D01*
G01*
X115660000Y-77974999D01*
G75*
G02*
X115909999Y-77725000I249999J0D01*
G01*
G37*
%TD*%
%TO.C,C40*%
G36*
G01*
X153900000Y-57350001D02*
X153900000Y-56049999D01*
G75*
G02*
X154149999Y-55800000I249999J0D01*
G01*
X154975001Y-55800000D01*
G75*
G02*
X155225000Y-56049999I0J-249999D01*
G01*
X155225000Y-57350001D01*
G75*
G02*
X154975001Y-57600000I-249999J0D01*
G01*
X154149999Y-57600000D01*
G75*
G02*
X153900000Y-57350001I0J249999D01*
G01*
G37*
G36*
G01*
X150775000Y-57350001D02*
X150775000Y-56049999D01*
G75*
G02*
X151024999Y-55800000I249999J0D01*
G01*
X151850001Y-55800000D01*
G75*
G02*
X152100000Y-56049999I0J-249999D01*
G01*
X152100000Y-57350001D01*
G75*
G02*
X151850001Y-57600000I-249999J0D01*
G01*
X151024999Y-57600000D01*
G75*
G02*
X150775000Y-57350001I0J249999D01*
G01*
G37*
%TD*%
%TO.C,C39*%
G36*
G01*
X141375000Y-74550001D02*
X141375000Y-73249999D01*
G75*
G02*
X141624999Y-73000000I249999J0D01*
G01*
X142450001Y-73000000D01*
G75*
G02*
X142700000Y-73249999I0J-249999D01*
G01*
X142700000Y-74550001D01*
G75*
G02*
X142450001Y-74800000I-249999J0D01*
G01*
X141624999Y-74800000D01*
G75*
G02*
X141375000Y-74550001I0J249999D01*
G01*
G37*
G36*
G01*
X144500000Y-74550001D02*
X144500000Y-73249999D01*
G75*
G02*
X144749999Y-73000000I249999J0D01*
G01*
X145575001Y-73000000D01*
G75*
G02*
X145825000Y-73249999I0J-249999D01*
G01*
X145825000Y-74550001D01*
G75*
G02*
X145575001Y-74800000I-249999J0D01*
G01*
X144749999Y-74800000D01*
G75*
G02*
X144500000Y-74550001I0J249999D01*
G01*
G37*
%TD*%
%TO.C,C38*%
G36*
G01*
X153900000Y-60950001D02*
X153900000Y-59649999D01*
G75*
G02*
X154149999Y-59400000I249999J0D01*
G01*
X154975001Y-59400000D01*
G75*
G02*
X155225000Y-59649999I0J-249999D01*
G01*
X155225000Y-60950001D01*
G75*
G02*
X154975001Y-61200000I-249999J0D01*
G01*
X154149999Y-61200000D01*
G75*
G02*
X153900000Y-60950001I0J249999D01*
G01*
G37*
G36*
G01*
X150775000Y-60950001D02*
X150775000Y-59649999D01*
G75*
G02*
X151024999Y-59400000I249999J0D01*
G01*
X151850001Y-59400000D01*
G75*
G02*
X152100000Y-59649999I0J-249999D01*
G01*
X152100000Y-60950001D01*
G75*
G02*
X151850001Y-61200000I-249999J0D01*
G01*
X151024999Y-61200000D01*
G75*
G02*
X150775000Y-60950001I0J249999D01*
G01*
G37*
%TD*%
%TO.C,C37*%
G36*
G01*
X139740001Y-63920000D02*
X138439999Y-63920000D01*
G75*
G02*
X138190000Y-63670001I0J249999D01*
G01*
X138190000Y-62844999D01*
G75*
G02*
X138439999Y-62595000I249999J0D01*
G01*
X139740001Y-62595000D01*
G75*
G02*
X139990000Y-62844999I0J-249999D01*
G01*
X139990000Y-63670001D01*
G75*
G02*
X139740001Y-63920000I-249999J0D01*
G01*
G37*
G36*
G01*
X139740001Y-67045000D02*
X138439999Y-67045000D01*
G75*
G02*
X138190000Y-66795001I0J249999D01*
G01*
X138190000Y-65969999D01*
G75*
G02*
X138439999Y-65720000I249999J0D01*
G01*
X139740001Y-65720000D01*
G75*
G02*
X139990000Y-65969999I0J-249999D01*
G01*
X139990000Y-66795001D01*
G75*
G02*
X139740001Y-67045000I-249999J0D01*
G01*
G37*
%TD*%
%TO.C,C36*%
G36*
G01*
X150699000Y-74576001D02*
X150699000Y-73275999D01*
G75*
G02*
X150948999Y-73026000I249999J0D01*
G01*
X151774001Y-73026000D01*
G75*
G02*
X152024000Y-73275999I0J-249999D01*
G01*
X152024000Y-74576001D01*
G75*
G02*
X151774001Y-74826000I-249999J0D01*
G01*
X150948999Y-74826000D01*
G75*
G02*
X150699000Y-74576001I0J249999D01*
G01*
G37*
G36*
G01*
X147574000Y-74576001D02*
X147574000Y-73275999D01*
G75*
G02*
X147823999Y-73026000I249999J0D01*
G01*
X148649001Y-73026000D01*
G75*
G02*
X148899000Y-73275999I0J-249999D01*
G01*
X148899000Y-74576001D01*
G75*
G02*
X148649001Y-74826000I-249999J0D01*
G01*
X147823999Y-74826000D01*
G75*
G02*
X147574000Y-74576001I0J249999D01*
G01*
G37*
%TD*%
D26*
%TO.C,C35*%
X142499000Y-64986000D03*
D27*
X144999000Y-64986000D03*
%TD*%
%TO.C,C34*%
G36*
G01*
X132159999Y-114560000D02*
X133460001Y-114560000D01*
G75*
G02*
X133710000Y-114809999I0J-249999D01*
G01*
X133710000Y-115635001D01*
G75*
G02*
X133460001Y-115885000I-249999J0D01*
G01*
X132159999Y-115885000D01*
G75*
G02*
X131910000Y-115635001I0J249999D01*
G01*
X131910000Y-114809999D01*
G75*
G02*
X132159999Y-114560000I249999J0D01*
G01*
G37*
G36*
G01*
X132159999Y-111435000D02*
X133460001Y-111435000D01*
G75*
G02*
X133710000Y-111684999I0J-249999D01*
G01*
X133710000Y-112510001D01*
G75*
G02*
X133460001Y-112760000I-249999J0D01*
G01*
X132159999Y-112760000D01*
G75*
G02*
X131910000Y-112510001I0J249999D01*
G01*
X131910000Y-111684999D01*
G75*
G02*
X132159999Y-111435000I249999J0D01*
G01*
G37*
%TD*%
%TO.C,C33*%
G36*
G01*
X133450001Y-118937500D02*
X132149999Y-118937500D01*
G75*
G02*
X131900000Y-118687501I0J249999D01*
G01*
X131900000Y-117862499D01*
G75*
G02*
X132149999Y-117612500I249999J0D01*
G01*
X133450001Y-117612500D01*
G75*
G02*
X133700000Y-117862499I0J-249999D01*
G01*
X133700000Y-118687501D01*
G75*
G02*
X133450001Y-118937500I-249999J0D01*
G01*
G37*
G36*
G01*
X133450001Y-122062500D02*
X132149999Y-122062500D01*
G75*
G02*
X131900000Y-121812501I0J249999D01*
G01*
X131900000Y-120987499D01*
G75*
G02*
X132149999Y-120737500I249999J0D01*
G01*
X133450001Y-120737500D01*
G75*
G02*
X133700000Y-120987499I0J-249999D01*
G01*
X133700000Y-121812501D01*
G75*
G02*
X133450001Y-122062500I-249999J0D01*
G01*
G37*
%TD*%
%TO.C,C32*%
G36*
G01*
X135749999Y-120700000D02*
X137050001Y-120700000D01*
G75*
G02*
X137300000Y-120949999I0J-249999D01*
G01*
X137300000Y-121775001D01*
G75*
G02*
X137050001Y-122025000I-249999J0D01*
G01*
X135749999Y-122025000D01*
G75*
G02*
X135500000Y-121775001I0J249999D01*
G01*
X135500000Y-120949999D01*
G75*
G02*
X135749999Y-120700000I249999J0D01*
G01*
G37*
G36*
G01*
X135749999Y-117575000D02*
X137050001Y-117575000D01*
G75*
G02*
X137300000Y-117824999I0J-249999D01*
G01*
X137300000Y-118650001D01*
G75*
G02*
X137050001Y-118900000I-249999J0D01*
G01*
X135749999Y-118900000D01*
G75*
G02*
X135500000Y-118650001I0J249999D01*
G01*
X135500000Y-117824999D01*
G75*
G02*
X135749999Y-117575000I249999J0D01*
G01*
G37*
%TD*%
%TO.C,C31*%
G36*
G01*
X129850001Y-118937500D02*
X128549999Y-118937500D01*
G75*
G02*
X128300000Y-118687501I0J249999D01*
G01*
X128300000Y-117862499D01*
G75*
G02*
X128549999Y-117612500I249999J0D01*
G01*
X129850001Y-117612500D01*
G75*
G02*
X130100000Y-117862499I0J-249999D01*
G01*
X130100000Y-118687501D01*
G75*
G02*
X129850001Y-118937500I-249999J0D01*
G01*
G37*
G36*
G01*
X129850001Y-122062500D02*
X128549999Y-122062500D01*
G75*
G02*
X128300000Y-121812501I0J249999D01*
G01*
X128300000Y-120987499D01*
G75*
G02*
X128549999Y-120737500I249999J0D01*
G01*
X129850001Y-120737500D01*
G75*
G02*
X130100000Y-120987499I0J-249999D01*
G01*
X130100000Y-121812501D01*
G75*
G02*
X129850001Y-122062500I-249999J0D01*
G01*
G37*
%TD*%
%TO.C,C30*%
G36*
G01*
X142849999Y-120704000D02*
X144150001Y-120704000D01*
G75*
G02*
X144400000Y-120953999I0J-249999D01*
G01*
X144400000Y-121779001D01*
G75*
G02*
X144150001Y-122029000I-249999J0D01*
G01*
X142849999Y-122029000D01*
G75*
G02*
X142600000Y-121779001I0J249999D01*
G01*
X142600000Y-120953999D01*
G75*
G02*
X142849999Y-120704000I249999J0D01*
G01*
G37*
G36*
G01*
X142849999Y-117579000D02*
X144150001Y-117579000D01*
G75*
G02*
X144400000Y-117828999I0J-249999D01*
G01*
X144400000Y-118654001D01*
G75*
G02*
X144150001Y-118904000I-249999J0D01*
G01*
X142849999Y-118904000D01*
G75*
G02*
X142600000Y-118654001I0J249999D01*
G01*
X142600000Y-117828999D01*
G75*
G02*
X142849999Y-117579000I249999J0D01*
G01*
G37*
%TD*%
%TO.C,C29*%
G36*
G01*
X133450001Y-124900000D02*
X132149999Y-124900000D01*
G75*
G02*
X131900000Y-124650001I0J249999D01*
G01*
X131900000Y-123824999D01*
G75*
G02*
X132149999Y-123575000I249999J0D01*
G01*
X133450001Y-123575000D01*
G75*
G02*
X133700000Y-123824999I0J-249999D01*
G01*
X133700000Y-124650001D01*
G75*
G02*
X133450001Y-124900000I-249999J0D01*
G01*
G37*
G36*
G01*
X133450001Y-128025000D02*
X132149999Y-128025000D01*
G75*
G02*
X131900000Y-127775001I0J249999D01*
G01*
X131900000Y-126949999D01*
G75*
G02*
X132149999Y-126700000I249999J0D01*
G01*
X133450001Y-126700000D01*
G75*
G02*
X133700000Y-126949999I0J-249999D01*
G01*
X133700000Y-127775001D01*
G75*
G02*
X133450001Y-128025000I-249999J0D01*
G01*
G37*
%TD*%
%TO.C,C28*%
G36*
G01*
X129850001Y-124937500D02*
X128549999Y-124937500D01*
G75*
G02*
X128300000Y-124687501I0J249999D01*
G01*
X128300000Y-123862499D01*
G75*
G02*
X128549999Y-123612500I249999J0D01*
G01*
X129850001Y-123612500D01*
G75*
G02*
X130100000Y-123862499I0J-249999D01*
G01*
X130100000Y-124687501D01*
G75*
G02*
X129850001Y-124937500I-249999J0D01*
G01*
G37*
G36*
G01*
X129850001Y-128062500D02*
X128549999Y-128062500D01*
G75*
G02*
X128300000Y-127812501I0J249999D01*
G01*
X128300000Y-126987499D01*
G75*
G02*
X128549999Y-126737500I249999J0D01*
G01*
X129850001Y-126737500D01*
G75*
G02*
X130100000Y-126987499I0J-249999D01*
G01*
X130100000Y-127812501D01*
G75*
G02*
X129850001Y-128062500I-249999J0D01*
G01*
G37*
%TD*%
%TO.C,C27*%
G36*
G01*
X126350001Y-124900000D02*
X125049999Y-124900000D01*
G75*
G02*
X124800000Y-124650001I0J249999D01*
G01*
X124800000Y-123824999D01*
G75*
G02*
X125049999Y-123575000I249999J0D01*
G01*
X126350001Y-123575000D01*
G75*
G02*
X126600000Y-123824999I0J-249999D01*
G01*
X126600000Y-124650001D01*
G75*
G02*
X126350001Y-124900000I-249999J0D01*
G01*
G37*
G36*
G01*
X126350001Y-128025000D02*
X125049999Y-128025000D01*
G75*
G02*
X124800000Y-127775001I0J249999D01*
G01*
X124800000Y-126949999D01*
G75*
G02*
X125049999Y-126700000I249999J0D01*
G01*
X126350001Y-126700000D01*
G75*
G02*
X126600000Y-126949999I0J-249999D01*
G01*
X126600000Y-127775001D01*
G75*
G02*
X126350001Y-128025000I-249999J0D01*
G01*
G37*
%TD*%
%TO.C,C26*%
G36*
G01*
X131500000Y-97250001D02*
X131500000Y-95949999D01*
G75*
G02*
X131749999Y-95700000I249999J0D01*
G01*
X132575001Y-95700000D01*
G75*
G02*
X132825000Y-95949999I0J-249999D01*
G01*
X132825000Y-97250001D01*
G75*
G02*
X132575001Y-97500000I-249999J0D01*
G01*
X131749999Y-97500000D01*
G75*
G02*
X131500000Y-97250001I0J249999D01*
G01*
G37*
G36*
G01*
X128375000Y-97250001D02*
X128375000Y-95949999D01*
G75*
G02*
X128624999Y-95700000I249999J0D01*
G01*
X129450001Y-95700000D01*
G75*
G02*
X129700000Y-95949999I0J-249999D01*
G01*
X129700000Y-97250001D01*
G75*
G02*
X129450001Y-97500000I-249999J0D01*
G01*
X128624999Y-97500000D01*
G75*
G02*
X128375000Y-97250001I0J249999D01*
G01*
G37*
%TD*%
%TO.C,C25*%
G36*
G01*
X148900000Y-79849999D02*
X148900000Y-81150001D01*
G75*
G02*
X148650001Y-81400000I-249999J0D01*
G01*
X147824999Y-81400000D01*
G75*
G02*
X147575000Y-81150001I0J249999D01*
G01*
X147575000Y-79849999D01*
G75*
G02*
X147824999Y-79600000I249999J0D01*
G01*
X148650001Y-79600000D01*
G75*
G02*
X148900000Y-79849999I0J-249999D01*
G01*
G37*
G36*
G01*
X152025000Y-79849999D02*
X152025000Y-81150001D01*
G75*
G02*
X151775001Y-81400000I-249999J0D01*
G01*
X150949999Y-81400000D01*
G75*
G02*
X150700000Y-81150001I0J249999D01*
G01*
X150700000Y-79849999D01*
G75*
G02*
X150949999Y-79600000I249999J0D01*
G01*
X151775001Y-79600000D01*
G75*
G02*
X152025000Y-79849999I0J-249999D01*
G01*
G37*
%TD*%
%TO.C,C24*%
G36*
G01*
X122640761Y-104422720D02*
X121340759Y-104422720D01*
G75*
G02*
X121090760Y-104172721I0J249999D01*
G01*
X121090760Y-103347719D01*
G75*
G02*
X121340759Y-103097720I249999J0D01*
G01*
X122640761Y-103097720D01*
G75*
G02*
X122890760Y-103347719I0J-249999D01*
G01*
X122890760Y-104172721D01*
G75*
G02*
X122640761Y-104422720I-249999J0D01*
G01*
G37*
G36*
G01*
X122640761Y-107547720D02*
X121340759Y-107547720D01*
G75*
G02*
X121090760Y-107297721I0J249999D01*
G01*
X121090760Y-106472719D01*
G75*
G02*
X121340759Y-106222720I249999J0D01*
G01*
X122640761Y-106222720D01*
G75*
G02*
X122890760Y-106472719I0J-249999D01*
G01*
X122890760Y-107297721D01*
G75*
G02*
X122640761Y-107547720I-249999J0D01*
G01*
G37*
%TD*%
%TO.C,C23*%
G36*
G01*
X139550001Y-97300000D02*
X138249999Y-97300000D01*
G75*
G02*
X138000000Y-97050001I0J249999D01*
G01*
X138000000Y-96224999D01*
G75*
G02*
X138249999Y-95975000I249999J0D01*
G01*
X139550001Y-95975000D01*
G75*
G02*
X139800000Y-96224999I0J-249999D01*
G01*
X139800000Y-97050001D01*
G75*
G02*
X139550001Y-97300000I-249999J0D01*
G01*
G37*
G36*
G01*
X139550001Y-100425000D02*
X138249999Y-100425000D01*
G75*
G02*
X138000000Y-100175001I0J249999D01*
G01*
X138000000Y-99349999D01*
G75*
G02*
X138249999Y-99100000I249999J0D01*
G01*
X139550001Y-99100000D01*
G75*
G02*
X139800000Y-99349999I0J-249999D01*
G01*
X139800000Y-100175001D01*
G75*
G02*
X139550001Y-100425000I-249999J0D01*
G01*
G37*
%TD*%
%TO.C,C22*%
G36*
G01*
X131469000Y-94250001D02*
X131469000Y-92949999D01*
G75*
G02*
X131718999Y-92700000I249999J0D01*
G01*
X132544001Y-92700000D01*
G75*
G02*
X132794000Y-92949999I0J-249999D01*
G01*
X132794000Y-94250001D01*
G75*
G02*
X132544001Y-94500000I-249999J0D01*
G01*
X131718999Y-94500000D01*
G75*
G02*
X131469000Y-94250001I0J249999D01*
G01*
G37*
G36*
G01*
X128344000Y-94250001D02*
X128344000Y-92949999D01*
G75*
G02*
X128593999Y-92700000I249999J0D01*
G01*
X129419001Y-92700000D01*
G75*
G02*
X129669000Y-92949999I0J-249999D01*
G01*
X129669000Y-94250001D01*
G75*
G02*
X129419001Y-94500000I-249999J0D01*
G01*
X128593999Y-94500000D01*
G75*
G02*
X128344000Y-94250001I0J249999D01*
G01*
G37*
%TD*%
%TO.C,C21*%
G36*
G01*
X145725000Y-87249999D02*
X145725000Y-88550001D01*
G75*
G02*
X145475001Y-88800000I-249999J0D01*
G01*
X144649999Y-88800000D01*
G75*
G02*
X144400000Y-88550001I0J249999D01*
G01*
X144400000Y-87249999D01*
G75*
G02*
X144649999Y-87000000I249999J0D01*
G01*
X145475001Y-87000000D01*
G75*
G02*
X145725000Y-87249999I0J-249999D01*
G01*
G37*
G36*
G01*
X142600000Y-87249999D02*
X142600000Y-88550001D01*
G75*
G02*
X142350001Y-88800000I-249999J0D01*
G01*
X141524999Y-88800000D01*
G75*
G02*
X141275000Y-88550001I0J249999D01*
G01*
X141275000Y-87249999D01*
G75*
G02*
X141524999Y-87000000I249999J0D01*
G01*
X142350001Y-87000000D01*
G75*
G02*
X142600000Y-87249999I0J-249999D01*
G01*
G37*
%TD*%
%TO.C,C20*%
G36*
G01*
X148900000Y-83549999D02*
X148900000Y-84850001D01*
G75*
G02*
X148650001Y-85100000I-249999J0D01*
G01*
X147824999Y-85100000D01*
G75*
G02*
X147575000Y-84850001I0J249999D01*
G01*
X147575000Y-83549999D01*
G75*
G02*
X147824999Y-83300000I249999J0D01*
G01*
X148650001Y-83300000D01*
G75*
G02*
X148900000Y-83549999I0J-249999D01*
G01*
G37*
G36*
G01*
X152025000Y-83549999D02*
X152025000Y-84850001D01*
G75*
G02*
X151775001Y-85100000I-249999J0D01*
G01*
X150949999Y-85100000D01*
G75*
G02*
X150700000Y-84850001I0J249999D01*
G01*
X150700000Y-83549999D01*
G75*
G02*
X150949999Y-83300000I249999J0D01*
G01*
X151775001Y-83300000D01*
G75*
G02*
X152025000Y-83549999I0J-249999D01*
G01*
G37*
%TD*%
%TO.C,C19*%
G36*
G01*
X142100000Y-103049999D02*
X142100000Y-104350001D01*
G75*
G02*
X141850001Y-104600000I-249999J0D01*
G01*
X141024999Y-104600000D01*
G75*
G02*
X140775000Y-104350001I0J249999D01*
G01*
X140775000Y-103049999D01*
G75*
G02*
X141024999Y-102800000I249999J0D01*
G01*
X141850001Y-102800000D01*
G75*
G02*
X142100000Y-103049999I0J-249999D01*
G01*
G37*
G36*
G01*
X145225000Y-103049999D02*
X145225000Y-104350001D01*
G75*
G02*
X144975001Y-104600000I-249999J0D01*
G01*
X144149999Y-104600000D01*
G75*
G02*
X143900000Y-104350001I0J249999D01*
G01*
X143900000Y-103049999D01*
G75*
G02*
X144149999Y-102800000I249999J0D01*
G01*
X144975001Y-102800000D01*
G75*
G02*
X145225000Y-103049999I0J-249999D01*
G01*
G37*
%TD*%
%TO.C,C18*%
G36*
G01*
X148909000Y-76549999D02*
X148909000Y-77850001D01*
G75*
G02*
X148659001Y-78100000I-249999J0D01*
G01*
X147833999Y-78100000D01*
G75*
G02*
X147584000Y-77850001I0J249999D01*
G01*
X147584000Y-76549999D01*
G75*
G02*
X147833999Y-76300000I249999J0D01*
G01*
X148659001Y-76300000D01*
G75*
G02*
X148909000Y-76549999I0J-249999D01*
G01*
G37*
G36*
G01*
X152034000Y-76549999D02*
X152034000Y-77850001D01*
G75*
G02*
X151784001Y-78100000I-249999J0D01*
G01*
X150958999Y-78100000D01*
G75*
G02*
X150709000Y-77850001I0J249999D01*
G01*
X150709000Y-76549999D01*
G75*
G02*
X150958999Y-76300000I249999J0D01*
G01*
X151784001Y-76300000D01*
G75*
G02*
X152034000Y-76549999I0J-249999D01*
G01*
G37*
%TD*%
%TO.C,C17*%
G36*
G01*
X129850001Y-112800000D02*
X128549999Y-112800000D01*
G75*
G02*
X128300000Y-112550001I0J249999D01*
G01*
X128300000Y-111724999D01*
G75*
G02*
X128549999Y-111475000I249999J0D01*
G01*
X129850001Y-111475000D01*
G75*
G02*
X130100000Y-111724999I0J-249999D01*
G01*
X130100000Y-112550001D01*
G75*
G02*
X129850001Y-112800000I-249999J0D01*
G01*
G37*
G36*
G01*
X129850001Y-115925000D02*
X128549999Y-115925000D01*
G75*
G02*
X128300000Y-115675001I0J249999D01*
G01*
X128300000Y-114849999D01*
G75*
G02*
X128549999Y-114600000I249999J0D01*
G01*
X129850001Y-114600000D01*
G75*
G02*
X130100000Y-114849999I0J-249999D01*
G01*
X130100000Y-115675001D01*
G75*
G02*
X129850001Y-115925000I-249999J0D01*
G01*
G37*
%TD*%
%TO.C,C16*%
G36*
G01*
X137050001Y-112740000D02*
X135749999Y-112740000D01*
G75*
G02*
X135500000Y-112490001I0J249999D01*
G01*
X135500000Y-111664999D01*
G75*
G02*
X135749999Y-111415000I249999J0D01*
G01*
X137050001Y-111415000D01*
G75*
G02*
X137300000Y-111664999I0J-249999D01*
G01*
X137300000Y-112490001D01*
G75*
G02*
X137050001Y-112740000I-249999J0D01*
G01*
G37*
G36*
G01*
X137050001Y-115865000D02*
X135749999Y-115865000D01*
G75*
G02*
X135500000Y-115615001I0J249999D01*
G01*
X135500000Y-114789999D01*
G75*
G02*
X135749999Y-114540000I249999J0D01*
G01*
X137050001Y-114540000D01*
G75*
G02*
X137300000Y-114789999I0J-249999D01*
G01*
X137300000Y-115615001D01*
G75*
G02*
X137050001Y-115865000I-249999J0D01*
G01*
G37*
%TD*%
%TO.C,C15*%
G36*
G01*
X144150001Y-112700000D02*
X142849999Y-112700000D01*
G75*
G02*
X142600000Y-112450001I0J249999D01*
G01*
X142600000Y-111624999D01*
G75*
G02*
X142849999Y-111375000I249999J0D01*
G01*
X144150001Y-111375000D01*
G75*
G02*
X144400000Y-111624999I0J-249999D01*
G01*
X144400000Y-112450001D01*
G75*
G02*
X144150001Y-112700000I-249999J0D01*
G01*
G37*
G36*
G01*
X144150001Y-115825000D02*
X142849999Y-115825000D01*
G75*
G02*
X142600000Y-115575001I0J249999D01*
G01*
X142600000Y-114749999D01*
G75*
G02*
X142849999Y-114500000I249999J0D01*
G01*
X144150001Y-114500000D01*
G75*
G02*
X144400000Y-114749999I0J-249999D01*
G01*
X144400000Y-115575001D01*
G75*
G02*
X144150001Y-115825000I-249999J0D01*
G01*
G37*
%TD*%
%TO.C,C14*%
G36*
G01*
X140650001Y-112737500D02*
X139349999Y-112737500D01*
G75*
G02*
X139100000Y-112487501I0J249999D01*
G01*
X139100000Y-111662499D01*
G75*
G02*
X139349999Y-111412500I249999J0D01*
G01*
X140650001Y-111412500D01*
G75*
G02*
X140900000Y-111662499I0J-249999D01*
G01*
X140900000Y-112487501D01*
G75*
G02*
X140650001Y-112737500I-249999J0D01*
G01*
G37*
G36*
G01*
X140650001Y-115862500D02*
X139349999Y-115862500D01*
G75*
G02*
X139100000Y-115612501I0J249999D01*
G01*
X139100000Y-114787499D01*
G75*
G02*
X139349999Y-114537500I249999J0D01*
G01*
X140650001Y-114537500D01*
G75*
G02*
X140900000Y-114787499I0J-249999D01*
G01*
X140900000Y-115612501D01*
G75*
G02*
X140650001Y-115862500I-249999J0D01*
G01*
G37*
%TD*%
%TO.C,C13*%
G36*
G01*
X142100000Y-106249999D02*
X142100000Y-107550001D01*
G75*
G02*
X141850001Y-107800000I-249999J0D01*
G01*
X141024999Y-107800000D01*
G75*
G02*
X140775000Y-107550001I0J249999D01*
G01*
X140775000Y-106249999D01*
G75*
G02*
X141024999Y-106000000I249999J0D01*
G01*
X141850001Y-106000000D01*
G75*
G02*
X142100000Y-106249999I0J-249999D01*
G01*
G37*
G36*
G01*
X145225000Y-106249999D02*
X145225000Y-107550001D01*
G75*
G02*
X144975001Y-107800000I-249999J0D01*
G01*
X144149999Y-107800000D01*
G75*
G02*
X143900000Y-107550001I0J249999D01*
G01*
X143900000Y-106249999D01*
G75*
G02*
X144149999Y-106000000I249999J0D01*
G01*
X144975001Y-106000000D01*
G75*
G02*
X145225000Y-106249999I0J-249999D01*
G01*
G37*
%TD*%
%TO.C,C12*%
G36*
G01*
X147650001Y-112700000D02*
X146349999Y-112700000D01*
G75*
G02*
X146100000Y-112450001I0J249999D01*
G01*
X146100000Y-111624999D01*
G75*
G02*
X146349999Y-111375000I249999J0D01*
G01*
X147650001Y-111375000D01*
G75*
G02*
X147900000Y-111624999I0J-249999D01*
G01*
X147900000Y-112450001D01*
G75*
G02*
X147650001Y-112700000I-249999J0D01*
G01*
G37*
G36*
G01*
X147650001Y-115825000D02*
X146349999Y-115825000D01*
G75*
G02*
X146100000Y-115575001I0J249999D01*
G01*
X146100000Y-114749999D01*
G75*
G02*
X146349999Y-114500000I249999J0D01*
G01*
X147650001Y-114500000D01*
G75*
G02*
X147900000Y-114749999I0J-249999D01*
G01*
X147900000Y-115575001D01*
G75*
G02*
X147650001Y-115825000I-249999J0D01*
G01*
G37*
%TD*%
%TO.C,C11*%
G36*
G01*
X126156121Y-104402400D02*
X124856119Y-104402400D01*
G75*
G02*
X124606120Y-104152401I0J249999D01*
G01*
X124606120Y-103327399D01*
G75*
G02*
X124856119Y-103077400I249999J0D01*
G01*
X126156121Y-103077400D01*
G75*
G02*
X126406120Y-103327399I0J-249999D01*
G01*
X126406120Y-104152401D01*
G75*
G02*
X126156121Y-104402400I-249999J0D01*
G01*
G37*
G36*
G01*
X126156121Y-107527400D02*
X124856119Y-107527400D01*
G75*
G02*
X124606120Y-107277401I0J249999D01*
G01*
X124606120Y-106452399D01*
G75*
G02*
X124856119Y-106202400I249999J0D01*
G01*
X126156121Y-106202400D01*
G75*
G02*
X126406120Y-106452399I0J-249999D01*
G01*
X126406120Y-107277401D01*
G75*
G02*
X126156121Y-107527400I-249999J0D01*
G01*
G37*
%TD*%
%TO.C,C10*%
G36*
G01*
X121400000Y-63550001D02*
X121400000Y-62249999D01*
G75*
G02*
X121649999Y-62000000I249999J0D01*
G01*
X122475001Y-62000000D01*
G75*
G02*
X122725000Y-62249999I0J-249999D01*
G01*
X122725000Y-63550001D01*
G75*
G02*
X122475001Y-63800000I-249999J0D01*
G01*
X121649999Y-63800000D01*
G75*
G02*
X121400000Y-63550001I0J249999D01*
G01*
G37*
G36*
G01*
X118275000Y-63550001D02*
X118275000Y-62249999D01*
G75*
G02*
X118524999Y-62000000I249999J0D01*
G01*
X119350001Y-62000000D01*
G75*
G02*
X119600000Y-62249999I0J-249999D01*
G01*
X119600000Y-63550001D01*
G75*
G02*
X119350001Y-63800000I-249999J0D01*
G01*
X118524999Y-63800000D01*
G75*
G02*
X118275000Y-63550001I0J249999D01*
G01*
G37*
%TD*%
%TO.C,C9*%
G36*
G01*
X121400000Y-73350001D02*
X121400000Y-72049999D01*
G75*
G02*
X121649999Y-71800000I249999J0D01*
G01*
X122475001Y-71800000D01*
G75*
G02*
X122725000Y-72049999I0J-249999D01*
G01*
X122725000Y-73350001D01*
G75*
G02*
X122475001Y-73600000I-249999J0D01*
G01*
X121649999Y-73600000D01*
G75*
G02*
X121400000Y-73350001I0J249999D01*
G01*
G37*
G36*
G01*
X118275000Y-73350001D02*
X118275000Y-72049999D01*
G75*
G02*
X118524999Y-71800000I249999J0D01*
G01*
X119350001Y-71800000D01*
G75*
G02*
X119600000Y-72049999I0J-249999D01*
G01*
X119600000Y-73350001D01*
G75*
G02*
X119350001Y-73600000I-249999J0D01*
G01*
X118524999Y-73600000D01*
G75*
G02*
X118275000Y-73350001I0J249999D01*
G01*
G37*
%TD*%
%TO.C,C8*%
G36*
G01*
X141375000Y-77850001D02*
X141375000Y-76549999D01*
G75*
G02*
X141624999Y-76300000I249999J0D01*
G01*
X142450001Y-76300000D01*
G75*
G02*
X142700000Y-76549999I0J-249999D01*
G01*
X142700000Y-77850001D01*
G75*
G02*
X142450001Y-78100000I-249999J0D01*
G01*
X141624999Y-78100000D01*
G75*
G02*
X141375000Y-77850001I0J249999D01*
G01*
G37*
G36*
G01*
X144500000Y-77850001D02*
X144500000Y-76549999D01*
G75*
G02*
X144749999Y-76300000I249999J0D01*
G01*
X145575001Y-76300000D01*
G75*
G02*
X145825000Y-76549999I0J-249999D01*
G01*
X145825000Y-77850001D01*
G75*
G02*
X145575001Y-78100000I-249999J0D01*
G01*
X144749999Y-78100000D01*
G75*
G02*
X144500000Y-77850001I0J249999D01*
G01*
G37*
%TD*%
%TO.C,C7*%
G36*
G01*
X124100000Y-78949999D02*
X124100000Y-80250001D01*
G75*
G02*
X123850001Y-80500000I-249999J0D01*
G01*
X123024999Y-80500000D01*
G75*
G02*
X122775000Y-80250001I0J249999D01*
G01*
X122775000Y-78949999D01*
G75*
G02*
X123024999Y-78700000I249999J0D01*
G01*
X123850001Y-78700000D01*
G75*
G02*
X124100000Y-78949999I0J-249999D01*
G01*
G37*
G36*
G01*
X127225000Y-78949999D02*
X127225000Y-80250001D01*
G75*
G02*
X126975001Y-80500000I-249999J0D01*
G01*
X126149999Y-80500000D01*
G75*
G02*
X125900000Y-80250001I0J249999D01*
G01*
X125900000Y-78949999D01*
G75*
G02*
X126149999Y-78700000I249999J0D01*
G01*
X126975001Y-78700000D01*
G75*
G02*
X127225000Y-78949999I0J-249999D01*
G01*
G37*
%TD*%
%TO.C,C6*%
G36*
G01*
X150700000Y-71250001D02*
X150700000Y-69949999D01*
G75*
G02*
X150949999Y-69700000I249999J0D01*
G01*
X151775001Y-69700000D01*
G75*
G02*
X152025000Y-69949999I0J-249999D01*
G01*
X152025000Y-71250001D01*
G75*
G02*
X151775001Y-71500000I-249999J0D01*
G01*
X150949999Y-71500000D01*
G75*
G02*
X150700000Y-71250001I0J249999D01*
G01*
G37*
G36*
G01*
X147575000Y-71250001D02*
X147575000Y-69949999D01*
G75*
G02*
X147824999Y-69700000I249999J0D01*
G01*
X148650001Y-69700000D01*
G75*
G02*
X148900000Y-69949999I0J-249999D01*
G01*
X148900000Y-71250001D01*
G75*
G02*
X148650001Y-71500000I-249999J0D01*
G01*
X147824999Y-71500000D01*
G75*
G02*
X147575000Y-71250001I0J249999D01*
G01*
G37*
%TD*%
%TO.C,C5*%
G36*
G01*
X124100000Y-81849999D02*
X124100000Y-83150001D01*
G75*
G02*
X123850001Y-83400000I-249999J0D01*
G01*
X123024999Y-83400000D01*
G75*
G02*
X122775000Y-83150001I0J249999D01*
G01*
X122775000Y-81849999D01*
G75*
G02*
X123024999Y-81600000I249999J0D01*
G01*
X123850001Y-81600000D01*
G75*
G02*
X124100000Y-81849999I0J-249999D01*
G01*
G37*
G36*
G01*
X127225000Y-81849999D02*
X127225000Y-83150001D01*
G75*
G02*
X126975001Y-83400000I-249999J0D01*
G01*
X126149999Y-83400000D01*
G75*
G02*
X125900000Y-83150001I0J249999D01*
G01*
X125900000Y-81849999D01*
G75*
G02*
X126149999Y-81600000I249999J0D01*
G01*
X126975001Y-81600000D01*
G75*
G02*
X127225000Y-81849999I0J-249999D01*
G01*
G37*
%TD*%
%TO.C,C4*%
G36*
G01*
X141375000Y-81150001D02*
X141375000Y-79849999D01*
G75*
G02*
X141624999Y-79600000I249999J0D01*
G01*
X142450001Y-79600000D01*
G75*
G02*
X142700000Y-79849999I0J-249999D01*
G01*
X142700000Y-81150001D01*
G75*
G02*
X142450001Y-81400000I-249999J0D01*
G01*
X141624999Y-81400000D01*
G75*
G02*
X141375000Y-81150001I0J249999D01*
G01*
G37*
G36*
G01*
X144500000Y-81150001D02*
X144500000Y-79849999D01*
G75*
G02*
X144749999Y-79600000I249999J0D01*
G01*
X145575001Y-79600000D01*
G75*
G02*
X145825000Y-79849999I0J-249999D01*
G01*
X145825000Y-81150001D01*
G75*
G02*
X145575001Y-81400000I-249999J0D01*
G01*
X144749999Y-81400000D01*
G75*
G02*
X144500000Y-81150001I0J249999D01*
G01*
G37*
%TD*%
%TO.C,C3*%
G36*
G01*
X141354000Y-71306001D02*
X141354000Y-70005999D01*
G75*
G02*
X141603999Y-69756000I249999J0D01*
G01*
X142429001Y-69756000D01*
G75*
G02*
X142679000Y-70005999I0J-249999D01*
G01*
X142679000Y-71306001D01*
G75*
G02*
X142429001Y-71556000I-249999J0D01*
G01*
X141603999Y-71556000D01*
G75*
G02*
X141354000Y-71306001I0J249999D01*
G01*
G37*
G36*
G01*
X144479000Y-71306001D02*
X144479000Y-70005999D01*
G75*
G02*
X144728999Y-69756000I249999J0D01*
G01*
X145554001Y-69756000D01*
G75*
G02*
X145804000Y-70005999I0J-249999D01*
G01*
X145804000Y-71306001D01*
G75*
G02*
X145554001Y-71556000I-249999J0D01*
G01*
X144728999Y-71556000D01*
G75*
G02*
X144479000Y-71306001I0J249999D01*
G01*
G37*
%TD*%
%TO.C,C2*%
G36*
G01*
X144400000Y-84850001D02*
X144400000Y-83549999D01*
G75*
G02*
X144649999Y-83300000I249999J0D01*
G01*
X145475001Y-83300000D01*
G75*
G02*
X145725000Y-83549999I0J-249999D01*
G01*
X145725000Y-84850001D01*
G75*
G02*
X145475001Y-85100000I-249999J0D01*
G01*
X144649999Y-85100000D01*
G75*
G02*
X144400000Y-84850001I0J249999D01*
G01*
G37*
G36*
G01*
X141275000Y-84850001D02*
X141275000Y-83549999D01*
G75*
G02*
X141524999Y-83300000I249999J0D01*
G01*
X142350001Y-83300000D01*
G75*
G02*
X142600000Y-83549999I0J-249999D01*
G01*
X142600000Y-84850001D01*
G75*
G02*
X142350001Y-85100000I-249999J0D01*
G01*
X141524999Y-85100000D01*
G75*
G02*
X141275000Y-84850001I0J249999D01*
G01*
G37*
%TD*%
%TO.C,C1*%
G36*
G01*
X138599000Y-83136001D02*
X138599000Y-81835999D01*
G75*
G02*
X138848999Y-81586000I249999J0D01*
G01*
X139674001Y-81586000D01*
G75*
G02*
X139924000Y-81835999I0J-249999D01*
G01*
X139924000Y-83136001D01*
G75*
G02*
X139674001Y-83386000I-249999J0D01*
G01*
X138848999Y-83386000D01*
G75*
G02*
X138599000Y-83136001I0J249999D01*
G01*
G37*
G36*
G01*
X135474000Y-83136001D02*
X135474000Y-81835999D01*
G75*
G02*
X135723999Y-81586000I249999J0D01*
G01*
X136549001Y-81586000D01*
G75*
G02*
X136799000Y-81835999I0J-249999D01*
G01*
X136799000Y-83136001D01*
G75*
G02*
X136549001Y-83386000I-249999J0D01*
G01*
X135723999Y-83386000D01*
G75*
G02*
X135474000Y-83136001I0J249999D01*
G01*
G37*
%TD*%
D28*
%TO.C,J12*%
X137500000Y-92900000D03*
X137500000Y-89900000D03*
D29*
X138975000Y-91400000D03*
X136025000Y-91400000D03*
%TD*%
D30*
%TO.C,REF\u002A\u002A*%
X154500000Y-124000000D03*
%TD*%
%TO.C,REF\u002A\u002A*%
X118000000Y-124000000D03*
%TD*%
%TO.C,REF\u002A\u002A*%
X154500000Y-50000000D03*
%TD*%
%TO.C,REF\u002A\u002A*%
X118000000Y-50000000D03*
%TD*%
M02*
