%TF.GenerationSoftware,KiCad,Pcbnew,5.1.8*%
%TF.CreationDate,2020-12-01T23:25:55+08:00*%
%TF.ProjectId,msisdr,6d736973-6472-42e6-9b69-6361645f7063,rev?*%
%TF.SameCoordinates,Original*%
%TF.FileFunction,Soldermask,Top*%
%TF.FilePolarity,Negative*%
%FSLAX46Y46*%
G04 Gerber Fmt 4.6, Leading zero omitted, Abs format (unit mm)*
G04 Created by KiCad (PCBNEW 5.1.8) date 2020-12-01 23:25:55*
%MOMM*%
%LPD*%
G01*
G04 APERTURE LIST*
%ADD10R,1.000000X1.000000*%
%ADD11R,1.050000X2.200000*%
%ADD12C,4.064000*%
%ADD13R,0.800000X0.750000*%
%ADD14R,1.000000X1.250000*%
%ADD15R,1.250000X1.000000*%
%ADD16R,0.750000X0.800000*%
%ADD17R,1.600000X1.600000*%
%ADD18C,1.600000*%
%ADD19R,0.500000X2.300000*%
%ADD20R,2.000000X2.500000*%
%ADD21C,0.900000*%
%ADD22R,1.300000X0.700000*%
%ADD23R,0.500000X0.900000*%
%ADD24R,0.250000X0.700000*%
%ADD25R,0.700000X0.250000*%
%ADD26R,1.725000X1.725000*%
%ADD27R,0.300000X0.500000*%
%ADD28R,0.500000X0.300000*%
%ADD29R,1.150000X1.150000*%
%ADD30C,2.300000*%
%ADD31C,1.400000*%
%ADD32O,1.600000X1.600000*%
%ADD33R,0.900000X0.500000*%
%ADD34R,1.060000X0.650000*%
%ADD35R,0.900000X0.800000*%
%ADD36R,2.100000X1.700000*%
%ADD37R,0.800000X0.900000*%
G04 APERTURE END LIST*
D10*
%TO.C,J12*%
X138225000Y-91670000D03*
X138225000Y-88670000D03*
D11*
X139700000Y-90170000D03*
X136750000Y-90170000D03*
%TD*%
%TO.C,C43*%
G36*
G01*
X137094624Y-97475868D02*
X137569624Y-97475868D01*
G75*
G02*
X137807124Y-97713368I0J-237500D01*
G01*
X137807124Y-98313368D01*
G75*
G02*
X137569624Y-98550868I-237500J0D01*
G01*
X137094624Y-98550868D01*
G75*
G02*
X136857124Y-98313368I0J237500D01*
G01*
X136857124Y-97713368D01*
G75*
G02*
X137094624Y-97475868I237500J0D01*
G01*
G37*
G36*
G01*
X137094624Y-95750868D02*
X137569624Y-95750868D01*
G75*
G02*
X137807124Y-95988368I0J-237500D01*
G01*
X137807124Y-96588368D01*
G75*
G02*
X137569624Y-96825868I-237500J0D01*
G01*
X137094624Y-96825868D01*
G75*
G02*
X136857124Y-96588368I0J237500D01*
G01*
X136857124Y-95988368D01*
G75*
G02*
X137094624Y-95750868I237500J0D01*
G01*
G37*
%TD*%
D12*
%TO.C,REF\u002A\u002A*%
X154500000Y-124000000D03*
%TD*%
%TO.C,REF\u002A\u002A*%
X118000000Y-124000000D03*
%TD*%
%TO.C,REF\u002A\u002A*%
X154500000Y-50000000D03*
%TD*%
%TO.C,REF\u002A\u002A*%
X118000000Y-50000000D03*
%TD*%
D13*
%TO.C,C1*%
X138449000Y-82486000D03*
X136949000Y-82486000D03*
%TD*%
D14*
%TO.C,C2*%
X148329000Y-80416000D03*
X150329000Y-80416000D03*
%TD*%
%TO.C,C3*%
X142579000Y-70656000D03*
X144579000Y-70656000D03*
%TD*%
%TO.C,C4*%
X148549000Y-84106000D03*
X150549000Y-84106000D03*
%TD*%
D15*
%TO.C,C5*%
X120989000Y-81026000D03*
X120989000Y-79026000D03*
%TD*%
D14*
%TO.C,C6*%
X144619000Y-73926000D03*
X142619000Y-73926000D03*
%TD*%
D15*
%TO.C,C7*%
X120979000Y-74286000D03*
X120979000Y-76286000D03*
%TD*%
D14*
%TO.C,C8*%
X142539000Y-76596000D03*
X144539000Y-76596000D03*
%TD*%
D13*
%TO.C,C9*%
X119699000Y-70226000D03*
X118199000Y-70226000D03*
%TD*%
%TO.C,C10*%
X119649000Y-64326000D03*
X118149000Y-64326000D03*
%TD*%
D16*
%TO.C,C11*%
X127706120Y-107352400D03*
X127706120Y-108852400D03*
%TD*%
%TO.C,C12*%
X135366760Y-114428840D03*
X135366760Y-115928840D03*
%TD*%
D13*
%TO.C,C13*%
X142269000Y-109026000D03*
X143769000Y-109026000D03*
%TD*%
D16*
%TO.C,C14*%
X139755880Y-114428840D03*
X139755880Y-115928840D03*
%TD*%
%TO.C,C15*%
X144023080Y-114439000D03*
X144023080Y-115939000D03*
%TD*%
D13*
%TO.C,C16*%
X132103560Y-113926620D03*
X130603560Y-113926620D03*
%TD*%
%TO.C,C17*%
X128385000Y-113042700D03*
X126885000Y-113042700D03*
%TD*%
D14*
%TO.C,C18*%
X148809000Y-76506000D03*
X150809000Y-76506000D03*
%TD*%
D16*
%TO.C,C19*%
X144079000Y-102726000D03*
X144079000Y-104226000D03*
%TD*%
D13*
%TO.C,C20*%
X148859000Y-92326000D03*
X150359000Y-92326000D03*
%TD*%
%TO.C,C21*%
X144209000Y-89446000D03*
X142709000Y-89446000D03*
%TD*%
%TO.C,C22*%
X133119000Y-94106000D03*
X131619000Y-94106000D03*
%TD*%
%TO.C,C23*%
X135999000Y-94056000D03*
X137499000Y-94056000D03*
%TD*%
D16*
%TO.C,C24*%
X124190760Y-107372720D03*
X124190760Y-108872720D03*
%TD*%
D13*
%TO.C,C25*%
X148879000Y-88296000D03*
X150379000Y-88296000D03*
%TD*%
%TO.C,C26*%
X133129720Y-96418400D03*
X131629720Y-96418400D03*
%TD*%
D15*
%TO.C,C27*%
X126911100Y-127568200D03*
X126911100Y-125568200D03*
%TD*%
D16*
%TO.C,C28*%
X131221480Y-125825820D03*
X131221480Y-127325820D03*
%TD*%
%TO.C,C29*%
X135384540Y-125602300D03*
X135384540Y-127102300D03*
%TD*%
%TO.C,C30*%
X148094700Y-122936700D03*
X148094700Y-121436700D03*
%TD*%
%TO.C,C31*%
X131109720Y-120545160D03*
X131109720Y-122045160D03*
%TD*%
D13*
%TO.C,C32*%
X140409360Y-121798080D03*
X138909360Y-121798080D03*
%TD*%
D16*
%TO.C,C33*%
X135161020Y-120489280D03*
X135161020Y-121989280D03*
%TD*%
D13*
%TO.C,C34*%
X131700840Y-117579140D03*
X133200840Y-117579140D03*
%TD*%
D17*
%TO.C,C35*%
X142499000Y-64986000D03*
D18*
X144999000Y-64986000D03*
%TD*%
D14*
%TO.C,C36*%
X150799000Y-73926000D03*
X148799000Y-73926000D03*
%TD*%
D15*
%TO.C,C37*%
X139090000Y-65820000D03*
X139090000Y-63820000D03*
%TD*%
D14*
%TO.C,C38*%
X148959000Y-62786000D03*
X146959000Y-62786000D03*
%TD*%
%TO.C,J6*%
G36*
G01*
X128954000Y-134126000D02*
X127704000Y-134126000D01*
G75*
G02*
X127654000Y-134076000I0J50000D01*
G01*
X127654000Y-130076000D01*
G75*
G02*
X127704000Y-130026000I50000J0D01*
G01*
X128954000Y-130026000D01*
G75*
G02*
X129004000Y-130076000I0J-50000D01*
G01*
X129004000Y-134076000D01*
G75*
G02*
X128954000Y-134126000I-50000J0D01*
G01*
G37*
G36*
G01*
X131829000Y-134126000D02*
X129829000Y-134126000D01*
G75*
G02*
X129779000Y-134076000I0J50000D01*
G01*
X129779000Y-130076000D01*
G75*
G02*
X129829000Y-130026000I50000J0D01*
G01*
X131829000Y-130026000D01*
G75*
G02*
X131879000Y-130076000I0J-50000D01*
G01*
X131879000Y-134076000D01*
G75*
G02*
X131829000Y-134126000I-50000J0D01*
G01*
G37*
G36*
G01*
X126829000Y-134126000D02*
X124829000Y-134126000D01*
G75*
G02*
X124779000Y-134076000I0J50000D01*
G01*
X124779000Y-130076000D01*
G75*
G02*
X124829000Y-130026000I50000J0D01*
G01*
X126829000Y-130026000D01*
G75*
G02*
X126879000Y-130076000I0J-50000D01*
G01*
X126879000Y-134076000D01*
G75*
G02*
X126829000Y-134126000I-50000J0D01*
G01*
G37*
%TD*%
%TO.C,J7*%
G36*
G01*
X145425320Y-134144600D02*
X144175320Y-134144600D01*
G75*
G02*
X144125320Y-134094600I0J50000D01*
G01*
X144125320Y-130094600D01*
G75*
G02*
X144175320Y-130044600I50000J0D01*
G01*
X145425320Y-130044600D01*
G75*
G02*
X145475320Y-130094600I0J-50000D01*
G01*
X145475320Y-134094600D01*
G75*
G02*
X145425320Y-134144600I-50000J0D01*
G01*
G37*
G36*
G01*
X148300320Y-134144600D02*
X146300320Y-134144600D01*
G75*
G02*
X146250320Y-134094600I0J50000D01*
G01*
X146250320Y-130094600D01*
G75*
G02*
X146300320Y-130044600I50000J0D01*
G01*
X148300320Y-130044600D01*
G75*
G02*
X148350320Y-130094600I0J-50000D01*
G01*
X148350320Y-134094600D01*
G75*
G02*
X148300320Y-134144600I-50000J0D01*
G01*
G37*
G36*
G01*
X143300320Y-134144600D02*
X141300320Y-134144600D01*
G75*
G02*
X141250320Y-134094600I0J50000D01*
G01*
X141250320Y-130094600D01*
G75*
G02*
X141300320Y-130044600I50000J0D01*
G01*
X143300320Y-130044600D01*
G75*
G02*
X143350320Y-130094600I0J-50000D01*
G01*
X143350320Y-134094600D01*
G75*
G02*
X143300320Y-134144600I-50000J0D01*
G01*
G37*
%TD*%
%TO.C,J8*%
G36*
G01*
X120830500Y-134119200D02*
X119580500Y-134119200D01*
G75*
G02*
X119530500Y-134069200I0J50000D01*
G01*
X119530500Y-130069200D01*
G75*
G02*
X119580500Y-130019200I50000J0D01*
G01*
X120830500Y-130019200D01*
G75*
G02*
X120880500Y-130069200I0J-50000D01*
G01*
X120880500Y-134069200D01*
G75*
G02*
X120830500Y-134119200I-50000J0D01*
G01*
G37*
G36*
G01*
X123705500Y-134119200D02*
X121705500Y-134119200D01*
G75*
G02*
X121655500Y-134069200I0J50000D01*
G01*
X121655500Y-130069200D01*
G75*
G02*
X121705500Y-130019200I50000J0D01*
G01*
X123705500Y-130019200D01*
G75*
G02*
X123755500Y-130069200I0J-50000D01*
G01*
X123755500Y-134069200D01*
G75*
G02*
X123705500Y-134119200I-50000J0D01*
G01*
G37*
G36*
G01*
X118705500Y-134119200D02*
X116705500Y-134119200D01*
G75*
G02*
X116655500Y-134069200I0J50000D01*
G01*
X116655500Y-130069200D01*
G75*
G02*
X116705500Y-130019200I50000J0D01*
G01*
X118705500Y-130019200D01*
G75*
G02*
X118755500Y-130069200I0J-50000D01*
G01*
X118755500Y-134069200D01*
G75*
G02*
X118705500Y-134119200I-50000J0D01*
G01*
G37*
%TD*%
%TO.C,J9*%
G36*
G01*
X137327800Y-134119200D02*
X136077800Y-134119200D01*
G75*
G02*
X136027800Y-134069200I0J50000D01*
G01*
X136027800Y-130069200D01*
G75*
G02*
X136077800Y-130019200I50000J0D01*
G01*
X137327800Y-130019200D01*
G75*
G02*
X137377800Y-130069200I0J-50000D01*
G01*
X137377800Y-134069200D01*
G75*
G02*
X137327800Y-134119200I-50000J0D01*
G01*
G37*
G36*
G01*
X140202800Y-134119200D02*
X138202800Y-134119200D01*
G75*
G02*
X138152800Y-134069200I0J50000D01*
G01*
X138152800Y-130069200D01*
G75*
G02*
X138202800Y-130019200I50000J0D01*
G01*
X140202800Y-130019200D01*
G75*
G02*
X140252800Y-130069200I0J-50000D01*
G01*
X140252800Y-134069200D01*
G75*
G02*
X140202800Y-134119200I-50000J0D01*
G01*
G37*
G36*
G01*
X135202800Y-134119200D02*
X133202800Y-134119200D01*
G75*
G02*
X133152800Y-134069200I0J50000D01*
G01*
X133152800Y-130069200D01*
G75*
G02*
X133202800Y-130019200I50000J0D01*
G01*
X135202800Y-130019200D01*
G75*
G02*
X135252800Y-130069200I0J-50000D01*
G01*
X135252800Y-134069200D01*
G75*
G02*
X135202800Y-134119200I-50000J0D01*
G01*
G37*
%TD*%
%TO.C,J10*%
G36*
G01*
X153164700Y-134172540D02*
X151914700Y-134172540D01*
G75*
G02*
X151864700Y-134122540I0J50000D01*
G01*
X151864700Y-130122540D01*
G75*
G02*
X151914700Y-130072540I50000J0D01*
G01*
X153164700Y-130072540D01*
G75*
G02*
X153214700Y-130122540I0J-50000D01*
G01*
X153214700Y-134122540D01*
G75*
G02*
X153164700Y-134172540I-50000J0D01*
G01*
G37*
G36*
G01*
X156039700Y-134172540D02*
X154039700Y-134172540D01*
G75*
G02*
X153989700Y-134122540I0J50000D01*
G01*
X153989700Y-130122540D01*
G75*
G02*
X154039700Y-130072540I50000J0D01*
G01*
X156039700Y-130072540D01*
G75*
G02*
X156089700Y-130122540I0J-50000D01*
G01*
X156089700Y-134122540D01*
G75*
G02*
X156039700Y-134172540I-50000J0D01*
G01*
G37*
G36*
G01*
X151039700Y-134172540D02*
X149039700Y-134172540D01*
G75*
G02*
X148989700Y-134122540I0J50000D01*
G01*
X148989700Y-130122540D01*
G75*
G02*
X149039700Y-130072540I50000J0D01*
G01*
X151039700Y-130072540D01*
G75*
G02*
X151089700Y-130122540I0J-50000D01*
G01*
X151089700Y-134122540D01*
G75*
G02*
X151039700Y-134172540I-50000J0D01*
G01*
G37*
%TD*%
D19*
%TO.C,J11*%
X137619000Y-50996000D03*
X136819000Y-50996000D03*
X136019000Y-50996000D03*
X135219000Y-50996000D03*
X134419000Y-50996000D03*
D20*
X140469000Y-50896000D03*
X140469000Y-45396000D03*
X131569000Y-50896000D03*
X131569000Y-45396000D03*
D21*
X138219000Y-48396000D03*
X133819000Y-48396000D03*
%TD*%
D22*
%TO.C,L1*%
X144360900Y-125884900D03*
X144360900Y-127784900D03*
%TD*%
%TO.C,L2*%
X144322800Y-121274800D03*
X144322800Y-123174800D03*
%TD*%
%TO.C,L3*%
X123090940Y-123642080D03*
X123090940Y-125542080D03*
%TD*%
%TO.C,L4*%
X126796800Y-121312900D03*
X126796800Y-123212900D03*
%TD*%
%TO.C,L5*%
X123035060Y-119004040D03*
X123035060Y-120904040D03*
%TD*%
%TO.C,L6*%
X127939800Y-116855200D03*
X127939800Y-118755200D03*
%TD*%
D23*
%TO.C,R1*%
X133219000Y-65206000D03*
X134719000Y-65206000D03*
%TD*%
%TO.C,R2*%
X133870000Y-92710000D03*
X135370000Y-92710000D03*
%TD*%
D24*
%TO.C,U1*%
X133779000Y-78966000D03*
X134279000Y-78966000D03*
X134779000Y-78966000D03*
X135279000Y-78966000D03*
X135779000Y-78966000D03*
X136279000Y-78966000D03*
X136779000Y-78966000D03*
X137279000Y-78966000D03*
D25*
X137929000Y-78316000D03*
X137929000Y-77816000D03*
X137929000Y-77316000D03*
X137929000Y-76816000D03*
X137929000Y-76316000D03*
X137929000Y-75816000D03*
X137929000Y-75316000D03*
X137929000Y-74816000D03*
D24*
X137279000Y-74166000D03*
X136779000Y-74166000D03*
X136279000Y-74166000D03*
X135779000Y-74166000D03*
X135279000Y-74166000D03*
X134779000Y-74166000D03*
X134279000Y-74166000D03*
X133779000Y-74166000D03*
D25*
X133129000Y-74816000D03*
X133129000Y-75316000D03*
X133129000Y-75816000D03*
X133129000Y-76316000D03*
X133129000Y-76816000D03*
X133129000Y-77316000D03*
X133129000Y-77816000D03*
X133129000Y-78316000D03*
D26*
X136391500Y-75703500D03*
X134666500Y-75703500D03*
X136391500Y-77428500D03*
X134666500Y-77428500D03*
%TD*%
D27*
%TO.C,U2*%
X133109000Y-108426000D03*
X133609000Y-108426000D03*
X134109000Y-108426000D03*
X134609000Y-108426000D03*
X135109000Y-108426000D03*
X135609000Y-108426000D03*
X136109000Y-108426000D03*
X136609000Y-108426000D03*
X137109000Y-108426000D03*
X137609000Y-108426000D03*
D28*
X138359000Y-107676000D03*
X138359000Y-107176000D03*
X138359000Y-106676000D03*
X138359000Y-106176000D03*
X138359000Y-105676000D03*
X138359000Y-105176000D03*
X138359000Y-104676000D03*
X138359000Y-104176000D03*
X138359000Y-103676000D03*
X138359000Y-103176000D03*
D27*
X137609000Y-102426000D03*
X137109000Y-102426000D03*
X136609000Y-102426000D03*
X136109000Y-102426000D03*
X135609000Y-102426000D03*
X135109000Y-102426000D03*
X134609000Y-102426000D03*
X134109000Y-102426000D03*
X133609000Y-102426000D03*
X133109000Y-102426000D03*
D28*
X132359000Y-103176000D03*
X132359000Y-103676000D03*
X132359000Y-104176000D03*
X132359000Y-104676000D03*
X132359000Y-105176000D03*
X132359000Y-105676000D03*
X132359000Y-106176000D03*
X132359000Y-106676000D03*
X132359000Y-107176000D03*
X132359000Y-107676000D03*
D29*
X137084000Y-103701000D03*
X135934000Y-103701000D03*
X134784000Y-103701000D03*
X133634000Y-103701000D03*
X137084000Y-104851000D03*
X135934000Y-104851000D03*
X134784000Y-104851000D03*
X133634000Y-104851000D03*
X137084000Y-106001000D03*
X135934000Y-106001000D03*
X134784000Y-106001000D03*
X133634000Y-106001000D03*
X137084000Y-107151000D03*
X135934000Y-107151000D03*
X134784000Y-107151000D03*
X133634000Y-107151000D03*
%TD*%
D30*
%TO.C,Y1*%
X125809000Y-70236000D03*
X125809000Y-65336000D03*
%TD*%
D31*
%TO.C,J1*%
X118949000Y-83556000D03*
%TD*%
%TO.C,J2*%
X118929000Y-86156000D03*
%TD*%
%TO.C,J3*%
X118869000Y-88746000D03*
%TD*%
%TO.C,J4*%
X118899000Y-91336000D03*
%TD*%
%TO.C,J5*%
X118979000Y-93966000D03*
%TD*%
D14*
%TO.C,C39*%
X139220000Y-72410000D03*
X141220000Y-72410000D03*
%TD*%
D17*
%TO.C,D5*%
X124290000Y-55740000D03*
D32*
X121750000Y-55740000D03*
%TD*%
D33*
%TO.C,R3*%
X117690000Y-57240000D03*
X117690000Y-55740000D03*
%TD*%
D16*
%TO.C,C40*%
X151610000Y-71240000D03*
X151610000Y-69740000D03*
%TD*%
D33*
%TO.C,R4*%
X120050000Y-66730000D03*
X120050000Y-68230000D03*
%TD*%
D34*
%TO.C,U3*%
X147400000Y-65560000D03*
X147400000Y-66510000D03*
X147400000Y-67460000D03*
X149600000Y-67460000D03*
X149600000Y-65560000D03*
%TD*%
D35*
%TO.C,U4*%
X143930000Y-57340000D03*
X143930000Y-59240000D03*
X145930000Y-58290000D03*
%TD*%
D36*
%TO.C,Y2*%
X122690000Y-69260000D03*
X128590000Y-69260000D03*
X128590000Y-66560000D03*
X122690000Y-66560000D03*
%TD*%
D37*
%TO.C,D1*%
X132020000Y-59220000D03*
X133920000Y-59220000D03*
X132970000Y-57220000D03*
%TD*%
%TO.C,D2*%
X138940000Y-59230000D03*
X140840000Y-59230000D03*
X139890000Y-57230000D03*
%TD*%
D23*
%TO.C,R5*%
X124220000Y-85260000D03*
X125720000Y-85260000D03*
%TD*%
%TO.C,R6*%
X124240000Y-87990000D03*
X125740000Y-87990000D03*
%TD*%
%TO.C,R7*%
X124260000Y-90850000D03*
X125760000Y-90850000D03*
%TD*%
%TO.C,R8*%
X124240000Y-93550000D03*
X125740000Y-93550000D03*
%TD*%
D15*
%TO.C,C41*%
X116560000Y-78950000D03*
X116560000Y-80950000D03*
%TD*%
D16*
%TO.C,C42*%
X142750000Y-97380000D03*
X142750000Y-98880000D03*
%TD*%
M02*
