%TF.GenerationSoftware,KiCad,Pcbnew,5.1.8*%
%TF.CreationDate,2020-12-01T23:25:55+08:00*%
%TF.ProjectId,msisdr,6d736973-6472-42e6-9b69-6361645f7063,rev?*%
%TF.SameCoordinates,Original*%
%TF.FileFunction,Copper,L2,Bot*%
%TF.FilePolarity,Positive*%
%FSLAX46Y46*%
G04 Gerber Fmt 4.6, Leading zero omitted, Abs format (unit mm)*
G04 Created by KiCad (PCBNEW 5.1.8) date 2020-12-01 23:25:55*
%MOMM*%
%LPD*%
G01*
G04 APERTURE LIST*
%TA.AperFunction,ComponentPad*%
%ADD10C,4.064000*%
%TD*%
%TA.AperFunction,ComponentPad*%
%ADD11R,1.600000X1.600000*%
%TD*%
%TA.AperFunction,ComponentPad*%
%ADD12C,1.600000*%
%TD*%
%TA.AperFunction,SMDPad,CuDef*%
%ADD13R,2.000000X4.000000*%
%TD*%
%TA.AperFunction,ComponentPad*%
%ADD14C,0.400000*%
%TD*%
%TA.AperFunction,ComponentPad*%
%ADD15C,2.300000*%
%TD*%
%TA.AperFunction,ComponentPad*%
%ADD16C,1.400000*%
%TD*%
%TA.AperFunction,ComponentPad*%
%ADD17O,1.600000X1.600000*%
%TD*%
%TA.AperFunction,ViaPad*%
%ADD18C,0.600000*%
%TD*%
%TA.AperFunction,Conductor*%
%ADD19C,0.200000*%
%TD*%
%TA.AperFunction,Conductor*%
%ADD20C,0.254000*%
%TD*%
%TA.AperFunction,Conductor*%
%ADD21C,0.100000*%
%TD*%
G04 APERTURE END LIST*
D10*
%TO.P,REF\u002A\u002A,1*%
%TO.N,N/C*%
X154500000Y-124000000D03*
%TD*%
%TO.P,REF\u002A\u002A,1*%
%TO.N,N/C*%
X118000000Y-124000000D03*
%TD*%
%TO.P,REF\u002A\u002A,1*%
%TO.N,N/C*%
X154500000Y-50000000D03*
%TD*%
%TO.P,REF\u002A\u002A,1*%
%TO.N,N/C*%
X118000000Y-50000000D03*
%TD*%
D11*
%TO.P,C35,1*%
%TO.N,VDIG*%
X142499000Y-64986000D03*
D12*
%TO.P,C35,2*%
%TO.N,GND*%
X144999000Y-64986000D03*
%TD*%
D13*
%TO.P,J6,2*%
%TO.N,GND*%
X130829000Y-132076000D03*
D14*
X131204000Y-132826000D03*
X130454000Y-132826000D03*
X131204000Y-132076000D03*
X130454000Y-132076000D03*
X131204000Y-131326000D03*
X130454000Y-131326000D03*
D13*
%TO.P,J6,3*%
X125829000Y-132076000D03*
D14*
X125454000Y-132826000D03*
X126204000Y-132826000D03*
X125454000Y-132076000D03*
X126204000Y-132076000D03*
X125454000Y-131326000D03*
X126204000Y-131326000D03*
%TD*%
D13*
%TO.P,J7,2*%
%TO.N,GND*%
X147300320Y-132094600D03*
D14*
X147675320Y-132844600D03*
X146925320Y-132844600D03*
X147675320Y-132094600D03*
X146925320Y-132094600D03*
X147675320Y-131344600D03*
X146925320Y-131344600D03*
D13*
%TO.P,J7,3*%
X142300320Y-132094600D03*
D14*
X141925320Y-132844600D03*
X142675320Y-132844600D03*
X141925320Y-132094600D03*
X142675320Y-132094600D03*
X141925320Y-131344600D03*
X142675320Y-131344600D03*
%TD*%
D13*
%TO.P,J8,2*%
%TO.N,GND*%
X122705500Y-132069200D03*
D14*
X123080500Y-132819200D03*
X122330500Y-132819200D03*
X123080500Y-132069200D03*
X122330500Y-132069200D03*
X123080500Y-131319200D03*
X122330500Y-131319200D03*
D13*
%TO.P,J8,3*%
X117705500Y-132069200D03*
D14*
X117330500Y-132819200D03*
X118080500Y-132819200D03*
X117330500Y-132069200D03*
X118080500Y-132069200D03*
X117330500Y-131319200D03*
X118080500Y-131319200D03*
%TD*%
D13*
%TO.P,J9,2*%
%TO.N,GND*%
X139202800Y-132069200D03*
D14*
X139577800Y-132819200D03*
X138827800Y-132819200D03*
X139577800Y-132069200D03*
X138827800Y-132069200D03*
X139577800Y-131319200D03*
X138827800Y-131319200D03*
D13*
%TO.P,J9,3*%
X134202800Y-132069200D03*
D14*
X133827800Y-132819200D03*
X134577800Y-132819200D03*
X133827800Y-132069200D03*
X134577800Y-132069200D03*
X133827800Y-131319200D03*
X134577800Y-131319200D03*
%TD*%
D13*
%TO.P,J10,2*%
%TO.N,GND*%
X155039700Y-132122540D03*
D14*
X155414700Y-132872540D03*
X154664700Y-132872540D03*
X155414700Y-132122540D03*
X154664700Y-132122540D03*
X155414700Y-131372540D03*
X154664700Y-131372540D03*
D13*
%TO.P,J10,3*%
X150039700Y-132122540D03*
D14*
X149664700Y-132872540D03*
X150414700Y-132872540D03*
X149664700Y-132122540D03*
X150414700Y-132122540D03*
X149664700Y-131372540D03*
X150414700Y-131372540D03*
%TD*%
D15*
%TO.P,Y1,1*%
%TO.N,Net-(C9-Pad2)*%
X125809000Y-70236000D03*
%TO.P,Y1,2*%
%TO.N,Net-(C10-Pad2)*%
X125809000Y-65336000D03*
%TD*%
D16*
%TO.P,J1,1*%
%TO.N,Net-(C41-Pad2)*%
X118949000Y-83556000D03*
%TD*%
%TO.P,J2,1*%
%TO.N,Net-(J2-Pad1)*%
X118929000Y-86156000D03*
%TD*%
%TO.P,J3,1*%
%TO.N,Net-(J3-Pad1)*%
X118869000Y-88746000D03*
%TD*%
%TO.P,J4,1*%
%TO.N,Net-(J4-Pad1)*%
X118899000Y-91336000D03*
%TD*%
%TO.P,J5,1*%
%TO.N,Net-(J5-Pad1)*%
X118979000Y-93966000D03*
%TD*%
D11*
%TO.P,D5,1*%
%TO.N,GND*%
X124290000Y-55740000D03*
D17*
%TO.P,D5,2*%
%TO.N,Net-(D5-Pad2)*%
X121750000Y-55740000D03*
%TD*%
D18*
%TO.N,VDDI*%
X130484880Y-100398580D03*
X145919000Y-80416000D03*
X145219000Y-101116000D03*
X144979000Y-85546000D03*
X132119000Y-79176000D03*
X142759000Y-79166000D03*
%TO.N,VDIG*%
X140370000Y-60970000D03*
X133920000Y-60810000D03*
X117930000Y-72920000D03*
X116960000Y-59480000D03*
X117640000Y-66870000D03*
X138409000Y-70656000D03*
X146599000Y-77846000D03*
X140549000Y-68176000D03*
X130779000Y-82766000D03*
X126169000Y-82706000D03*
%TO.N,V18-SYNTH*%
X145979000Y-75336000D03*
X140569000Y-75336000D03*
%TO.N,VRF*%
X144200000Y-99490000D03*
X139399000Y-99276000D03*
X152389000Y-99506000D03*
X136265359Y-99273660D03*
%TO.N,Net-(C14-Pad2)*%
X142722600Y-114523520D03*
X134599680Y-109819440D03*
%TO.N,Net-(C15-Pad2)*%
X141828520Y-112816640D03*
X135856980Y-111061500D03*
%TO.N,Net-(C16-Pad2)*%
X132176520Y-109550200D03*
X132110480Y-112557560D03*
%TO.N,Net-(C22-Pad1)*%
X131627880Y-97756980D03*
X132694680Y-99974400D03*
%TO.N,USB_DP*%
X136629000Y-59806000D03*
X136059000Y-56066000D03*
%TO.N,I_IN_P*%
X144899000Y-82116000D03*
X139229000Y-81286000D03*
%TO.N,I_IN_N*%
X141869000Y-80786000D03*
X139909000Y-80196000D03*
%TO.N,SPI_DATA*%
X129609000Y-104866000D03*
X129769000Y-98446000D03*
%TO.N,SPI_CLK*%
X128039000Y-81426000D03*
X130370000Y-77310000D03*
%TO.N,VHF_120_250MHZ*%
X133045200Y-110992920D03*
X121383120Y-120282680D03*
%TO.N,UHF_400_1000MHZ*%
X136870440Y-127548640D03*
X135087360Y-110611920D03*
%TO.N,VHF_50_120MHZ*%
X140314680Y-109042200D03*
X150664120Y-126598440D03*
%TO.N,GND*%
X130280000Y-55170000D03*
X138280000Y-55910000D03*
X131660000Y-69510000D03*
X130640000Y-80750000D03*
X116689000Y-77656000D03*
X119089000Y-77646000D03*
X146620000Y-76596000D03*
X146150000Y-72070000D03*
X137312400Y-121904760D03*
X137411460Y-117187980D03*
X148209000Y-110175040D03*
X148153120Y-114952780D03*
X148717000Y-97414080D03*
X148777960Y-105481120D03*
X150444200Y-94947740D03*
X142737840Y-92613480D03*
X134630160Y-95341440D03*
X136429000Y-105496000D03*
X144059000Y-105486000D03*
X144999000Y-61596000D03*
X134309000Y-62056000D03*
X137300000Y-95100000D03*
X138250000Y-87250000D03*
%TO.N,Net-(J3-Pad1)*%
X132119000Y-86516000D03*
%TO.N,Net-(C17-Pad2)*%
X131124960Y-107579160D03*
X128358900Y-111541560D03*
%TO.N,Net-(C22-Pad2)*%
X134757160Y-97820480D03*
X134612380Y-100032820D03*
%TO.N,Net-(C23-Pad1)*%
X135666480Y-97749360D03*
X135674100Y-100261420D03*
%TO.N,Net-(J2-Pad1)*%
X131979000Y-84806000D03*
%TO.N,Net-(J4-Pad1)*%
X132269000Y-88176000D03*
%TO.N,Net-(J5-Pad1)*%
X132339000Y-89876000D03*
%TO.N,Net-(C41-Pad2)*%
X131869000Y-83466000D03*
%TO.N,Net-(C42-Pad2)*%
X131930000Y-73300000D03*
X144020000Y-92810000D03*
%TD*%
D19*
%TO.N,VDDI*%
X130484880Y-100398580D02*
X132006340Y-100398580D01*
X132723760Y-101116000D02*
X145219000Y-101116000D01*
X132006340Y-100398580D02*
X132723760Y-101116000D01*
X130484880Y-100398580D02*
X130482340Y-100398580D01*
X145889000Y-84636000D02*
X144979000Y-85546000D01*
X145889000Y-80446000D02*
X145889000Y-84636000D01*
X145889000Y-80446000D02*
X145919000Y-80416000D01*
X145219000Y-101116000D02*
X145069000Y-101266000D01*
X142749000Y-79176000D02*
X132119000Y-79176000D01*
X142759000Y-79166000D02*
X142749000Y-79176000D01*
%TO.N,VDIG*%
X134080000Y-60970000D02*
X140370000Y-60970000D01*
X133920000Y-60810000D02*
X134080000Y-60970000D01*
X117420000Y-61970000D02*
X116680000Y-61970000D01*
X115500000Y-70490000D02*
X117930000Y-72920000D01*
X115500000Y-63890000D02*
X115500000Y-70490000D01*
X117420000Y-61970000D02*
X117640000Y-61970000D01*
X115500000Y-63150000D02*
X115500000Y-63890000D01*
X116680000Y-61970000D02*
X115500000Y-63150000D01*
X116960000Y-59480000D02*
X117640000Y-60160000D01*
X117640000Y-60160000D02*
X117640000Y-61970000D01*
X117640000Y-61970000D02*
X117640000Y-66870000D01*
X127019000Y-82766000D02*
X127019000Y-80386000D01*
X127790000Y-79615000D02*
X127019000Y-80386000D01*
X127790000Y-75955000D02*
X127790000Y-79615000D01*
X133229000Y-70516000D02*
X127790000Y-75955000D01*
X134699000Y-70516000D02*
X133229000Y-70516000D01*
X138269000Y-70516000D02*
X134699000Y-70516000D01*
X138269000Y-70516000D02*
X138409000Y-70656000D01*
X147489000Y-76956000D02*
X147489000Y-69856000D01*
X146599000Y-77846000D02*
X147489000Y-76956000D01*
X145809000Y-68176000D02*
X140549000Y-68176000D01*
X147489000Y-69856000D02*
X145809000Y-68176000D01*
X126229000Y-82766000D02*
X127019000Y-82766000D01*
X127019000Y-82766000D02*
X130779000Y-82766000D01*
X126169000Y-82706000D02*
X126229000Y-82766000D01*
%TO.N,V18-SYNTH*%
X140569000Y-75336000D02*
X145979000Y-75336000D01*
%TO.N,VRF*%
X144140000Y-99430000D02*
X144140000Y-99506000D01*
X144184000Y-99474000D02*
X144140000Y-99430000D01*
X144184000Y-99506000D02*
X144184000Y-99474000D01*
X144200000Y-99490000D02*
X144184000Y-99506000D01*
X139629000Y-99506000D02*
X144140000Y-99506000D01*
X139399000Y-99276000D02*
X139629000Y-99506000D01*
X144140000Y-99506000D02*
X152389000Y-99506000D01*
X136393423Y-99276000D02*
X136273437Y-99395986D01*
X139399000Y-99276000D02*
X136393423Y-99276000D01*
%TO.N,Net-(C14-Pad2)*%
X142722600Y-111455200D02*
X142722600Y-114523520D01*
X141147800Y-109880400D02*
X142722600Y-111455200D01*
X134660640Y-109880400D02*
X141147800Y-109880400D01*
X134599680Y-109819440D02*
X134660640Y-109880400D01*
%TO.N,Net-(C15-Pad2)*%
X136423400Y-112816640D02*
X141828520Y-112816640D01*
X135793480Y-112186720D02*
X136423400Y-112816640D01*
X135793480Y-111125000D02*
X135793480Y-112186720D01*
X135856980Y-111061500D02*
X135793480Y-111125000D01*
%TO.N,Net-(C16-Pad2)*%
X132176520Y-112491520D02*
X132176520Y-109550200D01*
X132110480Y-112557560D02*
X132176520Y-112491520D01*
%TO.N,Net-(C22-Pad1)*%
X131627880Y-98907600D02*
X131627880Y-97756980D01*
X132694680Y-99974400D02*
X131627880Y-98907600D01*
%TO.N,USB_DP*%
X136629000Y-56636000D02*
X136629000Y-59806000D01*
X136059000Y-56066000D02*
X136629000Y-56636000D01*
%TO.N,I_IN_P*%
X144809000Y-82206000D02*
X144899000Y-82116000D01*
X140149000Y-82206000D02*
X144809000Y-82206000D01*
X139229000Y-81286000D02*
X140149000Y-82206000D01*
%TO.N,I_IN_N*%
X140499000Y-80786000D02*
X141869000Y-80786000D01*
X139909000Y-80196000D02*
X140499000Y-80786000D01*
%TO.N,SPI_DATA*%
X129619000Y-104856000D02*
X129609000Y-104866000D01*
X129619000Y-98596000D02*
X129619000Y-104856000D01*
X129769000Y-98446000D02*
X129619000Y-98596000D01*
%TO.N,SPI_CLK*%
X130370000Y-77310000D02*
X130370000Y-77530000D01*
X129250000Y-80215000D02*
X128039000Y-81426000D01*
X129250000Y-78650000D02*
X129250000Y-80215000D01*
X130370000Y-77530000D02*
X129250000Y-78650000D01*
X130370000Y-77330000D02*
X130370000Y-77310000D01*
%TO.N,VHF_120_250MHZ*%
X133045200Y-110992920D02*
X133075680Y-111023400D01*
X133075680Y-111023400D02*
X133075680Y-114833400D01*
X133075680Y-114833400D02*
X130088640Y-117820440D01*
X130088640Y-117820440D02*
X126705360Y-117820440D01*
X126705360Y-117820440D02*
X121383120Y-120282680D01*
%TO.N,UHF_400_1000MHZ*%
X134635240Y-124927360D02*
X136870440Y-127548640D01*
X134635240Y-111531400D02*
X134635240Y-124927360D01*
X135087360Y-110611920D02*
X134635240Y-111531400D01*
%TO.N,VHF_50_120MHZ*%
X140314680Y-109042200D02*
X140317220Y-109039660D01*
X140317220Y-109039660D02*
X143710660Y-109039660D01*
X143710660Y-109039660D02*
X146380200Y-111709200D01*
X146380200Y-111709200D02*
X146380200Y-116128800D01*
X146380200Y-116128800D02*
X150664120Y-121472720D01*
X150664120Y-121472720D02*
X150664120Y-126598440D01*
%TO.N,GND*%
X137540000Y-55170000D02*
X130280000Y-55170000D01*
X138280000Y-55910000D02*
X137540000Y-55170000D01*
X137600000Y-62056000D02*
X137600000Y-69050000D01*
X137140000Y-69510000D02*
X131660000Y-69510000D01*
X137600000Y-69050000D02*
X137140000Y-69510000D01*
X142190000Y-94020000D02*
X142773400Y-94020000D01*
X141190000Y-93020000D02*
X142190000Y-94020000D01*
X141190000Y-88700000D02*
X141190000Y-93020000D01*
X139740000Y-87250000D02*
X141190000Y-88700000D01*
X137140000Y-87250000D02*
X138250000Y-87250000D01*
X130640000Y-80750000D02*
X137140000Y-87250000D01*
X119079000Y-77656000D02*
X116689000Y-77656000D01*
X119089000Y-77646000D02*
X119079000Y-77656000D01*
X146750000Y-72670000D02*
X146150000Y-72070000D01*
X146750000Y-76466000D02*
X146750000Y-72670000D01*
X146750000Y-76466000D02*
X146620000Y-76596000D01*
X150039700Y-132122540D02*
X150039700Y-129418080D01*
X150037800Y-129509520D02*
X150037800Y-129418080D01*
X150037800Y-129419980D02*
X150037800Y-129509520D01*
X150039700Y-129418080D02*
X150037800Y-129419980D01*
X147300320Y-132094600D02*
X147300320Y-129549520D01*
X147300320Y-129549520D02*
X147431760Y-129418080D01*
X142300320Y-132094600D02*
X142300320Y-129581280D01*
X142300320Y-129581280D02*
X142463520Y-129418080D01*
X134202800Y-132069200D02*
X134202800Y-129473320D01*
X134202800Y-129473320D02*
X134147560Y-129418080D01*
X139202800Y-132069200D02*
X139202800Y-129563500D01*
X139202800Y-129563500D02*
X139057380Y-129418080D01*
X130829000Y-132076000D02*
X130829000Y-129739340D01*
X130829000Y-129739340D02*
X130507740Y-129418080D01*
X125829000Y-132076000D02*
X125829000Y-129588200D01*
X125829000Y-129588200D02*
X125658880Y-129418080D01*
X122705500Y-132069200D02*
X122705500Y-129578740D01*
X122705500Y-129578740D02*
X122544840Y-129418080D01*
X117705500Y-132069200D02*
X117705500Y-129647320D01*
X117705500Y-129647320D02*
X117934740Y-129418080D01*
X117934740Y-129418080D02*
X122544840Y-129418080D01*
X155011120Y-130032760D02*
X155011120Y-132093960D01*
X154396440Y-129418080D02*
X155011120Y-130032760D01*
X150037800Y-129418080D02*
X154396440Y-129418080D01*
X147431760Y-129418080D02*
X150037800Y-129418080D01*
X142463520Y-129418080D02*
X147431760Y-129418080D01*
X139057380Y-129418080D02*
X142463520Y-129418080D01*
X130507740Y-129418080D02*
X134147560Y-129418080D01*
X134147560Y-129418080D02*
X139057380Y-129418080D01*
X125658880Y-129418080D02*
X126149100Y-129418080D01*
X126149100Y-129418080D02*
X130507740Y-129418080D01*
X122544840Y-129418080D02*
X125658880Y-129418080D01*
X155011120Y-132093960D02*
X155039700Y-132122540D01*
X137312400Y-117287040D02*
X137312400Y-121904760D01*
X137411460Y-117187980D02*
X137312400Y-117287040D01*
X148209000Y-114896900D02*
X148209000Y-110175040D01*
X148153120Y-114952780D02*
X148209000Y-114896900D01*
X144059000Y-105486000D02*
X148773080Y-105486000D01*
X148704300Y-97345500D02*
X142773400Y-97345500D01*
X148704300Y-97401380D02*
X148704300Y-97345500D01*
X148717000Y-97414080D02*
X148704300Y-97401380D01*
X148773080Y-105486000D02*
X148777960Y-105481120D01*
X150444200Y-94947740D02*
X142984220Y-94947740D01*
X142984220Y-94947740D02*
X142773400Y-94736920D01*
X142737840Y-92613480D02*
X142773400Y-92649040D01*
X142773400Y-92649040D02*
X142773400Y-94020000D01*
X142773400Y-94020000D02*
X142773400Y-94736920D01*
X142773400Y-94736920D02*
X142773400Y-96177100D01*
X142773400Y-96177100D02*
X142773400Y-97345500D01*
X144049000Y-105496000D02*
X136429000Y-105496000D01*
X144059000Y-105486000D02*
X144049000Y-105496000D01*
X144539000Y-62056000D02*
X137600000Y-62056000D01*
X137600000Y-62056000D02*
X134309000Y-62056000D01*
X144539000Y-62056000D02*
X144999000Y-61596000D01*
X134630160Y-95341440D02*
X136634220Y-97345500D01*
X136634220Y-97345500D02*
X142773400Y-97345500D01*
X134630160Y-95341440D02*
X134630160Y-95269840D01*
X134630160Y-95269840D02*
X134800000Y-95100000D01*
X134800000Y-95100000D02*
X137300000Y-95100000D01*
X137300000Y-95100000D02*
X137300000Y-95100000D01*
X138250000Y-87250000D02*
X139740000Y-87250000D01*
%TO.N,Net-(J3-Pad1)*%
X120969000Y-88746000D02*
X118869000Y-88746000D01*
X122479000Y-87236000D02*
X120969000Y-88746000D01*
X131399000Y-87236000D02*
X122479000Y-87236000D01*
X132119000Y-86516000D02*
X131399000Y-87236000D01*
%TO.N,Net-(C17-Pad2)*%
X131124960Y-108775500D02*
X131124960Y-107579160D01*
X128358900Y-111541560D02*
X131124960Y-108775500D01*
%TO.N,Net-(C22-Pad2)*%
X134757160Y-99888040D02*
X134757160Y-97820480D01*
X134612380Y-100032820D02*
X134757160Y-99888040D01*
%TO.N,Net-(C23-Pad1)*%
X135666480Y-100253800D02*
X135666480Y-97749360D01*
X135674100Y-100261420D02*
X135666480Y-100253800D01*
%TO.N,Net-(J2-Pad1)*%
X121349000Y-86156000D02*
X118929000Y-86156000D01*
X121959000Y-85546000D02*
X121349000Y-86156000D01*
X131239000Y-85546000D02*
X121959000Y-85546000D01*
X131979000Y-84806000D02*
X131239000Y-85546000D01*
%TO.N,Net-(J4-Pad1)*%
X121419000Y-91336000D02*
X118899000Y-91336000D01*
X123239000Y-89516000D02*
X121419000Y-91336000D01*
X130929000Y-89516000D02*
X123239000Y-89516000D01*
X132269000Y-88176000D02*
X130929000Y-89516000D01*
%TO.N,Net-(J5-Pad1)*%
X121519000Y-93966000D02*
X118979000Y-93966000D01*
X124049000Y-91436000D02*
X121519000Y-93966000D01*
X130779000Y-91436000D02*
X124049000Y-91436000D01*
X132339000Y-89876000D02*
X130779000Y-91436000D01*
%TO.N,Net-(C41-Pad2)*%
X118949000Y-83556000D02*
X131779000Y-83556000D01*
X131779000Y-83556000D02*
X131869000Y-83466000D01*
%TO.N,Net-(C42-Pad2)*%
X131930000Y-73300000D02*
X131350000Y-73880000D01*
X131350000Y-73880000D02*
X131350000Y-79650000D01*
X131350000Y-79650000D02*
X137290000Y-85590000D01*
X137290000Y-85590000D02*
X142160000Y-85590000D01*
X142160000Y-85590000D02*
X144020000Y-87450000D01*
X144020000Y-87450000D02*
X144020000Y-92810000D01*
%TD*%
D20*
%TO.N,GND*%
X158700400Y-133422320D02*
X156676517Y-133422320D01*
X156674700Y-132408290D01*
X156515950Y-132249540D01*
X156243786Y-132249540D01*
X156244505Y-132246685D01*
X156252779Y-132082412D01*
X156240003Y-131995540D01*
X156515950Y-131995540D01*
X156674700Y-131836790D01*
X156677772Y-130122540D01*
X156665512Y-129998058D01*
X156629202Y-129878360D01*
X156570237Y-129768046D01*
X156490885Y-129671355D01*
X156394194Y-129592003D01*
X156283880Y-129533038D01*
X156164182Y-129496728D01*
X156039700Y-129484468D01*
X155325450Y-129487540D01*
X155166700Y-129646290D01*
X155166700Y-130574482D01*
X155056908Y-130613612D01*
X155036294Y-130624630D01*
X154948346Y-130582900D01*
X154912700Y-130573924D01*
X154912700Y-129646290D01*
X154753950Y-129487540D01*
X154039700Y-129484468D01*
X153915218Y-129496728D01*
X153795520Y-129533038D01*
X153685206Y-129592003D01*
X153588515Y-129671355D01*
X153509163Y-129768046D01*
X153450198Y-129878360D01*
X153413888Y-129998058D01*
X153401628Y-130122540D01*
X153404700Y-131836790D01*
X153563450Y-131995540D01*
X153835614Y-131995540D01*
X153834895Y-131998395D01*
X153826621Y-132162668D01*
X153839397Y-132249540D01*
X153563450Y-132249540D01*
X153404700Y-132408290D01*
X153402883Y-133422320D01*
X151676517Y-133422320D01*
X151674700Y-132408290D01*
X151515950Y-132249540D01*
X151243786Y-132249540D01*
X151244505Y-132246685D01*
X151252779Y-132082412D01*
X151240003Y-131995540D01*
X151515950Y-131995540D01*
X151674700Y-131836790D01*
X151677772Y-130122540D01*
X151665512Y-129998058D01*
X151629202Y-129878360D01*
X151570237Y-129768046D01*
X151490885Y-129671355D01*
X151394194Y-129592003D01*
X151283880Y-129533038D01*
X151164182Y-129496728D01*
X151039700Y-129484468D01*
X150325450Y-129487540D01*
X150166700Y-129646290D01*
X150166700Y-130574482D01*
X150056908Y-130613612D01*
X150036294Y-130624630D01*
X149948346Y-130582900D01*
X149912700Y-130573924D01*
X149912700Y-129646290D01*
X149753950Y-129487540D01*
X149039700Y-129484468D01*
X148915218Y-129496728D01*
X148795520Y-129533038D01*
X148687418Y-129590821D01*
X148654814Y-129564063D01*
X148544500Y-129505098D01*
X148424802Y-129468788D01*
X148300320Y-129456528D01*
X147586070Y-129459600D01*
X147427320Y-129618350D01*
X147427320Y-130546542D01*
X147317528Y-130585672D01*
X147296914Y-130596690D01*
X147208966Y-130554960D01*
X147173320Y-130545984D01*
X147173320Y-129618350D01*
X147014570Y-129459600D01*
X146300320Y-129456528D01*
X146175838Y-129468788D01*
X146056140Y-129505098D01*
X145945826Y-129564063D01*
X145849135Y-129643415D01*
X145769783Y-129740106D01*
X145710818Y-129850420D01*
X145674508Y-129970118D01*
X145662248Y-130094600D01*
X145665320Y-131808850D01*
X145824070Y-131967600D01*
X146096234Y-131967600D01*
X146095515Y-131970455D01*
X146087241Y-132134728D01*
X146100017Y-132221600D01*
X145824070Y-132221600D01*
X145665320Y-132380350D01*
X145663453Y-133422320D01*
X143937187Y-133422320D01*
X143935320Y-132380350D01*
X143776570Y-132221600D01*
X143504406Y-132221600D01*
X143505125Y-132218745D01*
X143513399Y-132054472D01*
X143500623Y-131967600D01*
X143776570Y-131967600D01*
X143935320Y-131808850D01*
X143938392Y-130094600D01*
X143926132Y-129970118D01*
X143889822Y-129850420D01*
X143830857Y-129740106D01*
X143751505Y-129643415D01*
X143654814Y-129564063D01*
X143544500Y-129505098D01*
X143424802Y-129468788D01*
X143300320Y-129456528D01*
X142586070Y-129459600D01*
X142427320Y-129618350D01*
X142427320Y-130546542D01*
X142317528Y-130585672D01*
X142296914Y-130596690D01*
X142208966Y-130554960D01*
X142173320Y-130545984D01*
X142173320Y-129618350D01*
X142014570Y-129459600D01*
X141300320Y-129456528D01*
X141175838Y-129468788D01*
X141056140Y-129505098D01*
X140945826Y-129564063D01*
X140849135Y-129643415D01*
X140769783Y-129740106D01*
X140758348Y-129761498D01*
X140733337Y-129714706D01*
X140653985Y-129618015D01*
X140557294Y-129538663D01*
X140446980Y-129479698D01*
X140327282Y-129443388D01*
X140202800Y-129431128D01*
X139488550Y-129434200D01*
X139329800Y-129592950D01*
X139329800Y-130521142D01*
X139220008Y-130560272D01*
X139199394Y-130571290D01*
X139111446Y-130529560D01*
X139075800Y-130520584D01*
X139075800Y-129592950D01*
X138917050Y-129434200D01*
X138202800Y-129431128D01*
X138078318Y-129443388D01*
X137958620Y-129479698D01*
X137848306Y-129538663D01*
X137751615Y-129618015D01*
X137672263Y-129714706D01*
X137613298Y-129825020D01*
X137576988Y-129944718D01*
X137564728Y-130069200D01*
X137567800Y-131783450D01*
X137726550Y-131942200D01*
X137998714Y-131942200D01*
X137997995Y-131945055D01*
X137989721Y-132109328D01*
X138002497Y-132196200D01*
X137726550Y-132196200D01*
X137567800Y-132354950D01*
X137565887Y-133422320D01*
X135839713Y-133422320D01*
X135837800Y-132354950D01*
X135679050Y-132196200D01*
X135406886Y-132196200D01*
X135407605Y-132193345D01*
X135415879Y-132029072D01*
X135403103Y-131942200D01*
X135679050Y-131942200D01*
X135837800Y-131783450D01*
X135840872Y-130069200D01*
X135828612Y-129944718D01*
X135792302Y-129825020D01*
X135733337Y-129714706D01*
X135653985Y-129618015D01*
X135557294Y-129538663D01*
X135446980Y-129479698D01*
X135327282Y-129443388D01*
X135202800Y-129431128D01*
X134488550Y-129434200D01*
X134329800Y-129592950D01*
X134329800Y-130521142D01*
X134220008Y-130560272D01*
X134199394Y-130571290D01*
X134111446Y-130529560D01*
X134075800Y-130520584D01*
X134075800Y-129592950D01*
X133917050Y-129434200D01*
X133202800Y-129431128D01*
X133078318Y-129443388D01*
X132958620Y-129479698D01*
X132848306Y-129538663D01*
X132751615Y-129618015D01*
X132672263Y-129714706D01*
X132613298Y-129825020D01*
X132576988Y-129944718D01*
X132564728Y-130069200D01*
X132567800Y-131783450D01*
X132726550Y-131942200D01*
X132998714Y-131942200D01*
X132997995Y-131945055D01*
X132989721Y-132109328D01*
X133002497Y-132196200D01*
X132726550Y-132196200D01*
X132567800Y-132354950D01*
X132565887Y-133422320D01*
X132465901Y-133422320D01*
X132464000Y-132361750D01*
X132305250Y-132203000D01*
X132033086Y-132203000D01*
X132033805Y-132200145D01*
X132042079Y-132035872D01*
X132029303Y-131949000D01*
X132305250Y-131949000D01*
X132464000Y-131790250D01*
X132467072Y-130076000D01*
X132454812Y-129951518D01*
X132418502Y-129831820D01*
X132359537Y-129721506D01*
X132280185Y-129624815D01*
X132183494Y-129545463D01*
X132073180Y-129486498D01*
X131953482Y-129450188D01*
X131829000Y-129437928D01*
X131114750Y-129441000D01*
X130956000Y-129599750D01*
X130956000Y-130527942D01*
X130846208Y-130567072D01*
X130825594Y-130578090D01*
X130737646Y-130536360D01*
X130702000Y-130527384D01*
X130702000Y-129599750D01*
X130543250Y-129441000D01*
X129829000Y-129437928D01*
X129704518Y-129450188D01*
X129584820Y-129486498D01*
X129474506Y-129545463D01*
X129377815Y-129624815D01*
X129298463Y-129721506D01*
X129239498Y-129831820D01*
X129203188Y-129951518D01*
X129190928Y-130076000D01*
X129194000Y-131790250D01*
X129352750Y-131949000D01*
X129624914Y-131949000D01*
X129624195Y-131951855D01*
X129615921Y-132116128D01*
X129628697Y-132203000D01*
X129352750Y-132203000D01*
X129194000Y-132361750D01*
X129192099Y-133422320D01*
X127465901Y-133422320D01*
X127464000Y-132361750D01*
X127305250Y-132203000D01*
X127033086Y-132203000D01*
X127033805Y-132200145D01*
X127042079Y-132035872D01*
X127029303Y-131949000D01*
X127305250Y-131949000D01*
X127464000Y-131790250D01*
X127467072Y-130076000D01*
X127454812Y-129951518D01*
X127418502Y-129831820D01*
X127359537Y-129721506D01*
X127280185Y-129624815D01*
X127183494Y-129545463D01*
X127073180Y-129486498D01*
X126953482Y-129450188D01*
X126829000Y-129437928D01*
X126114750Y-129441000D01*
X125956000Y-129599750D01*
X125956000Y-130527942D01*
X125846208Y-130567072D01*
X125825594Y-130578090D01*
X125737646Y-130536360D01*
X125702000Y-130527384D01*
X125702000Y-129599750D01*
X125543250Y-129441000D01*
X124829000Y-129437928D01*
X124704518Y-129450188D01*
X124584820Y-129486498D01*
X124474506Y-129545463D01*
X124377815Y-129624815D01*
X124298463Y-129721506D01*
X124269067Y-129776500D01*
X124236037Y-129714706D01*
X124156685Y-129618015D01*
X124059994Y-129538663D01*
X123949680Y-129479698D01*
X123829982Y-129443388D01*
X123705500Y-129431128D01*
X122991250Y-129434200D01*
X122832500Y-129592950D01*
X122832500Y-130521142D01*
X122722708Y-130560272D01*
X122702094Y-130571290D01*
X122614146Y-130529560D01*
X122578500Y-130520584D01*
X122578500Y-129592950D01*
X122419750Y-129434200D01*
X121705500Y-129431128D01*
X121581018Y-129443388D01*
X121461320Y-129479698D01*
X121351006Y-129538663D01*
X121254315Y-129618015D01*
X121174963Y-129714706D01*
X121115998Y-129825020D01*
X121079688Y-129944718D01*
X121067428Y-130069200D01*
X121070500Y-131783450D01*
X121229250Y-131942200D01*
X121501414Y-131942200D01*
X121500695Y-131945055D01*
X121492421Y-132109328D01*
X121505197Y-132196200D01*
X121229250Y-132196200D01*
X121070500Y-132354950D01*
X121068587Y-133422320D01*
X119342413Y-133422320D01*
X119340500Y-132354950D01*
X119181750Y-132196200D01*
X118909586Y-132196200D01*
X118910305Y-132193345D01*
X118918579Y-132029072D01*
X118905803Y-131942200D01*
X119181750Y-131942200D01*
X119340500Y-131783450D01*
X119343572Y-130069200D01*
X119331312Y-129944718D01*
X119295002Y-129825020D01*
X119236037Y-129714706D01*
X119156685Y-129618015D01*
X119059994Y-129538663D01*
X118949680Y-129479698D01*
X118829982Y-129443388D01*
X118705500Y-129431128D01*
X117991250Y-129434200D01*
X117832500Y-129592950D01*
X117832500Y-130521142D01*
X117722708Y-130560272D01*
X117702094Y-130571290D01*
X117614146Y-130529560D01*
X117578500Y-130520584D01*
X117578500Y-129592950D01*
X117419750Y-129434200D01*
X116705500Y-129431128D01*
X116581018Y-129443388D01*
X116461320Y-129479698D01*
X116351006Y-129538663D01*
X116254315Y-129618015D01*
X116174963Y-129714706D01*
X116115998Y-129825020D01*
X116079688Y-129944718D01*
X116067428Y-130069200D01*
X116070500Y-131783450D01*
X116229250Y-131942200D01*
X116501414Y-131942200D01*
X116500695Y-131945055D01*
X116492421Y-132109328D01*
X116505197Y-132196200D01*
X116229250Y-132196200D01*
X116070500Y-132354950D01*
X116068587Y-133422320D01*
X113841600Y-133422320D01*
X113841600Y-123737323D01*
X115333000Y-123737323D01*
X115333000Y-124262677D01*
X115435492Y-124777935D01*
X115636536Y-125263298D01*
X115928406Y-125700113D01*
X116299887Y-126071594D01*
X116736702Y-126363464D01*
X117222065Y-126564508D01*
X117737323Y-126667000D01*
X118262677Y-126667000D01*
X118777935Y-126564508D01*
X119263298Y-126363464D01*
X119700113Y-126071594D01*
X120071594Y-125700113D01*
X120363464Y-125263298D01*
X120564508Y-124777935D01*
X120667000Y-124262677D01*
X120667000Y-123737323D01*
X120564508Y-123222065D01*
X120363464Y-122736702D01*
X120071594Y-122299887D01*
X119700113Y-121928406D01*
X119263298Y-121636536D01*
X118777935Y-121435492D01*
X118262677Y-121333000D01*
X117737323Y-121333000D01*
X117222065Y-121435492D01*
X116736702Y-121636536D01*
X116299887Y-121928406D01*
X115928406Y-122299887D01*
X115636536Y-122736702D01*
X115435492Y-123222065D01*
X115333000Y-123737323D01*
X113841600Y-123737323D01*
X113841600Y-120190591D01*
X120448120Y-120190591D01*
X120448120Y-120374769D01*
X120484052Y-120555409D01*
X120554534Y-120725569D01*
X120656858Y-120878708D01*
X120787092Y-121008942D01*
X120940231Y-121111266D01*
X121110391Y-121181748D01*
X121291031Y-121217680D01*
X121475209Y-121217680D01*
X121655849Y-121181748D01*
X121826009Y-121111266D01*
X121979148Y-121008942D01*
X122109382Y-120878708D01*
X122211706Y-120725569D01*
X122220097Y-120705311D01*
X126867141Y-118555440D01*
X130052535Y-118555440D01*
X130088640Y-118558996D01*
X130124745Y-118555440D01*
X130232725Y-118544805D01*
X130371273Y-118502777D01*
X130498960Y-118434527D01*
X130610878Y-118342678D01*
X130633899Y-118314627D01*
X133569873Y-115378654D01*
X133597918Y-115355638D01*
X133689767Y-115243720D01*
X133758017Y-115116033D01*
X133800045Y-114977485D01*
X133810680Y-114869505D01*
X133810680Y-114869496D01*
X133814235Y-114833401D01*
X133810680Y-114797306D01*
X133810680Y-111530254D01*
X133873786Y-111435809D01*
X133944268Y-111265649D01*
X133980200Y-111085009D01*
X133980200Y-110900831D01*
X133944268Y-110720191D01*
X133873786Y-110550031D01*
X133771462Y-110396892D01*
X133641228Y-110266658D01*
X133488089Y-110164334D01*
X133317929Y-110093852D01*
X133137289Y-110057920D01*
X132961787Y-110057920D01*
X133005106Y-109993089D01*
X133075588Y-109822929D01*
X133094599Y-109727351D01*
X133664680Y-109727351D01*
X133664680Y-109911529D01*
X133700612Y-110092169D01*
X133771094Y-110262329D01*
X133873418Y-110415468D01*
X134003652Y-110545702D01*
X134152360Y-110645065D01*
X134152360Y-110704009D01*
X134172714Y-110806336D01*
X133981160Y-111195904D01*
X133952903Y-111248768D01*
X133938749Y-111295427D01*
X133921630Y-111341071D01*
X133917782Y-111364547D01*
X133910875Y-111387316D01*
X133906096Y-111435835D01*
X133898210Y-111483946D01*
X133900240Y-111543844D01*
X133900241Y-124861952D01*
X133899007Y-124868831D01*
X133900241Y-124934311D01*
X133900241Y-124963465D01*
X133900920Y-124970363D01*
X133901735Y-125013587D01*
X133908001Y-125042253D01*
X133910876Y-125071445D01*
X133923422Y-125112804D01*
X133932652Y-125155030D01*
X133944387Y-125181918D01*
X133952904Y-125209993D01*
X133973278Y-125248110D01*
X133990568Y-125287724D01*
X134007324Y-125311806D01*
X134021154Y-125337680D01*
X134048576Y-125371093D01*
X134052538Y-125376788D01*
X134071471Y-125398991D01*
X134113003Y-125449598D01*
X134118403Y-125454030D01*
X135935440Y-127584920D01*
X135935440Y-127640729D01*
X135971372Y-127821369D01*
X136041854Y-127991529D01*
X136144178Y-128144668D01*
X136274412Y-128274902D01*
X136427551Y-128377226D01*
X136597711Y-128447708D01*
X136778351Y-128483640D01*
X136962529Y-128483640D01*
X137143169Y-128447708D01*
X137313329Y-128377226D01*
X137466468Y-128274902D01*
X137596702Y-128144668D01*
X137699026Y-127991529D01*
X137769508Y-127821369D01*
X137805440Y-127640729D01*
X137805440Y-127456551D01*
X137769508Y-127275911D01*
X137699026Y-127105751D01*
X137596702Y-126952612D01*
X137466468Y-126822378D01*
X137313329Y-126720054D01*
X137143169Y-126649572D01*
X137054728Y-126631980D01*
X135370240Y-124656536D01*
X135370240Y-112802926D01*
X135878146Y-113310833D01*
X135901162Y-113338878D01*
X136013080Y-113430727D01*
X136140767Y-113498977D01*
X136279315Y-113541005D01*
X136387295Y-113551640D01*
X136387304Y-113551640D01*
X136423399Y-113555195D01*
X136459494Y-113551640D01*
X141245569Y-113551640D01*
X141385631Y-113645226D01*
X141555791Y-113715708D01*
X141736431Y-113751640D01*
X141920609Y-113751640D01*
X141987601Y-113738314D01*
X141987601Y-113940568D01*
X141894014Y-114080631D01*
X141823532Y-114250791D01*
X141787600Y-114431431D01*
X141787600Y-114615609D01*
X141823532Y-114796249D01*
X141894014Y-114966409D01*
X141996338Y-115119548D01*
X142126572Y-115249782D01*
X142279711Y-115352106D01*
X142449871Y-115422588D01*
X142630511Y-115458520D01*
X142814689Y-115458520D01*
X142995329Y-115422588D01*
X143165489Y-115352106D01*
X143318628Y-115249782D01*
X143448862Y-115119548D01*
X143551186Y-114966409D01*
X143621668Y-114796249D01*
X143657600Y-114615609D01*
X143657600Y-114431431D01*
X143621668Y-114250791D01*
X143551186Y-114080631D01*
X143457600Y-113940569D01*
X143457600Y-111491305D01*
X143461156Y-111455200D01*
X143446965Y-111311115D01*
X143404937Y-111172566D01*
X143336687Y-111044880D01*
X143267853Y-110961006D01*
X143267850Y-110961003D01*
X143244837Y-110932962D01*
X143216797Y-110909950D01*
X142081506Y-109774660D01*
X143406214Y-109774660D01*
X145645200Y-112013647D01*
X145645201Y-116124543D01*
X145644418Y-116192747D01*
X145651866Y-116232572D01*
X145655836Y-116272885D01*
X145665140Y-116303557D01*
X145671032Y-116335063D01*
X145686104Y-116372667D01*
X145697864Y-116411433D01*
X145712972Y-116439698D01*
X145724898Y-116469452D01*
X145747018Y-116503394D01*
X145766114Y-116539120D01*
X145809347Y-116591800D01*
X149929120Y-121730957D01*
X149929121Y-126015488D01*
X149835534Y-126155551D01*
X149765052Y-126325711D01*
X149729120Y-126506351D01*
X149729120Y-126690529D01*
X149765052Y-126871169D01*
X149835534Y-127041329D01*
X149937858Y-127194468D01*
X150068092Y-127324702D01*
X150221231Y-127427026D01*
X150391391Y-127497508D01*
X150572031Y-127533440D01*
X150756209Y-127533440D01*
X150936849Y-127497508D01*
X151107009Y-127427026D01*
X151260148Y-127324702D01*
X151390382Y-127194468D01*
X151492706Y-127041329D01*
X151563188Y-126871169D01*
X151599120Y-126690529D01*
X151599120Y-126506351D01*
X151563188Y-126325711D01*
X151492706Y-126155551D01*
X151399120Y-126015489D01*
X151399120Y-123737323D01*
X151833000Y-123737323D01*
X151833000Y-124262677D01*
X151935492Y-124777935D01*
X152136536Y-125263298D01*
X152428406Y-125700113D01*
X152799887Y-126071594D01*
X153236702Y-126363464D01*
X153722065Y-126564508D01*
X154237323Y-126667000D01*
X154762677Y-126667000D01*
X155277935Y-126564508D01*
X155763298Y-126363464D01*
X156200113Y-126071594D01*
X156571594Y-125700113D01*
X156863464Y-125263298D01*
X157064508Y-124777935D01*
X157167000Y-124262677D01*
X157167000Y-123737323D01*
X157064508Y-123222065D01*
X156863464Y-122736702D01*
X156571594Y-122299887D01*
X156200113Y-121928406D01*
X155763298Y-121636536D01*
X155277935Y-121435492D01*
X154762677Y-121333000D01*
X154237323Y-121333000D01*
X153722065Y-121435492D01*
X153236702Y-121636536D01*
X152799887Y-121928406D01*
X152428406Y-122299887D01*
X152136536Y-122736702D01*
X151935492Y-123222065D01*
X151833000Y-123737323D01*
X151399120Y-123737323D01*
X151399120Y-121476848D01*
X151399902Y-121408771D01*
X151392456Y-121368955D01*
X151388485Y-121328635D01*
X151379179Y-121297957D01*
X151373288Y-121266456D01*
X151358218Y-121228859D01*
X151346457Y-121190087D01*
X151331347Y-121161817D01*
X151319422Y-121132067D01*
X151297305Y-121098130D01*
X151278207Y-121062400D01*
X151234976Y-121009724D01*
X147115200Y-115870563D01*
X147115200Y-111745305D01*
X147118756Y-111709200D01*
X147104565Y-111565115D01*
X147062537Y-111426566D01*
X146994287Y-111298880D01*
X146925453Y-111215006D01*
X146925450Y-111215003D01*
X146902437Y-111186962D01*
X146874397Y-111163950D01*
X144255919Y-108545472D01*
X144232898Y-108517422D01*
X144120980Y-108425573D01*
X143993293Y-108357323D01*
X143854745Y-108315295D01*
X143746765Y-108304660D01*
X143710660Y-108301104D01*
X143674555Y-108304660D01*
X140893829Y-108304660D01*
X140757569Y-108213614D01*
X140587409Y-108143132D01*
X140406769Y-108107200D01*
X140222591Y-108107200D01*
X140041951Y-108143132D01*
X139871791Y-108213614D01*
X139718652Y-108315938D01*
X139588418Y-108446172D01*
X139486094Y-108599311D01*
X139415612Y-108769471D01*
X139379680Y-108950111D01*
X139379680Y-109134289D01*
X139381890Y-109145400D01*
X135247930Y-109145400D01*
X135195708Y-109093178D01*
X135042569Y-108990854D01*
X134872409Y-108920372D01*
X134691769Y-108884440D01*
X134507591Y-108884440D01*
X134326951Y-108920372D01*
X134156791Y-108990854D01*
X134003652Y-109093178D01*
X133873418Y-109223412D01*
X133771094Y-109376551D01*
X133700612Y-109546711D01*
X133664680Y-109727351D01*
X133094599Y-109727351D01*
X133111520Y-109642289D01*
X133111520Y-109458111D01*
X133075588Y-109277471D01*
X133005106Y-109107311D01*
X132902782Y-108954172D01*
X132772548Y-108823938D01*
X132619409Y-108721614D01*
X132449249Y-108651132D01*
X132268609Y-108615200D01*
X132084431Y-108615200D01*
X131903791Y-108651132D01*
X131859960Y-108669287D01*
X131859960Y-108162111D01*
X131953546Y-108022049D01*
X132024028Y-107851889D01*
X132059960Y-107671249D01*
X132059960Y-107487071D01*
X132024028Y-107306431D01*
X131953546Y-107136271D01*
X131851222Y-106983132D01*
X131720988Y-106852898D01*
X131567849Y-106750574D01*
X131397689Y-106680092D01*
X131217049Y-106644160D01*
X131032871Y-106644160D01*
X130852231Y-106680092D01*
X130682071Y-106750574D01*
X130528932Y-106852898D01*
X130398698Y-106983132D01*
X130296374Y-107136271D01*
X130225892Y-107306431D01*
X130189960Y-107487071D01*
X130189960Y-107671249D01*
X130225892Y-107851889D01*
X130296374Y-108022049D01*
X130389961Y-108162111D01*
X130389960Y-108471053D01*
X128251385Y-110609628D01*
X128086171Y-110642492D01*
X127916011Y-110712974D01*
X127762872Y-110815298D01*
X127632638Y-110945532D01*
X127530314Y-111098671D01*
X127459832Y-111268831D01*
X127423900Y-111449471D01*
X127423900Y-111633649D01*
X127459832Y-111814289D01*
X127530314Y-111984449D01*
X127632638Y-112137588D01*
X127762872Y-112267822D01*
X127916011Y-112370146D01*
X128086171Y-112440628D01*
X128266811Y-112476560D01*
X128450989Y-112476560D01*
X128631629Y-112440628D01*
X128801789Y-112370146D01*
X128954928Y-112267822D01*
X129085162Y-112137588D01*
X129187486Y-111984449D01*
X129257968Y-111814289D01*
X129290832Y-111649075D01*
X131250827Y-109689080D01*
X131277452Y-109822929D01*
X131347934Y-109993089D01*
X131441521Y-110133152D01*
X131441520Y-111904230D01*
X131384218Y-111961532D01*
X131281894Y-112114671D01*
X131211412Y-112284831D01*
X131175480Y-112465471D01*
X131175480Y-112649649D01*
X131211412Y-112830289D01*
X131281894Y-113000449D01*
X131384218Y-113153588D01*
X131514452Y-113283822D01*
X131667591Y-113386146D01*
X131837751Y-113456628D01*
X132018391Y-113492560D01*
X132202569Y-113492560D01*
X132340681Y-113465088D01*
X132340681Y-114528952D01*
X129784194Y-117085440D01*
X126726512Y-117085440D01*
X126675375Y-117082493D01*
X126618464Y-117090442D01*
X126561275Y-117096075D01*
X126546881Y-117100441D01*
X126531985Y-117102522D01*
X126477729Y-117121418D01*
X126422727Y-117138103D01*
X126377537Y-117162258D01*
X121599996Y-119372502D01*
X121475209Y-119347680D01*
X121291031Y-119347680D01*
X121110391Y-119383612D01*
X120940231Y-119454094D01*
X120787092Y-119556418D01*
X120656858Y-119686652D01*
X120554534Y-119839791D01*
X120484052Y-120009951D01*
X120448120Y-120190591D01*
X113841600Y-120190591D01*
X113841600Y-104773911D01*
X128674000Y-104773911D01*
X128674000Y-104958089D01*
X128709932Y-105138729D01*
X128780414Y-105308889D01*
X128882738Y-105462028D01*
X129012972Y-105592262D01*
X129166111Y-105694586D01*
X129336271Y-105765068D01*
X129516911Y-105801000D01*
X129701089Y-105801000D01*
X129881729Y-105765068D01*
X130051889Y-105694586D01*
X130205028Y-105592262D01*
X130335262Y-105462028D01*
X130437586Y-105308889D01*
X130508068Y-105138729D01*
X130544000Y-104958089D01*
X130544000Y-104773911D01*
X130508068Y-104593271D01*
X130437586Y-104423111D01*
X130354000Y-104298015D01*
X130354000Y-101325864D01*
X130392791Y-101333580D01*
X130576969Y-101333580D01*
X130757609Y-101297648D01*
X130927769Y-101227166D01*
X131067831Y-101133580D01*
X131701894Y-101133580D01*
X132178506Y-101610193D01*
X132201522Y-101638238D01*
X132313440Y-101730087D01*
X132441127Y-101798337D01*
X132537646Y-101827616D01*
X132579674Y-101840365D01*
X132593892Y-101841765D01*
X132687655Y-101851000D01*
X132687662Y-101851000D01*
X132723759Y-101854555D01*
X132759856Y-101851000D01*
X144623240Y-101851000D01*
X144658681Y-101880086D01*
X144763153Y-101935928D01*
X144776111Y-101944586D01*
X144946271Y-102015068D01*
X145126911Y-102051000D01*
X145311089Y-102051000D01*
X145491729Y-102015068D01*
X145661889Y-101944586D01*
X145815028Y-101842262D01*
X145945262Y-101712028D01*
X146047586Y-101558889D01*
X146118068Y-101388729D01*
X146154000Y-101208089D01*
X146154000Y-101023911D01*
X146118068Y-100843271D01*
X146047586Y-100673111D01*
X145945262Y-100519972D01*
X145815028Y-100389738D01*
X145661889Y-100287414D01*
X145549835Y-100241000D01*
X151806049Y-100241000D01*
X151946111Y-100334586D01*
X152116271Y-100405068D01*
X152296911Y-100441000D01*
X152481089Y-100441000D01*
X152661729Y-100405068D01*
X152831889Y-100334586D01*
X152985028Y-100232262D01*
X153115262Y-100102028D01*
X153217586Y-99948889D01*
X153288068Y-99778729D01*
X153324000Y-99598089D01*
X153324000Y-99413911D01*
X153288068Y-99233271D01*
X153217586Y-99063111D01*
X153115262Y-98909972D01*
X152985028Y-98779738D01*
X152831889Y-98677414D01*
X152661729Y-98606932D01*
X152481089Y-98571000D01*
X152296911Y-98571000D01*
X152116271Y-98606932D01*
X151946111Y-98677414D01*
X151806049Y-98771000D01*
X144803290Y-98771000D01*
X144796028Y-98763738D01*
X144642889Y-98661414D01*
X144472729Y-98590932D01*
X144292089Y-98555000D01*
X144107911Y-98555000D01*
X143927271Y-98590932D01*
X143757111Y-98661414D01*
X143603972Y-98763738D01*
X143596710Y-98771000D01*
X140186085Y-98771000D01*
X140125262Y-98679972D01*
X139995028Y-98549738D01*
X139841889Y-98447414D01*
X139671729Y-98376932D01*
X139491089Y-98341000D01*
X139306911Y-98341000D01*
X139126271Y-98376932D01*
X138956111Y-98447414D01*
X138816049Y-98541000D01*
X136851812Y-98541000D01*
X136708248Y-98445074D01*
X136538088Y-98374592D01*
X136401480Y-98347419D01*
X136401480Y-98332311D01*
X136495066Y-98192249D01*
X136565548Y-98022089D01*
X136601480Y-97841449D01*
X136601480Y-97657271D01*
X136565548Y-97476631D01*
X136495066Y-97306471D01*
X136392742Y-97153332D01*
X136262508Y-97023098D01*
X136109369Y-96920774D01*
X135939209Y-96850292D01*
X135758569Y-96814360D01*
X135574391Y-96814360D01*
X135393751Y-96850292D01*
X135223591Y-96920774D01*
X135148875Y-96970697D01*
X135029889Y-96921412D01*
X134849249Y-96885480D01*
X134665071Y-96885480D01*
X134484431Y-96921412D01*
X134314271Y-96991894D01*
X134161132Y-97094218D01*
X134030898Y-97224452D01*
X133928574Y-97377591D01*
X133858092Y-97547751D01*
X133822160Y-97728391D01*
X133822160Y-97912569D01*
X133858092Y-98093209D01*
X133928574Y-98263369D01*
X134022161Y-98403432D01*
X134022160Y-99302677D01*
X134016352Y-99306558D01*
X133886118Y-99436792D01*
X133783794Y-99589931D01*
X133713312Y-99760091D01*
X133677380Y-99940731D01*
X133677380Y-100124909D01*
X133713312Y-100305549D01*
X133744565Y-100381000D01*
X133538297Y-100381000D01*
X133593748Y-100247129D01*
X133629680Y-100066489D01*
X133629680Y-99882311D01*
X133593748Y-99701671D01*
X133523266Y-99531511D01*
X133420942Y-99378372D01*
X133290708Y-99248138D01*
X133137569Y-99145814D01*
X132967409Y-99075332D01*
X132802195Y-99042468D01*
X132362880Y-98603154D01*
X132362880Y-98339931D01*
X132456466Y-98199869D01*
X132526948Y-98029709D01*
X132562880Y-97849069D01*
X132562880Y-97664891D01*
X132526948Y-97484251D01*
X132456466Y-97314091D01*
X132354142Y-97160952D01*
X132223908Y-97030718D01*
X132070769Y-96928394D01*
X131900609Y-96857912D01*
X131719969Y-96821980D01*
X131535791Y-96821980D01*
X131355151Y-96857912D01*
X131184991Y-96928394D01*
X131031852Y-97030718D01*
X130901618Y-97160952D01*
X130799294Y-97314091D01*
X130728812Y-97484251D01*
X130692880Y-97664891D01*
X130692880Y-97849069D01*
X130728812Y-98029709D01*
X130799294Y-98199869D01*
X130892880Y-98339931D01*
X130892880Y-98871494D01*
X130889324Y-98907600D01*
X130903515Y-99051685D01*
X130912008Y-99079681D01*
X130945543Y-99190232D01*
X131013793Y-99317919D01*
X131105642Y-99429837D01*
X131133688Y-99452854D01*
X131344414Y-99663580D01*
X131067831Y-99663580D01*
X130927769Y-99569994D01*
X130757609Y-99499512D01*
X130576969Y-99463580D01*
X130392791Y-99463580D01*
X130354000Y-99471296D01*
X130354000Y-99179631D01*
X130365028Y-99172262D01*
X130495262Y-99042028D01*
X130597586Y-98888889D01*
X130668068Y-98718729D01*
X130704000Y-98538089D01*
X130704000Y-98353911D01*
X130668068Y-98173271D01*
X130597586Y-98003111D01*
X130495262Y-97849972D01*
X130365028Y-97719738D01*
X130211889Y-97617414D01*
X130041729Y-97546932D01*
X129861089Y-97511000D01*
X129676911Y-97511000D01*
X129496271Y-97546932D01*
X129326111Y-97617414D01*
X129172972Y-97719738D01*
X129042738Y-97849972D01*
X128940414Y-98003111D01*
X128869932Y-98173271D01*
X128834000Y-98353911D01*
X128834000Y-98538089D01*
X128869932Y-98718729D01*
X128884000Y-98752693D01*
X128884001Y-104268709D01*
X128882738Y-104269972D01*
X128780414Y-104423111D01*
X128709932Y-104593271D01*
X128674000Y-104773911D01*
X113841600Y-104773911D01*
X113841600Y-88614514D01*
X117534000Y-88614514D01*
X117534000Y-88877486D01*
X117585304Y-89135405D01*
X117685939Y-89378359D01*
X117832038Y-89597013D01*
X118017987Y-89782962D01*
X118236641Y-89929061D01*
X118479595Y-90029696D01*
X118551423Y-90043984D01*
X118509595Y-90052304D01*
X118266641Y-90152939D01*
X118047987Y-90299038D01*
X117862038Y-90484987D01*
X117715939Y-90703641D01*
X117615304Y-90946595D01*
X117564000Y-91204514D01*
X117564000Y-91467486D01*
X117615304Y-91725405D01*
X117715939Y-91968359D01*
X117862038Y-92187013D01*
X118047987Y-92372962D01*
X118266641Y-92519061D01*
X118509595Y-92619696D01*
X118706969Y-92658957D01*
X118589595Y-92682304D01*
X118346641Y-92782939D01*
X118127987Y-92929038D01*
X117942038Y-93114987D01*
X117795939Y-93333641D01*
X117695304Y-93576595D01*
X117644000Y-93834514D01*
X117644000Y-94097486D01*
X117695304Y-94355405D01*
X117795939Y-94598359D01*
X117942038Y-94817013D01*
X118127987Y-95002962D01*
X118346641Y-95149061D01*
X118589595Y-95249696D01*
X118847514Y-95301000D01*
X119110486Y-95301000D01*
X119368405Y-95249696D01*
X119611359Y-95149061D01*
X119830013Y-95002962D01*
X120015962Y-94817013D01*
X120093479Y-94701000D01*
X121482895Y-94701000D01*
X121519000Y-94704556D01*
X121555105Y-94701000D01*
X121663085Y-94690365D01*
X121801633Y-94648337D01*
X121929320Y-94580087D01*
X122041238Y-94488238D01*
X122064259Y-94460188D01*
X124353447Y-92171000D01*
X130742895Y-92171000D01*
X130779000Y-92174556D01*
X130815105Y-92171000D01*
X130923085Y-92160365D01*
X131061633Y-92118337D01*
X131189320Y-92050087D01*
X131301238Y-91958238D01*
X131324258Y-91930188D01*
X132446515Y-90807931D01*
X132611729Y-90775068D01*
X132781889Y-90704586D01*
X132935028Y-90602262D01*
X133065262Y-90472028D01*
X133167586Y-90318889D01*
X133238068Y-90148729D01*
X133274000Y-89968089D01*
X133274000Y-89783911D01*
X133238068Y-89603271D01*
X133167586Y-89433111D01*
X133065262Y-89279972D01*
X132935028Y-89149738D01*
X132781889Y-89047414D01*
X132695191Y-89011503D01*
X132711889Y-89004586D01*
X132865028Y-88902262D01*
X132995262Y-88772028D01*
X133097586Y-88618889D01*
X133168068Y-88448729D01*
X133204000Y-88268089D01*
X133204000Y-88083911D01*
X133168068Y-87903271D01*
X133097586Y-87733111D01*
X132995262Y-87579972D01*
X132865028Y-87449738D01*
X132711889Y-87347414D01*
X132616679Y-87307977D01*
X132715028Y-87242262D01*
X132845262Y-87112028D01*
X132947586Y-86958889D01*
X133018068Y-86788729D01*
X133054000Y-86608089D01*
X133054000Y-86423911D01*
X133018068Y-86243271D01*
X132947586Y-86073111D01*
X132845262Y-85919972D01*
X132715028Y-85789738D01*
X132561889Y-85687414D01*
X132426658Y-85631400D01*
X132575028Y-85532262D01*
X132705262Y-85402028D01*
X132807586Y-85248889D01*
X132878068Y-85078729D01*
X132914000Y-84898089D01*
X132914000Y-84713911D01*
X132878068Y-84533271D01*
X132807586Y-84363111D01*
X132705262Y-84209972D01*
X132576290Y-84081000D01*
X132595262Y-84062028D01*
X132697586Y-83908889D01*
X132768068Y-83738729D01*
X132804000Y-83558089D01*
X132804000Y-83373911D01*
X132768068Y-83193271D01*
X132697586Y-83023111D01*
X132595262Y-82869972D01*
X132465028Y-82739738D01*
X132311889Y-82637414D01*
X132141729Y-82566932D01*
X131961089Y-82531000D01*
X131776911Y-82531000D01*
X131689049Y-82548477D01*
X131678068Y-82493271D01*
X131607586Y-82323111D01*
X131505262Y-82169972D01*
X131375028Y-82039738D01*
X131221889Y-81937414D01*
X131051729Y-81866932D01*
X130871089Y-81831000D01*
X130686911Y-81831000D01*
X130506271Y-81866932D01*
X130336111Y-81937414D01*
X130196049Y-82031000D01*
X128756290Y-82031000D01*
X128765262Y-82022028D01*
X128867586Y-81868889D01*
X128938068Y-81698729D01*
X128970932Y-81533515D01*
X129744193Y-80760254D01*
X129772238Y-80737238D01*
X129864087Y-80625320D01*
X129879003Y-80597414D01*
X129932337Y-80497634D01*
X129974365Y-80359085D01*
X129988556Y-80215000D01*
X129985000Y-80178895D01*
X129985000Y-78954446D01*
X130615001Y-78324446D01*
X130615001Y-79613885D01*
X130611444Y-79650000D01*
X130625635Y-79794085D01*
X130658451Y-79902262D01*
X130667664Y-79932633D01*
X130735914Y-80060320D01*
X130827763Y-80172238D01*
X130855808Y-80195254D01*
X136744746Y-86084193D01*
X136767762Y-86112238D01*
X136795806Y-86135253D01*
X136879680Y-86204087D01*
X137007366Y-86272337D01*
X137145915Y-86314365D01*
X137290000Y-86328556D01*
X137326105Y-86325000D01*
X141855554Y-86325000D01*
X143285000Y-87754447D01*
X143285001Y-92227048D01*
X143191414Y-92367111D01*
X143120932Y-92537271D01*
X143085000Y-92717911D01*
X143085000Y-92902089D01*
X143120932Y-93082729D01*
X143191414Y-93252889D01*
X143293738Y-93406028D01*
X143423972Y-93536262D01*
X143577111Y-93638586D01*
X143747271Y-93709068D01*
X143927911Y-93745000D01*
X144112089Y-93745000D01*
X144292729Y-93709068D01*
X144462889Y-93638586D01*
X144616028Y-93536262D01*
X144746262Y-93406028D01*
X144848586Y-93252889D01*
X144919068Y-93082729D01*
X144955000Y-92902089D01*
X144955000Y-92717911D01*
X144919068Y-92537271D01*
X144848586Y-92367111D01*
X144755000Y-92227049D01*
X144755000Y-87486094D01*
X144758555Y-87449999D01*
X144755000Y-87413904D01*
X144755000Y-87413895D01*
X144744365Y-87305915D01*
X144702337Y-87167367D01*
X144634087Y-87039680D01*
X144567783Y-86958889D01*
X144565253Y-86955806D01*
X144565250Y-86955803D01*
X144542237Y-86927762D01*
X144514197Y-86904750D01*
X142705258Y-85095812D01*
X142682238Y-85067762D01*
X142570320Y-84975913D01*
X142442633Y-84907663D01*
X142304085Y-84865635D01*
X142196105Y-84855000D01*
X142160000Y-84851444D01*
X142123895Y-84855000D01*
X137594447Y-84855000D01*
X132671076Y-79931630D01*
X132701951Y-79911000D01*
X139015015Y-79911000D01*
X139009932Y-79923271D01*
X138974000Y-80103911D01*
X138974000Y-80288089D01*
X138992238Y-80379778D01*
X138956271Y-80386932D01*
X138786111Y-80457414D01*
X138632972Y-80559738D01*
X138502738Y-80689972D01*
X138400414Y-80843111D01*
X138329932Y-81013271D01*
X138294000Y-81193911D01*
X138294000Y-81378089D01*
X138329932Y-81558729D01*
X138400414Y-81728889D01*
X138502738Y-81882028D01*
X138632972Y-82012262D01*
X138786111Y-82114586D01*
X138956271Y-82185068D01*
X139121485Y-82217932D01*
X139603746Y-82700193D01*
X139626762Y-82728238D01*
X139738680Y-82820087D01*
X139866367Y-82888337D01*
X140004915Y-82930365D01*
X140112895Y-82941000D01*
X140112904Y-82941000D01*
X140148999Y-82944555D01*
X140185094Y-82941000D01*
X144450744Y-82941000D01*
X144456111Y-82944586D01*
X144626271Y-83015068D01*
X144806911Y-83051000D01*
X144991089Y-83051000D01*
X145154001Y-83018594D01*
X145154001Y-84331552D01*
X144871485Y-84614068D01*
X144706271Y-84646932D01*
X144536111Y-84717414D01*
X144382972Y-84819738D01*
X144252738Y-84949972D01*
X144150414Y-85103111D01*
X144079932Y-85273271D01*
X144044000Y-85453911D01*
X144044000Y-85638089D01*
X144079932Y-85818729D01*
X144150414Y-85988889D01*
X144252738Y-86142028D01*
X144382972Y-86272262D01*
X144536111Y-86374586D01*
X144706271Y-86445068D01*
X144886911Y-86481000D01*
X145071089Y-86481000D01*
X145251729Y-86445068D01*
X145421889Y-86374586D01*
X145575028Y-86272262D01*
X145705262Y-86142028D01*
X145807586Y-85988889D01*
X145878068Y-85818729D01*
X145910932Y-85653515D01*
X146383193Y-85181254D01*
X146411238Y-85158238D01*
X146503087Y-85046320D01*
X146571337Y-84918633D01*
X146613365Y-84780085D01*
X146624000Y-84672105D01*
X146624000Y-84672096D01*
X146627555Y-84636001D01*
X146624000Y-84599906D01*
X146624000Y-81033290D01*
X146645262Y-81012028D01*
X146747586Y-80858889D01*
X146818068Y-80688729D01*
X146854000Y-80508089D01*
X146854000Y-80323911D01*
X146818068Y-80143271D01*
X146747586Y-79973111D01*
X146645262Y-79819972D01*
X146515028Y-79689738D01*
X146361889Y-79587414D01*
X146191729Y-79516932D01*
X146011089Y-79481000D01*
X145826911Y-79481000D01*
X145646271Y-79516932D01*
X145476111Y-79587414D01*
X145322972Y-79689738D01*
X145192738Y-79819972D01*
X145090414Y-79973111D01*
X145019932Y-80143271D01*
X144984000Y-80323911D01*
X144984000Y-80508089D01*
X145019932Y-80688729D01*
X145090414Y-80858889D01*
X145154000Y-80954053D01*
X145154000Y-81213405D01*
X144991089Y-81181000D01*
X144806911Y-81181000D01*
X144626271Y-81216932D01*
X144456111Y-81287414D01*
X144302972Y-81389738D01*
X144221710Y-81471000D01*
X142506290Y-81471000D01*
X142595262Y-81382028D01*
X142697586Y-81228889D01*
X142768068Y-81058729D01*
X142804000Y-80878089D01*
X142804000Y-80693911D01*
X142768068Y-80513271D01*
X142697586Y-80343111D01*
X142595262Y-80189972D01*
X142465028Y-80059738D01*
X142451368Y-80050611D01*
X142486271Y-80065068D01*
X142666911Y-80101000D01*
X142851089Y-80101000D01*
X143031729Y-80065068D01*
X143201889Y-79994586D01*
X143355028Y-79892262D01*
X143485262Y-79762028D01*
X143587586Y-79608889D01*
X143658068Y-79438729D01*
X143694000Y-79258089D01*
X143694000Y-79073911D01*
X143658068Y-78893271D01*
X143587586Y-78723111D01*
X143485262Y-78569972D01*
X143355028Y-78439738D01*
X143201889Y-78337414D01*
X143031729Y-78266932D01*
X142851089Y-78231000D01*
X142666911Y-78231000D01*
X142486271Y-78266932D01*
X142316111Y-78337414D01*
X142162972Y-78439738D01*
X142161710Y-78441000D01*
X132701951Y-78441000D01*
X132561889Y-78347414D01*
X132391729Y-78276932D01*
X132211089Y-78241000D01*
X132085000Y-78241000D01*
X132085000Y-74222486D01*
X132202729Y-74199068D01*
X132372889Y-74128586D01*
X132526028Y-74026262D01*
X132656262Y-73896028D01*
X132758586Y-73742889D01*
X132829068Y-73572729D01*
X132865000Y-73392089D01*
X132865000Y-73207911D01*
X132829068Y-73027271D01*
X132758586Y-72857111D01*
X132656262Y-72703972D01*
X132526028Y-72573738D01*
X132372889Y-72471414D01*
X132330564Y-72453883D01*
X133533447Y-71251000D01*
X137682051Y-71251000D01*
X137682738Y-71252028D01*
X137812972Y-71382262D01*
X137966111Y-71484586D01*
X138136271Y-71555068D01*
X138316911Y-71591000D01*
X138501089Y-71591000D01*
X138681729Y-71555068D01*
X138851889Y-71484586D01*
X139005028Y-71382262D01*
X139135262Y-71252028D01*
X139237586Y-71098889D01*
X139308068Y-70928729D01*
X139344000Y-70748089D01*
X139344000Y-70563911D01*
X139308068Y-70383271D01*
X139237586Y-70213111D01*
X139135262Y-70059972D01*
X139005028Y-69929738D01*
X138851889Y-69827414D01*
X138681729Y-69756932D01*
X138501089Y-69721000D01*
X138316911Y-69721000D01*
X138136271Y-69756932D01*
X138078165Y-69781000D01*
X133265105Y-69781000D01*
X133229000Y-69777444D01*
X133084915Y-69791635D01*
X132946366Y-69833663D01*
X132818680Y-69901913D01*
X132706762Y-69993762D01*
X132683746Y-70021807D01*
X127295808Y-75409746D01*
X127267762Y-75432763D01*
X127175913Y-75544681D01*
X127107663Y-75672368D01*
X127085230Y-75746320D01*
X127065635Y-75810915D01*
X127051444Y-75955000D01*
X127055000Y-75991105D01*
X127055001Y-79310552D01*
X126524808Y-79840746D01*
X126496763Y-79863762D01*
X126404914Y-79975680D01*
X126372843Y-80035681D01*
X126336664Y-80103367D01*
X126294635Y-80241915D01*
X126280444Y-80386000D01*
X126284001Y-80422115D01*
X126284000Y-81775557D01*
X126261089Y-81771000D01*
X126076911Y-81771000D01*
X125896271Y-81806932D01*
X125726111Y-81877414D01*
X125572972Y-81979738D01*
X125442738Y-82109972D01*
X125340414Y-82263111D01*
X125269932Y-82433271D01*
X125234000Y-82613911D01*
X125234000Y-82798089D01*
X125238557Y-82821000D01*
X120063479Y-82821000D01*
X119985962Y-82704987D01*
X119800013Y-82519038D01*
X119581359Y-82372939D01*
X119338405Y-82272304D01*
X119080486Y-82221000D01*
X118817514Y-82221000D01*
X118559595Y-82272304D01*
X118316641Y-82372939D01*
X118097987Y-82519038D01*
X117912038Y-82704987D01*
X117765939Y-82923641D01*
X117665304Y-83166595D01*
X117614000Y-83424514D01*
X117614000Y-83687486D01*
X117665304Y-83945405D01*
X117765939Y-84188359D01*
X117912038Y-84407013D01*
X118097987Y-84592962D01*
X118316641Y-84739061D01*
X118559595Y-84839696D01*
X118631560Y-84854011D01*
X118539595Y-84872304D01*
X118296641Y-84972939D01*
X118077987Y-85119038D01*
X117892038Y-85304987D01*
X117745939Y-85523641D01*
X117645304Y-85766595D01*
X117594000Y-86024514D01*
X117594000Y-86287486D01*
X117645304Y-86545405D01*
X117745939Y-86788359D01*
X117892038Y-87007013D01*
X118077987Y-87192962D01*
X118296641Y-87339061D01*
X118539595Y-87439696D01*
X118566423Y-87445033D01*
X118479595Y-87462304D01*
X118236641Y-87562939D01*
X118017987Y-87709038D01*
X117832038Y-87894987D01*
X117685939Y-88113641D01*
X117585304Y-88356595D01*
X117534000Y-88614514D01*
X113841600Y-88614514D01*
X113841600Y-63150000D01*
X114761444Y-63150000D01*
X114765000Y-63186105D01*
X114765000Y-63853896D01*
X114765001Y-70453885D01*
X114761444Y-70490000D01*
X114775635Y-70634085D01*
X114812820Y-70756665D01*
X114817664Y-70772633D01*
X114885914Y-70900320D01*
X114977763Y-71012238D01*
X115005808Y-71035254D01*
X116998069Y-73027515D01*
X117030932Y-73192729D01*
X117101414Y-73362889D01*
X117203738Y-73516028D01*
X117333972Y-73646262D01*
X117487111Y-73748586D01*
X117657271Y-73819068D01*
X117837911Y-73855000D01*
X118022089Y-73855000D01*
X118202729Y-73819068D01*
X118372889Y-73748586D01*
X118526028Y-73646262D01*
X118656262Y-73516028D01*
X118758586Y-73362889D01*
X118829068Y-73192729D01*
X118865000Y-73012089D01*
X118865000Y-72827911D01*
X118829068Y-72647271D01*
X118758586Y-72477111D01*
X118656262Y-72323972D01*
X118526028Y-72193738D01*
X118372889Y-72091414D01*
X118202729Y-72020932D01*
X118037515Y-71988069D01*
X116235000Y-70185554D01*
X116235000Y-70060193D01*
X124024000Y-70060193D01*
X124024000Y-70411807D01*
X124092596Y-70756665D01*
X124227153Y-71081515D01*
X124422500Y-71373871D01*
X124671129Y-71622500D01*
X124963485Y-71817847D01*
X125288335Y-71952404D01*
X125633193Y-72021000D01*
X125984807Y-72021000D01*
X126329665Y-71952404D01*
X126654515Y-71817847D01*
X126946871Y-71622500D01*
X127195500Y-71373871D01*
X127390847Y-71081515D01*
X127525404Y-70756665D01*
X127594000Y-70411807D01*
X127594000Y-70060193D01*
X127525404Y-69715335D01*
X127390847Y-69390485D01*
X127195500Y-69098129D01*
X126946871Y-68849500D01*
X126654515Y-68654153D01*
X126329665Y-68519596D01*
X125984807Y-68451000D01*
X125633193Y-68451000D01*
X125288335Y-68519596D01*
X124963485Y-68654153D01*
X124671129Y-68849500D01*
X124422500Y-69098129D01*
X124227153Y-69390485D01*
X124092596Y-69715335D01*
X124024000Y-70060193D01*
X116235000Y-70060193D01*
X116235000Y-68083911D01*
X139614000Y-68083911D01*
X139614000Y-68268089D01*
X139649932Y-68448729D01*
X139720414Y-68618889D01*
X139822738Y-68772028D01*
X139952972Y-68902262D01*
X140106111Y-69004586D01*
X140276271Y-69075068D01*
X140456911Y-69111000D01*
X140641089Y-69111000D01*
X140821729Y-69075068D01*
X140991889Y-69004586D01*
X141131951Y-68911000D01*
X145504554Y-68911000D01*
X146754001Y-70160448D01*
X146754000Y-74812914D01*
X146705262Y-74739972D01*
X146575028Y-74609738D01*
X146421889Y-74507414D01*
X146251729Y-74436932D01*
X146071089Y-74401000D01*
X145886911Y-74401000D01*
X145706271Y-74436932D01*
X145536111Y-74507414D01*
X145396049Y-74601000D01*
X141151951Y-74601000D01*
X141011889Y-74507414D01*
X140841729Y-74436932D01*
X140661089Y-74401000D01*
X140476911Y-74401000D01*
X140296271Y-74436932D01*
X140126111Y-74507414D01*
X139972972Y-74609738D01*
X139842738Y-74739972D01*
X139740414Y-74893111D01*
X139669932Y-75063271D01*
X139634000Y-75243911D01*
X139634000Y-75428089D01*
X139669932Y-75608729D01*
X139740414Y-75778889D01*
X139842738Y-75932028D01*
X139972972Y-76062262D01*
X140126111Y-76164586D01*
X140296271Y-76235068D01*
X140476911Y-76271000D01*
X140661089Y-76271000D01*
X140841729Y-76235068D01*
X141011889Y-76164586D01*
X141151951Y-76071000D01*
X145396049Y-76071000D01*
X145536111Y-76164586D01*
X145706271Y-76235068D01*
X145886911Y-76271000D01*
X146071089Y-76271000D01*
X146251729Y-76235068D01*
X146421889Y-76164586D01*
X146575028Y-76062262D01*
X146705262Y-75932028D01*
X146754000Y-75859086D01*
X146754000Y-76651553D01*
X146491485Y-76914068D01*
X146326271Y-76946932D01*
X146156111Y-77017414D01*
X146002972Y-77119738D01*
X145872738Y-77249972D01*
X145770414Y-77403111D01*
X145699932Y-77573271D01*
X145664000Y-77753911D01*
X145664000Y-77938089D01*
X145699932Y-78118729D01*
X145770414Y-78288889D01*
X145872738Y-78442028D01*
X146002972Y-78572262D01*
X146156111Y-78674586D01*
X146326271Y-78745068D01*
X146506911Y-78781000D01*
X146691089Y-78781000D01*
X146871729Y-78745068D01*
X147041889Y-78674586D01*
X147195028Y-78572262D01*
X147325262Y-78442028D01*
X147427586Y-78288889D01*
X147498068Y-78118729D01*
X147530932Y-77953515D01*
X147983197Y-77501250D01*
X148011237Y-77478238D01*
X148034250Y-77450197D01*
X148034253Y-77450194D01*
X148072893Y-77403111D01*
X148103087Y-77366320D01*
X148171337Y-77238633D01*
X148213365Y-77100085D01*
X148224000Y-76992105D01*
X148224000Y-76992104D01*
X148227556Y-76956001D01*
X148224000Y-76919896D01*
X148224000Y-69892105D01*
X148227556Y-69856000D01*
X148213365Y-69711915D01*
X148171337Y-69573367D01*
X148103087Y-69445680D01*
X148011238Y-69333762D01*
X147983193Y-69310746D01*
X146354258Y-67681812D01*
X146331238Y-67653762D01*
X146219320Y-67561913D01*
X146091633Y-67493663D01*
X145953085Y-67451635D01*
X145845105Y-67441000D01*
X145809000Y-67437444D01*
X145772895Y-67441000D01*
X141131951Y-67441000D01*
X140991889Y-67347414D01*
X140821729Y-67276932D01*
X140641089Y-67241000D01*
X140456911Y-67241000D01*
X140276271Y-67276932D01*
X140106111Y-67347414D01*
X139952972Y-67449738D01*
X139822738Y-67579972D01*
X139720414Y-67733111D01*
X139649932Y-67903271D01*
X139614000Y-68083911D01*
X116235000Y-68083911D01*
X116235000Y-63454446D01*
X116905000Y-62784447D01*
X116905001Y-66287048D01*
X116811414Y-66427111D01*
X116740932Y-66597271D01*
X116705000Y-66777911D01*
X116705000Y-66962089D01*
X116740932Y-67142729D01*
X116811414Y-67312889D01*
X116913738Y-67466028D01*
X117043972Y-67596262D01*
X117197111Y-67698586D01*
X117367271Y-67769068D01*
X117547911Y-67805000D01*
X117732089Y-67805000D01*
X117912729Y-67769068D01*
X118082889Y-67698586D01*
X118236028Y-67596262D01*
X118366262Y-67466028D01*
X118468586Y-67312889D01*
X118539068Y-67142729D01*
X118575000Y-66962089D01*
X118575000Y-66777911D01*
X118539068Y-66597271D01*
X118468586Y-66427111D01*
X118375000Y-66287049D01*
X118375000Y-65160193D01*
X124024000Y-65160193D01*
X124024000Y-65511807D01*
X124092596Y-65856665D01*
X124227153Y-66181515D01*
X124422500Y-66473871D01*
X124671129Y-66722500D01*
X124963485Y-66917847D01*
X125288335Y-67052404D01*
X125633193Y-67121000D01*
X125984807Y-67121000D01*
X126329665Y-67052404D01*
X126654515Y-66917847D01*
X126946871Y-66722500D01*
X127195500Y-66473871D01*
X127390847Y-66181515D01*
X127525404Y-65856665D01*
X127594000Y-65511807D01*
X127594000Y-65160193D01*
X127525404Y-64815335D01*
X127390847Y-64490485D01*
X127195500Y-64198129D01*
X127183371Y-64186000D01*
X141060928Y-64186000D01*
X141060928Y-65786000D01*
X141073188Y-65910482D01*
X141109498Y-66030180D01*
X141168463Y-66140494D01*
X141247815Y-66237185D01*
X141344506Y-66316537D01*
X141454820Y-66375502D01*
X141574518Y-66411812D01*
X141699000Y-66424072D01*
X143299000Y-66424072D01*
X143423482Y-66411812D01*
X143543180Y-66375502D01*
X143653494Y-66316537D01*
X143750185Y-66237185D01*
X143829537Y-66140494D01*
X143888502Y-66030180D01*
X143904117Y-65978702D01*
X144185903Y-65978702D01*
X144257486Y-66222671D01*
X144512996Y-66343571D01*
X144787184Y-66412300D01*
X145069512Y-66426217D01*
X145349130Y-66384787D01*
X145615292Y-66289603D01*
X145740514Y-66222671D01*
X145812097Y-65978702D01*
X144999000Y-65165605D01*
X144185903Y-65978702D01*
X143904117Y-65978702D01*
X143924812Y-65910482D01*
X143937072Y-65786000D01*
X143937072Y-65778785D01*
X144006298Y-65799097D01*
X144819395Y-64986000D01*
X145178605Y-64986000D01*
X145991702Y-65799097D01*
X146235671Y-65727514D01*
X146356571Y-65472004D01*
X146425300Y-65197816D01*
X146439217Y-64915488D01*
X146397787Y-64635870D01*
X146302603Y-64369708D01*
X146235671Y-64244486D01*
X145991702Y-64172903D01*
X145178605Y-64986000D01*
X144819395Y-64986000D01*
X144006298Y-64172903D01*
X143937072Y-64193215D01*
X143937072Y-64186000D01*
X143924812Y-64061518D01*
X143904118Y-63993298D01*
X144185903Y-63993298D01*
X144999000Y-64806395D01*
X145812097Y-63993298D01*
X145740514Y-63749329D01*
X145485004Y-63628429D01*
X145210816Y-63559700D01*
X144928488Y-63545783D01*
X144648870Y-63587213D01*
X144382708Y-63682397D01*
X144257486Y-63749329D01*
X144185903Y-63993298D01*
X143904118Y-63993298D01*
X143888502Y-63941820D01*
X143829537Y-63831506D01*
X143750185Y-63734815D01*
X143653494Y-63655463D01*
X143543180Y-63596498D01*
X143423482Y-63560188D01*
X143299000Y-63547928D01*
X141699000Y-63547928D01*
X141574518Y-63560188D01*
X141454820Y-63596498D01*
X141344506Y-63655463D01*
X141247815Y-63734815D01*
X141168463Y-63831506D01*
X141109498Y-63941820D01*
X141073188Y-64061518D01*
X141060928Y-64186000D01*
X127183371Y-64186000D01*
X126946871Y-63949500D01*
X126654515Y-63754153D01*
X126329665Y-63619596D01*
X125984807Y-63551000D01*
X125633193Y-63551000D01*
X125288335Y-63619596D01*
X124963485Y-63754153D01*
X124671129Y-63949500D01*
X124422500Y-64198129D01*
X124227153Y-64490485D01*
X124092596Y-64815335D01*
X124024000Y-65160193D01*
X118375000Y-65160193D01*
X118375000Y-62006105D01*
X118378556Y-61970000D01*
X118375000Y-61933895D01*
X118375000Y-60717911D01*
X132985000Y-60717911D01*
X132985000Y-60902089D01*
X133020932Y-61082729D01*
X133091414Y-61252889D01*
X133193738Y-61406028D01*
X133323972Y-61536262D01*
X133477111Y-61638586D01*
X133647271Y-61709068D01*
X133827911Y-61745000D01*
X134012089Y-61745000D01*
X134192729Y-61709068D01*
X134202550Y-61705000D01*
X139787049Y-61705000D01*
X139927111Y-61798586D01*
X140097271Y-61869068D01*
X140277911Y-61905000D01*
X140462089Y-61905000D01*
X140642729Y-61869068D01*
X140812889Y-61798586D01*
X140966028Y-61696262D01*
X141096262Y-61566028D01*
X141198586Y-61412889D01*
X141269068Y-61242729D01*
X141305000Y-61062089D01*
X141305000Y-60877911D01*
X141269068Y-60697271D01*
X141198586Y-60527111D01*
X141096262Y-60373972D01*
X140966028Y-60243738D01*
X140812889Y-60141414D01*
X140642729Y-60070932D01*
X140462089Y-60035000D01*
X140277911Y-60035000D01*
X140097271Y-60070932D01*
X139927111Y-60141414D01*
X139787049Y-60235000D01*
X137463339Y-60235000D01*
X137528068Y-60078729D01*
X137564000Y-59898089D01*
X137564000Y-59713911D01*
X137528068Y-59533271D01*
X137457586Y-59363111D01*
X137364000Y-59223049D01*
X137364000Y-56672105D01*
X137367556Y-56636000D01*
X137353365Y-56491915D01*
X137311337Y-56353366D01*
X137243087Y-56225680D01*
X137174253Y-56141806D01*
X137174250Y-56141803D01*
X137151237Y-56113762D01*
X137123197Y-56090750D01*
X136990931Y-55958485D01*
X136958068Y-55793271D01*
X136887586Y-55623111D01*
X136785262Y-55469972D01*
X136655028Y-55339738D01*
X136501889Y-55237414D01*
X136331729Y-55166932D01*
X136151089Y-55131000D01*
X135966911Y-55131000D01*
X135786271Y-55166932D01*
X135616111Y-55237414D01*
X135462972Y-55339738D01*
X135332738Y-55469972D01*
X135230414Y-55623111D01*
X135159932Y-55793271D01*
X135124000Y-55973911D01*
X135124000Y-56158089D01*
X135159932Y-56338729D01*
X135230414Y-56508889D01*
X135332738Y-56662028D01*
X135462972Y-56792262D01*
X135616111Y-56894586D01*
X135786271Y-56965068D01*
X135894000Y-56986497D01*
X135894001Y-59223048D01*
X135800414Y-59363111D01*
X135729932Y-59533271D01*
X135694000Y-59713911D01*
X135694000Y-59898089D01*
X135729932Y-60078729D01*
X135794661Y-60235000D01*
X134660312Y-60235000D01*
X134646262Y-60213972D01*
X134516028Y-60083738D01*
X134362889Y-59981414D01*
X134192729Y-59910932D01*
X134012089Y-59875000D01*
X133827911Y-59875000D01*
X133647271Y-59910932D01*
X133477111Y-59981414D01*
X133323972Y-60083738D01*
X133193738Y-60213972D01*
X133091414Y-60367111D01*
X133020932Y-60537271D01*
X132985000Y-60717911D01*
X118375000Y-60717911D01*
X118375000Y-60196094D01*
X118378555Y-60159999D01*
X118375000Y-60123904D01*
X118375000Y-60123895D01*
X118364365Y-60015915D01*
X118322337Y-59877367D01*
X118254087Y-59749680D01*
X118224732Y-59713911D01*
X118185253Y-59665806D01*
X118185250Y-59665803D01*
X118162237Y-59637762D01*
X118134197Y-59614750D01*
X117891932Y-59372485D01*
X117859068Y-59207271D01*
X117788586Y-59037111D01*
X117686262Y-58883972D01*
X117556028Y-58753738D01*
X117402889Y-58651414D01*
X117232729Y-58580932D01*
X117052089Y-58545000D01*
X116867911Y-58545000D01*
X116687271Y-58580932D01*
X116517111Y-58651414D01*
X116363972Y-58753738D01*
X116233738Y-58883972D01*
X116131414Y-59037111D01*
X116060932Y-59207271D01*
X116025000Y-59387911D01*
X116025000Y-59572089D01*
X116060932Y-59752729D01*
X116131414Y-59922889D01*
X116233738Y-60076028D01*
X116363972Y-60206262D01*
X116517111Y-60308586D01*
X116687271Y-60379068D01*
X116852485Y-60411932D01*
X116905000Y-60464447D01*
X116905001Y-61235000D01*
X116716104Y-61235000D01*
X116679999Y-61231444D01*
X116535914Y-61245635D01*
X116493886Y-61258384D01*
X116397367Y-61287663D01*
X116269680Y-61355913D01*
X116157762Y-61447762D01*
X116134746Y-61475807D01*
X115005808Y-62604746D01*
X114977762Y-62627763D01*
X114885913Y-62739681D01*
X114817663Y-62867368D01*
X114788384Y-62963887D01*
X114775635Y-63005915D01*
X114761444Y-63150000D01*
X113841600Y-63150000D01*
X113841600Y-55598665D01*
X120315000Y-55598665D01*
X120315000Y-55881335D01*
X120370147Y-56158574D01*
X120478320Y-56419727D01*
X120635363Y-56654759D01*
X120835241Y-56854637D01*
X121070273Y-57011680D01*
X121331426Y-57119853D01*
X121608665Y-57175000D01*
X121891335Y-57175000D01*
X122168574Y-57119853D01*
X122429727Y-57011680D01*
X122664759Y-56854637D01*
X122863357Y-56656039D01*
X122864188Y-56664482D01*
X122900498Y-56784180D01*
X122959463Y-56894494D01*
X123038815Y-56991185D01*
X123135506Y-57070537D01*
X123245820Y-57129502D01*
X123365518Y-57165812D01*
X123490000Y-57178072D01*
X124004250Y-57175000D01*
X124163000Y-57016250D01*
X124163000Y-55867000D01*
X124417000Y-55867000D01*
X124417000Y-57016250D01*
X124575750Y-57175000D01*
X125090000Y-57178072D01*
X125214482Y-57165812D01*
X125334180Y-57129502D01*
X125444494Y-57070537D01*
X125541185Y-56991185D01*
X125620537Y-56894494D01*
X125679502Y-56784180D01*
X125715812Y-56664482D01*
X125728072Y-56540000D01*
X125725000Y-56025750D01*
X125566250Y-55867000D01*
X124417000Y-55867000D01*
X124163000Y-55867000D01*
X124143000Y-55867000D01*
X124143000Y-55613000D01*
X124163000Y-55613000D01*
X124163000Y-54463750D01*
X124417000Y-54463750D01*
X124417000Y-55613000D01*
X125566250Y-55613000D01*
X125725000Y-55454250D01*
X125728072Y-54940000D01*
X125715812Y-54815518D01*
X125679502Y-54695820D01*
X125620537Y-54585506D01*
X125541185Y-54488815D01*
X125444494Y-54409463D01*
X125334180Y-54350498D01*
X125214482Y-54314188D01*
X125090000Y-54301928D01*
X124575750Y-54305000D01*
X124417000Y-54463750D01*
X124163000Y-54463750D01*
X124004250Y-54305000D01*
X123490000Y-54301928D01*
X123365518Y-54314188D01*
X123245820Y-54350498D01*
X123135506Y-54409463D01*
X123038815Y-54488815D01*
X122959463Y-54585506D01*
X122900498Y-54695820D01*
X122864188Y-54815518D01*
X122863357Y-54823961D01*
X122664759Y-54625363D01*
X122429727Y-54468320D01*
X122168574Y-54360147D01*
X121891335Y-54305000D01*
X121608665Y-54305000D01*
X121331426Y-54360147D01*
X121070273Y-54468320D01*
X120835241Y-54625363D01*
X120635363Y-54825241D01*
X120478320Y-55060273D01*
X120370147Y-55321426D01*
X120315000Y-55598665D01*
X113841600Y-55598665D01*
X113841600Y-49737323D01*
X115333000Y-49737323D01*
X115333000Y-50262677D01*
X115435492Y-50777935D01*
X115636536Y-51263298D01*
X115928406Y-51700113D01*
X116299887Y-52071594D01*
X116736702Y-52363464D01*
X117222065Y-52564508D01*
X117737323Y-52667000D01*
X118262677Y-52667000D01*
X118777935Y-52564508D01*
X119263298Y-52363464D01*
X119700113Y-52071594D01*
X120071594Y-51700113D01*
X120363464Y-51263298D01*
X120564508Y-50777935D01*
X120667000Y-50262677D01*
X120667000Y-49737323D01*
X151833000Y-49737323D01*
X151833000Y-50262677D01*
X151935492Y-50777935D01*
X152136536Y-51263298D01*
X152428406Y-51700113D01*
X152799887Y-52071594D01*
X153236702Y-52363464D01*
X153722065Y-52564508D01*
X154237323Y-52667000D01*
X154762677Y-52667000D01*
X155277935Y-52564508D01*
X155763298Y-52363464D01*
X156200113Y-52071594D01*
X156571594Y-51700113D01*
X156863464Y-51263298D01*
X157064508Y-50777935D01*
X157167000Y-50262677D01*
X157167000Y-49737323D01*
X157064508Y-49222065D01*
X156863464Y-48736702D01*
X156571594Y-48299887D01*
X156200113Y-47928406D01*
X155763298Y-47636536D01*
X155277935Y-47435492D01*
X154762677Y-47333000D01*
X154237323Y-47333000D01*
X153722065Y-47435492D01*
X153236702Y-47636536D01*
X152799887Y-47928406D01*
X152428406Y-48299887D01*
X152136536Y-48736702D01*
X151935492Y-49222065D01*
X151833000Y-49737323D01*
X120667000Y-49737323D01*
X120564508Y-49222065D01*
X120363464Y-48736702D01*
X120071594Y-48299887D01*
X120060844Y-48289137D01*
X132734000Y-48289137D01*
X132734000Y-48502863D01*
X132775696Y-48712483D01*
X132857485Y-48909940D01*
X132976225Y-49087647D01*
X133127353Y-49238775D01*
X133305060Y-49357515D01*
X133502517Y-49439304D01*
X133712137Y-49481000D01*
X133925863Y-49481000D01*
X134135483Y-49439304D01*
X134332940Y-49357515D01*
X134510647Y-49238775D01*
X134661775Y-49087647D01*
X134780515Y-48909940D01*
X134862304Y-48712483D01*
X134904000Y-48502863D01*
X134904000Y-48289137D01*
X137134000Y-48289137D01*
X137134000Y-48502863D01*
X137175696Y-48712483D01*
X137257485Y-48909940D01*
X137376225Y-49087647D01*
X137527353Y-49238775D01*
X137705060Y-49357515D01*
X137902517Y-49439304D01*
X138112137Y-49481000D01*
X138325863Y-49481000D01*
X138535483Y-49439304D01*
X138732940Y-49357515D01*
X138910647Y-49238775D01*
X139061775Y-49087647D01*
X139180515Y-48909940D01*
X139262304Y-48712483D01*
X139304000Y-48502863D01*
X139304000Y-48289137D01*
X139262304Y-48079517D01*
X139180515Y-47882060D01*
X139061775Y-47704353D01*
X138910647Y-47553225D01*
X138732940Y-47434485D01*
X138535483Y-47352696D01*
X138325863Y-47311000D01*
X138112137Y-47311000D01*
X137902517Y-47352696D01*
X137705060Y-47434485D01*
X137527353Y-47553225D01*
X137376225Y-47704353D01*
X137257485Y-47882060D01*
X137175696Y-48079517D01*
X137134000Y-48289137D01*
X134904000Y-48289137D01*
X134862304Y-48079517D01*
X134780515Y-47882060D01*
X134661775Y-47704353D01*
X134510647Y-47553225D01*
X134332940Y-47434485D01*
X134135483Y-47352696D01*
X133925863Y-47311000D01*
X133712137Y-47311000D01*
X133502517Y-47352696D01*
X133305060Y-47434485D01*
X133127353Y-47553225D01*
X132976225Y-47704353D01*
X132857485Y-47882060D01*
X132775696Y-48079517D01*
X132734000Y-48289137D01*
X120060844Y-48289137D01*
X119700113Y-47928406D01*
X119263298Y-47636536D01*
X118777935Y-47435492D01*
X118262677Y-47333000D01*
X117737323Y-47333000D01*
X117222065Y-47435492D01*
X116736702Y-47636536D01*
X116299887Y-47928406D01*
X115928406Y-48299887D01*
X115636536Y-48736702D01*
X115435492Y-49222065D01*
X115333000Y-49737323D01*
X113841600Y-49737323D01*
X113841600Y-44184640D01*
X158700401Y-44184640D01*
X158700400Y-133422320D01*
%TA.AperFunction,Conductor*%
D21*
G36*
X158700400Y-133422320D02*
G01*
X156676517Y-133422320D01*
X156674700Y-132408290D01*
X156515950Y-132249540D01*
X156243786Y-132249540D01*
X156244505Y-132246685D01*
X156252779Y-132082412D01*
X156240003Y-131995540D01*
X156515950Y-131995540D01*
X156674700Y-131836790D01*
X156677772Y-130122540D01*
X156665512Y-129998058D01*
X156629202Y-129878360D01*
X156570237Y-129768046D01*
X156490885Y-129671355D01*
X156394194Y-129592003D01*
X156283880Y-129533038D01*
X156164182Y-129496728D01*
X156039700Y-129484468D01*
X155325450Y-129487540D01*
X155166700Y-129646290D01*
X155166700Y-130574482D01*
X155056908Y-130613612D01*
X155036294Y-130624630D01*
X154948346Y-130582900D01*
X154912700Y-130573924D01*
X154912700Y-129646290D01*
X154753950Y-129487540D01*
X154039700Y-129484468D01*
X153915218Y-129496728D01*
X153795520Y-129533038D01*
X153685206Y-129592003D01*
X153588515Y-129671355D01*
X153509163Y-129768046D01*
X153450198Y-129878360D01*
X153413888Y-129998058D01*
X153401628Y-130122540D01*
X153404700Y-131836790D01*
X153563450Y-131995540D01*
X153835614Y-131995540D01*
X153834895Y-131998395D01*
X153826621Y-132162668D01*
X153839397Y-132249540D01*
X153563450Y-132249540D01*
X153404700Y-132408290D01*
X153402883Y-133422320D01*
X151676517Y-133422320D01*
X151674700Y-132408290D01*
X151515950Y-132249540D01*
X151243786Y-132249540D01*
X151244505Y-132246685D01*
X151252779Y-132082412D01*
X151240003Y-131995540D01*
X151515950Y-131995540D01*
X151674700Y-131836790D01*
X151677772Y-130122540D01*
X151665512Y-129998058D01*
X151629202Y-129878360D01*
X151570237Y-129768046D01*
X151490885Y-129671355D01*
X151394194Y-129592003D01*
X151283880Y-129533038D01*
X151164182Y-129496728D01*
X151039700Y-129484468D01*
X150325450Y-129487540D01*
X150166700Y-129646290D01*
X150166700Y-130574482D01*
X150056908Y-130613612D01*
X150036294Y-130624630D01*
X149948346Y-130582900D01*
X149912700Y-130573924D01*
X149912700Y-129646290D01*
X149753950Y-129487540D01*
X149039700Y-129484468D01*
X148915218Y-129496728D01*
X148795520Y-129533038D01*
X148687418Y-129590821D01*
X148654814Y-129564063D01*
X148544500Y-129505098D01*
X148424802Y-129468788D01*
X148300320Y-129456528D01*
X147586070Y-129459600D01*
X147427320Y-129618350D01*
X147427320Y-130546542D01*
X147317528Y-130585672D01*
X147296914Y-130596690D01*
X147208966Y-130554960D01*
X147173320Y-130545984D01*
X147173320Y-129618350D01*
X147014570Y-129459600D01*
X146300320Y-129456528D01*
X146175838Y-129468788D01*
X146056140Y-129505098D01*
X145945826Y-129564063D01*
X145849135Y-129643415D01*
X145769783Y-129740106D01*
X145710818Y-129850420D01*
X145674508Y-129970118D01*
X145662248Y-130094600D01*
X145665320Y-131808850D01*
X145824070Y-131967600D01*
X146096234Y-131967600D01*
X146095515Y-131970455D01*
X146087241Y-132134728D01*
X146100017Y-132221600D01*
X145824070Y-132221600D01*
X145665320Y-132380350D01*
X145663453Y-133422320D01*
X143937187Y-133422320D01*
X143935320Y-132380350D01*
X143776570Y-132221600D01*
X143504406Y-132221600D01*
X143505125Y-132218745D01*
X143513399Y-132054472D01*
X143500623Y-131967600D01*
X143776570Y-131967600D01*
X143935320Y-131808850D01*
X143938392Y-130094600D01*
X143926132Y-129970118D01*
X143889822Y-129850420D01*
X143830857Y-129740106D01*
X143751505Y-129643415D01*
X143654814Y-129564063D01*
X143544500Y-129505098D01*
X143424802Y-129468788D01*
X143300320Y-129456528D01*
X142586070Y-129459600D01*
X142427320Y-129618350D01*
X142427320Y-130546542D01*
X142317528Y-130585672D01*
X142296914Y-130596690D01*
X142208966Y-130554960D01*
X142173320Y-130545984D01*
X142173320Y-129618350D01*
X142014570Y-129459600D01*
X141300320Y-129456528D01*
X141175838Y-129468788D01*
X141056140Y-129505098D01*
X140945826Y-129564063D01*
X140849135Y-129643415D01*
X140769783Y-129740106D01*
X140758348Y-129761498D01*
X140733337Y-129714706D01*
X140653985Y-129618015D01*
X140557294Y-129538663D01*
X140446980Y-129479698D01*
X140327282Y-129443388D01*
X140202800Y-129431128D01*
X139488550Y-129434200D01*
X139329800Y-129592950D01*
X139329800Y-130521142D01*
X139220008Y-130560272D01*
X139199394Y-130571290D01*
X139111446Y-130529560D01*
X139075800Y-130520584D01*
X139075800Y-129592950D01*
X138917050Y-129434200D01*
X138202800Y-129431128D01*
X138078318Y-129443388D01*
X137958620Y-129479698D01*
X137848306Y-129538663D01*
X137751615Y-129618015D01*
X137672263Y-129714706D01*
X137613298Y-129825020D01*
X137576988Y-129944718D01*
X137564728Y-130069200D01*
X137567800Y-131783450D01*
X137726550Y-131942200D01*
X137998714Y-131942200D01*
X137997995Y-131945055D01*
X137989721Y-132109328D01*
X138002497Y-132196200D01*
X137726550Y-132196200D01*
X137567800Y-132354950D01*
X137565887Y-133422320D01*
X135839713Y-133422320D01*
X135837800Y-132354950D01*
X135679050Y-132196200D01*
X135406886Y-132196200D01*
X135407605Y-132193345D01*
X135415879Y-132029072D01*
X135403103Y-131942200D01*
X135679050Y-131942200D01*
X135837800Y-131783450D01*
X135840872Y-130069200D01*
X135828612Y-129944718D01*
X135792302Y-129825020D01*
X135733337Y-129714706D01*
X135653985Y-129618015D01*
X135557294Y-129538663D01*
X135446980Y-129479698D01*
X135327282Y-129443388D01*
X135202800Y-129431128D01*
X134488550Y-129434200D01*
X134329800Y-129592950D01*
X134329800Y-130521142D01*
X134220008Y-130560272D01*
X134199394Y-130571290D01*
X134111446Y-130529560D01*
X134075800Y-130520584D01*
X134075800Y-129592950D01*
X133917050Y-129434200D01*
X133202800Y-129431128D01*
X133078318Y-129443388D01*
X132958620Y-129479698D01*
X132848306Y-129538663D01*
X132751615Y-129618015D01*
X132672263Y-129714706D01*
X132613298Y-129825020D01*
X132576988Y-129944718D01*
X132564728Y-130069200D01*
X132567800Y-131783450D01*
X132726550Y-131942200D01*
X132998714Y-131942200D01*
X132997995Y-131945055D01*
X132989721Y-132109328D01*
X133002497Y-132196200D01*
X132726550Y-132196200D01*
X132567800Y-132354950D01*
X132565887Y-133422320D01*
X132465901Y-133422320D01*
X132464000Y-132361750D01*
X132305250Y-132203000D01*
X132033086Y-132203000D01*
X132033805Y-132200145D01*
X132042079Y-132035872D01*
X132029303Y-131949000D01*
X132305250Y-131949000D01*
X132464000Y-131790250D01*
X132467072Y-130076000D01*
X132454812Y-129951518D01*
X132418502Y-129831820D01*
X132359537Y-129721506D01*
X132280185Y-129624815D01*
X132183494Y-129545463D01*
X132073180Y-129486498D01*
X131953482Y-129450188D01*
X131829000Y-129437928D01*
X131114750Y-129441000D01*
X130956000Y-129599750D01*
X130956000Y-130527942D01*
X130846208Y-130567072D01*
X130825594Y-130578090D01*
X130737646Y-130536360D01*
X130702000Y-130527384D01*
X130702000Y-129599750D01*
X130543250Y-129441000D01*
X129829000Y-129437928D01*
X129704518Y-129450188D01*
X129584820Y-129486498D01*
X129474506Y-129545463D01*
X129377815Y-129624815D01*
X129298463Y-129721506D01*
X129239498Y-129831820D01*
X129203188Y-129951518D01*
X129190928Y-130076000D01*
X129194000Y-131790250D01*
X129352750Y-131949000D01*
X129624914Y-131949000D01*
X129624195Y-131951855D01*
X129615921Y-132116128D01*
X129628697Y-132203000D01*
X129352750Y-132203000D01*
X129194000Y-132361750D01*
X129192099Y-133422320D01*
X127465901Y-133422320D01*
X127464000Y-132361750D01*
X127305250Y-132203000D01*
X127033086Y-132203000D01*
X127033805Y-132200145D01*
X127042079Y-132035872D01*
X127029303Y-131949000D01*
X127305250Y-131949000D01*
X127464000Y-131790250D01*
X127467072Y-130076000D01*
X127454812Y-129951518D01*
X127418502Y-129831820D01*
X127359537Y-129721506D01*
X127280185Y-129624815D01*
X127183494Y-129545463D01*
X127073180Y-129486498D01*
X126953482Y-129450188D01*
X126829000Y-129437928D01*
X126114750Y-129441000D01*
X125956000Y-129599750D01*
X125956000Y-130527942D01*
X125846208Y-130567072D01*
X125825594Y-130578090D01*
X125737646Y-130536360D01*
X125702000Y-130527384D01*
X125702000Y-129599750D01*
X125543250Y-129441000D01*
X124829000Y-129437928D01*
X124704518Y-129450188D01*
X124584820Y-129486498D01*
X124474506Y-129545463D01*
X124377815Y-129624815D01*
X124298463Y-129721506D01*
X124269067Y-129776500D01*
X124236037Y-129714706D01*
X124156685Y-129618015D01*
X124059994Y-129538663D01*
X123949680Y-129479698D01*
X123829982Y-129443388D01*
X123705500Y-129431128D01*
X122991250Y-129434200D01*
X122832500Y-129592950D01*
X122832500Y-130521142D01*
X122722708Y-130560272D01*
X122702094Y-130571290D01*
X122614146Y-130529560D01*
X122578500Y-130520584D01*
X122578500Y-129592950D01*
X122419750Y-129434200D01*
X121705500Y-129431128D01*
X121581018Y-129443388D01*
X121461320Y-129479698D01*
X121351006Y-129538663D01*
X121254315Y-129618015D01*
X121174963Y-129714706D01*
X121115998Y-129825020D01*
X121079688Y-129944718D01*
X121067428Y-130069200D01*
X121070500Y-131783450D01*
X121229250Y-131942200D01*
X121501414Y-131942200D01*
X121500695Y-131945055D01*
X121492421Y-132109328D01*
X121505197Y-132196200D01*
X121229250Y-132196200D01*
X121070500Y-132354950D01*
X121068587Y-133422320D01*
X119342413Y-133422320D01*
X119340500Y-132354950D01*
X119181750Y-132196200D01*
X118909586Y-132196200D01*
X118910305Y-132193345D01*
X118918579Y-132029072D01*
X118905803Y-131942200D01*
X119181750Y-131942200D01*
X119340500Y-131783450D01*
X119343572Y-130069200D01*
X119331312Y-129944718D01*
X119295002Y-129825020D01*
X119236037Y-129714706D01*
X119156685Y-129618015D01*
X119059994Y-129538663D01*
X118949680Y-129479698D01*
X118829982Y-129443388D01*
X118705500Y-129431128D01*
X117991250Y-129434200D01*
X117832500Y-129592950D01*
X117832500Y-130521142D01*
X117722708Y-130560272D01*
X117702094Y-130571290D01*
X117614146Y-130529560D01*
X117578500Y-130520584D01*
X117578500Y-129592950D01*
X117419750Y-129434200D01*
X116705500Y-129431128D01*
X116581018Y-129443388D01*
X116461320Y-129479698D01*
X116351006Y-129538663D01*
X116254315Y-129618015D01*
X116174963Y-129714706D01*
X116115998Y-129825020D01*
X116079688Y-129944718D01*
X116067428Y-130069200D01*
X116070500Y-131783450D01*
X116229250Y-131942200D01*
X116501414Y-131942200D01*
X116500695Y-131945055D01*
X116492421Y-132109328D01*
X116505197Y-132196200D01*
X116229250Y-132196200D01*
X116070500Y-132354950D01*
X116068587Y-133422320D01*
X113841600Y-133422320D01*
X113841600Y-123737323D01*
X115333000Y-123737323D01*
X115333000Y-124262677D01*
X115435492Y-124777935D01*
X115636536Y-125263298D01*
X115928406Y-125700113D01*
X116299887Y-126071594D01*
X116736702Y-126363464D01*
X117222065Y-126564508D01*
X117737323Y-126667000D01*
X118262677Y-126667000D01*
X118777935Y-126564508D01*
X119263298Y-126363464D01*
X119700113Y-126071594D01*
X120071594Y-125700113D01*
X120363464Y-125263298D01*
X120564508Y-124777935D01*
X120667000Y-124262677D01*
X120667000Y-123737323D01*
X120564508Y-123222065D01*
X120363464Y-122736702D01*
X120071594Y-122299887D01*
X119700113Y-121928406D01*
X119263298Y-121636536D01*
X118777935Y-121435492D01*
X118262677Y-121333000D01*
X117737323Y-121333000D01*
X117222065Y-121435492D01*
X116736702Y-121636536D01*
X116299887Y-121928406D01*
X115928406Y-122299887D01*
X115636536Y-122736702D01*
X115435492Y-123222065D01*
X115333000Y-123737323D01*
X113841600Y-123737323D01*
X113841600Y-120190591D01*
X120448120Y-120190591D01*
X120448120Y-120374769D01*
X120484052Y-120555409D01*
X120554534Y-120725569D01*
X120656858Y-120878708D01*
X120787092Y-121008942D01*
X120940231Y-121111266D01*
X121110391Y-121181748D01*
X121291031Y-121217680D01*
X121475209Y-121217680D01*
X121655849Y-121181748D01*
X121826009Y-121111266D01*
X121979148Y-121008942D01*
X122109382Y-120878708D01*
X122211706Y-120725569D01*
X122220097Y-120705311D01*
X126867141Y-118555440D01*
X130052535Y-118555440D01*
X130088640Y-118558996D01*
X130124745Y-118555440D01*
X130232725Y-118544805D01*
X130371273Y-118502777D01*
X130498960Y-118434527D01*
X130610878Y-118342678D01*
X130633899Y-118314627D01*
X133569873Y-115378654D01*
X133597918Y-115355638D01*
X133689767Y-115243720D01*
X133758017Y-115116033D01*
X133800045Y-114977485D01*
X133810680Y-114869505D01*
X133810680Y-114869496D01*
X133814235Y-114833401D01*
X133810680Y-114797306D01*
X133810680Y-111530254D01*
X133873786Y-111435809D01*
X133944268Y-111265649D01*
X133980200Y-111085009D01*
X133980200Y-110900831D01*
X133944268Y-110720191D01*
X133873786Y-110550031D01*
X133771462Y-110396892D01*
X133641228Y-110266658D01*
X133488089Y-110164334D01*
X133317929Y-110093852D01*
X133137289Y-110057920D01*
X132961787Y-110057920D01*
X133005106Y-109993089D01*
X133075588Y-109822929D01*
X133094599Y-109727351D01*
X133664680Y-109727351D01*
X133664680Y-109911529D01*
X133700612Y-110092169D01*
X133771094Y-110262329D01*
X133873418Y-110415468D01*
X134003652Y-110545702D01*
X134152360Y-110645065D01*
X134152360Y-110704009D01*
X134172714Y-110806336D01*
X133981160Y-111195904D01*
X133952903Y-111248768D01*
X133938749Y-111295427D01*
X133921630Y-111341071D01*
X133917782Y-111364547D01*
X133910875Y-111387316D01*
X133906096Y-111435835D01*
X133898210Y-111483946D01*
X133900240Y-111543844D01*
X133900241Y-124861952D01*
X133899007Y-124868831D01*
X133900241Y-124934311D01*
X133900241Y-124963465D01*
X133900920Y-124970363D01*
X133901735Y-125013587D01*
X133908001Y-125042253D01*
X133910876Y-125071445D01*
X133923422Y-125112804D01*
X133932652Y-125155030D01*
X133944387Y-125181918D01*
X133952904Y-125209993D01*
X133973278Y-125248110D01*
X133990568Y-125287724D01*
X134007324Y-125311806D01*
X134021154Y-125337680D01*
X134048576Y-125371093D01*
X134052538Y-125376788D01*
X134071471Y-125398991D01*
X134113003Y-125449598D01*
X134118403Y-125454030D01*
X135935440Y-127584920D01*
X135935440Y-127640729D01*
X135971372Y-127821369D01*
X136041854Y-127991529D01*
X136144178Y-128144668D01*
X136274412Y-128274902D01*
X136427551Y-128377226D01*
X136597711Y-128447708D01*
X136778351Y-128483640D01*
X136962529Y-128483640D01*
X137143169Y-128447708D01*
X137313329Y-128377226D01*
X137466468Y-128274902D01*
X137596702Y-128144668D01*
X137699026Y-127991529D01*
X137769508Y-127821369D01*
X137805440Y-127640729D01*
X137805440Y-127456551D01*
X137769508Y-127275911D01*
X137699026Y-127105751D01*
X137596702Y-126952612D01*
X137466468Y-126822378D01*
X137313329Y-126720054D01*
X137143169Y-126649572D01*
X137054728Y-126631980D01*
X135370240Y-124656536D01*
X135370240Y-112802926D01*
X135878146Y-113310833D01*
X135901162Y-113338878D01*
X136013080Y-113430727D01*
X136140767Y-113498977D01*
X136279315Y-113541005D01*
X136387295Y-113551640D01*
X136387304Y-113551640D01*
X136423399Y-113555195D01*
X136459494Y-113551640D01*
X141245569Y-113551640D01*
X141385631Y-113645226D01*
X141555791Y-113715708D01*
X141736431Y-113751640D01*
X141920609Y-113751640D01*
X141987601Y-113738314D01*
X141987601Y-113940568D01*
X141894014Y-114080631D01*
X141823532Y-114250791D01*
X141787600Y-114431431D01*
X141787600Y-114615609D01*
X141823532Y-114796249D01*
X141894014Y-114966409D01*
X141996338Y-115119548D01*
X142126572Y-115249782D01*
X142279711Y-115352106D01*
X142449871Y-115422588D01*
X142630511Y-115458520D01*
X142814689Y-115458520D01*
X142995329Y-115422588D01*
X143165489Y-115352106D01*
X143318628Y-115249782D01*
X143448862Y-115119548D01*
X143551186Y-114966409D01*
X143621668Y-114796249D01*
X143657600Y-114615609D01*
X143657600Y-114431431D01*
X143621668Y-114250791D01*
X143551186Y-114080631D01*
X143457600Y-113940569D01*
X143457600Y-111491305D01*
X143461156Y-111455200D01*
X143446965Y-111311115D01*
X143404937Y-111172566D01*
X143336687Y-111044880D01*
X143267853Y-110961006D01*
X143267850Y-110961003D01*
X143244837Y-110932962D01*
X143216797Y-110909950D01*
X142081506Y-109774660D01*
X143406214Y-109774660D01*
X145645200Y-112013647D01*
X145645201Y-116124543D01*
X145644418Y-116192747D01*
X145651866Y-116232572D01*
X145655836Y-116272885D01*
X145665140Y-116303557D01*
X145671032Y-116335063D01*
X145686104Y-116372667D01*
X145697864Y-116411433D01*
X145712972Y-116439698D01*
X145724898Y-116469452D01*
X145747018Y-116503394D01*
X145766114Y-116539120D01*
X145809347Y-116591800D01*
X149929120Y-121730957D01*
X149929121Y-126015488D01*
X149835534Y-126155551D01*
X149765052Y-126325711D01*
X149729120Y-126506351D01*
X149729120Y-126690529D01*
X149765052Y-126871169D01*
X149835534Y-127041329D01*
X149937858Y-127194468D01*
X150068092Y-127324702D01*
X150221231Y-127427026D01*
X150391391Y-127497508D01*
X150572031Y-127533440D01*
X150756209Y-127533440D01*
X150936849Y-127497508D01*
X151107009Y-127427026D01*
X151260148Y-127324702D01*
X151390382Y-127194468D01*
X151492706Y-127041329D01*
X151563188Y-126871169D01*
X151599120Y-126690529D01*
X151599120Y-126506351D01*
X151563188Y-126325711D01*
X151492706Y-126155551D01*
X151399120Y-126015489D01*
X151399120Y-123737323D01*
X151833000Y-123737323D01*
X151833000Y-124262677D01*
X151935492Y-124777935D01*
X152136536Y-125263298D01*
X152428406Y-125700113D01*
X152799887Y-126071594D01*
X153236702Y-126363464D01*
X153722065Y-126564508D01*
X154237323Y-126667000D01*
X154762677Y-126667000D01*
X155277935Y-126564508D01*
X155763298Y-126363464D01*
X156200113Y-126071594D01*
X156571594Y-125700113D01*
X156863464Y-125263298D01*
X157064508Y-124777935D01*
X157167000Y-124262677D01*
X157167000Y-123737323D01*
X157064508Y-123222065D01*
X156863464Y-122736702D01*
X156571594Y-122299887D01*
X156200113Y-121928406D01*
X155763298Y-121636536D01*
X155277935Y-121435492D01*
X154762677Y-121333000D01*
X154237323Y-121333000D01*
X153722065Y-121435492D01*
X153236702Y-121636536D01*
X152799887Y-121928406D01*
X152428406Y-122299887D01*
X152136536Y-122736702D01*
X151935492Y-123222065D01*
X151833000Y-123737323D01*
X151399120Y-123737323D01*
X151399120Y-121476848D01*
X151399902Y-121408771D01*
X151392456Y-121368955D01*
X151388485Y-121328635D01*
X151379179Y-121297957D01*
X151373288Y-121266456D01*
X151358218Y-121228859D01*
X151346457Y-121190087D01*
X151331347Y-121161817D01*
X151319422Y-121132067D01*
X151297305Y-121098130D01*
X151278207Y-121062400D01*
X151234976Y-121009724D01*
X147115200Y-115870563D01*
X147115200Y-111745305D01*
X147118756Y-111709200D01*
X147104565Y-111565115D01*
X147062537Y-111426566D01*
X146994287Y-111298880D01*
X146925453Y-111215006D01*
X146925450Y-111215003D01*
X146902437Y-111186962D01*
X146874397Y-111163950D01*
X144255919Y-108545472D01*
X144232898Y-108517422D01*
X144120980Y-108425573D01*
X143993293Y-108357323D01*
X143854745Y-108315295D01*
X143746765Y-108304660D01*
X143710660Y-108301104D01*
X143674555Y-108304660D01*
X140893829Y-108304660D01*
X140757569Y-108213614D01*
X140587409Y-108143132D01*
X140406769Y-108107200D01*
X140222591Y-108107200D01*
X140041951Y-108143132D01*
X139871791Y-108213614D01*
X139718652Y-108315938D01*
X139588418Y-108446172D01*
X139486094Y-108599311D01*
X139415612Y-108769471D01*
X139379680Y-108950111D01*
X139379680Y-109134289D01*
X139381890Y-109145400D01*
X135247930Y-109145400D01*
X135195708Y-109093178D01*
X135042569Y-108990854D01*
X134872409Y-108920372D01*
X134691769Y-108884440D01*
X134507591Y-108884440D01*
X134326951Y-108920372D01*
X134156791Y-108990854D01*
X134003652Y-109093178D01*
X133873418Y-109223412D01*
X133771094Y-109376551D01*
X133700612Y-109546711D01*
X133664680Y-109727351D01*
X133094599Y-109727351D01*
X133111520Y-109642289D01*
X133111520Y-109458111D01*
X133075588Y-109277471D01*
X133005106Y-109107311D01*
X132902782Y-108954172D01*
X132772548Y-108823938D01*
X132619409Y-108721614D01*
X132449249Y-108651132D01*
X132268609Y-108615200D01*
X132084431Y-108615200D01*
X131903791Y-108651132D01*
X131859960Y-108669287D01*
X131859960Y-108162111D01*
X131953546Y-108022049D01*
X132024028Y-107851889D01*
X132059960Y-107671249D01*
X132059960Y-107487071D01*
X132024028Y-107306431D01*
X131953546Y-107136271D01*
X131851222Y-106983132D01*
X131720988Y-106852898D01*
X131567849Y-106750574D01*
X131397689Y-106680092D01*
X131217049Y-106644160D01*
X131032871Y-106644160D01*
X130852231Y-106680092D01*
X130682071Y-106750574D01*
X130528932Y-106852898D01*
X130398698Y-106983132D01*
X130296374Y-107136271D01*
X130225892Y-107306431D01*
X130189960Y-107487071D01*
X130189960Y-107671249D01*
X130225892Y-107851889D01*
X130296374Y-108022049D01*
X130389961Y-108162111D01*
X130389960Y-108471053D01*
X128251385Y-110609628D01*
X128086171Y-110642492D01*
X127916011Y-110712974D01*
X127762872Y-110815298D01*
X127632638Y-110945532D01*
X127530314Y-111098671D01*
X127459832Y-111268831D01*
X127423900Y-111449471D01*
X127423900Y-111633649D01*
X127459832Y-111814289D01*
X127530314Y-111984449D01*
X127632638Y-112137588D01*
X127762872Y-112267822D01*
X127916011Y-112370146D01*
X128086171Y-112440628D01*
X128266811Y-112476560D01*
X128450989Y-112476560D01*
X128631629Y-112440628D01*
X128801789Y-112370146D01*
X128954928Y-112267822D01*
X129085162Y-112137588D01*
X129187486Y-111984449D01*
X129257968Y-111814289D01*
X129290832Y-111649075D01*
X131250827Y-109689080D01*
X131277452Y-109822929D01*
X131347934Y-109993089D01*
X131441521Y-110133152D01*
X131441520Y-111904230D01*
X131384218Y-111961532D01*
X131281894Y-112114671D01*
X131211412Y-112284831D01*
X131175480Y-112465471D01*
X131175480Y-112649649D01*
X131211412Y-112830289D01*
X131281894Y-113000449D01*
X131384218Y-113153588D01*
X131514452Y-113283822D01*
X131667591Y-113386146D01*
X131837751Y-113456628D01*
X132018391Y-113492560D01*
X132202569Y-113492560D01*
X132340681Y-113465088D01*
X132340681Y-114528952D01*
X129784194Y-117085440D01*
X126726512Y-117085440D01*
X126675375Y-117082493D01*
X126618464Y-117090442D01*
X126561275Y-117096075D01*
X126546881Y-117100441D01*
X126531985Y-117102522D01*
X126477729Y-117121418D01*
X126422727Y-117138103D01*
X126377537Y-117162258D01*
X121599996Y-119372502D01*
X121475209Y-119347680D01*
X121291031Y-119347680D01*
X121110391Y-119383612D01*
X120940231Y-119454094D01*
X120787092Y-119556418D01*
X120656858Y-119686652D01*
X120554534Y-119839791D01*
X120484052Y-120009951D01*
X120448120Y-120190591D01*
X113841600Y-120190591D01*
X113841600Y-104773911D01*
X128674000Y-104773911D01*
X128674000Y-104958089D01*
X128709932Y-105138729D01*
X128780414Y-105308889D01*
X128882738Y-105462028D01*
X129012972Y-105592262D01*
X129166111Y-105694586D01*
X129336271Y-105765068D01*
X129516911Y-105801000D01*
X129701089Y-105801000D01*
X129881729Y-105765068D01*
X130051889Y-105694586D01*
X130205028Y-105592262D01*
X130335262Y-105462028D01*
X130437586Y-105308889D01*
X130508068Y-105138729D01*
X130544000Y-104958089D01*
X130544000Y-104773911D01*
X130508068Y-104593271D01*
X130437586Y-104423111D01*
X130354000Y-104298015D01*
X130354000Y-101325864D01*
X130392791Y-101333580D01*
X130576969Y-101333580D01*
X130757609Y-101297648D01*
X130927769Y-101227166D01*
X131067831Y-101133580D01*
X131701894Y-101133580D01*
X132178506Y-101610193D01*
X132201522Y-101638238D01*
X132313440Y-101730087D01*
X132441127Y-101798337D01*
X132537646Y-101827616D01*
X132579674Y-101840365D01*
X132593892Y-101841765D01*
X132687655Y-101851000D01*
X132687662Y-101851000D01*
X132723759Y-101854555D01*
X132759856Y-101851000D01*
X144623240Y-101851000D01*
X144658681Y-101880086D01*
X144763153Y-101935928D01*
X144776111Y-101944586D01*
X144946271Y-102015068D01*
X145126911Y-102051000D01*
X145311089Y-102051000D01*
X145491729Y-102015068D01*
X145661889Y-101944586D01*
X145815028Y-101842262D01*
X145945262Y-101712028D01*
X146047586Y-101558889D01*
X146118068Y-101388729D01*
X146154000Y-101208089D01*
X146154000Y-101023911D01*
X146118068Y-100843271D01*
X146047586Y-100673111D01*
X145945262Y-100519972D01*
X145815028Y-100389738D01*
X145661889Y-100287414D01*
X145549835Y-100241000D01*
X151806049Y-100241000D01*
X151946111Y-100334586D01*
X152116271Y-100405068D01*
X152296911Y-100441000D01*
X152481089Y-100441000D01*
X152661729Y-100405068D01*
X152831889Y-100334586D01*
X152985028Y-100232262D01*
X153115262Y-100102028D01*
X153217586Y-99948889D01*
X153288068Y-99778729D01*
X153324000Y-99598089D01*
X153324000Y-99413911D01*
X153288068Y-99233271D01*
X153217586Y-99063111D01*
X153115262Y-98909972D01*
X152985028Y-98779738D01*
X152831889Y-98677414D01*
X152661729Y-98606932D01*
X152481089Y-98571000D01*
X152296911Y-98571000D01*
X152116271Y-98606932D01*
X151946111Y-98677414D01*
X151806049Y-98771000D01*
X144803290Y-98771000D01*
X144796028Y-98763738D01*
X144642889Y-98661414D01*
X144472729Y-98590932D01*
X144292089Y-98555000D01*
X144107911Y-98555000D01*
X143927271Y-98590932D01*
X143757111Y-98661414D01*
X143603972Y-98763738D01*
X143596710Y-98771000D01*
X140186085Y-98771000D01*
X140125262Y-98679972D01*
X139995028Y-98549738D01*
X139841889Y-98447414D01*
X139671729Y-98376932D01*
X139491089Y-98341000D01*
X139306911Y-98341000D01*
X139126271Y-98376932D01*
X138956111Y-98447414D01*
X138816049Y-98541000D01*
X136851812Y-98541000D01*
X136708248Y-98445074D01*
X136538088Y-98374592D01*
X136401480Y-98347419D01*
X136401480Y-98332311D01*
X136495066Y-98192249D01*
X136565548Y-98022089D01*
X136601480Y-97841449D01*
X136601480Y-97657271D01*
X136565548Y-97476631D01*
X136495066Y-97306471D01*
X136392742Y-97153332D01*
X136262508Y-97023098D01*
X136109369Y-96920774D01*
X135939209Y-96850292D01*
X135758569Y-96814360D01*
X135574391Y-96814360D01*
X135393751Y-96850292D01*
X135223591Y-96920774D01*
X135148875Y-96970697D01*
X135029889Y-96921412D01*
X134849249Y-96885480D01*
X134665071Y-96885480D01*
X134484431Y-96921412D01*
X134314271Y-96991894D01*
X134161132Y-97094218D01*
X134030898Y-97224452D01*
X133928574Y-97377591D01*
X133858092Y-97547751D01*
X133822160Y-97728391D01*
X133822160Y-97912569D01*
X133858092Y-98093209D01*
X133928574Y-98263369D01*
X134022161Y-98403432D01*
X134022160Y-99302677D01*
X134016352Y-99306558D01*
X133886118Y-99436792D01*
X133783794Y-99589931D01*
X133713312Y-99760091D01*
X133677380Y-99940731D01*
X133677380Y-100124909D01*
X133713312Y-100305549D01*
X133744565Y-100381000D01*
X133538297Y-100381000D01*
X133593748Y-100247129D01*
X133629680Y-100066489D01*
X133629680Y-99882311D01*
X133593748Y-99701671D01*
X133523266Y-99531511D01*
X133420942Y-99378372D01*
X133290708Y-99248138D01*
X133137569Y-99145814D01*
X132967409Y-99075332D01*
X132802195Y-99042468D01*
X132362880Y-98603154D01*
X132362880Y-98339931D01*
X132456466Y-98199869D01*
X132526948Y-98029709D01*
X132562880Y-97849069D01*
X132562880Y-97664891D01*
X132526948Y-97484251D01*
X132456466Y-97314091D01*
X132354142Y-97160952D01*
X132223908Y-97030718D01*
X132070769Y-96928394D01*
X131900609Y-96857912D01*
X131719969Y-96821980D01*
X131535791Y-96821980D01*
X131355151Y-96857912D01*
X131184991Y-96928394D01*
X131031852Y-97030718D01*
X130901618Y-97160952D01*
X130799294Y-97314091D01*
X130728812Y-97484251D01*
X130692880Y-97664891D01*
X130692880Y-97849069D01*
X130728812Y-98029709D01*
X130799294Y-98199869D01*
X130892880Y-98339931D01*
X130892880Y-98871494D01*
X130889324Y-98907600D01*
X130903515Y-99051685D01*
X130912008Y-99079681D01*
X130945543Y-99190232D01*
X131013793Y-99317919D01*
X131105642Y-99429837D01*
X131133688Y-99452854D01*
X131344414Y-99663580D01*
X131067831Y-99663580D01*
X130927769Y-99569994D01*
X130757609Y-99499512D01*
X130576969Y-99463580D01*
X130392791Y-99463580D01*
X130354000Y-99471296D01*
X130354000Y-99179631D01*
X130365028Y-99172262D01*
X130495262Y-99042028D01*
X130597586Y-98888889D01*
X130668068Y-98718729D01*
X130704000Y-98538089D01*
X130704000Y-98353911D01*
X130668068Y-98173271D01*
X130597586Y-98003111D01*
X130495262Y-97849972D01*
X130365028Y-97719738D01*
X130211889Y-97617414D01*
X130041729Y-97546932D01*
X129861089Y-97511000D01*
X129676911Y-97511000D01*
X129496271Y-97546932D01*
X129326111Y-97617414D01*
X129172972Y-97719738D01*
X129042738Y-97849972D01*
X128940414Y-98003111D01*
X128869932Y-98173271D01*
X128834000Y-98353911D01*
X128834000Y-98538089D01*
X128869932Y-98718729D01*
X128884000Y-98752693D01*
X128884001Y-104268709D01*
X128882738Y-104269972D01*
X128780414Y-104423111D01*
X128709932Y-104593271D01*
X128674000Y-104773911D01*
X113841600Y-104773911D01*
X113841600Y-88614514D01*
X117534000Y-88614514D01*
X117534000Y-88877486D01*
X117585304Y-89135405D01*
X117685939Y-89378359D01*
X117832038Y-89597013D01*
X118017987Y-89782962D01*
X118236641Y-89929061D01*
X118479595Y-90029696D01*
X118551423Y-90043984D01*
X118509595Y-90052304D01*
X118266641Y-90152939D01*
X118047987Y-90299038D01*
X117862038Y-90484987D01*
X117715939Y-90703641D01*
X117615304Y-90946595D01*
X117564000Y-91204514D01*
X117564000Y-91467486D01*
X117615304Y-91725405D01*
X117715939Y-91968359D01*
X117862038Y-92187013D01*
X118047987Y-92372962D01*
X118266641Y-92519061D01*
X118509595Y-92619696D01*
X118706969Y-92658957D01*
X118589595Y-92682304D01*
X118346641Y-92782939D01*
X118127987Y-92929038D01*
X117942038Y-93114987D01*
X117795939Y-93333641D01*
X117695304Y-93576595D01*
X117644000Y-93834514D01*
X117644000Y-94097486D01*
X117695304Y-94355405D01*
X117795939Y-94598359D01*
X117942038Y-94817013D01*
X118127987Y-95002962D01*
X118346641Y-95149061D01*
X118589595Y-95249696D01*
X118847514Y-95301000D01*
X119110486Y-95301000D01*
X119368405Y-95249696D01*
X119611359Y-95149061D01*
X119830013Y-95002962D01*
X120015962Y-94817013D01*
X120093479Y-94701000D01*
X121482895Y-94701000D01*
X121519000Y-94704556D01*
X121555105Y-94701000D01*
X121663085Y-94690365D01*
X121801633Y-94648337D01*
X121929320Y-94580087D01*
X122041238Y-94488238D01*
X122064259Y-94460188D01*
X124353447Y-92171000D01*
X130742895Y-92171000D01*
X130779000Y-92174556D01*
X130815105Y-92171000D01*
X130923085Y-92160365D01*
X131061633Y-92118337D01*
X131189320Y-92050087D01*
X131301238Y-91958238D01*
X131324258Y-91930188D01*
X132446515Y-90807931D01*
X132611729Y-90775068D01*
X132781889Y-90704586D01*
X132935028Y-90602262D01*
X133065262Y-90472028D01*
X133167586Y-90318889D01*
X133238068Y-90148729D01*
X133274000Y-89968089D01*
X133274000Y-89783911D01*
X133238068Y-89603271D01*
X133167586Y-89433111D01*
X133065262Y-89279972D01*
X132935028Y-89149738D01*
X132781889Y-89047414D01*
X132695191Y-89011503D01*
X132711889Y-89004586D01*
X132865028Y-88902262D01*
X132995262Y-88772028D01*
X133097586Y-88618889D01*
X133168068Y-88448729D01*
X133204000Y-88268089D01*
X133204000Y-88083911D01*
X133168068Y-87903271D01*
X133097586Y-87733111D01*
X132995262Y-87579972D01*
X132865028Y-87449738D01*
X132711889Y-87347414D01*
X132616679Y-87307977D01*
X132715028Y-87242262D01*
X132845262Y-87112028D01*
X132947586Y-86958889D01*
X133018068Y-86788729D01*
X133054000Y-86608089D01*
X133054000Y-86423911D01*
X133018068Y-86243271D01*
X132947586Y-86073111D01*
X132845262Y-85919972D01*
X132715028Y-85789738D01*
X132561889Y-85687414D01*
X132426658Y-85631400D01*
X132575028Y-85532262D01*
X132705262Y-85402028D01*
X132807586Y-85248889D01*
X132878068Y-85078729D01*
X132914000Y-84898089D01*
X132914000Y-84713911D01*
X132878068Y-84533271D01*
X132807586Y-84363111D01*
X132705262Y-84209972D01*
X132576290Y-84081000D01*
X132595262Y-84062028D01*
X132697586Y-83908889D01*
X132768068Y-83738729D01*
X132804000Y-83558089D01*
X132804000Y-83373911D01*
X132768068Y-83193271D01*
X132697586Y-83023111D01*
X132595262Y-82869972D01*
X132465028Y-82739738D01*
X132311889Y-82637414D01*
X132141729Y-82566932D01*
X131961089Y-82531000D01*
X131776911Y-82531000D01*
X131689049Y-82548477D01*
X131678068Y-82493271D01*
X131607586Y-82323111D01*
X131505262Y-82169972D01*
X131375028Y-82039738D01*
X131221889Y-81937414D01*
X131051729Y-81866932D01*
X130871089Y-81831000D01*
X130686911Y-81831000D01*
X130506271Y-81866932D01*
X130336111Y-81937414D01*
X130196049Y-82031000D01*
X128756290Y-82031000D01*
X128765262Y-82022028D01*
X128867586Y-81868889D01*
X128938068Y-81698729D01*
X128970932Y-81533515D01*
X129744193Y-80760254D01*
X129772238Y-80737238D01*
X129864087Y-80625320D01*
X129879003Y-80597414D01*
X129932337Y-80497634D01*
X129974365Y-80359085D01*
X129988556Y-80215000D01*
X129985000Y-80178895D01*
X129985000Y-78954446D01*
X130615001Y-78324446D01*
X130615001Y-79613885D01*
X130611444Y-79650000D01*
X130625635Y-79794085D01*
X130658451Y-79902262D01*
X130667664Y-79932633D01*
X130735914Y-80060320D01*
X130827763Y-80172238D01*
X130855808Y-80195254D01*
X136744746Y-86084193D01*
X136767762Y-86112238D01*
X136795806Y-86135253D01*
X136879680Y-86204087D01*
X137007366Y-86272337D01*
X137145915Y-86314365D01*
X137290000Y-86328556D01*
X137326105Y-86325000D01*
X141855554Y-86325000D01*
X143285000Y-87754447D01*
X143285001Y-92227048D01*
X143191414Y-92367111D01*
X143120932Y-92537271D01*
X143085000Y-92717911D01*
X143085000Y-92902089D01*
X143120932Y-93082729D01*
X143191414Y-93252889D01*
X143293738Y-93406028D01*
X143423972Y-93536262D01*
X143577111Y-93638586D01*
X143747271Y-93709068D01*
X143927911Y-93745000D01*
X144112089Y-93745000D01*
X144292729Y-93709068D01*
X144462889Y-93638586D01*
X144616028Y-93536262D01*
X144746262Y-93406028D01*
X144848586Y-93252889D01*
X144919068Y-93082729D01*
X144955000Y-92902089D01*
X144955000Y-92717911D01*
X144919068Y-92537271D01*
X144848586Y-92367111D01*
X144755000Y-92227049D01*
X144755000Y-87486094D01*
X144758555Y-87449999D01*
X144755000Y-87413904D01*
X144755000Y-87413895D01*
X144744365Y-87305915D01*
X144702337Y-87167367D01*
X144634087Y-87039680D01*
X144567783Y-86958889D01*
X144565253Y-86955806D01*
X144565250Y-86955803D01*
X144542237Y-86927762D01*
X144514197Y-86904750D01*
X142705258Y-85095812D01*
X142682238Y-85067762D01*
X142570320Y-84975913D01*
X142442633Y-84907663D01*
X142304085Y-84865635D01*
X142196105Y-84855000D01*
X142160000Y-84851444D01*
X142123895Y-84855000D01*
X137594447Y-84855000D01*
X132671076Y-79931630D01*
X132701951Y-79911000D01*
X139015015Y-79911000D01*
X139009932Y-79923271D01*
X138974000Y-80103911D01*
X138974000Y-80288089D01*
X138992238Y-80379778D01*
X138956271Y-80386932D01*
X138786111Y-80457414D01*
X138632972Y-80559738D01*
X138502738Y-80689972D01*
X138400414Y-80843111D01*
X138329932Y-81013271D01*
X138294000Y-81193911D01*
X138294000Y-81378089D01*
X138329932Y-81558729D01*
X138400414Y-81728889D01*
X138502738Y-81882028D01*
X138632972Y-82012262D01*
X138786111Y-82114586D01*
X138956271Y-82185068D01*
X139121485Y-82217932D01*
X139603746Y-82700193D01*
X139626762Y-82728238D01*
X139738680Y-82820087D01*
X139866367Y-82888337D01*
X140004915Y-82930365D01*
X140112895Y-82941000D01*
X140112904Y-82941000D01*
X140148999Y-82944555D01*
X140185094Y-82941000D01*
X144450744Y-82941000D01*
X144456111Y-82944586D01*
X144626271Y-83015068D01*
X144806911Y-83051000D01*
X144991089Y-83051000D01*
X145154001Y-83018594D01*
X145154001Y-84331552D01*
X144871485Y-84614068D01*
X144706271Y-84646932D01*
X144536111Y-84717414D01*
X144382972Y-84819738D01*
X144252738Y-84949972D01*
X144150414Y-85103111D01*
X144079932Y-85273271D01*
X144044000Y-85453911D01*
X144044000Y-85638089D01*
X144079932Y-85818729D01*
X144150414Y-85988889D01*
X144252738Y-86142028D01*
X144382972Y-86272262D01*
X144536111Y-86374586D01*
X144706271Y-86445068D01*
X144886911Y-86481000D01*
X145071089Y-86481000D01*
X145251729Y-86445068D01*
X145421889Y-86374586D01*
X145575028Y-86272262D01*
X145705262Y-86142028D01*
X145807586Y-85988889D01*
X145878068Y-85818729D01*
X145910932Y-85653515D01*
X146383193Y-85181254D01*
X146411238Y-85158238D01*
X146503087Y-85046320D01*
X146571337Y-84918633D01*
X146613365Y-84780085D01*
X146624000Y-84672105D01*
X146624000Y-84672096D01*
X146627555Y-84636001D01*
X146624000Y-84599906D01*
X146624000Y-81033290D01*
X146645262Y-81012028D01*
X146747586Y-80858889D01*
X146818068Y-80688729D01*
X146854000Y-80508089D01*
X146854000Y-80323911D01*
X146818068Y-80143271D01*
X146747586Y-79973111D01*
X146645262Y-79819972D01*
X146515028Y-79689738D01*
X146361889Y-79587414D01*
X146191729Y-79516932D01*
X146011089Y-79481000D01*
X145826911Y-79481000D01*
X145646271Y-79516932D01*
X145476111Y-79587414D01*
X145322972Y-79689738D01*
X145192738Y-79819972D01*
X145090414Y-79973111D01*
X145019932Y-80143271D01*
X144984000Y-80323911D01*
X144984000Y-80508089D01*
X145019932Y-80688729D01*
X145090414Y-80858889D01*
X145154000Y-80954053D01*
X145154000Y-81213405D01*
X144991089Y-81181000D01*
X144806911Y-81181000D01*
X144626271Y-81216932D01*
X144456111Y-81287414D01*
X144302972Y-81389738D01*
X144221710Y-81471000D01*
X142506290Y-81471000D01*
X142595262Y-81382028D01*
X142697586Y-81228889D01*
X142768068Y-81058729D01*
X142804000Y-80878089D01*
X142804000Y-80693911D01*
X142768068Y-80513271D01*
X142697586Y-80343111D01*
X142595262Y-80189972D01*
X142465028Y-80059738D01*
X142451368Y-80050611D01*
X142486271Y-80065068D01*
X142666911Y-80101000D01*
X142851089Y-80101000D01*
X143031729Y-80065068D01*
X143201889Y-79994586D01*
X143355028Y-79892262D01*
X143485262Y-79762028D01*
X143587586Y-79608889D01*
X143658068Y-79438729D01*
X143694000Y-79258089D01*
X143694000Y-79073911D01*
X143658068Y-78893271D01*
X143587586Y-78723111D01*
X143485262Y-78569972D01*
X143355028Y-78439738D01*
X143201889Y-78337414D01*
X143031729Y-78266932D01*
X142851089Y-78231000D01*
X142666911Y-78231000D01*
X142486271Y-78266932D01*
X142316111Y-78337414D01*
X142162972Y-78439738D01*
X142161710Y-78441000D01*
X132701951Y-78441000D01*
X132561889Y-78347414D01*
X132391729Y-78276932D01*
X132211089Y-78241000D01*
X132085000Y-78241000D01*
X132085000Y-74222486D01*
X132202729Y-74199068D01*
X132372889Y-74128586D01*
X132526028Y-74026262D01*
X132656262Y-73896028D01*
X132758586Y-73742889D01*
X132829068Y-73572729D01*
X132865000Y-73392089D01*
X132865000Y-73207911D01*
X132829068Y-73027271D01*
X132758586Y-72857111D01*
X132656262Y-72703972D01*
X132526028Y-72573738D01*
X132372889Y-72471414D01*
X132330564Y-72453883D01*
X133533447Y-71251000D01*
X137682051Y-71251000D01*
X137682738Y-71252028D01*
X137812972Y-71382262D01*
X137966111Y-71484586D01*
X138136271Y-71555068D01*
X138316911Y-71591000D01*
X138501089Y-71591000D01*
X138681729Y-71555068D01*
X138851889Y-71484586D01*
X139005028Y-71382262D01*
X139135262Y-71252028D01*
X139237586Y-71098889D01*
X139308068Y-70928729D01*
X139344000Y-70748089D01*
X139344000Y-70563911D01*
X139308068Y-70383271D01*
X139237586Y-70213111D01*
X139135262Y-70059972D01*
X139005028Y-69929738D01*
X138851889Y-69827414D01*
X138681729Y-69756932D01*
X138501089Y-69721000D01*
X138316911Y-69721000D01*
X138136271Y-69756932D01*
X138078165Y-69781000D01*
X133265105Y-69781000D01*
X133229000Y-69777444D01*
X133084915Y-69791635D01*
X132946366Y-69833663D01*
X132818680Y-69901913D01*
X132706762Y-69993762D01*
X132683746Y-70021807D01*
X127295808Y-75409746D01*
X127267762Y-75432763D01*
X127175913Y-75544681D01*
X127107663Y-75672368D01*
X127085230Y-75746320D01*
X127065635Y-75810915D01*
X127051444Y-75955000D01*
X127055000Y-75991105D01*
X127055001Y-79310552D01*
X126524808Y-79840746D01*
X126496763Y-79863762D01*
X126404914Y-79975680D01*
X126372843Y-80035681D01*
X126336664Y-80103367D01*
X126294635Y-80241915D01*
X126280444Y-80386000D01*
X126284001Y-80422115D01*
X126284000Y-81775557D01*
X126261089Y-81771000D01*
X126076911Y-81771000D01*
X125896271Y-81806932D01*
X125726111Y-81877414D01*
X125572972Y-81979738D01*
X125442738Y-82109972D01*
X125340414Y-82263111D01*
X125269932Y-82433271D01*
X125234000Y-82613911D01*
X125234000Y-82798089D01*
X125238557Y-82821000D01*
X120063479Y-82821000D01*
X119985962Y-82704987D01*
X119800013Y-82519038D01*
X119581359Y-82372939D01*
X119338405Y-82272304D01*
X119080486Y-82221000D01*
X118817514Y-82221000D01*
X118559595Y-82272304D01*
X118316641Y-82372939D01*
X118097987Y-82519038D01*
X117912038Y-82704987D01*
X117765939Y-82923641D01*
X117665304Y-83166595D01*
X117614000Y-83424514D01*
X117614000Y-83687486D01*
X117665304Y-83945405D01*
X117765939Y-84188359D01*
X117912038Y-84407013D01*
X118097987Y-84592962D01*
X118316641Y-84739061D01*
X118559595Y-84839696D01*
X118631560Y-84854011D01*
X118539595Y-84872304D01*
X118296641Y-84972939D01*
X118077987Y-85119038D01*
X117892038Y-85304987D01*
X117745939Y-85523641D01*
X117645304Y-85766595D01*
X117594000Y-86024514D01*
X117594000Y-86287486D01*
X117645304Y-86545405D01*
X117745939Y-86788359D01*
X117892038Y-87007013D01*
X118077987Y-87192962D01*
X118296641Y-87339061D01*
X118539595Y-87439696D01*
X118566423Y-87445033D01*
X118479595Y-87462304D01*
X118236641Y-87562939D01*
X118017987Y-87709038D01*
X117832038Y-87894987D01*
X117685939Y-88113641D01*
X117585304Y-88356595D01*
X117534000Y-88614514D01*
X113841600Y-88614514D01*
X113841600Y-63150000D01*
X114761444Y-63150000D01*
X114765000Y-63186105D01*
X114765000Y-63853896D01*
X114765001Y-70453885D01*
X114761444Y-70490000D01*
X114775635Y-70634085D01*
X114812820Y-70756665D01*
X114817664Y-70772633D01*
X114885914Y-70900320D01*
X114977763Y-71012238D01*
X115005808Y-71035254D01*
X116998069Y-73027515D01*
X117030932Y-73192729D01*
X117101414Y-73362889D01*
X117203738Y-73516028D01*
X117333972Y-73646262D01*
X117487111Y-73748586D01*
X117657271Y-73819068D01*
X117837911Y-73855000D01*
X118022089Y-73855000D01*
X118202729Y-73819068D01*
X118372889Y-73748586D01*
X118526028Y-73646262D01*
X118656262Y-73516028D01*
X118758586Y-73362889D01*
X118829068Y-73192729D01*
X118865000Y-73012089D01*
X118865000Y-72827911D01*
X118829068Y-72647271D01*
X118758586Y-72477111D01*
X118656262Y-72323972D01*
X118526028Y-72193738D01*
X118372889Y-72091414D01*
X118202729Y-72020932D01*
X118037515Y-71988069D01*
X116235000Y-70185554D01*
X116235000Y-70060193D01*
X124024000Y-70060193D01*
X124024000Y-70411807D01*
X124092596Y-70756665D01*
X124227153Y-71081515D01*
X124422500Y-71373871D01*
X124671129Y-71622500D01*
X124963485Y-71817847D01*
X125288335Y-71952404D01*
X125633193Y-72021000D01*
X125984807Y-72021000D01*
X126329665Y-71952404D01*
X126654515Y-71817847D01*
X126946871Y-71622500D01*
X127195500Y-71373871D01*
X127390847Y-71081515D01*
X127525404Y-70756665D01*
X127594000Y-70411807D01*
X127594000Y-70060193D01*
X127525404Y-69715335D01*
X127390847Y-69390485D01*
X127195500Y-69098129D01*
X126946871Y-68849500D01*
X126654515Y-68654153D01*
X126329665Y-68519596D01*
X125984807Y-68451000D01*
X125633193Y-68451000D01*
X125288335Y-68519596D01*
X124963485Y-68654153D01*
X124671129Y-68849500D01*
X124422500Y-69098129D01*
X124227153Y-69390485D01*
X124092596Y-69715335D01*
X124024000Y-70060193D01*
X116235000Y-70060193D01*
X116235000Y-68083911D01*
X139614000Y-68083911D01*
X139614000Y-68268089D01*
X139649932Y-68448729D01*
X139720414Y-68618889D01*
X139822738Y-68772028D01*
X139952972Y-68902262D01*
X140106111Y-69004586D01*
X140276271Y-69075068D01*
X140456911Y-69111000D01*
X140641089Y-69111000D01*
X140821729Y-69075068D01*
X140991889Y-69004586D01*
X141131951Y-68911000D01*
X145504554Y-68911000D01*
X146754001Y-70160448D01*
X146754000Y-74812914D01*
X146705262Y-74739972D01*
X146575028Y-74609738D01*
X146421889Y-74507414D01*
X146251729Y-74436932D01*
X146071089Y-74401000D01*
X145886911Y-74401000D01*
X145706271Y-74436932D01*
X145536111Y-74507414D01*
X145396049Y-74601000D01*
X141151951Y-74601000D01*
X141011889Y-74507414D01*
X140841729Y-74436932D01*
X140661089Y-74401000D01*
X140476911Y-74401000D01*
X140296271Y-74436932D01*
X140126111Y-74507414D01*
X139972972Y-74609738D01*
X139842738Y-74739972D01*
X139740414Y-74893111D01*
X139669932Y-75063271D01*
X139634000Y-75243911D01*
X139634000Y-75428089D01*
X139669932Y-75608729D01*
X139740414Y-75778889D01*
X139842738Y-75932028D01*
X139972972Y-76062262D01*
X140126111Y-76164586D01*
X140296271Y-76235068D01*
X140476911Y-76271000D01*
X140661089Y-76271000D01*
X140841729Y-76235068D01*
X141011889Y-76164586D01*
X141151951Y-76071000D01*
X145396049Y-76071000D01*
X145536111Y-76164586D01*
X145706271Y-76235068D01*
X145886911Y-76271000D01*
X146071089Y-76271000D01*
X146251729Y-76235068D01*
X146421889Y-76164586D01*
X146575028Y-76062262D01*
X146705262Y-75932028D01*
X146754000Y-75859086D01*
X146754000Y-76651553D01*
X146491485Y-76914068D01*
X146326271Y-76946932D01*
X146156111Y-77017414D01*
X146002972Y-77119738D01*
X145872738Y-77249972D01*
X145770414Y-77403111D01*
X145699932Y-77573271D01*
X145664000Y-77753911D01*
X145664000Y-77938089D01*
X145699932Y-78118729D01*
X145770414Y-78288889D01*
X145872738Y-78442028D01*
X146002972Y-78572262D01*
X146156111Y-78674586D01*
X146326271Y-78745068D01*
X146506911Y-78781000D01*
X146691089Y-78781000D01*
X146871729Y-78745068D01*
X147041889Y-78674586D01*
X147195028Y-78572262D01*
X147325262Y-78442028D01*
X147427586Y-78288889D01*
X147498068Y-78118729D01*
X147530932Y-77953515D01*
X147983197Y-77501250D01*
X148011237Y-77478238D01*
X148034250Y-77450197D01*
X148034253Y-77450194D01*
X148072893Y-77403111D01*
X148103087Y-77366320D01*
X148171337Y-77238633D01*
X148213365Y-77100085D01*
X148224000Y-76992105D01*
X148224000Y-76992104D01*
X148227556Y-76956001D01*
X148224000Y-76919896D01*
X148224000Y-69892105D01*
X148227556Y-69856000D01*
X148213365Y-69711915D01*
X148171337Y-69573367D01*
X148103087Y-69445680D01*
X148011238Y-69333762D01*
X147983193Y-69310746D01*
X146354258Y-67681812D01*
X146331238Y-67653762D01*
X146219320Y-67561913D01*
X146091633Y-67493663D01*
X145953085Y-67451635D01*
X145845105Y-67441000D01*
X145809000Y-67437444D01*
X145772895Y-67441000D01*
X141131951Y-67441000D01*
X140991889Y-67347414D01*
X140821729Y-67276932D01*
X140641089Y-67241000D01*
X140456911Y-67241000D01*
X140276271Y-67276932D01*
X140106111Y-67347414D01*
X139952972Y-67449738D01*
X139822738Y-67579972D01*
X139720414Y-67733111D01*
X139649932Y-67903271D01*
X139614000Y-68083911D01*
X116235000Y-68083911D01*
X116235000Y-63454446D01*
X116905000Y-62784447D01*
X116905001Y-66287048D01*
X116811414Y-66427111D01*
X116740932Y-66597271D01*
X116705000Y-66777911D01*
X116705000Y-66962089D01*
X116740932Y-67142729D01*
X116811414Y-67312889D01*
X116913738Y-67466028D01*
X117043972Y-67596262D01*
X117197111Y-67698586D01*
X117367271Y-67769068D01*
X117547911Y-67805000D01*
X117732089Y-67805000D01*
X117912729Y-67769068D01*
X118082889Y-67698586D01*
X118236028Y-67596262D01*
X118366262Y-67466028D01*
X118468586Y-67312889D01*
X118539068Y-67142729D01*
X118575000Y-66962089D01*
X118575000Y-66777911D01*
X118539068Y-66597271D01*
X118468586Y-66427111D01*
X118375000Y-66287049D01*
X118375000Y-65160193D01*
X124024000Y-65160193D01*
X124024000Y-65511807D01*
X124092596Y-65856665D01*
X124227153Y-66181515D01*
X124422500Y-66473871D01*
X124671129Y-66722500D01*
X124963485Y-66917847D01*
X125288335Y-67052404D01*
X125633193Y-67121000D01*
X125984807Y-67121000D01*
X126329665Y-67052404D01*
X126654515Y-66917847D01*
X126946871Y-66722500D01*
X127195500Y-66473871D01*
X127390847Y-66181515D01*
X127525404Y-65856665D01*
X127594000Y-65511807D01*
X127594000Y-65160193D01*
X127525404Y-64815335D01*
X127390847Y-64490485D01*
X127195500Y-64198129D01*
X127183371Y-64186000D01*
X141060928Y-64186000D01*
X141060928Y-65786000D01*
X141073188Y-65910482D01*
X141109498Y-66030180D01*
X141168463Y-66140494D01*
X141247815Y-66237185D01*
X141344506Y-66316537D01*
X141454820Y-66375502D01*
X141574518Y-66411812D01*
X141699000Y-66424072D01*
X143299000Y-66424072D01*
X143423482Y-66411812D01*
X143543180Y-66375502D01*
X143653494Y-66316537D01*
X143750185Y-66237185D01*
X143829537Y-66140494D01*
X143888502Y-66030180D01*
X143904117Y-65978702D01*
X144185903Y-65978702D01*
X144257486Y-66222671D01*
X144512996Y-66343571D01*
X144787184Y-66412300D01*
X145069512Y-66426217D01*
X145349130Y-66384787D01*
X145615292Y-66289603D01*
X145740514Y-66222671D01*
X145812097Y-65978702D01*
X144999000Y-65165605D01*
X144185903Y-65978702D01*
X143904117Y-65978702D01*
X143924812Y-65910482D01*
X143937072Y-65786000D01*
X143937072Y-65778785D01*
X144006298Y-65799097D01*
X144819395Y-64986000D01*
X145178605Y-64986000D01*
X145991702Y-65799097D01*
X146235671Y-65727514D01*
X146356571Y-65472004D01*
X146425300Y-65197816D01*
X146439217Y-64915488D01*
X146397787Y-64635870D01*
X146302603Y-64369708D01*
X146235671Y-64244486D01*
X145991702Y-64172903D01*
X145178605Y-64986000D01*
X144819395Y-64986000D01*
X144006298Y-64172903D01*
X143937072Y-64193215D01*
X143937072Y-64186000D01*
X143924812Y-64061518D01*
X143904118Y-63993298D01*
X144185903Y-63993298D01*
X144999000Y-64806395D01*
X145812097Y-63993298D01*
X145740514Y-63749329D01*
X145485004Y-63628429D01*
X145210816Y-63559700D01*
X144928488Y-63545783D01*
X144648870Y-63587213D01*
X144382708Y-63682397D01*
X144257486Y-63749329D01*
X144185903Y-63993298D01*
X143904118Y-63993298D01*
X143888502Y-63941820D01*
X143829537Y-63831506D01*
X143750185Y-63734815D01*
X143653494Y-63655463D01*
X143543180Y-63596498D01*
X143423482Y-63560188D01*
X143299000Y-63547928D01*
X141699000Y-63547928D01*
X141574518Y-63560188D01*
X141454820Y-63596498D01*
X141344506Y-63655463D01*
X141247815Y-63734815D01*
X141168463Y-63831506D01*
X141109498Y-63941820D01*
X141073188Y-64061518D01*
X141060928Y-64186000D01*
X127183371Y-64186000D01*
X126946871Y-63949500D01*
X126654515Y-63754153D01*
X126329665Y-63619596D01*
X125984807Y-63551000D01*
X125633193Y-63551000D01*
X125288335Y-63619596D01*
X124963485Y-63754153D01*
X124671129Y-63949500D01*
X124422500Y-64198129D01*
X124227153Y-64490485D01*
X124092596Y-64815335D01*
X124024000Y-65160193D01*
X118375000Y-65160193D01*
X118375000Y-62006105D01*
X118378556Y-61970000D01*
X118375000Y-61933895D01*
X118375000Y-60717911D01*
X132985000Y-60717911D01*
X132985000Y-60902089D01*
X133020932Y-61082729D01*
X133091414Y-61252889D01*
X133193738Y-61406028D01*
X133323972Y-61536262D01*
X133477111Y-61638586D01*
X133647271Y-61709068D01*
X133827911Y-61745000D01*
X134012089Y-61745000D01*
X134192729Y-61709068D01*
X134202550Y-61705000D01*
X139787049Y-61705000D01*
X139927111Y-61798586D01*
X140097271Y-61869068D01*
X140277911Y-61905000D01*
X140462089Y-61905000D01*
X140642729Y-61869068D01*
X140812889Y-61798586D01*
X140966028Y-61696262D01*
X141096262Y-61566028D01*
X141198586Y-61412889D01*
X141269068Y-61242729D01*
X141305000Y-61062089D01*
X141305000Y-60877911D01*
X141269068Y-60697271D01*
X141198586Y-60527111D01*
X141096262Y-60373972D01*
X140966028Y-60243738D01*
X140812889Y-60141414D01*
X140642729Y-60070932D01*
X140462089Y-60035000D01*
X140277911Y-60035000D01*
X140097271Y-60070932D01*
X139927111Y-60141414D01*
X139787049Y-60235000D01*
X137463339Y-60235000D01*
X137528068Y-60078729D01*
X137564000Y-59898089D01*
X137564000Y-59713911D01*
X137528068Y-59533271D01*
X137457586Y-59363111D01*
X137364000Y-59223049D01*
X137364000Y-56672105D01*
X137367556Y-56636000D01*
X137353365Y-56491915D01*
X137311337Y-56353366D01*
X137243087Y-56225680D01*
X137174253Y-56141806D01*
X137174250Y-56141803D01*
X137151237Y-56113762D01*
X137123197Y-56090750D01*
X136990931Y-55958485D01*
X136958068Y-55793271D01*
X136887586Y-55623111D01*
X136785262Y-55469972D01*
X136655028Y-55339738D01*
X136501889Y-55237414D01*
X136331729Y-55166932D01*
X136151089Y-55131000D01*
X135966911Y-55131000D01*
X135786271Y-55166932D01*
X135616111Y-55237414D01*
X135462972Y-55339738D01*
X135332738Y-55469972D01*
X135230414Y-55623111D01*
X135159932Y-55793271D01*
X135124000Y-55973911D01*
X135124000Y-56158089D01*
X135159932Y-56338729D01*
X135230414Y-56508889D01*
X135332738Y-56662028D01*
X135462972Y-56792262D01*
X135616111Y-56894586D01*
X135786271Y-56965068D01*
X135894000Y-56986497D01*
X135894001Y-59223048D01*
X135800414Y-59363111D01*
X135729932Y-59533271D01*
X135694000Y-59713911D01*
X135694000Y-59898089D01*
X135729932Y-60078729D01*
X135794661Y-60235000D01*
X134660312Y-60235000D01*
X134646262Y-60213972D01*
X134516028Y-60083738D01*
X134362889Y-59981414D01*
X134192729Y-59910932D01*
X134012089Y-59875000D01*
X133827911Y-59875000D01*
X133647271Y-59910932D01*
X133477111Y-59981414D01*
X133323972Y-60083738D01*
X133193738Y-60213972D01*
X133091414Y-60367111D01*
X133020932Y-60537271D01*
X132985000Y-60717911D01*
X118375000Y-60717911D01*
X118375000Y-60196094D01*
X118378555Y-60159999D01*
X118375000Y-60123904D01*
X118375000Y-60123895D01*
X118364365Y-60015915D01*
X118322337Y-59877367D01*
X118254087Y-59749680D01*
X118224732Y-59713911D01*
X118185253Y-59665806D01*
X118185250Y-59665803D01*
X118162237Y-59637762D01*
X118134197Y-59614750D01*
X117891932Y-59372485D01*
X117859068Y-59207271D01*
X117788586Y-59037111D01*
X117686262Y-58883972D01*
X117556028Y-58753738D01*
X117402889Y-58651414D01*
X117232729Y-58580932D01*
X117052089Y-58545000D01*
X116867911Y-58545000D01*
X116687271Y-58580932D01*
X116517111Y-58651414D01*
X116363972Y-58753738D01*
X116233738Y-58883972D01*
X116131414Y-59037111D01*
X116060932Y-59207271D01*
X116025000Y-59387911D01*
X116025000Y-59572089D01*
X116060932Y-59752729D01*
X116131414Y-59922889D01*
X116233738Y-60076028D01*
X116363972Y-60206262D01*
X116517111Y-60308586D01*
X116687271Y-60379068D01*
X116852485Y-60411932D01*
X116905000Y-60464447D01*
X116905001Y-61235000D01*
X116716104Y-61235000D01*
X116679999Y-61231444D01*
X116535914Y-61245635D01*
X116493886Y-61258384D01*
X116397367Y-61287663D01*
X116269680Y-61355913D01*
X116157762Y-61447762D01*
X116134746Y-61475807D01*
X115005808Y-62604746D01*
X114977762Y-62627763D01*
X114885913Y-62739681D01*
X114817663Y-62867368D01*
X114788384Y-62963887D01*
X114775635Y-63005915D01*
X114761444Y-63150000D01*
X113841600Y-63150000D01*
X113841600Y-55598665D01*
X120315000Y-55598665D01*
X120315000Y-55881335D01*
X120370147Y-56158574D01*
X120478320Y-56419727D01*
X120635363Y-56654759D01*
X120835241Y-56854637D01*
X121070273Y-57011680D01*
X121331426Y-57119853D01*
X121608665Y-57175000D01*
X121891335Y-57175000D01*
X122168574Y-57119853D01*
X122429727Y-57011680D01*
X122664759Y-56854637D01*
X122863357Y-56656039D01*
X122864188Y-56664482D01*
X122900498Y-56784180D01*
X122959463Y-56894494D01*
X123038815Y-56991185D01*
X123135506Y-57070537D01*
X123245820Y-57129502D01*
X123365518Y-57165812D01*
X123490000Y-57178072D01*
X124004250Y-57175000D01*
X124163000Y-57016250D01*
X124163000Y-55867000D01*
X124417000Y-55867000D01*
X124417000Y-57016250D01*
X124575750Y-57175000D01*
X125090000Y-57178072D01*
X125214482Y-57165812D01*
X125334180Y-57129502D01*
X125444494Y-57070537D01*
X125541185Y-56991185D01*
X125620537Y-56894494D01*
X125679502Y-56784180D01*
X125715812Y-56664482D01*
X125728072Y-56540000D01*
X125725000Y-56025750D01*
X125566250Y-55867000D01*
X124417000Y-55867000D01*
X124163000Y-55867000D01*
X124143000Y-55867000D01*
X124143000Y-55613000D01*
X124163000Y-55613000D01*
X124163000Y-54463750D01*
X124417000Y-54463750D01*
X124417000Y-55613000D01*
X125566250Y-55613000D01*
X125725000Y-55454250D01*
X125728072Y-54940000D01*
X125715812Y-54815518D01*
X125679502Y-54695820D01*
X125620537Y-54585506D01*
X125541185Y-54488815D01*
X125444494Y-54409463D01*
X125334180Y-54350498D01*
X125214482Y-54314188D01*
X125090000Y-54301928D01*
X124575750Y-54305000D01*
X124417000Y-54463750D01*
X124163000Y-54463750D01*
X124004250Y-54305000D01*
X123490000Y-54301928D01*
X123365518Y-54314188D01*
X123245820Y-54350498D01*
X123135506Y-54409463D01*
X123038815Y-54488815D01*
X122959463Y-54585506D01*
X122900498Y-54695820D01*
X122864188Y-54815518D01*
X122863357Y-54823961D01*
X122664759Y-54625363D01*
X122429727Y-54468320D01*
X122168574Y-54360147D01*
X121891335Y-54305000D01*
X121608665Y-54305000D01*
X121331426Y-54360147D01*
X121070273Y-54468320D01*
X120835241Y-54625363D01*
X120635363Y-54825241D01*
X120478320Y-55060273D01*
X120370147Y-55321426D01*
X120315000Y-55598665D01*
X113841600Y-55598665D01*
X113841600Y-49737323D01*
X115333000Y-49737323D01*
X115333000Y-50262677D01*
X115435492Y-50777935D01*
X115636536Y-51263298D01*
X115928406Y-51700113D01*
X116299887Y-52071594D01*
X116736702Y-52363464D01*
X117222065Y-52564508D01*
X117737323Y-52667000D01*
X118262677Y-52667000D01*
X118777935Y-52564508D01*
X119263298Y-52363464D01*
X119700113Y-52071594D01*
X120071594Y-51700113D01*
X120363464Y-51263298D01*
X120564508Y-50777935D01*
X120667000Y-50262677D01*
X120667000Y-49737323D01*
X151833000Y-49737323D01*
X151833000Y-50262677D01*
X151935492Y-50777935D01*
X152136536Y-51263298D01*
X152428406Y-51700113D01*
X152799887Y-52071594D01*
X153236702Y-52363464D01*
X153722065Y-52564508D01*
X154237323Y-52667000D01*
X154762677Y-52667000D01*
X155277935Y-52564508D01*
X155763298Y-52363464D01*
X156200113Y-52071594D01*
X156571594Y-51700113D01*
X156863464Y-51263298D01*
X157064508Y-50777935D01*
X157167000Y-50262677D01*
X157167000Y-49737323D01*
X157064508Y-49222065D01*
X156863464Y-48736702D01*
X156571594Y-48299887D01*
X156200113Y-47928406D01*
X155763298Y-47636536D01*
X155277935Y-47435492D01*
X154762677Y-47333000D01*
X154237323Y-47333000D01*
X153722065Y-47435492D01*
X153236702Y-47636536D01*
X152799887Y-47928406D01*
X152428406Y-48299887D01*
X152136536Y-48736702D01*
X151935492Y-49222065D01*
X151833000Y-49737323D01*
X120667000Y-49737323D01*
X120564508Y-49222065D01*
X120363464Y-48736702D01*
X120071594Y-48299887D01*
X120060844Y-48289137D01*
X132734000Y-48289137D01*
X132734000Y-48502863D01*
X132775696Y-48712483D01*
X132857485Y-48909940D01*
X132976225Y-49087647D01*
X133127353Y-49238775D01*
X133305060Y-49357515D01*
X133502517Y-49439304D01*
X133712137Y-49481000D01*
X133925863Y-49481000D01*
X134135483Y-49439304D01*
X134332940Y-49357515D01*
X134510647Y-49238775D01*
X134661775Y-49087647D01*
X134780515Y-48909940D01*
X134862304Y-48712483D01*
X134904000Y-48502863D01*
X134904000Y-48289137D01*
X137134000Y-48289137D01*
X137134000Y-48502863D01*
X137175696Y-48712483D01*
X137257485Y-48909940D01*
X137376225Y-49087647D01*
X137527353Y-49238775D01*
X137705060Y-49357515D01*
X137902517Y-49439304D01*
X138112137Y-49481000D01*
X138325863Y-49481000D01*
X138535483Y-49439304D01*
X138732940Y-49357515D01*
X138910647Y-49238775D01*
X139061775Y-49087647D01*
X139180515Y-48909940D01*
X139262304Y-48712483D01*
X139304000Y-48502863D01*
X139304000Y-48289137D01*
X139262304Y-48079517D01*
X139180515Y-47882060D01*
X139061775Y-47704353D01*
X138910647Y-47553225D01*
X138732940Y-47434485D01*
X138535483Y-47352696D01*
X138325863Y-47311000D01*
X138112137Y-47311000D01*
X137902517Y-47352696D01*
X137705060Y-47434485D01*
X137527353Y-47553225D01*
X137376225Y-47704353D01*
X137257485Y-47882060D01*
X137175696Y-48079517D01*
X137134000Y-48289137D01*
X134904000Y-48289137D01*
X134862304Y-48079517D01*
X134780515Y-47882060D01*
X134661775Y-47704353D01*
X134510647Y-47553225D01*
X134332940Y-47434485D01*
X134135483Y-47352696D01*
X133925863Y-47311000D01*
X133712137Y-47311000D01*
X133502517Y-47352696D01*
X133305060Y-47434485D01*
X133127353Y-47553225D01*
X132976225Y-47704353D01*
X132857485Y-47882060D01*
X132775696Y-48079517D01*
X132734000Y-48289137D01*
X120060844Y-48289137D01*
X119700113Y-47928406D01*
X119263298Y-47636536D01*
X118777935Y-47435492D01*
X118262677Y-47333000D01*
X117737323Y-47333000D01*
X117222065Y-47435492D01*
X116736702Y-47636536D01*
X116299887Y-47928406D01*
X115928406Y-48299887D01*
X115636536Y-48736702D01*
X115435492Y-49222065D01*
X115333000Y-49737323D01*
X113841600Y-49737323D01*
X113841600Y-44184640D01*
X158700401Y-44184640D01*
X158700400Y-133422320D01*
G37*
%TD.AperFunction*%
%TD*%
M02*
